  0
SECTION
  2
HEADER
  9
$ACADVER
  1
AC1015
  9
$ACADMAINTVER
 70
     6
  9
$DWGCODEPAGE
  3
ANSI_1254
  9
$INSBASE
 10
0.0
 20
0.0
 30
0.0
  9
$EXTMIN
 10
0.0
 20
0.0
 30
0.0
  9
$EXTMAX
 10
279.4
 20
215.9
 30
0.0
  9
$LIMMIN
 10
0.0
 20
0.0
  9
$LIMMAX
 10
279.4
 20
215.9
  9
$ORTHOMODE
 70
     0
  9
$REGENMODE
 70
     1
  9
$FILLMODE
 70
     1
  9
$QTEXTMODE
 70
     0
  9
$MIRRTEXT
 70
     1
  9
$LTSCALE
 40
1.0
  9
$ATTMODE
 70
     1
  9
$TEXTSIZE
 40
3.5
  9
$TRACEWID
 40
1.0
  9
$TEXTSTYLE
  7
Standard
  9
$CLAYER
  8
0
  9
$CELTYPE
  6
ByLayer
  9
$CECOLOR
 62
   256
  9
$CELTSCALE
 40
1.0
  9
$DISPSILH
 70
     0
  9
$DIMSCALE
 40
1.0
  9
$DIMASZ
 40
3.302
  9
$DIMEXO
 40
1.0
  9
$DIMDLI
 40
3.75
  9
$DIMRND
 40
0.0
  9
$DIMDLE
 40
0.0
  9
$DIMEXE
 40
1.0
  9
$DIMTP
 40
0.0
  9
$DIMTM
 40
0.0
  9
$DIMTXT
 40
3.5
  9
$DIMCEN
 40
2.5
  9
$DIMTSZ
 40
0.0
  9
$DIMTOL
 70
     0
  9
$DIMLIM
 70
     0
  9
$DIMTIH
 70
     1
  9
$DIMTOH
 70
     1
  9
$DIMSE1
 70
     0
  9
$DIMSE2
 70
     0
  9
$DIMTAD
 70
     1
  9
$DIMZIN
 70
     0
  9
$DIMBLK
  1

  9
$DIMASO
 70
     1
  9
$DIMSHO
 70
     1
  9
$DIMPOST
  1

  9
$DIMAPOST
  1

  9
$DIMALT
 70
     0
  9
$DIMALTD
 70
     3
  9
$DIMALTF
 40
0.0393700787
  9
$DIMLFAC
 40
0.5
  9
$DIMTOFL
 70
     1
  9
$DIMTVP
 40
0.0
  9
$DIMTIX
 70
     0
  9
$DIMSOXD
 70
     0
  9
$DIMSAH
 70
     0
  9
$DIMBLK1
  1

  9
$DIMBLK2
  1

  9
$DIMSTYLE
  2
ISO-25
  9
$DIMCLRD
 70
     0
  9
$DIMCLRE
 70
     0
  9
$DIMCLRT
 70
     0
  9
$DIMTFAC
 40
1.0
  9
$DIMGAP
 40
1.524
  9
$DIMJUST
 70
     0
  9
$DIMSD1
 70
     0
  9
$DIMSD2
 70
     0
  9
$DIMTOLJ
 70
     0
  9
$DIMTZIN
 70
     0
  9
$DIMALTZ
 70
     0
  9
$DIMALTTZ
 70
     0
  9
$DIMUPT
 70
     0
  9
$DIMDEC
 70
     2
  9
$DIMTDEC
 70
     2
  9
$DIMALTU
 70
     2
  9
$DIMALTTD
 70
     3
  9
$DIMTXSTY
  7
Standard
  9
$DIMAUNIT
 70
     0
  9
$DIMADEC
 70
     2
  9
$DIMALTRND
 40
0.0
  9
$DIMAZIN
 70
     0
  9
$DIMDSEP
 70
    44
  9
$DIMATFIT
 70
     3
  9
$DIMFRAC
 70
     0
  9
$DIMLDRBLK
  1

  9
$DIMLUNIT
 70
     2
  9
$DIMLWD
 70
    -2
  9
$DIMLWE
 70
    -2
  9
$DIMTMOVE
 70
     0
  9
$LUNITS
 70
     2
  9
$LUPREC
 70
     2
  9
$SKETCHINC
 40
1.0
  9
$FILLETRAD
 40
10.0
  9
$AUNITS
 70
     0
  9
$AUPREC
 70
     2
  9
$MENU
  1
.
  9
$ELEVATION
 40
0.0
  9
$PELEVATION
 40
0.0
  9
$THICKNESS
 40
0.0
  9
$LIMCHECK
 70
     0
  9
$CHAMFERA
 40
0.0
  9
$CHAMFERB
 40
0.0
  9
$CHAMFERC
 40
0.0
  9
$CHAMFERD
 40
0.0
  9
$SKPOLY
 70
     0
  9
$TDCREATE
 40
2458024.281145081
  9
$TDUCREATE
 40
2458024.572811748
  9
$TDUPDATE
 40
2458024.281153148
  9
$TDUUPDATE
 40
2458024.572819815
  9
$TDINDWG
 40
0.0000000116
  9
$TDUSRTIMER
 40
0.0000000116
  9
$USRTIMER
 70
     1
  9
$ANGBASE
 50
0.0
  9
$ANGDIR
 70
     0
  9
$PDMODE
 70
     0
  9
$PDSIZE
 40
-1.0
  9
$PLINEWID
 40
0.0
  9
$SPLFRAME
 70
     0
  9
$SPLINETYPE
 70
     6
  9
$SPLINESEGS
 70
     8
  9
$HANDSEED
  5
1A9
  9
$SURFTAB1
 70
     6
  9
$SURFTAB2
 70
     6
  9
$SURFTYPE
 70
     6
  9
$SURFU
 70
     6
  9
$SURFV
 70
     6
  9
$UCSBASE
  2

  9
$UCSNAME
  2

  9
$UCSORG
 10
0.0
 20
0.0
 30
0.0
  9
$UCSXDIR
 10
1.0
 20
0.0
 30
0.0
  9
$UCSYDIR
 10
0.0
 20
1.0
 30
0.0
  9
$UCSORTHOREF
  2

  9
$UCSORTHOVIEW
 70
     0
  9
$UCSORGTOP
 10
0.0
 20
0.0
 30
0.0
  9
$UCSORGBOTTOM
 10
0.0
 20
0.0
 30
0.0
  9
$UCSORGLEFT
 10
0.0
 20
0.0
 30
0.0
  9
$UCSORGRIGHT
 10
0.0
 20
0.0
 30
0.0
  9
$UCSORGFRONT
 10
0.0
 20
0.0
 30
0.0
  9
$UCSORGBACK
 10
0.0
 20
0.0
 30
0.0
  9
$PUCSBASE
  2

  9
$PUCSNAME
  2

  9
$PUCSORG
 10
0.0
 20
0.0
 30
0.0
  9
$PUCSXDIR
 10
1.0
 20
0.0
 30
0.0
  9
$PUCSYDIR
 10
0.0
 20
1.0
 30
0.0
  9
$PUCSORTHOREF
  2

  9
$PUCSORTHOVIEW
 70
     0
  9
$PUCSORGTOP
 10
0.0
 20
0.0
 30
0.0
  9
$PUCSORGBOTTOM
 10
0.0
 20
0.0
 30
0.0
  9
$PUCSORGLEFT
 10
0.0
 20
0.0
 30
0.0
  9
$PUCSORGRIGHT
 10
0.0
 20
0.0
 30
0.0
  9
$PUCSORGFRONT
 10
0.0
 20
0.0
 30
0.0
  9
$PUCSORGBACK
 10
0.0
 20
0.0
 30
0.0
  9
$USERI1
 70
     0
  9
$USERI2
 70
     0
  9
$USERI3
 70
     0
  9
$USERI4
 70
     0
  9
$USERI5
 70
     0
  9
$USERR1
 40
0.0
  9
$USERR2
 40
0.0
  9
$USERR3
 40
0.0
  9
$USERR4
 40
0.0
  9
$USERR5
 40
0.0
  9
$WORLDVIEW
 70
     1
  9
$SHADEDGE
 70
     3
  9
$SHADEDIF
 70
    70
  9
$TILEMODE
 70
     1
  9
$MAXACTVP
 70
    64
  9
$PINSBASE
 10
0.0
 20
0.0
 30
0.0
  9
$PLIMCHECK
 70
     0
  9
$PEXTMIN
 10
1.0000000000E+20
 20
1.0000000000E+20
 30
1.0000000000E+20
  9
$PEXTMAX
 10
-1.0000000000E+20
 20
-1.0000000000E+20
 30
-1.0000000000E+20
  9
$PLIMMIN
 10
0.0
 20
0.0
  9
$PLIMMAX
 10
420.0
 20
297.0
  9
$UNITMODE
 70
     0
  9
$VISRETAIN
 70
     1
  9
$PLINEGEN
 70
     0
  9
$PSLTSCALE
 70
     1
  9
$TREEDEPTH
 70
  3020
  9
$CMLSTYLE
  2
Standard
  9
$CMLJUST
 70
     0
  9
$CMLSCALE
 40
20.0
  9
$PROXYGRAPHICS
 70
     1
  9
$MEASUREMENT
 70
     1
  9
$CELWEIGHT
370
    -1
  9
$ENDCAPS
280
     0
  9
$JOINSTYLE
280
     0
  9
$LWDISPLAY
290
     1
  9
$INSUNITS
 70
     4
  9
$HYPERLINKBASE
  1

  9
$STYLESHEET
  1

  9
$XEDIT
290
     1
  9
$CEPSNTYPE
380
     0
  9
$PSTYLEMODE
290
     1
  9
$FINGERPRINTGUID
  2
{C6E354CB-F813-4E3A-B5BD-5E1748EFC36F}
  9
$VERSIONGUID
  2
{FAEB1C32-E019-11D5-929B-00C0DF256EC4}
  9
$EXTNAMES
290
     1
  9
$PSVPSCALE
 40
0.0
  9
$OLESTARTUP
290
     0
  0
ENDSEC
  0
SECTION
  2
CLASSES
  0
CLASS
  1
ACDBDICTIONARYWDFLT
  2
AcDbDictionaryWithDefault
  3
ObjectDBX Classes
 90
        0
280
     0
281
     0
  0
CLASS
  1
VISUALSTYLE
  2
AcDbVisualStyle
  3
ObjectDBX Classes
 90
     4095
280
     0
281
     0
  0
CLASS
  1
MATERIAL
  2
AcDbMaterial
  3
ObjectDBX Classes
 90
     1153
280
     0
281
     0
  0
CLASS
  1
SCALE
  2
AcDbScale
  3
ObjectDBX Classes
 90
     1153
280
     0
281
     0
  0
CLASS
  1
TABLESTYLE
  2
AcDbTableStyle
  3
ObjectDBX Classes
 90
     4095
280
     0
281
     0
  0
CLASS
  1
MLEADERSTYLE
  2
AcDbMLeaderStyle
  3
ACDB_MLEADERSTYLE_CLASS
 90
     4095
280
     0
281
     0
  0
CLASS
  1
SUN
  2
AcDbSun
  3
SCENEOE
 90
     1153
280
     0
281
     0
  0
CLASS
  1
ACDBPLACEHOLDER
  2
AcDbPlaceHolder
  3
ObjectDBX Classes
 90
        0
280
     0
281
     0
  0
CLASS
  1
LAYOUT
  2
AcDbLayout
  3
ObjectDBX Classes
 90
        0
280
     0
281
     0
  0
ENDSEC
  0
SECTION
  2
TABLES
  0
TABLE
  2
VPORT
  5
8
330
0
100
AcDbSymbolTable
 70
     1
  0
VPORT
  5
29
330
8
100
AcDbSymbolTableRecord
100
AcDbViewportTableRecord
  2
*Active
 70
     0
 10
0.0
 20
0.0
 11
1.0
 21
1.0
 12
139.7
 22
107.95
 13
0.0
 23
0.0
 14
10.0
 24
10.0
 15
10.0
 25
10.0
 16
0.0
 26
0.0
 36
1.0
 17
0.0
 27
0.0
 37
0.0
 40
215.9
 41
1.2941176471
 42
50.0
 43
0.0
 44
0.0
 50
0.0
 51
0.0
 71
     0
 72
  2000
 73
     1
 74
     3
 75
     0
 76
     0
 77
     0
 78
     0
281
     0
 65
     1
110
0.0
120
0.0
130
0.0
111
1.0
121
0.0
131
0.0
112
0.0
122
1.0
132
0.0
 79
     0
146
0.0
  0
ENDTAB
  0
TABLE
  2
LTYPE
  5
5
330
0
100
AcDbSymbolTable
 70
     6
  0
LTYPE
  5
14
330
5
100
AcDbSymbolTableRecord
100
AcDbLinetypeTableRecord
  2
ByBlock
 70
     0
  3

 72
    65
 73
     0
 40
0.0
  0
LTYPE
  5
15
330
5
100
AcDbSymbolTableRecord
100
AcDbLinetypeTableRecord
  2
ByLayer
 70
     0
  3

 72
    65
 73
     0
 40
0.0
  0
LTYPE
  5
16
330
5
100
AcDbSymbolTableRecord
100
AcDbLinetypeTableRecord
  2
Continuous
 70
     0
  3
Solid line
 72
    65
 73
     0
 40
0.0
  0
LTYPE
  5
6E
330
5
100
AcDbSymbolTableRecord
100
AcDbLinetypeTableRecord
  2
HIDDEN
 70
     0
  3
Hidden __ __ __ __ __ __ __ __ __ __ __ __ __ __
 72
    65
 73
     2
 40
1.905
 49
1.27
 74
     0
 49
-0.635
 74
     0
  0
LTYPE
  5
6F
330
5
100
AcDbSymbolTableRecord
100
AcDbLinetypeTableRecord
  2
PHANTOM
 70
     0
  3
Phantom ______  __  __  ______  __  __  ______
 72
    65
 73
     6
 40
12.7
 49
6.35
 74
     0
 49
-1.27
 74
     0
 49
1.27
 74
     0
 49
-1.27
 74
     0
 49
1.27
 74
     0
 49
-1.27
 74
     0
  0
LTYPE
  5
70
330
5
100
AcDbSymbolTableRecord
100
AcDbLinetypeTableRecord
  2
CENTER
 70
     0
  3
Center ____ _ ____ _ ____ _ ____ _ ____ _ ____
 72
    65
 73
     4
 40
10.16
 49
6.35
 74
     0
 49
-1.27
 74
     0
 49
1.27
 74
     0
 49
-1.27
 74
     0
  0
LTYPE
  5
71
330
5
100
AcDbSymbolTableRecord
100
AcDbLinetypeTableRecord
  2
CENTERX2
 70
     0
  3
Center (2x) ________  __  ________  __  _____
 72
    65
 73
     4
 40
20.32
 49
12.7
 74
     0
 49
-2.54
 74
     0
 49
2.54
 74
     0
 49
-2.54
 74
     0
  0
LTYPE
  5
72
330
5
100
AcDbSymbolTableRecord
100
AcDbLinetypeTableRecord
  2
DOT2
 70
     0
  3
Dot (.5x) ........................................
 72
    65
 73
     2
 40
0.635
 49
0.0
 74
     0
 49
-0.635
 74
     0
  0
ENDTAB
  0
TABLE
  2
LAYER
  5
2
330
0
100
AcDbSymbolTable
 70
     2
  0
LAYER
  5
10
330
2
100
AcDbSymbolTableRecord
100
AcDbLayerTableRecord
  2
0
 70
     0
 62
     7
  6
Continuous
370
    -3
390
F
  0
LAYER
  5
73
330
2
100
AcDbSymbolTableRecord
100
AcDbLayerTableRecord
  2
FORMAT
 70
     0
 62
     7
  6
Continuous
370
    -3
390
F
  0
ENDTAB
  0
TABLE
  2
STYLE
  5
3
330
0
100
AcDbSymbolTable
 70
     4
  0
STYLE
  5
11
330
3
100
AcDbSymbolTableRecord
100
AcDbTextStyleTableRecord
  2
Standard
 70
     0
 40
0.0
 41
1.0
 50
0.0
 71
     0
 42
3.5
  3
txt
  4

  0
STYLE
  5
A0
330
3
100
AcDbSymbolTableRecord
100
AcDbTextStyleTableRecord
  2
SLDTEXTSTYLE0
 70
     0
 40
0.0
 41
0.75
 50
0.0
 71
     0
 42
3.5
  3
TXT
  4

  0
STYLE
  5
AF
330
3
100
AcDbSymbolTableRecord
100
AcDbTextStyleTableRecord
  2
SLDTEXTSTYLE1
 70
     0
 40
0.0
 41
0.6944444444
 50
0.0
 71
     0
 42
3.5
  3
TXT
  4

  0
STYLE
  5
DA
330
3
100
AcDbSymbolTableRecord
100
AcDbTextStyleTableRecord
  2
SLDTEXTSTYLE2
 70
     0
 40
0.0
 41
0.6875
 50
0.0
 71
     0
 42
3.5
  3
TXT
  4

  0
ENDTAB
  0
TABLE
  2
VIEW
  5
6
330
0
100
AcDbSymbolTable
 70
     0
  0
ENDTAB
  0
TABLE
  2
UCS
  5
7
330
0
100
AcDbSymbolTable
 70
     0
  0
ENDTAB
  0
TABLE
  2
APPID
  5
9
330
0
100
AcDbSymbolTable
 70
     1
  0
APPID
  5
12
330
9
100
AcDbSymbolTableRecord
100
AcDbRegAppTableRecord
  2
ACAD
 70
     0
  0
ENDTAB
  0
TABLE
  2
DIMSTYLE
  5
A
330
0
100
AcDbSymbolTable
 70
     4
100
AcDbDimStyleTable
  0
DIMSTYLE
105
27
330
A
100
AcDbSymbolTableRecord
100
AcDbDimStyleTableRecord
  2
ISO-25
 70
     0
 41
2.5
 42
0.625
 43
3.75
 44
1.25
 73
     0
 74
     0
 77
     1
 78
     8
140
2.5
141
2.5
143
0.0393700787
147
0.625
171
     3
172
     1
178
     0
271
     2
272
     2
274
     3
278
    44
283
     0
284
     8
340
11
  0
DIMSTYLE
105
16D
102
{ACAD_REACTORS
330
16C
102
}
330
A
100
AcDbSymbolTableRecord
100
AcDbDimStyleTableRecord
  2
SLDDIMSTYLE0
 70
     0
 41
3.302
 44
0.0
 45
0.000000001
 73
     0
 74
     0
 77
     1
 78
    12
 79
     3
140
3.5
141
0.0
144
0.5
147
0.875
173
     1
178
     0
271
     2
272
     2
276
     2
284
    12
340
A0
  0
DIMSTYLE
105
176
102
{ACAD_REACTORS
330
175
330
17E
102
}
330
A
100
AcDbSymbolTableRecord
100
AcDbDimStyleTableRecord
  2
SLDDIMSTYLE1
 70
     0
 41
3.302
 44
0.0
 45
0.000000001
 73
     0
 74
     0
 77
     1
 78
    12
 79
     3
140
3.5
141
0.0
144
0.5
147
0.875
173
     1
178
     0
271
     2
272
     2
276
     2
284
    12
340
A0
  0
DIMSTYLE
105
187
102
{ACAD_REACTORS
330
186
102
}
330
A
100
AcDbSymbolTableRecord
100
AcDbDimStyleTableRecord
  2
SLDDIMSTYLE2
 70
     0
 41
3.302
 44
0.0
 45
0.000000001
 73
     0
 74
     0
 77
     1
 78
    12
 79
     3
140
3.5
144
0.5
147
0.875
173
     1
178
     0
271
     2
272
     2
276
     2
284
    12
340
A0
  0
ENDTAB
  0
TABLE
  2
BLOCK_RECORD
  5
1
330
0
100
AcDbSymbolTable
 70
    10
  0
BLOCK_RECORD
  5
1F
330
1
100
AcDbSymbolTableRecord
100
AcDbBlockTableRecord
  2
*Model_Space
340
22
  0
BLOCK_RECORD
  5
1B
330
1
100
AcDbSymbolTableRecord
100
AcDbBlockTableRecord
  2
*Paper_Space
340
1E
  0
BLOCK_RECORD
  5
23
330
1
100
AcDbSymbolTableRecord
100
AcDbBlockTableRecord
  2
*Paper_Space0
340
26
  0
BLOCK_RECORD
  5
A7
330
1
100
AcDbSymbolTableRecord
100
AcDbBlockTableRecord
  2
SW_NOTE_0
340
0
102
{BLKREFS
331
AC
102
}
  0
BLOCK_RECORD
  5
B4
330
1
100
AcDbSymbolTableRecord
100
AcDbBlockTableRecord
  2
SW_NOTE_1
340
0
102
{BLKREFS
331
C3
102
}
  0
BLOCK_RECORD
  5
CC
330
1
100
AcDbSymbolTableRecord
100
AcDbBlockTableRecord
  2
SW_NOTE_2
340
0
102
{BLKREFS
331
D6
102
}
  0
BLOCK_RECORD
  5
16E
330
1
100
AcDbSymbolTableRecord
100
AcDbBlockTableRecord
  2
_D
340
0
  0
BLOCK_RECORD
  5
177
330
1
100
AcDbSymbolTableRecord
100
AcDbBlockTableRecord
  2
_D_1
340
0
  0
BLOCK_RECORD
  5
17F
330
1
100
AcDbSymbolTableRecord
100
AcDbBlockTableRecord
  2
_D_2
340
0
  0
BLOCK_RECORD
  5
188
330
1
100
AcDbSymbolTableRecord
100
AcDbBlockTableRecord
  2
_D_3
340
0
  0
BLOCK_RECORD
  5
191
330
1
100
AcDbSymbolTableRecord
100
AcDbBlockTableRecord
  2
SW_CENTERMARKSYMBOL_0
340
0
102
{BLKREFS
331
19C
102
}
  0
BLOCK_RECORD
  5
19D
330
1
100
AcDbSymbolTableRecord
100
AcDbBlockTableRecord
  2
SW_CENTERMARKSYMBOL_1
340
0
102
{BLKREFS
331
1A8
102
}
  0
ENDTAB
  0
ENDSEC
  0
SECTION
  2
BLOCKS
  0
BLOCK
  5
20
330
1F
100
AcDbEntity
  8
0
100
AcDbBlockBegin
  2
*Model_Space
 70
     0
 10
0.0
 20
0.0
 30
0.0
  3
*Model_Space
  1

  0
ENDBLK
  5
21
330
1F
100
AcDbEntity
  8
0
100
AcDbBlockEnd
  0
BLOCK
  5
1C
330
1B
100
AcDbEntity
 67
     1
  8
0
100
AcDbBlockBegin
  2
*Paper_Space
 70
     0
 10
0.0
 20
0.0
 30
0.0
  3
*Paper_Space
  1

  0
ENDBLK
  5
1D
330
1B
100
AcDbEntity
 67
     1
  8
0
100
AcDbBlockEnd
  0
BLOCK
  5
24
330
23
100
AcDbEntity
  8
0
100
AcDbBlockBegin
  2
*Paper_Space0
 70
     0
 10
0.0
 20
0.0
 30
0.0
  3
*Paper_Space0
  1

  0
ENDBLK
  5
25
330
23
100
AcDbEntity
  8
0
100
AcDbBlockEnd
  0
BLOCK
  5
A8
330
A7
100
AcDbEntity
  8
0
100
AcDbBlockBegin
  2
SW_NOTE_0
 70
     0
 10
0.0
 20
0.0
 30
0.0
  3
SW_NOTE_0
  1

  0
MTEXT
  5
AA
330
A7
100
AcDbEntity
  8
0
  6
Continuous
 62
     0
370
     0
100
AcDbMText
 10
0.0
 20
1.9645392354
 30
0.0
 40
1.524
 41
0.0
 71
     1
 72
     1
  1
INTERPRET GEOMETRIC
  7
SLDTEXTSTYLE0
 73
     1
 44
1.0
  0
MTEXT
  5
AB
330
A7
100
AcDbEntity
  8
0
  6
Continuous
 62
     0
370
     0
100
AcDbMText
 10
0.0
 20
-0.5594606586
 30
0.0
 40
1.524
 41
0.0
 71
     1
 72
     1
  1
TOLERANCING PER:
  7
SLDTEXTSTYLE0
 73
     1
 44
1.0
  0
ENDBLK
  5
A9
330
A7
100
AcDbEntity
  8
0
100
AcDbBlockEnd
  0
BLOCK
  5
B5
330
B4
100
AcDbEntity
  8
0
100
AcDbBlockBegin
  2
SW_NOTE_1
 70
     0
 10
0.0
 20
0.0
 30
0.0
  3
SW_NOTE_1
  1

  0
MTEXT
  5
B7
330
B4
100
AcDbEntity
  8
0
  6
Continuous
 62
     0
370
     0
100
AcDbMText
 10
0.0
 20
2.1282508384
 30
0.0
 40
1.651
 41
0.0
 71
     1
 72
     1
  1
DIMENSIONS ARE IN INCHES
  7
SLDTEXTSTYLE0
 73
     1
 44
1.0
  0
MTEXT
  5
B8
330
B4
100
AcDbEntity
  8
0
  6
Continuous
 62
     0
370
     0
100
AcDbMText
 10
0.0
 20
-0.5227490914
 30
0.0
 40
1.651
 41
0.0
 71
     1
 72
     1
  1
TOLERANCES:
  7
SLDTEXTSTYLE0
 73
     1
 44
1.0
  0
MTEXT
  5
B9
330
B4
100
AcDbEntity
  8
0
  6
Continuous
 62
     0
370
     0
100
AcDbMText
 10
0.0
 20
-3.1737490211
 30
0.0
 40
1.651
 41
0.0
 71
     1
 72
     1
  1
FRACTIONAL
  7
SLDTEXTSTYLE0
 73
     1
 44
1.0
  0
MTEXT
  5
BA
330
B4
100
AcDbEntity
  8
0
  6
Continuous
 62
     0
370
     0
100
AcDbMText
 10
13.1466602907
 20
-3.1737490211
 30
0.0
 40
1.651
 41
0.0
 71
     1
 72
     1
  1
%%p
  7
SLDTEXTSTYLE0
 73
     1
 44
1.0
  0
MTEXT
  5
BB
330
B4
100
AcDbEntity
  8
0
  6
Continuous
 62
     0
370
     0
100
AcDbMText
 10
0.0
 20
-5.8247489509
 30
0.0
 40
1.651
 41
0.0
 71
     1
 72
     1
  1
ANGULAR: MACH
  7
SLDTEXTSTYLE0
 73
     1
 44
1.0
  0
MTEXT
  5
BC
330
B4
100
AcDbEntity
  8
0
  6
Continuous
 62
     0
370
     0
100
AcDbMText
 10
18.3736812323
 20
-5.8247489509
 30
0.0
 40
1.651
 41
0.0
 71
     1
 72
     1
  1
%%p
  7
SLDTEXTSTYLE0
 73
     1
 44
1.0
  0
MTEXT
  5
BD
330
B4
100
AcDbEntity
  8
0
  6
Continuous
 62
     0
370
     0
100
AcDbMText
 10
23.0418835151
 20
-5.8247489509
 30
0.0
 40
1.651
 41
0.0
 71
     1
 72
     1
  1
BEND
  7
SLDTEXTSTYLE0
 73
     1
 44
1.0
  0
MTEXT
  5
BE
330
B4
100
AcDbEntity
  8
0
  6
Continuous
 62
     0
370
     0
100
AcDbMText
 10
29.1551686823
 20
-5.8247489509
 30
0.0
 40
1.651
 41
0.0
 71
     1
 72
     1
  1
%%p
  7
SLDTEXTSTYLE0
 73
     1
 44
1.0
  0
MTEXT
  5
BF
330
B4
100
AcDbEntity
  8
0
  6
Continuous
 62
     0
370
     0
100
AcDbMText
 10
0.0
 20
-8.4757488807
 30
0.0
 40
1.651
 41
0.0
 71
     1
 72
     1
  1
TWO PLACE DECIMAL
  7
SLDTEXTSTYLE0
 73
     1
 44
1.0
  0
MTEXT
  5
C0
330
B4
100
AcDbEntity
  8
0
  6
Continuous
 62
     0
370
     0
100
AcDbMText
 10
24.877646938
 20
-8.4757488807
 30
0.0
 40
1.651
 41
0.0
 71
     1
 72
     1
  1
%%p
  7
SLDTEXTSTYLE0
 73
     1
 44
1.0
  0
MTEXT
  5
C1
330
B4
100
AcDbEntity
  8
0
  6
Continuous
 62
     0
370
     0
100
AcDbMText
 10
0.0
 20
-11.1267488104
 30
0.0
 40
1.651
 41
0.0
 71
     1
 72
     1
  1
THREE PLACE DECIMAL
  7
SLDTEXTSTYLE0
 73
     1
 44
1.0
  0
MTEXT
  5
C2
330
B4
100
AcDbEntity
  8
0
  6
Continuous
 62
     0
370
     0
100
AcDbMText
 10
24.7346162796
 20
-11.1267488104
 30
0.0
 40
1.651
 41
0.0
 71
     1
 72
     1
  1
%%p
  7
SLDTEXTSTYLE0
 73
     1
 44
1.0
  0
ENDBLK
  5
B6
330
B4
100
AcDbEntity
  8
0
100
AcDbBlockEnd
  0
BLOCK
  5
CD
330
CC
100
AcDbEntity
  8
0
100
AcDbBlockBegin
  2
SW_NOTE_2
 70
     0
 10
0.0
 20
0.0
 30
0.0
  3
SW_NOTE_2
  1

  0
MTEXT
  5
CF
330
CC
100
AcDbEntity
  8
0
  6
Continuous
 62
     0
370
     0
100
AcDbMText
 10
0.0
 20
1.9645392354
 30
0.0
 40
1.524
 41
0.0
 71
     1
 72
     1
  1
THE INFORMATION CONTAINED IN THIS
  7
SLDTEXTSTYLE0
 73
     1
 44
1.0
  0
MTEXT
  5
D0
330
CC
100
AcDbEntity
  8
0
  6
Continuous
 62
     0
370
     0
100
AcDbMText
 10
0.0
 20
-0.5594606586
 30
0.0
 40
1.524
 41
0.0
 71
     1
 72
     1
  1
DRAWING IS THE SOLE PROPERTY OF
  7
SLDTEXTSTYLE0
 73
     1
 44
1.0
  0
MTEXT
  5
D1
330
CC
100
AcDbEntity
  8
0
  6
Continuous
 62
     0
370
     0
100
AcDbMText
 10
0.0
 20
-3.0834605527
 30
0.0
 40
1.524
 41
0.0
 71
     1
 72
     1
  1
<INSERT COMPANY NAME HERE>.  ANY
  7
SLDTEXTSTYLE0
 73
     1
 44
1.0
  0
MTEXT
  5
D2
330
CC
100
AcDbEntity
  8
0
  6
Continuous
 62
     0
370
     0
100
AcDbMText
 10
0.0
 20
-5.6074604467
 30
0.0
 40
1.524
 41
0.0
 71
     1
 72
     1
  1
REPRODUCTION IN PART OR AS A WHOLE
  7
SLDTEXTSTYLE0
 73
     1
 44
1.0
  0
MTEXT
  5
D3
330
CC
100
AcDbEntity
  8
0
  6
Continuous
 62
     0
370
     0
100
AcDbMText
 10
0.0
 20
-8.1314603407
 30
0.0
 40
1.524
 41
0.0
 71
     1
 72
     1
  1
WITHOUT THE WRITTEN PERMISSION OF
  7
SLDTEXTSTYLE0
 73
     1
 44
1.0
  0
MTEXT
  5
D4
330
CC
100
AcDbEntity
  8
0
  6
Continuous
 62
     0
370
     0
100
AcDbMText
 10
0.0
 20
-10.6554602348
 30
0.0
 40
1.524
 41
0.0
 71
     1
 72
     1
  1
<INSERT COMPANY NAME HERE> IS
  7
SLDTEXTSTYLE0
 73
     1
 44
1.0
  0
MTEXT
  5
D5
330
CC
100
AcDbEntity
  8
0
  6
Continuous
 62
     0
370
     0
100
AcDbMText
 10
0.0
 20
-13.1794601288
 30
0.0
 40
1.524
 41
0.0
 71
     1
 72
     1
  1
PROHIBITED.
  7
SLDTEXTSTYLE0
 73
     1
 44
1.0
  0
ENDBLK
  5
CE
330
CC
100
AcDbEntity
  8
0
100
AcDbBlockEnd
  0
BLOCK
  5
16F
330
16E
100
AcDbEntity
  8
0
100
AcDbBlockBegin
  2
_D
 70
     0
 10
0.0
 20
0.0
 30
0.0
  3
_D
  1

  0
SOLID
  5
171
330
16E
100
AcDbEntity
  8
0
  6
Continuous
 62
     7
370
     0
100
AcDbTrace
 10
101.0983591846
 20
121.8516818876
 30
0.0
 11
97.7773920313
 21
121.4877517205
 31
0.0
 12
98.0403521811
 22
120.5063710809
 32
0.0
 13
98.0403521811
 23
120.5063710809
 33
0.0
  0
LINE
  5
172
330
16E
100
AcDbEntity
  8
0
  6
Continuous
 62
     7
370
     0
100
AcDbLine
 10
101.0983591846
 20
121.8516818876
 30
0.0
 11
71.6613078911
 21
113.964047766
 31
0.0
  0
LINE
  5
173
330
16E
100
AcDbEntity
  8
0
  6
Continuous
 62
     7
370
     0
100
AcDbLine
 10
101.0983591846
 20
121.8516818876
 30
0.0
 11
104.9620624898
 21
122.886958068
 31
0.0
  0
MTEXT
  5
174
330
16E
100
AcDbEntity
  8
0
  6
Continuous
 62
     7
370
     0
100
AcDbMText
 10
70.4962981664
 20
118.31192325
 30
0.0
 40
3.5
 41
0.0
 71
     1
 72
     1
  1
R2
  7
SLDTEXTSTYLE0
 11
0.9659258262890682
 21
0.2588190451025209
 31
0.0
 73
     1
 44
1.0
  0
ENDBLK
  5
170
330
16E
100
AcDbEntity
  8
0
100
AcDbBlockEnd
  0
BLOCK
  5
178
330
177
100
AcDbEntity
  8
0
100
AcDbBlockBegin
  2
_D_1
 70
     0
 10
0.0
 20
0.0
 30
0.0
  3
_D_1
  1

  0
SOLID
  5
17A
330
177
100
AcDbEntity
  8
0
  6
Continuous
 62
     7
370
     0
100
AcDbTrace
 10
129.1998226743
 20
117.4665081967
 30
0.0
 11
128.6918226743
 21
114.1645081967
 31
0.0
 12
129.7078226743
 22
114.1645081967
 32
0.0
 13
129.7078226743
 23
114.1645081967
 33
0.0
  0
LINE
  5
17B
330
177
100
AcDbEntity
  8
0
  6
Continuous
 62
     7
370
     0
100
AcDbLine
 10
129.1998226743
 20
117.4665081967
 30
0.0
 11
129.1998226743
 21
88.9791332587
 31
0.0
  0
LINE
  5
17C
330
177
100
AcDbEntity
  8
0
  6
Continuous
 62
     7
370
     0
100
AcDbLine
 10
129.1998226743
 20
117.4665081967
 30
0.0
 11
129.1998226743
 21
328.9665081967
 31
0.0
  0
MTEXT
  5
17D
330
177
100
AcDbEntity
  8
0
  6
Continuous
 62
     7
370
     0
100
AcDbMText
 10
124.6882858239
 20
88.9791332587
 30
0.0
 40
3.5
 41
0.0
 71
     1
 72
     1
  1
R105,75
  7
SLDTEXTSTYLE0
 11
-3.491481338843133E-15
 21
1.0
 31
0.0
 73
     1
 44
1.0
  0
ENDBLK
  5
179
330
177
100
AcDbEntity
  8
0
100
AcDbBlockEnd
  0
BLOCK
  5
180
330
17F
100
AcDbEntity
  8
0
100
AcDbBlockBegin
  2
_D_2
 70
     0
 10
0.0
 20
0.0
 30
0.0
  3
_D_2
  1

  0
SOLID
  5
182
330
17F
100
AcDbEntity
  8
0
  6
Continuous
 62
     7
370
     0
100
AcDbTrace
 10
99.8643143737
 20
132.9608566055
 30
0.0
 11
96.5321640472
 21
133.2017760967
 31
0.0
 12
96.6138368164
 22
132.1890641145
 32
0.0
 13
96.6138368164
 23
132.1890641145
 33
0.0
  0
LINE
  5
183
330
17F
100
AcDbEntity
  8
0
  6
Continuous
 62
     7
370
     0
100
AcDbLine
 10
99.8643143737
 20
132.9608566055
 30
0.0
 11
68.4352659436
 21
130.4261799516
 31
0.0
  0
LINE
  5
184
330
17F
100
AcDbEntity
  8
0
  6
Continuous
 62
     7
370
     0
100
AcDbLine
 10
99.8643143737
 20
132.9608566055
 30
0.0
 11
304.5282593512
 21
149.4665081967
 31
0.0
  0
MTEXT
  5
185
330
17F
100
AcDbEntity
  8
0
  6
Continuous
 62
     7
370
     0
100
AcDbMText
 10
68.0725993518
 20
134.9231108952
 30
0.0
 40
3.5
 41
0.0
 71
     1
 72
     1
  1
R102,66
  7
SLDTEXTSTYLE0
 11
0.9967637619502936
 21
0.08038658384766982
 31
0.0
 73
     1
 44
1.0
  0
ENDBLK
  5
181
330
17F
100
AcDbEntity
  8
0
100
AcDbBlockEnd
  0
BLOCK
  5
189
330
188
100
AcDbEntity
  8
0
100
AcDbBlockBegin
  2
_D_3
 70
     0
 10
0.0
 20
0.0
 30
0.0
  3
_D_3
  1

  0
SOLID
  5
18B
330
188
100
AcDbEntity
  8
0
  6
Continuous
 62
     7
370
     0
100
AcDbTrace
 10
100.9970747284
 20
84.8613500337
 30
0.0
 11
104.2990747284
 21
84.3533500337
 31
0.0
 12
104.2990747284
 22
85.3693500337
 32
0.0
 13
104.2990747284
 23
85.3693500337
 33
0.0
  0
SOLID
  5
18C
330
188
100
AcDbEntity
  8
0
  6
Continuous
 62
     7
370
     0
100
AcDbTrace
 10
157.4025706202
 20
84.8613500337
 30
0.0
 11
154.1005706202
 21
85.3693500337
 31
0.0
 12
154.1005706202
 22
84.3533500337
 32
0.0
 13
154.1005706202
 23
84.3533500337
 33
0.0
  0
LINE
  5
18D
330
188
100
AcDbEntity
  8
0
  6
Continuous
 62
     7
370
     0
100
AcDbLine
 10
100.9970747284
 20
121.3588746921
 30
0.0
 11
100.9970747284
 21
83.8613500337
 31
0.0
  0
LINE
  5
18E
330
188
100
AcDbEntity
  8
0
  6
Continuous
 62
     7
370
     0
100
AcDbLine
 10
157.4025706202
 20
121.3588746921
 30
0.0
 11
157.4025706202
 21
83.8613500337
 31
0.0
  0
LINE
  5
18F
330
188
100
AcDbEntity
  8
0
  6
Continuous
 62
     7
370
     0
100
AcDbLine
 10
100.9970747284
 20
84.8613500337
 30
0.0
 11
157.4025706202
 21
84.8613500337
 31
0.0
  0
MTEXT
  5
190
330
188
100
AcDbEntity
  8
0
  6
Continuous
 62
     7
370
     0
100
AcDbMText
 10
140.5747544822
 20
89.3730869482
 30
0.0
 40
3.5
 41
0.0
 71
     1
 72
     1
  1
28,20
  7
SLDTEXTSTYLE0
 73
     1
 44
1.0
  0
ENDBLK
  5
18A
330
188
100
AcDbEntity
  8
0
100
AcDbBlockEnd
  0
BLOCK
  5
192
330
191
100
AcDbEntity
  8
0
100
AcDbBlockBegin
  2
SW_CENTERMARKSYMBOL_0
 70
     0
 10
0.0
 20
0.0
 30
0.0
  3
SW_CENTERMARKSYMBOL_0
  1

  0
LINE
  5
194
330
191
100
AcDbEntity
  8
0
  6
Continuous
 62
     0
370
     0
100
AcDbLine
 10
0.0
 20
0.0
 30
0.0
 11
0.0
 21
5.0
 31
0.0
  0
LINE
  5
195
330
191
100
AcDbEntity
  8
0
  6
Continuous
 62
     0
370
     0
100
AcDbLine
 10
0.0
 20
0.0
 30
0.0
 11
-5.0
 21
0.0
 31
0.0
  0
LINE
  5
196
330
191
100
AcDbEntity
  8
0
  6
Continuous
 62
     0
370
     0
100
AcDbLine
 10
0.0
 20
0.0
 30
0.0
 11
0.0
 21
-5.0
 31
0.0
  0
LINE
  5
197
330
191
100
AcDbEntity
  8
0
  6
Continuous
 62
     0
370
     0
100
AcDbLine
 10
0.0
 20
0.0
 30
0.0
 11
5.0
 21
0.0
 31
0.0
  0
LINE
  5
198
330
191
100
AcDbEntity
  8
0
  6
Continuous
 62
     0
370
     0
100
AcDbLine
 10
0.0
 20
5.0
 30
0.0
 11
0.0
 21
6.4840272952
 31
0.0
  0
LINE
  5
199
330
191
100
AcDbEntity
  8
0
  6
Continuous
 62
     0
370
     0
100
AcDbLine
 10
-5.0
 20
0.0
 30
0.0
 11
-6.4840272952
 21
0.0
 31
0.0
  0
LINE
  5
19A
330
191
100
AcDbEntity
  8
0
  6
Continuous
 62
     0
370
     0
100
AcDbLine
 10
0.0
 20
-5.0
 30
0.0
 11
0.0
 21
-6.4840272952
 31
0.0
  0
LINE
  5
19B
330
191
100
AcDbEntity
  8
0
  6
Continuous
 62
     0
370
     0
100
AcDbLine
 10
5.0
 20
0.0
 30
0.0
 11
6.4840272952
 21
0.0
 31
0.0
  0
ENDBLK
  5
193
330
191
100
AcDbEntity
  8
0
100
AcDbBlockEnd
  0
BLOCK
  5
19E
330
19D
100
AcDbEntity
  8
0
100
AcDbBlockBegin
  2
SW_CENTERMARKSYMBOL_1
 70
     0
 10
0.0
 20
0.0
 30
0.0
  3
SW_CENTERMARKSYMBOL_1
  1

  0
LINE
  5
1A0
330
19D
100
AcDbEntity
  8
0
  6
Continuous
 62
     0
370
     0
100
AcDbLine
 10
0.0
 20
0.0
 30
0.0
 11
0.0
 21
5.0
 31
0.0
  0
LINE
  5
1A1
330
19D
100
AcDbEntity
  8
0
  6
Continuous
 62
     0
370
     0
100
AcDbLine
 10
0.0
 20
0.0
 30
0.0
 11
-5.0
 21
0.0
 31
0.0
  0
LINE
  5
1A2
330
19D
100
AcDbEntity
  8
0
  6
Continuous
 62
     0
370
     0
100
AcDbLine
 10
0.0
 20
0.0
 30
0.0
 11
0.0
 21
-5.0
 31
0.0
  0
LINE
  5
1A3
330
19D
100
AcDbEntity
  8
0
  6
Continuous
 62
     0
370
     0
100
AcDbLine
 10
0.0
 20
0.0
 30
0.0
 11
5.0
 21
0.0
 31
0.0
  0
LINE
  5
1A4
330
19D
100
AcDbEntity
  8
0
  6
Continuous
 62
     0
370
     0
100
AcDbLine
 10
0.0
 20
5.0
 30
0.0
 11
0.0
 21
6.4840272952
 31
0.0
  0
LINE
  5
1A5
330
19D
100
AcDbEntity
  8
0
  6
Continuous
 62
     0
370
     0
100
AcDbLine
 10
-5.0
 20
0.0
 30
0.0
 11
-6.4840272952
 21
0.0
 31
0.0
  0
LINE
  5
1A6
330
19D
100
AcDbEntity
  8
0
  6
Continuous
 62
     0
370
     0
100
AcDbLine
 10
0.0
 20
-5.0
 30
0.0
 11
0.0
 21
-6.4840272952
 31
0.0
  0
LINE
  5
1A7
330
19D
100
AcDbEntity
  8
0
  6
Continuous
 62
     0
370
     0
100
AcDbLine
 10
5.0
 20
0.0
 30
0.0
 11
6.4840272952
 21
0.0
 31
0.0
  0
ENDBLK
  5
19F
330
19D
100
AcDbEntity
  8
0
100
AcDbBlockEnd
  0
ENDSEC
  0
SECTION
  2
ENTITIES
  0
LINE
  5
74
330
1F
100
AcDbEntity
  8
0
  6
Continuous
 62
     7
100
AcDbLine
 10
50.8
 20
812.8
 30
0.0
 11
50.8
 21
50.8
 31
0.0
  0
LINE
  5
75
330
1F
100
AcDbEntity
  8
0
  6
Continuous
 62
     7
100
AcDbLine
 10
558.8
 20
812.8
 30
0.0
 11
558.8
 21
850.9
 31
0.0
  0
LINE
  5
76
330
1F
100
AcDbEntity
  8
0
  6
Continuous
 62
     7
100
AcDbLine
 10
50.8
 20
431.8
 30
0.0
 11
12.7
 21
431.8
 31
0.0
  0
LINE
  5
77
330
1F
100
AcDbEntity
  8
0
  6
Continuous
 62
     7
100
AcDbLine
 10
558.8
 20
50.8
 30
0.0
 11
558.8
 21
12.7
 31
0.0
  0
LINE
  5
78
330
1F
100
AcDbEntity
  8
0
  6
Continuous
 62
     7
100
AcDbLine
 10
50.8
 20
812.8
 30
0.0
 11
1066.8
 21
812.8
 31
0.0
  0
LINE
  5
79
330
1F
100
AcDbEntity
  8
0
  6
Continuous
 62
     7
100
AcDbLine
 10
1066.8
 20
812.8
 30
0.0
 11
1066.8
 21
50.8
 31
0.0
  0
LINE
  5
7A
330
1F
100
AcDbEntity
  8
0
  6
Continuous
 62
     7
100
AcDbLine
 10
1066.8
 20
50.8
 30
0.0
 11
50.8
 21
50.8
 31
0.0
  0
LINE
  5
7B
330
1F
100
AcDbEntity
  8
0
  6
Continuous
 62
     7
100
AcDbLine
 10
1066.8
 20
431.8
 30
0.0
 11
1104.9
 21
431.8
 31
0.0
  0
LINE
  5
7C
330
1F
100
AcDbEntity
  8
0
  6
Continuous
 62
     7
370
     0
100
AcDbLine
 10
614.6503583374
 20
212.2777533324
 30
0.0
 11
786.5140484478
 21
212.2777533324
 31
0.0
  0
LINE
  5
7D
330
1F
100
AcDbEntity
  8
0
  6
Continuous
 62
     7
370
     0
100
AcDbLine
 10
786.5140484478
 20
123.9380884131
 30
0.0
 11
1066.8
 21
123.9380884131
 31
0.0
  0
LINE
  5
7E
330
1F
100
AcDbEntity
  8
0
  6
Continuous
 62
     7
370
     0
100
AcDbLine
 10
1066.8
 20
50.8
 30
0.0
 11
107.0760666983
 21
50.8
 31
0.0
  0
LINE
  5
7F
330
1F
100
AcDbEntity
  8
0
  6
Continuous
 62
     7
370
     0
100
AcDbLine
 10
826.7013947994
 20
123.9380884131
 30
0.0
 11
826.7013947994
 21
72.4292012796
 31
0.0
  0
LINE
  5
80
330
1F
100
AcDbEntity
  8
0
  6
Continuous
 62
     7
370
     0
100
AcDbLine
 10
374.8113090536
 20
250.3777533324
 30
0.0
 11
374.8113090536
 21
70.7415226399
 31
0.0
  0
LINE
  5
81
330
1F
100
AcDbEntity
  8
0
  6
Continuous
 62
     7
370
     0
100
AcDbLine
 10
273.4165278803
 20
70.7415226399
 30
0.0
 11
614.6503583374
 21
70.7415226399
 31
0.0
  0
LINE
  5
82
330
1F
100
AcDbEntity
  8
0
  6
Continuous
 62
     7
370
     0
100
AcDbLine
 10
273.4165278803
 20
50.8
 30
0.0
 11
273.4165278803
 21
250.3777533324
 31
0.0
  0
LINE
  5
83
330
1F
100
AcDbEntity
  8
0
  6
Continuous
 62
     7
370
     0
100
AcDbLine
 10
273.4165278803
 20
224.9777533324
 30
0.0
 11
474.2949242824
 21
224.9777533324
 31
0.0
  0
LINE
  5
84
330
1F
100
AcDbEntity
  8
0
  6
Continuous
 62
     7
370
     0
100
AcDbLine
 10
786.5140484478
 20
250.3777533324
 30
0.0
 11
786.5140484478
 21
50.8
 31
0.0
  0
LINE
  5
85
330
1F
100
AcDbEntity
  8
0
  6
Continuous
 62
     7
370
     0
100
AcDbLine
 10
273.4165278803
 20
250.3777533324
 30
0.0
 11
1066.8
 21
250.3777533324
 31
0.0
  0
LINE
  5
86
330
1F
100
AcDbEntity
  8
0
  6
Continuous
 62
     7
370
     0
100
AcDbLine
 10
786.5140484478
 20
155.1277533324
 30
0.0
 11
614.6503583374
 21
155.1277533324
 31
0.0
  0
LINE
  5
87
330
1F
100
AcDbEntity
  8
0
  6
Continuous
 62
     7
370
     0
100
AcDbLine
 10
273.4165278803
 20
199.5777533324
 30
0.0
 11
474.2949242824
 21
199.5777533324
 31
0.0
  0
LINE
  5
88
330
1F
100
AcDbEntity
  8
0
  6
Continuous
 62
     7
370
     0
100
AcDbLine
 10
1008.6913739788
 20
123.9380884131
 30
0.0
 11
1008.6913739788
 21
72.4292012796
 31
0.0
  0
LINE
  5
89
330
1F
100
AcDbEntity
  8
0
  6
Continuous
 62
     7
370
     0
100
AcDbLine
 10
786.5140484478
 20
213.075235532
 30
0.0
 11
1066.8
 21
213.075235532
 31
0.0
  0
LINE
  5
8A
330
1F
100
AcDbEntity
  8
0
  6
Continuous
 62
     7
370
     0
100
AcDbLine
 10
1066.8
 20
250.3777533324
 30
0.0
 11
1066.8
 21
50.8
 31
0.0
  0
LINE
  5
8B
330
1F
100
AcDbEntity
  8
0
  6
Continuous
 62
     7
370
     0
100
AcDbLine
 10
968.8909921708
 20
72.4292012796
 30
0.0
 11
968.8909921708
 21
50.8
 31
0.0
  0
LINE
  5
8C
330
1F
100
AcDbEntity
  8
0
  6
Continuous
 62
     7
370
     0
100
AcDbLine
 10
273.4165278803
 20
97.9777533324
 30
0.0
 11
474.2949242824
 21
97.9777533324
 31
0.0
  0
LINE
  5
8D
330
1F
100
AcDbEntity
  8
0
  6
Continuous
 62
     7
370
     0
100
AcDbLine
 10
273.4165278803
 20
148.7777533324
 30
0.0
 11
474.2949242824
 21
148.7777533324
 31
0.0
  0
LINE
  5
8E
330
1F
100
AcDbEntity
  8
0
  6
Continuous
 62
     7
370
     0
100
AcDbLine
 10
690.2403095538
 20
250.3777533324
 30
0.0
 11
690.2403095538
 21
136.0777533324
 31
0.0
  0
LINE
  5
8F
330
1F
100
AcDbEntity
  8
0
  6
Continuous
 62
     7
370
     0
100
AcDbLine
 10
273.4165278803
 20
174.1777533324
 30
0.0
 11
474.2949242824
 21
174.1777533324
 31
0.0
  0
LINE
  5
90
330
1F
100
AcDbEntity
  8
0
  6
Continuous
 62
     7
370
     0
100
AcDbLine
 10
614.6503583374
 20
250.3777533324
 30
0.0
 11
614.6503583374
 21
50.8
 31
0.0
  0
LINE
  5
91
330
1F
100
AcDbEntity
  8
0
  6
Continuous
 62
     7
370
     0
100
AcDbLine
 10
614.6503583374
 20
193.2277533324
 30
0.0
 11
786.5140484478
 21
193.2277533324
 31
0.0
  0
LINE
  5
92
330
1F
100
AcDbEntity
  8
0
  6
Continuous
 62
     7
370
     0
100
AcDbLine
 10
870.1447181869
 20
72.4292012796
 30
0.0
 11
870.1447181869
 21
50.8
 31
0.0
  0
LINE
  5
93
330
1F
100
AcDbEntity
  8
0
  6
Continuous
 62
     7
370
     0
100
AcDbLine
 10
786.5140484478
 20
136.0777533324
 30
0.0
 11
614.6503583374
 21
136.0777533324
 31
0.0
  0
LINE
  5
94
330
1F
100
AcDbEntity
  8
0
  6
Continuous
 62
     7
370
     0
100
AcDbLine
 10
474.2949242824
 20
152.7782933547
 30
0.0
 11
614.6503583374
 21
152.7782933547
 31
0.0
  0
LINE
  5
95
330
1F
100
AcDbEntity
  8
0
  6
Continuous
 62
     7
370
     0
100
AcDbLine
 10
474.2949242824
 20
50.8
 30
0.0
 11
474.2949242824
 21
250.3777533324
 31
0.0
  0
LINE
  5
96
330
1F
100
AcDbEntity
  8
0
  6
Continuous
 62
     7
370
     0
100
AcDbLine
 10
737.8426735426
 20
250.3777533324
 30
0.0
 11
737.8426735426
 21
136.0777533324
 31
0.0
  0
LINE
  5
97
330
1F
100
AcDbEntity
  8
0
  6
Continuous
 62
     7
370
     0
100
AcDbLine
 10
273.4165278803
 20
143.6977533324
 30
0.0
 11
107.0760666983
 21
143.6977533324
 31
0.0
  0
LINE
  5
98
330
1F
100
AcDbEntity
  8
0
  6
Continuous
 62
     7
370
     0
100
AcDbLine
 10
107.0760666983
 20
50.8
 30
0.0
 11
107.0760666983
 21
143.6977533324
 31
0.0
  0
LINE
  5
99
330
1F
100
AcDbEntity
  8
0
  6
Continuous
 62
     7
370
     0
100
AcDbLine
 10
786.5140484478
 20
72.4292012796
 30
0.0
 11
1066.8
 21
72.4292012796
 31
0.0
  0
LINE
  5
9A
330
1F
100
AcDbEntity
  8
0
  6
Continuous
 62
     7
370
     0
100
AcDbLine
 10
614.6503583374
 20
234.6968309777
 30
0.0
 11
474.2949242824
 21
234.6968309777
 31
0.0
  0
LINE
  5
9B
330
1F
100
AcDbEntity
  8
0
  6
Continuous
 62
     7
370
     0
100
AcDbLine
 10
474.2949242824
 20
97.9142933547
 30
0.0
 11
614.6503583374
 21
97.9142933547
 31
0.0
  0
LINE
  5
9C
330
1F
100
AcDbEntity
  8
0
  6
Continuous
 62
     7
370
     0
100
AcDbLine
 10
273.4165278803
 20
123.3777533324
 30
0.0
 11
474.2949242824
 21
123.3777533324
 31
0.0
  0
LINE
  5
9D
330
1F
100
AcDbEntity
  8
0
  6
Continuous
 62
     7
370
     0
100
AcDbLine
 10
614.6503583374
 20
231.3277533324
 30
0.0
 11
786.5140484478
 21
231.3277533324
 31
0.0
  0
LINE
  5
9E
330
1F
100
AcDbEntity
  8
0
  6
Continuous
 62
     7
370
     0
100
AcDbLine
 10
786.5140484478
 20
174.1777533324
 30
0.0
 11
614.6503583374
 21
174.1777533324
 31
0.0
  0
LINE
  5
9F
330
1F
100
AcDbEntity
  8
0
  6
Continuous
 62
     7
370
     0
100
AcDbLine
 10
474.2949242824
 20
125.3462933547
 30
0.0
 11
614.6503583374
 21
125.3462933547
 31
0.0
  0
MTEXT
  5
A1
330
1F
100
AcDbEntity
  8
0
  6
Continuous
 62
     7
370
     0
100
AcDbMText
 10
119.7579719589
 20
61.4990449608
 30
0.0
 40
1.778
 41
0.0
 71
     1
 72
     1
  1
UNLESS OTHERWISE SPECIFIED:
  7
SLDTEXTSTYLE0
 73
     1
 44
1.0
  0
MTEXT
  5
A2
330
1F
100
AcDbEntity
  8
0
  6
Continuous
 62
     7
370
     0
100
AcDbMText
 10
154.8506782356
 20
51.2367971468
 30
0.0
 40
1.651
 41
0.0
 71
     1
 72
     1
  1
CHECKED
  7
SLDTEXTSTYLE0
 73
     1
 44
1.0
  0
MTEXT
  5
A3
330
1F
100
AcDbEntity
  8
0
  6
Continuous
 62
     7
370
     0
100
AcDbMText
 10
198.679592027
 20
30.3580337109
 30
0.0
 40
2.54
 41
0.0
 71
     1
 72
     1
  1
SIZE
  7
SLDTEXTSTYLE0
 73
     1
 44
1.0
  0
MTEXT
  5
A4
330
1F
100
AcDbEntity
  8
0
  6
Continuous
 62
     7
370
     0
100
AcDbMText
 10
86.949610419
 20
15.9495751364
 30
0.0
 40
1.5875
 41
0.0
 71
     1
 72
     1
  1
APPLICATION
  7
SLDTEXTSTYLE0
 73
     1
 44
1.0
  0
MTEXT
  5
A5
330
1F
100
AcDbEntity
  8
0
  6
Continuous
 62
     7
370
     0
100
AcDbMText
 10
197.7934428097
 20
52.3929595276
 30
0.0
 40
2.54
 41
0.0
 71
     1
 72
     1
  1
TITLE:
  7
SLDTEXTSTYLE0
 73
     1
 44
1.0
  0
MTEXT
  5
A6
330
1F
100
AcDbEntity
  8
0
  6
Continuous
 62
     7
370
     0
100
AcDbMText
 10
31.5295775012
 20
34.482890082
 30
0.0
 40
1.524
 41
0.0
 71
     1
 72
     1
  1
PROPRIETARY AND CONFIDENTIAL
  7
SLDTEXTSTYLE0
 73
     1
 44
1.0
  0
INSERT
  5
AC
330
1F
100
AcDbEntity
  8
0
  6
Continuous
 62
     7
370
     0
100
AcDbBlockReference
  2
SW_NOTE_0
 10
119.2089478467
 20
34.8635605478
 30
0.0
  0
MTEXT
  5
AD
330
1F
100
AcDbEntity
  8
0
  6
Continuous
 62
     7
370
     0
100
AcDbMText
 10
154.8616193103
 20
37.1230397293
 30
0.0
 40
1.651
 41
0.0
 71
     1
 72
     1
  1
Q.A.
  7
SLDTEXTSTYLE0
 73
     1
 44
1.0
  0
MTEXT
  5
AE
330
1F
100
AcDbEntity
  8
0
  6
Continuous
 62
     7
370
     0
100
AcDbMText
 10
119.1497006873
 20
23.9382316328
 30
0.0
 40
1.524
 41
0.0
 71
     1
 72
     1
  1
FINISH
  7
SLDTEXTSTYLE0
 73
     1
 44
1.0
  0
MTEXT
  5
B0
330
1F
100
AcDbEntity
  8
0
  6
Continuous
 62
     7
370
     0
100
AcDbMText
 10
207.4806642798
 20
30.3225037079
 30
0.0
 40
2.54
 41
0.0
 71
     1
 72
     1
  1
DWG.  NO.
  7
SLDTEXTSTYLE1
 73
     1
 44
1.0
  0
MTEXT
  5
B1
330
1F
100
AcDbEntity
  8
0
  6
Continuous
 62
     7
370
     0
100
AcDbMText
 10
187.9148912103
 20
60.8788912243
 30
0.0
 40
1.651
 41
0.0
 71
     1
 72
     1
  1
DATE
  7
SLDTEXTSTYLE0
 73
     1
 44
1.0
  0
MTEXT
  5
B2
330
1F
100
AcDbEntity
  8
0
  6
Continuous
 62
     7
370
     0
100
AcDbMText
 10
100.8540979063
 20
21.7975753227
 30
0.0
 40
1.5875
 41
0.0
 71
     1
 72
     1
  1
USED ON
  7
SLDTEXTSTYLE0
 73
     1
 44
1.0
  0
MTEXT
  5
B3
330
1F
100
AcDbEntity
  8
0
  6
Continuous
 62
     7
370
     0
100
AcDbMText
 10
198.8800000853
 20
26.7243791314
 30
0.0
 40
6.35
 41
0.0
 71
     1
 72
     1
  1
A
  7
SLDTEXTSTYLE0
 73
     1
 44
1.0
  0
INSERT
  5
C3
330
1F
100
AcDbEntity
  8
0
  6
Continuous
 62
     7
370
     0
100
AcDbBlockReference
  2
SW_NOTE_1
 10
119.5173361573
 20
53.6662300215
 30
0.0
  0
MTEXT
  5
C4
330
1F
100
AcDbEntity
  8
0
  6
Continuous
 62
     7
370
     0
100
AcDbMText
 10
75.5415038203
 20
21.7712622135
 30
0.0
 40
1.5875
 41
0.0
 71
     1
 72
     1
  1
NEXT ASSY
  7
SLDTEXTSTYLE0
 73
     1
 44
1.0
  0
MTEXT
  5
C5
330
1F
100
AcDbEntity
  8
0
  6
Continuous
 62
     7
370
     0
100
AcDbMText
 10
119.0802054458
 20
30.7530141342
 30
0.0
 40
1.524
 41
0.0
 71
     1
 72
     1
  1
MATERIAL
  7
SLDTEXTSTYLE0
 73
     1
 44
1.0
  0
MTEXT
  5
C6
330
1F
100
AcDbEntity
  8
0
  6
Continuous
 62
     7
370
     0
100
AcDbMText
 10
175.4238425205
 20
60.9229910986
 30
0.0
 40
1.651
 41
0.0
 71
     1
 72
     1
  1
NAME
  7
SLDTEXTSTYLE0
 73
     1
 44
1.0
  0
MTEXT
  5
C7
330
1F
100
AcDbEntity
  8
0
  6
Continuous
 62
     7
370
     0
100
AcDbMText
 10
256.4849098979
 20
30.2232854568
 30
0.0
 40
2.54
 41
0.0
 71
     1
 72
     1
  1
REV
  7
SLDTEXTSTYLE0
 73
     1
 44
1.0
  0
MTEXT
  5
C8
330
1F
100
AcDbEntity
  8
0
  6
Continuous
 62
     7
370
     0
100
AcDbMText
 10
136.053747668
 20
15.8946104384
 30
0.0
 40
1.5875
 41
0.0
 71
     2
 72
     1
  1
DO NOT SCALE DRAWING
  7
SLDTEXTSTYLE0
 73
     1
 44
1.0
  0
MTEXT
  5
C9
330
1F
100
AcDbEntity
  8
0
  6
Continuous
 62
     7
370
     0
100
AcDbMText
 10
198.8486489046
 20
16.7646506765
 30
0.0
 40
2.54
 41
0.0
 71
     1
 72
     1
  1
SCALE: 2:1
  7
SLDTEXTSTYLE0
 73
     1
 44
1.0
  0
MTEXT
  5
CA
330
1F
100
AcDbEntity
  8
0
  6
Continuous
 62
     7
370
     0
100
AcDbMText
 10
229.3723351704
 20
26.8729198671
 30
0.0
 40
6.35
 41
0.0
 71
     2
 72
     1
  1
ALT
  7
SLDTEXTSTYLE0
 73
     1
 44
1.0
  0
MTEXT
  5
CB
330
1F
100
AcDbEntity
  8
0
  6
Continuous
 62
     7
370
     0
100
AcDbMText
 10
154.777189414
 20
46.6007959981
 30
0.0
 40
1.651
 41
0.0
 71
     1
 72
     1
  1
ENG APPR.
  7
SLDTEXTSTYLE0
 73
     1
 44
1.0
  0
INSERT
  5
D6
330
1F
100
AcDbEntity
  8
0
  6
Continuous
 62
     7
370
     0
100
AcDbBlockReference
  2
SW_NOTE_2
 10
27.7544252483
 20
28.9376134837
 30
0.0
  0
MTEXT
  5
D7
330
1F
100
AcDbEntity
  8
0
  6
Continuous
 62
     7
370
     0
100
AcDbMText
 10
154.8838076531
 20
32.9087008505
 30
0.0
 40
1.651
 41
0.0
 71
     1
 72
     1
  1
COMMENTS:
  7
SLDTEXTSTYLE0
 73
     1
 44
1.0
  0
MTEXT
  5
D8
330
1F
100
AcDbEntity
  8
0
  6
Continuous
 62
     7
370
     0
100
AcDbMText
 10
154.796551863
 20
56.122746594
 30
0.0
 40
1.651
 41
0.0
 71
     1
 72
     1
  1
DRAWN
  7
SLDTEXTSTYLE0
 73
     1
 44
1.0
  0
MTEXT
  5
D9
330
1F
100
AcDbEntity
  8
0
  6
Continuous
 62
     7
370
     0
100
AcDbMText
 10
154.9028766528
 20
41.8454756596
 30
0.0
 40
1.651
 41
0.0
 71
     1
 72
     1
  1
MFG APPR.
  7
SLDTEXTSTYLE0
 73
     1
 44
1.0
  0
MTEXT
  5
DB
330
1F
100
AcDbEntity
  8
0
  6
Continuous
 62
     7
370
     0
100
AcDbMText
 10
244.5309015475
 20
16.7729098749
 30
0.0
 40
2.54
 41
0.0
 71
     1
 72
     1
  1
SHEET 1 OF 1
  7
SLDTEXTSTYLE2
 73
     1
 44
1.0
  0
MTEXT
  5
DC
330
1F
100
AcDbEntity
  8
0
  6
Continuous
 62
     7
370
     0
100
AcDbMText
 10
69.7886166697
 20
10.2419016952
 30
0.0
 40
6.096
 41
0.0
 71
     2
 72
     1
  1
2
  7
SLDTEXTSTYLE0
 73
     1
 44
1.0
  0
MTEXT
  5
DD
330
1F
100
AcDbEntity
  8
0
  6
Continuous
 62
     7
370
     0
100
AcDbMText
 10
209.4886166697
 20
10.2419016952
 30
0.0
 40
6.096
 41
0.0
 71
     2
 72
     1
  1
1
  7
SLDTEXTSTYLE0
 73
     1
 44
1.0
  0
MTEXT
  5
DE
330
1F
100
AcDbEntity
  8
0
  6
Continuous
 62
     7
370
     0
100
AcDbMText
 10
6.1065833417
 20
57.8669016952
 30
0.0
 40
6.096
 41
0.0
 71
     2
 72
     1
  1
A
  7
SLDTEXTSTYLE0
 73
     1
 44
1.0
  0
MTEXT
  5
DF
330
1F
100
AcDbEntity
  8
0
  6
Continuous
 62
     7
370
     0
100
AcDbMText
 10
6.3034332283
 20
165.8169016952
 30
0.0
 40
6.096
 41
0.0
 71
     2
 72
     1
  1
B
  7
SLDTEXTSTYLE0
 73
     1
 44
1.0
  0
MTEXT
  5
E0
330
1F
100
AcDbEntity
  8
0
  6
Continuous
 62
     7
370
     0
100
AcDbMText
 10
272.8065833417
 20
57.8669016952
 30
0.0
 40
6.096
 41
0.0
 71
     2
 72
     1
  1
A
  7
SLDTEXTSTYLE0
 73
     1
 44
1.0
  0
MTEXT
  5
E1
330
1F
100
AcDbEntity
  8
0
  6
Continuous
 62
     7
370
     0
100
AcDbMText
 10
273.0034332283
 20
165.8169016952
 30
0.0
 40
6.096
 41
0.0
 71
     2
 72
     1
  1
B
  7
SLDTEXTSTYLE0
 73
     1
 44
1.0
  0
MTEXT
  5
E2
330
1F
100
AcDbEntity
  8
0
  6
Continuous
 62
     7
370
     0
100
AcDbMText
 10
209.4886166697
 20
213.5329763764
 30
0.0
 40
6.096
 41
0.0
 71
     2
 72
     1
  1
1
  7
SLDTEXTSTYLE0
 73
     1
 44
1.0
  0
MTEXT
  5
E3
330
1F
100
AcDbEntity
  8
0
  6
Continuous
 62
     7
370
     0
100
AcDbMText
 10
69.7886166697
 20
213.5329763764
 30
0.0
 40
6.096
 41
0.0
 71
     2
 72
     1
  1
2
  7
SLDTEXTSTYLE0
 73
     1
 44
1.0
  0
MTEXT
  5
E4
330
1F
100
AcDbEntity
  8
0
  6
Continuous
 62
     7
370
     0
100
AcDbMText
 10
207.4806642798
 20
59.9734250312
 30
0.0
 40
2.9104166667
 41
0.0
 71
     1
 72
     1
  1
<COMPANY NAME>
  7
SLDTEXTSTYLE0
 73
     1
 44
1.0
  0
ARC
  5
E5
330
1F
100
AcDbEntity
  8
0
  6
Continuous
 62
     7
370
    15
100
AcDbCircle
 10
104.9620624898
 20
176.0460583254
 30
0.0
 40
10.00000000000002
100
AcDbArc
 50
96.7079465826
 51
172.4136151955
  0
ARC
  5
E6
330
1F
100
AcDbEntity
  8
0
  6
Continuous
 62
     7
370
    15
100
AcDbCircle
 10
129.1998226743
 20
-30.0334918033
 30
0.0
 40
217.4999999999997
100
AcDbArc
 50
83.2920534174
 51
96.7079465826
  0
ARC
  5
E7
330
1F
100
AcDbEntity
  8
0
  6
Continuous
 62
     7
370
    15
100
AcDbCircle
 10
153.4375828588
 20
176.0460583254
 30
0.0
 40
10.00000000000004
100
AcDbArc
 50
7.5863848045
 51
83.2920534174
  0
ARC
  5
E8
330
1F
100
AcDbEntity
  8
0
  6
Continuous
 62
     7
370
    15
100
AcDbCircle
 10
-46.1286140027
 20
149.4665081967
 30
0.0
 40
211.3284366769493
100
AcDbArc
 50
352.4136151955
 51
7.5863848045
  0
ARC
  5
E9
330
1F
100
AcDbEntity
  8
0
  6
Continuous
 62
     7
370
    15
100
AcDbCircle
 10
153.4375828588
 20
122.886958068
 30
0.0
 40
10.00000000000006
100
AcDbArc
 50
276.7079465826
 51
352.4136151955
  0
ARC
  5
EA
330
1F
100
AcDbEntity
  8
0
  6
Continuous
 62
     7
370
    15
100
AcDbCircle
 10
129.1998226743
 20
328.9665081967
 30
0.0
 40
217.4999999999998
100
AcDbArc
 50
263.2920534174
 51
276.7079465826
  0
ARC
  5
EB
330
1F
100
AcDbEntity
  8
0
  6
Continuous
 62
     7
370
    15
100
AcDbCircle
 10
104.9620624898
 20
122.886958068
 30
0.0
 40
10.00000000000002
100
AcDbArc
 50
187.5863848045
 51
263.2920534174
  0
ARC
  5
EC
330
1F
100
AcDbEntity
  8
0
  6
Continuous
 62
     7
370
    15
100
AcDbCircle
 10
304.5282593512
 20
149.4665081967
 30
0.0
 40
211.3284366769493
100
AcDbArc
 50
172.4136151955
 51
187.5863848045
  0
ARC
  5
ED
330
1F
100
AcDbEntity
  8
0
  6
Continuous
 62
     7
370
    15
100
AcDbCircle
 10
153.4375828588
 20
176.0460583254
 30
0.0
 40
8.600000000000053
100
AcDbArc
 50
7.5863848045
 51
83.2920534174
  0
ARC
  5
EE
330
1F
100
AcDbEntity
  8
0
  6
Continuous
 62
     7
370
    15
100
AcDbCircle
 10
104.9620624898
 20
176.0460583254
 30
0.0
 40
8.6
100
AcDbArc
 50
96.7079465826
 51
172.4136151955
  0
ARC
  5
EF
330
1F
100
AcDbEntity
  8
0
  6
Continuous
 62
     7
370
    15
100
AcDbCircle
 10
153.4375828588
 20
122.886958068
 30
0.0
 40
8.600000000000032
100
AcDbArc
 50
276.7079465826
 51
352.4136151955
  0
ARC
  5
F0
330
1F
100
AcDbEntity
  8
0
  6
Continuous
 62
     7
370
    15
100
AcDbCircle
 10
104.9620624898
 20
122.886958068
 30
0.0
 40
8.599999999999984
100
AcDbArc
 50
187.5863848045
 51
263.2920534174
  0
ARC
  5
F1
330
1F
100
AcDbEntity
  8
0
  6
Continuous
 62
     7
370
    15
100
AcDbCircle
 10
304.5282593512
 20
149.4665081967
 30
0.0
 40
209.9284366769493
100
AcDbArc
 50
172.4136151955
 51
187.5863848045
  0
ARC
  5
F2
330
1F
100
AcDbEntity
  8
0
  6
Continuous
 62
     7
370
    15
100
AcDbCircle
 10
-46.1286140027
 20
149.4665081967
 30
0.0
 40
209.9284366769492
100
AcDbArc
 50
352.4136151955
 51
7.5863848045
  0
ARC
  5
F3
330
1F
100
AcDbEntity
  8
0
  6
Continuous
 62
     7
370
    15
100
AcDbCircle
 10
129.1998226743
 20
328.9665081967
 30
0.0
 40
216.0999999999997
100
AcDbArc
 50
263.2920534174
 51
276.7079465826
  0
ARC
  5
F4
330
1F
100
AcDbEntity
  8
0
  6
Continuous
 62
     7
370
    15
100
AcDbCircle
 10
129.1998226743
 20
-30.0334918033
 30
0.0
 40
216.0999999999997
100
AcDbArc
 50
83.2920534174
 51
96.7079465826
  0
CIRCLE
  5
F5
330
1F
100
AcDbEntity
  8
0
  6
Continuous
 62
     7
370
    15
100
AcDbCircle
 10
151.9499572305
 20
144.8132341769
 30
0.0
 40
0.9142859129772489
  0
CIRCLE
  5
F6
330
1F
100
AcDbEntity
  8
0
  6
Continuous
 62
     7
370
    15
100
AcDbCircle
 10
105.386382379
 20
142.3726638104
 30
0.0
 40
0.9142859129772631
  0
CIRCLE
  5
F7
330
1F
100
AcDbEntity
  8
0
  6
Continuous
 62
     7
370
    15
100
AcDbCircle
 10
105.386382379
 20
142.3726638104
 30
0.0
 40
1.113524852595617
  0
CIRCLE
  5
F8
330
1F
100
AcDbEntity
  8
0
  6
Continuous
 62
     7
370
    15
100
AcDbCircle
 10
151.9499572305
 20
144.8132341769
 30
0.0
 40
1.113524852595617
  0
CIRCLE
  5
F9
330
1F
100
AcDbEntity
  8
0
  6
Continuous
 62
     7
370
    15
100
AcDbCircle
 10
105.386382379
 20
142.3726638104
 30
0.0
 40
1.484027295185129
  0
CIRCLE
  5
FA
330
1F
100
AcDbEntity
  8
0
  6
Continuous
 62
     7
370
    15
100
AcDbCircle
 10
151.9499572305
 20
144.8132341769
 30
0.0
 40
1.484027295185143
  0
SPLINE
  5
FB
330
1F
100
AcDbEntity
  8
0
  6
Continuous
 62
     7
370
    15
100
AcDbSpline
210
0.0
220
0.0
230
1.0
 70
     8
 71
     3
 72
    25
 73
    21
 74
     0
 42
0.000000001
 43
0.00000001
 40
0.0
 40
0.0
 40
0.0
 40
0.0
 40
0.0312109767488095
 40
0.0625545219025136
 40
0.1248777822242796
 40
0.1875610539988588
 40
0.2497864786310776
 40
0.3125119800490613
 40
0.3747510468812695
 40
0.4373910099528601
 40
0.4997508723829774
 40
0.5622256295446502
 40
0.6247666240911243
 40
0.6871197449418865
 40
0.7497907494867037
 40
0.8120863959500626
 40
0.8748175918012395
 40
0.9370933197648045
 40
0.9684501930809891
 40
1.0
 40
1.0
 40
1.0
 40
1.0
 10
157.9694228353011
 20
152.0463207136581
 30
0.0
 10
157.9933626630128
 20
152.0201898755164
 30
0.0
 10
158.0413440026865
 20
151.9678172086811
 30
0.0
 10
158.1464535782913
 20
151.872496810893
 30
0.0
 10
158.2902787713525
 20
151.7674674638826
 30
0.0
 10
158.4794030429566
 20
151.6688385425453
 30
0.0
 10
158.6814494101898
 20
151.5991369091308
 30
0.0
 10
158.8911907937671
 20
151.5605336274519
 30
0.0
 10
159.1048178058054
 20
151.5539562657129
 30
0.0
 10
159.3165833921268
 20
151.5798368997764
 30
0.0
 10
159.5221498724339
 20
151.6379047817912
 30
0.0
 10
159.7162455202477
 20
151.7268657995653
 30
0.0
 10
159.8942361738285
 20
151.8447933668764
 30
0.0
 10
160.0519643826323
 20
151.9890218551819
 30
0.0
 10
160.1852615884407
 20
152.1557499944319
 30
0.0
 10
160.2913639119344
 20
152.3414356270696
 30
0.0
 10
160.3675871751764
 20
152.5408005612283
 30
0.0
 10
160.4046923533721
 20
152.7150400139893
 30
0.0
 10
160.4190698076135
 20
152.8565623552486
 30
0.0
 10
160.4194368158215
 20
152.9279933292408
 30
0.0
 10
160.4196208827292
 20
152.9638183549624
 30
0.0
  0
LINE
  5
FC
330
1F
100
AcDbEntity
  8
0
  6
Continuous
 62
     7
370
    15
100
AcDbLine
 10
160.4196208827
 20
152.963818355
 30
0.0
 11
161.0223996291
 21
152.9740247081
 31
0.0
  0
SPLINE
  5
FD
330
1F
100
AcDbEntity
  8
0
  6
Continuous
 62
     7
370
    15
100
AcDbSpline
210
0.0
220
0.0
230
1.0
 70
     8
 71
     3
 72
    20
 73
    16
 74
     0
 42
0.000000001
 43
0.00000001
 40
0.0
 40
0.0
 40
0.0
 40
0.0
 40
0.0430361085237482
 40
0.08483437596774
 40
0.1253990514604421
 40
0.1888600421330651
 40
0.2509250862910016
 40
0.3762400499606779
 40
0.5015089803005771
 40
0.6265408131638913
 40
0.7512187287704669
 40
0.8755414779349528
 40
0.937667701871951
 40
0.9636808822456583
 40
0.9999999999999999
 40
0.9999999999999999
 40
0.9999999999999999
 40
0.9999999999999999
 10
161.0223996290809
 20
152.9740247081368
 30
0.0
 10
161.0211222870759
 20
152.9042687080285
 30
0.0
 10
161.0186043430608
 20
152.7667630890916
 30
0.0
 10
160.9883862502978
 20
152.565322911185
 30
0.0
 10
160.9317689864376
 20
152.3356779893875
 30
0.0
 10
160.8338823259828
 20
152.0836070508913
 30
0.0
 10
160.6302737970696
 20
151.7302753767838
 30
0.0
 10
160.2777958245698
 20
151.3538791809856
 30
0.0
 10
159.7379222092443
 20
151.0523388972435
 30
0.0
 10
159.1332677688962
 20
150.9280662260966
 30
0.0
 10
158.5215186058128
 20
150.9904182095848
 30
0.0
 10
158.0504651135665
 20
151.1911124940271
 30
0.0
 10
157.7714875046232
 20
151.3939831966023
 30
0.0
 10
157.6210942907714
 20
151.5283042980048
 30
0.0
 10
157.5526726117573
 20
151.6025358323038
 30
0.0
 10
157.5128053985837
 20
151.6457882699044
 30
0.0
  0
LINE
  5
FE
330
1F
100
AcDbEntity
  8
0
  6
Continuous
 62
     7
370
    15
100
AcDbLine
 10
157.9694228353
 20
152.0463207137
 30
0.0
 11
157.5128053986
 21
151.6457882699
 31
0.0
  0
LINE
  5
FF
330
1F
100
AcDbEntity
  8
0
  6
Continuous
 62
     7
370
    15
100
AcDbLine
 10
133.1550821058
 20
180.33531661
 30
0.0
 11
157.9694228353
 21
152.0463207137
 31
0.0
  0
LINE
  5
100
330
1F
100
AcDbEntity
  8
0
  6
Continuous
 62
     7
370
    15
100
AcDbLine
 10
157.5128053986
 20
151.6457882699
 30
0.0
 11
132.6984646691
 21
179.9347841663
 31
0.0
  0
LINE
  5
101
330
1F
100
AcDbEntity
  8
0
  6
Continuous
 62
     7
370
    15
100
AcDbLine
 10
133.1550821058
 20
180.33531661
 30
0.0
 11
132.6984646691
 21
179.9347841663
 31
0.0
  0
ARC
  5
102
330
1F
100
AcDbEntity
  8
0
  6
Continuous
 62
     7
370
    15
100
AcDbCircle
 10
-46.1286140027
 20
149.4665081967
 30
0.0
 40
206.5778412914035
100
AcDbArc
 50
0.9700492743
 51
7.5863848045
  0
LINE
  5
103
330
1F
100
AcDbEntity
  8
0
  6
Continuous
 62
     7
370
    15
100
AcDbLine
 10
159.2386273549
 20
176.8186799187
 30
0.0
 11
158.6410391215
 21
176.739089153
 31
0.0
  0
ARC
  5
104
330
1F
100
AcDbEntity
  8
0
  6
Continuous
 62
     7
370
    15
100
AcDbCircle
 10
-46.1286140027
 20
149.4665081967
 30
0.0
 40
207.1807064394245
100
AcDbArc
 50
0.9700492743
 51
7.5863848045
  0
ARC
  5
105
330
1F
100
AcDbEntity
  8
0
  6
Continuous
 62
     7
370
    15
100
AcDbCircle
 10
140.681001006
 20
177.8214239838
 30
0.0
 40
2.0
100
AcDbArc
 50
90.0
 51
221.2563616074
  0
LINE
  5
106
330
1F
100
AcDbEntity
  8
0
  6
Continuous
 62
     7
370
    15
100
AcDbLine
 10
153.9207943056
 20
159.6947885203
 30
0.0
 11
139.177467816
 21
176.5025654067
 31
0.0
  0
ARC
  5
107
330
1F
100
AcDbEntity
  8
0
  6
Continuous
 62
     7
370
    15
100
AcDbCircle
 10
155.4243274956
 20
161.0136470974
 30
0.0
 40
2.0
100
AcDbArc
 50
221.2563616073
 51
0.0
  0
LINE
  5
108
330
1F
100
AcDbEntity
  8
0
  6
Continuous
 62
     7
370
    15
100
AcDbLine
 10
157.4243274956
 20
173.8214239838
 30
0.0
 11
157.4243274956
 21
161.0136470974
 31
0.0
  0
ARC
  5
109
330
1F
100
AcDbEntity
  8
0
  6
Continuous
 62
     7
370
    15
100
AcDbCircle
 10
151.4243274956
 20
173.8214239838
 30
0.0
 40
6.0
100
AcDbArc
 50
0.0
 51
90.0
  0
LINE
  5
10A
330
1F
100
AcDbEntity
  8
0
  6
Continuous
 62
     7
370
    15
100
AcDbLine
 10
140.681001006
 20
179.8214239838
 30
0.0
 11
151.4243274956
 21
179.8214239838
 31
0.0
  0
SPLINE
  5
10B
330
1F
100
AcDbEntity
  8
0
  6
Continuous
 62
     7
370
    15
100
AcDbSpline
210
0.0
220
0.0
230
1.0
 70
     8
 71
     3
 72
    25
 73
    21
 74
     0
 42
0.000000001
 43
0.00000001
 40
0.0
 40
0.0
 40
0.0
 40
0.0
 40
0.031222771952072
 40
0.0625648580863039
 40
0.1248801757361011
 40
0.1875903586598846
 40
0.2498174939390548
 40
0.3125420198763297
 40
0.3748337936030952
 40
0.4374085119801198
 40
0.4998845124341531
 40
0.5622480731206567
 40
0.6249321101426818
 40
0.6871926017655252
 40
0.7499337698281272
 40
0.8122082803953722
 40
0.8748250316696956
 40
0.9373565584507552
 40
0.9685833773112253
 40
0.9999999999999999
 40
0.9999999999999999
 40
0.9999999999999999
 40
0.9999999999999999
 10
134.2159161963202
 20
182.656771183965
 30
0.0
 10
134.1823002149041
 20
182.6568528390228
 30
0.0
 10
134.1149397925189
 20
182.6570164611737
 30
0.0
 10
133.9809198314164
 20
182.6451661973887
 30
0.0
 10
133.815160333668
 20
182.6129094454905
 30
0.0
 10
133.6244765802655
 20
182.5454935143954
 30
0.0
 10
133.4452593198498
 20
182.4508648088909
 30
0.0
 10
133.2821724996954
 20
182.3312652181507
 30
0.0
 10
133.1381134565584
 20
182.18881023922
 30
0.0
 10
133.016596167124
 20
182.0270246240126
 30
0.0
 10
132.9199912649406
 20
181.8491578303086
 30
0.0
 10
132.8502212854488
 20
181.6590396200459
 30
0.0
 10
132.8087697799977
 20
181.4610459867338
 30
0.0
 10
132.7962167995334
 20
181.2587643537893
 30
0.0
 10
132.8126993470214
 20
181.0571979565394
 30
0.0
 10
132.8578061215757
 20
180.8596907682877
 30
0.0
 10
132.9302285327563
 20
180.6707014084491
 30
0.0
 10
133.012604847775
 20
180.523317417623
 30
0.0
 10
133.0898527815076
 20
180.4127813454803
 30
0.0
 10
133.1332951223104
 20
180.3611902938891
 30
0.0
 10
133.1550821058472
 20
180.3353166100385
 30
0.0
  0
ARC
  5
10C
330
1F
100
AcDbEntity
  8
0
  6
Continuous
 62
     7
370
    15
100
AcDbCircle
 10
129.1998226743
 20
-30.0334918033
 30
0.0
 40
212.7494046144539
100
AcDbArc
 50
83.2920534174
 51
88.6489850667
  0
ARC
  5
10D
330
1F
100
AcDbEntity
  8
0
  6
Continuous
 62
     7
370
    15
100
AcDbCircle
 10
153.4375828588
 20
176.0460583254
 30
0.0
 40
5.249404614454248
100
AcDbArc
 50
7.5863848045
 51
83.2920534174
  0
SPLINE
  5
10E
330
1F
100
AcDbEntity
  8
0
  6
Continuous
 62
     7
370
    15
100
AcDbSpline
210
0.0
220
0.0
230
1.0
 70
     8
 71
     3
 72
    19
 73
    15
 74
     0
 42
0.000000001
 43
0.00000001
 40
0.0
 40
0.0
 40
0.0
 40
0.0
 40
0.0364102486034269
 40
0.0624838536052595
 40
0.1248744477853281
 40
0.2492805583290781
 40
0.3740135311330716
 40
0.4990319151344851
 40
0.624236979718496
 40
0.7494721100431155
 40
0.8116824168714003
 40
0.8748831295987106
 40
0.9363953451614446
 40
1.0
 40
1.0
 40
1.0
 40
1.0
 10
132.6984646691299
 20
179.9347841662848
 30
0.0
 10
132.6625444727563
 20
179.9777311202214
 30
0.0
 10
132.600901600824
 20
180.0514326544185
 30
0.0
 10
132.4918400405085
 20
180.2095458418245
 30
0.0
 10
132.3322773131789
 20
180.496182524792
 30
0.0
 10
132.1921692585467
 20
180.9615507902049
 30
0.0
 10
132.1885962896327
 20
181.5446145795513
 30
0.0
 10
132.3516560368023
 20
182.106359570532
 30
0.0
 10
132.669138201975
 20
182.5986043231992
 30
0.0
 10
133.0409960981286
 20
182.9153758918069
 30
0.0
 10
133.382621351444
 20
183.0968489767801
 30
0.0
 10
133.6544653503832
 20
183.1932301416562
 30
0.0
 10
133.9394472665216
 20
183.252836084373
 30
0.0
 10
134.1321616008869
 20
183.2572333438144
 30
0.0
 10
134.2301302335775
 20
183.2594687431503
 30
0.0
  0
LINE
  5
10F
330
1F
100
AcDbEntity
  8
0
  6
Continuous
 62
     7
370
    15
100
AcDbLine
 10
134.2301302336
 20
183.2594687431
 30
0.0
 11
134.2159161963
 21
182.656771184
 31
0.0
  0
ARC
  5
110
330
1F
100
AcDbEntity
  8
0
  6
Continuous
 62
     7
370
    15
100
AcDbCircle
 10
129.1998226743
 20
-30.0334918033
 30
0.0
 40
213.352269762475
100
AcDbArc
 50
83.2920534174
 51
88.6489850667
  0
LINE
  5
111
330
1F
100
AcDbEntity
  8
0
  6
Continuous
 62
     7
370
    15
100
AcDbLine
 10
154.1211776108
 20
181.8582661321
 30
0.0
 11
154.0507578475
 21
181.2595279225
 31
0.0
  0
LINE
  5
112
330
1F
100
AcDbEntity
  8
0
  6
Continuous
 62
     7
370
    15
100
AcDbLine
 10
127.6960326491
 20
182.6047615499
 30
0.0
 11
160.4692595628
 21
145.2424277373
 31
0.0
  0
LINE
  5
113
330
1F
100
AcDbEntity
  8
0
  6
Continuous
 62
     7
370
    15
100
AcDbLine
 10
160.4692595628
 20
145.2424277373
 30
0.0
 11
160.1357974105
 21
144.9499237722
 31
0.0
  0
LINE
  5
114
330
1F
100
AcDbEntity
  8
0
  6
Continuous
 62
     7
370
    15
100
AcDbLine
 10
160.1357974105
 20
144.9499237722
 30
0.0
 11
127.3625704967
 21
182.3122575848
 31
0.0
  0
LINE
  5
115
330
1F
100
AcDbEntity
  8
0
  6
Continuous
 62
     7
370
    15
100
AcDbLine
 10
127.6960326491
 20
182.6047615499
 30
0.0
 11
127.3625704967
 21
182.3122575848
 31
0.0
  0
ARC
  5
116
330
1F
100
AcDbEntity
  8
0
  6
Continuous
 62
     7
370
    15
100
AcDbCircle
 10
129.1998226743
 20
-30.0334918033
 30
0.0
 40
212.9089096824743
100
AcDbArc
 50
90.8207118613
 51
96.7079465826
  0
LINE
  5
117
330
1F
100
AcDbEntity
  8
0
  6
Continuous
 62
     7
370
    15
100
AcDbLine
 10
104.3302559561
 20
181.4179410919
 30
0.0
 11
104.2788292607
 21
181.8551923136
 31
0.0
  0
ARC
  5
118
330
1F
100
AcDbEntity
  8
0
  6
Continuous
 62
     7
370
    15
100
AcDbCircle
 10
129.1998226743
 20
-30.0334918033
 30
0.0
 40
213.3491747570471
100
AcDbArc
 50
90.8207118613
 51
96.7079465826
  0
LINE
  5
119
330
1F
100
AcDbEntity
  8
0
  6
Continuous
 62
     7
370
    15
100
AcDbLine
 10
126.1501933009
 20
182.8535758708
 30
0.0
 11
126.1438871049
 21
183.2937957792
 31
0.0
  0
ARC
  5
11A
330
1F
100
AcDbEntity
  8
0
  6
Continuous
 62
     7
370
    15
100
AcDbCircle
 10
104.9620624898
 20
176.0460583254
 30
0.0
 40
4.368353682708722
100
AcDbArc
 50
96.7079465826
 51
172.4136151955
  0
ARC
  5
11B
330
1F
100
AcDbEntity
  8
0
  6
Continuous
 62
     7
370
    15
100
AcDbCircle
 10
304.5282593512
 20
149.4665081967
 30
0.0
 40
205.696790359658
100
AcDbArc
 50
172.4136151955
 51
187.5863848045
  0
ARC
  5
11C
330
1F
100
AcDbEntity
  8
0
  6
Continuous
 62
     7
370
    15
100
AcDbCircle
 10
104.9620624898
 20
122.886958068
 30
0.0
 40
4.368353682708718
100
AcDbArc
 50
187.5863848045
 51
263.2920534174
  0
ARC
  5
11D
330
1F
100
AcDbEntity
  8
0
  6
Continuous
 62
     7
370
    15
100
AcDbCircle
 10
129.1998226743
 20
328.9665081967
 30
0.0
 40
211.8683536827085
100
AcDbArc
 50
263.2920534174
 51
276.7079465826
  0
ARC
  5
11E
330
1F
100
AcDbEntity
  8
0
  6
Continuous
 62
     7
370
    15
100
AcDbCircle
 10
153.4375828588
 20
122.886958068
 30
0.0
 40
4.3683536827088
100
AcDbArc
 50
276.7079465826
 51
352.4136151955
  0
ARC
  5
11F
330
1F
100
AcDbEntity
  8
0
  6
Continuous
 62
     7
370
    15
100
AcDbCircle
 10
-46.1286140027
 20
149.4665081967
 30
0.0
 40
205.6967903596581
100
AcDbArc
 50
352.4136151955
 51
358.2540285279
  0
SPLINE
  5
120
330
1F
100
AcDbEntity
  8
0
  6
Continuous
 62
     7
370
    15
100
AcDbSpline
210
0.0
220
0.0
230
1.0
 70
     8
 71
     3
 72
    10
 73
     6
 74
     0
 42
0.000000001
 43
0.00000001
 40
0.0
 40
0.0
 40
0.0
 40
0.0
 40
0.5
 40
0.5
 40
1.0
 40
1.0
 40
1.0
 40
1.0
 10
158.4535223401588
 20
146.0239579442267
 30
0.0
 10
158.7954240775856
 20
145.6341810425357
 30
0.0
 10
159.0543071214319
 20
145.1962037846775
 30
0.0
 10
159.4064209620583
 20
144.224072167586
 30
0.0
 10
159.4884800168974
 20
143.7176669661862
 30
0.0
 10
159.4726786521607
 20
143.1992900795313
 30
0.0
  0
LINE
  5
121
330
1F
100
AcDbEntity
  8
0
  6
Continuous
 62
     7
370
    15
100
AcDbLine
 10
128.2947741083
 20
180.4057178416
 30
0.0
 11
158.4535223402
 21
146.0239579442
 31
0.0
  0
SPLINE
  5
122
330
1F
100
AcDbEntity
  8
0
  6
Continuous
 62
     7
370
    15
100
AcDbSpline
210
0.0
220
0.0
230
1.0
 70
     8
 71
     3
 72
    12
 73
     8
 74
     0
 42
0.000000001
 43
0.00000001
 40
0.0
 40
0.0
 40
0.0
 40
0.0
 40
0.2499999999999994
 40
0.2499999999999994
 40
0.4999999999999989
 40
0.4999999999999989
 40
1.0
 40
1.0
 40
1.0
 40
1.0
 10
125.1603586984462
 20
181.7963503413287
 30
0.0
 10
125.457689231931
 20
181.802020250567
 30
0.0
 10
125.750052395033
 20
181.7749319813308
 30
0.0
 10
126.3253092389662
 20
181.6583073130891
 30
0.0
 10
126.611028710639
 20
181.5670021756836
 30
0.0
 10
127.4167310216276
 20
181.2090443081935
 30
0.0
 10
127.9026470617781
 20
180.8527529061294
 30
0.0
 10
128.2947741082991
 20
180.405717841574
 30
0.0
  0
ARC
  5
123
330
1F
100
AcDbEntity
  8
0
  6
Continuous
 62
     7
370
    15
100
AcDbCircle
 10
129.1998226743
 20
-30.0334918033
 30
0.0
 40
211.8683536827085
100
AcDbArc
 50
91.0924626429
 51
96.7079465826
  0
ARC
  5
124
330
1F
100
AcDbEntity
  8
0
  6
Continuous
 62
     7
370
    15
100
AcDbCircle
 10
304.5282593512
 20
149.4665081967
 30
0.0
 40
206.7373463594239
100
AcDbArc
 50
172.4136151955
 51
187.5863848045
  0
ARC
  5
125
330
1F
100
AcDbEntity
  8
0
  6
Continuous
 62
     7
370
    15
100
AcDbCircle
 10
104.9620624898
 20
176.0460583254
 30
0.0
 40
5.408909682474608
100
AcDbArc
 50
96.7079465826
 51
172.4136151955
  0
SPLINE
  5
126
330
1F
100
AcDbEntity
  8
0
  6
Continuous
 62
     7
370
    15
100
AcDbSpline
210
0.0
220
0.0
230
1.0
 70
     8
 71
     3
 72
    37
 73
    33
 74
     0
 42
0.000000001
 43
0.00000001
 40
0.0
 40
0.0
 40
0.0
 40
0.0
 40
0.0314364094308282
 40
0.0627525794937244
 40
0.0877350629755859
 40
0.125117876212638
 40
0.1535493889864659
 40
0.1961528982332013
 40
0.2494121352942521
 40
0.2778573267150824
 40
0.3206205502404695
 40
0.3420602737842418
 40
0.3743230399828715
 40
0.4030860438882608
 40
0.4461156957860924
 40
0.4675503790365209
 40
0.4996269288471326
 40
0.5280758142963613
 40
0.5706908201673546
 40
0.623931885044403
 40
0.6523498134826234
 40
0.69505249766813
 40
0.7164572502392783
 40
0.7486527820871006
 40
0.7773839983887205
 40
0.8205338762788761
 40
0.8420762900362478
 40
0.8743592085213667
 40
0.8994566180706329
 40
0.9371118739176492
 40
0.9685270413881019
 40
1.0
 40
1.0
 40
1.0
 40
1.0
 10
127.3625704967364
 20
182.3122575848212
 30
0.0
 10
127.353019895971
 20
182.3229761784322
 30
0.0
 10
127.333955224
 20
182.3443723687038
 30
0.0
 10
127.3062911311684
 20
182.3733628656646
 30
0.0
 10
127.2760740814678
 20
182.4036478223208
 30
0.0
 10
127.2459937904967
 20
182.4321959879913
 30
0.0
 10
127.2091389902253
 20
182.4652605319992
 30
0.0
 10
127.1657437040772
 20
182.5018644479142
 30
0.0
 10
127.120863917062
 20
182.5366583763664
 30
0.0
 10
127.0747481275045
 20
182.5698901084708
 30
0.0
 10
127.0396731565685
 20
182.5935683097909
 30
0.0
 10
127.0024948379304
 20
182.6171989580458
 30
0.0
 10
126.9702504316408
 20
182.6366624890794
 30
0.0
 10
126.9289350901779
 20
182.6601415360981
 30
0.0
 10
126.8912798262106
 20
182.6800275587559
 30
0.0
 10
126.8517376469495
 20
182.6995232587024
 30
0.0
 10
126.8177909253052
 20
182.7152968625358
 30
0.0
 10
126.7745696617065
 20
182.7340222411235
 30
0.0
 10
126.7218046492674
 20
182.7549843319314
 30
0.0
 10
126.6682182357405
 20
182.7737351742623
 30
0.0
 10
126.6139827567449
 20
182.7905884341206
 30
0.0
 10
126.5732553483068
 20
182.8018783954636
 30
0.0
 10
126.5305641215985
 20
182.8124403022486
 30
0.0
 10
126.493862435599
 20
182.8206205342672
 30
0.0
 10
126.4472123122881
 20
182.82972644104
 30
0.0
 10
126.4050937536547
 20
182.8365869563487
 30
0.0
 10
126.3612010271741
 20
182.8424714950682
 30
0.0
 10
126.3253725050243
 20
182.8464196871103
 30
0.0
 10
126.2821273406142
 20
182.8500962268124
 30
0.0
 10
126.2391878735654
 20
182.8525375091334
 30
0.0
 10
126.1932851588715
 20
182.853849498073
 30
0.0
 10
126.1645660506832
 20
182.8536671357472
 30
0.0
 10
126.1501933008544
 20
182.8535758707932
 30
0.0
  0
SPLINE
  5
127
330
1F
100
AcDbEntity
  8
0
  6
Continuous
 62
     7
370
    15
100
AcDbSpline
210
0.0
220
0.0
230
1.0
 70
     8
 71
     3
 72
    27
 73
    23
 74
     0
 42
0.000000001
 43
0.00000001
 40
0.0
 40
0.0
 40
0.0
 40
0.0
 40
0.0314988179937037
 40
0.0628762402395221
 40
0.1253354374013076
 40
0.1963944385147364
 40
0.2495866480590587
 40
0.2820074839722885
 40
0.3306836604264771
 40
0.3916939054192039
 40
0.434587436309272
 40
0.4992744108491856
 40
0.5321763983473848
 40
0.5813012351785508
 40
0.6424579238858288
 40
0.6851749509172688
 40
0.749200163231917
 40
0.8204366947533839
 40
0.8740331434038985
 40
0.9369031083107662
 40
0.9684462821837216
 40
1.0
 40
1.0
 40
1.0
 40
1.0
 10
160.532585113491
 20
143.8558790334689
 30
0.0
 10
160.5328368393438
 20
143.8683839904444
 30
0.0
 10
160.5333393209033
 20
143.8933457105678
 30
0.0
 10
160.5328569258747
 20
143.9431149593343
 30
0.0
 10
160.5300114367625
 20
144.008549787076
 30
0.0
 10
160.5229993082521
 20
144.0823908422697
 30
0.0
 10
160.5142349510559
 20
144.1439947082055
 30
0.0
 10
160.5050368759956
 20
144.1965207165077
 30
0.0
 10
160.4936131244734
 20
144.2517897850525
 30
0.0
 10
160.4789158035272
 20
144.3105870711811
 30
0.0
 10
160.4601708751104
 20
144.3748586909542
 30
0.0
 10
160.4424039409987
 20
144.4277601958965
 30
0.0
 10
160.42186173749
 20
144.4822765512872
 30
0.0
 10
160.4001923920509
 20
144.5348511459966
 30
0.0
 10
160.3747450275416
 20
144.5900388619093
 30
0.0
 10
160.344512572494
 20
144.6494658823383
 30
0.0
 10
160.3099812656771
 20
144.7111543338728
 30
0.0
 10
160.2700936837146
 20
144.7746965410881
 30
0.0
 10
160.2275915123211
 20
144.8359408109867
 30
0.0
 10
160.1919878287076
 20
144.8827245004137
 30
0.0
 10
160.1603897308675
 20
144.9215028018779
 30
0.0
 10
160.1439957637987
 20
144.9404490600652
 30
0.0
 10
160.1357974104895
 20
144.9499237721867
 30
0.0
  0
ARC
  5
128
330
1F
100
AcDbEntity
  8
0
  6
Continuous
 62
     7
370
    15
100
AcDbCircle
 10
-46.1286140027
 20
149.4665081967
 30
0.0
 40
206.7373463594239
100
AcDbArc
 50
352.4136151955
 51
358.4448632469
  0
ARC
  5
129
330
1F
100
AcDbEntity
  8
0
  6
Continuous
 62
     7
370
    15
100
AcDbCircle
 10
153.4375828588
 20
122.886958068
 30
0.0
 40
5.408909682474667
100
AcDbArc
 50
276.7079465826
 51
352.4136151955
  0
ARC
  5
12A
330
1F
100
AcDbEntity
  8
0
  6
Continuous
 62
     7
370
    15
100
AcDbCircle
 10
129.1998226743
 20
328.9665081967
 30
0.0
 40
212.9089096824744
100
AcDbArc
 50
263.2920534174
 51
276.7079465826
  0
ARC
  5
12B
330
1F
100
AcDbEntity
  8
0
  6
Continuous
 62
     7
370
    15
100
AcDbCircle
 10
104.9620624898
 20
122.886958068
 30
0.0
 40
5.408909682474611
100
AcDbArc
 50
187.5863848045
 51
263.2920534174
  0
ARC
  5
12C
330
1F
100
AcDbEntity
  8
0
  6
Continuous
 62
     7
370
    15
100
AcDbCircle
 10
-46.1286140027
 20
149.4665081967
 30
0.0
 40
207.1776114339966
100
AcDbArc
 50
352.4136151955
 51
358.4448632469
  0
LINE
  5
12D
330
1F
100
AcDbEntity
  8
0
  6
Continuous
 62
     7
370
    15
100
AcDbLine
 10
159.2355594403
 20
122.11474508
 30
0.0
 11
158.7991480322
 21
122.1728692467
 31
0.0
  0
LINE
  5
12E
330
1F
100
AcDbEntity
  8
0
  6
Continuous
 62
     7
370
    15
100
AcDbLine
 10
160.9726880259
 20
143.843930713
 30
0.0
 11
160.5325851135
 21
143.8558790335
 31
0.0
  0
SPLINE
  5
12F
330
1F
100
AcDbEntity
  8
0
  6
Continuous
 62
     7
370
    15
100
AcDbSpline
210
0.0
220
0.0
230
1.0
 70
     8
 71
     3
 72
    16
 73
    12
 74
     0
 42
0.000000001
 43
0.00000001
 40
0.0
 40
0.0
 40
0.0
 40
0.0
 40
0.0817404272314145
 40
0.165673106535416
 40
0.2518010483118696
 40
0.3725858059563912
 40
0.5009552958273026
 40
0.7507272023836796
 40
0.8749393656327253
 40
0.9270278523672889
 40
0.9999999999999999
 40
0.9999999999999999
 40
0.9999999999999999
 40
0.9999999999999999
 10
126.1438871049086
 20
183.2937957792268
 30
0.0
 10
126.1916360056456
 20
183.2936249085855
 30
0.0
 10
126.2884144173407
 20
183.2932785846072
 30
0.0
 10
126.4349723031385
 20
183.2793107891857
 30
0.0
 10
126.6026147693836
 20
183.2515659630374
 30
0.0
 10
126.7924114790274
 20
183.2019916984148
 30
0.0
 10
127.0650949857572
 20
183.0983646849755
 30
0.0
 10
127.3209508670495
 20
182.9494888092662
 30
0.0
 10
127.5129844626492
 20
182.7908905835322
 30
0.0
 10
127.6182422502179
 20
182.6903179261428
 30
0.0
 10
127.6673680390404
 20
182.6362878076134
 30
0.0
 10
127.6960326490726
 20
182.6047615499233
 30
0.0
  0
SPLINE
  5
130
330
1F
100
AcDbEntity
  8
0
  6
Continuous
 62
     7
370
    15
100
AcDbSpline
210
0.0
220
0.0
230
1.0
 70
     8
 71
     3
 72
    14
 73
    10
 74
     0
 42
0.000000001
 43
0.00000001
 40
0.0
 40
0.0
 40
0.0
 40
0.0
 40
0.1021079589940724
 40
0.1856865695897366
 40
0.2507302582498154
 40
0.5003704376878575
 40
0.7499669973924301
 40
0.8774932966265669
 40
0.9999999999999999
 40
0.9999999999999999
 40
0.9999999999999999
 40
0.9999999999999999
 10
160.4692595628258
 20
145.2424277372888
 30
0.0
 10
160.5025458285199
 20
145.2027781212886
 30
0.0
 10
160.5630779609029
 20
145.1306740340738
 30
0.0
 10
160.635812968709
 20
145.0263121963493
 30
0.0
 10
160.7426577998391
 20
144.85507211385
 30
0.0
 10
160.8652259012957
 20
144.5945315680201
 30
0.0
 10
160.9443108498757
 20
144.2850253616675
 30
0.0
 10
160.9733863835641
 20
144.0329245854019
 30
0.0
 10
160.9729176752454
 20
143.9060798366889
 30
0.0
 10
160.9726880259177
 20
143.8439307130011
 30
0.0
  0
LINE
  5
131
330
1F
100
AcDbEntity
  8
0
  6
Continuous
 62
     7
370
    15
100
AcDbLine
 10
157.7677000811
 20
122.310244328
 30
0.0
 11
157.4025706202
 21
122.3588746921
 31
0.0
  0
LINE
  5
132
330
1F
100
AcDbEntity
  8
0
  6
Continuous
 62
     7
370
    15
100
AcDbLine
 10
153.9478436249
 20
118.548508132
 30
0.0
 11
153.90481679
 21
118.9143402342
 31
0.0
  0
ARC
  5
133
330
1F
100
AcDbEntity
  8
0
  6
Continuous
 62
     7
370
    15
100
AcDbCircle
 10
153.4375828588
 20
122.886958068
 30
0.0
 40
4.000000000000092
100
AcDbArc
 50
276.7079465826
 51
352.4136151955
  0
ARC
  5
134
330
1F
100
AcDbEntity
  8
0
  6
Continuous
 62
     7
370
    15
100
AcDbCircle
 10
-46.1286140027
 20
149.4665081967
 30
0.0
 40
205.3284366769493
100
AcDbArc
 50
352.4136151955
 51
358.3665368464
  0
SPLINE
  5
135
330
1F
100
AcDbEntity
  8
0
  6
Continuous
 62
     7
370
    15
100
AcDbSpline
210
0.0
220
0.0
230
1.0
 70
     8
 71
     3
 72
     8
 73
     4
 74
     0
 42
0.000000001
 43
0.00000001
 40
0.0
 40
0.0
 40
0.0
 40
0.0
 40
0.001524675310037
 40
0.001524675310037
 40
0.001524675310037
 40
0.001524675310037
 10
159.4726786521607
 20
143.1992900795313
 30
0.0
 10
159.3540373624945
 20
143.3372243336192
 30
0.0
 10
159.2352732313091
 20
143.4753034317057
 30
0.0
 10
159.1163848234316
 20
143.6135290344299
 30
0.0
  0
LINE
  5
136
330
1F
100
AcDbEntity
  8
0
  6
Continuous
 62
     7
370
    15
100
AcDbLine
 10
100.6319452674
 20
176.6227720654
 30
0.0
 11
100.9970747284
 21
176.5741417013
 31
0.0
  0
LINE
  5
137
330
1F
100
AcDbEntity
  8
0
  6
Continuous
 62
     7
370
    15
100
AcDbLine
 10
104.4518017237
 20
180.3845082615
 30
0.0
 11
104.4948285585
 21
180.0186761592
 31
0.0
  0
ARC
  5
138
330
1F
100
AcDbEntity
  8
0
  6
Continuous
 62
     7
370
    15
100
AcDbCircle
 10
104.9620624898
 20
176.0460583254
 30
0.0
 40
4.000000000000017
100
AcDbArc
 50
96.7079465826
 51
172.4136151955
  0
SPLINE
  5
139
330
1F
100
AcDbEntity
  8
0
  6
Continuous
 62
     7
370
    15
100
AcDbSpline
210
0.0
220
0.0
230
1.0
 70
     8
 71
     3
 72
    12
 73
     8
 74
     0
 42
0.000000001
 43
0.00000001
 40
0.0
 40
0.0
 40
0.0
 40
0.0
 40
0.2500000000000003
 40
0.2500000000000003
 40
0.5000000000000007
 40
0.5000000000000007
 40
1.0
 40
1.0
 40
1.0
 40
1.0
 10
159.1163848234316
 20
143.6135290344299
 30
0.0
 10
159.1237337380434
 20
143.8712316383587
 30
0.0
 10
159.1065163714865
 20
144.1254435334858
 30
0.0
 10
159.0254196041207
 20
144.627236952112
 30
0.0
 10
158.9606895271054
 20
144.8769844694635
 30
0.0
 10
158.6985629406261
 20
145.5998658790583
 30
0.0
 10
158.4368148795076
 20
146.0430048853061
 30
0.0
 10
158.0968762923778
 20
146.4305437444354
 30
0.0
  0
LINE
  5
13A
330
1F
100
AcDbEntity
  8
0
  6
Continuous
 62
     7
370
    15
100
AcDbLine
 10
100.6319452674
 20
122.310244328
 30
0.0
 11
100.9970747284
 21
122.3588746921
 31
0.0
  0
ARC
  5
13B
330
1F
100
AcDbEntity
  8
0
  6
Continuous
 62
     7
370
    15
100
AcDbCircle
 10
304.5282593512
 20
149.4665081967
 30
0.0
 40
205.3284366769493
100
AcDbArc
 50
172.4136151955
 51
187.5863848045
  0
LINE
  5
13C
330
1F
100
AcDbEntity
  8
0
  6
Continuous
 62
     7
370
    15
100
AcDbLine
 10
104.4518017237
 20
118.548508132
 30
0.0
 11
104.4948285585
 21
118.9143402342
 31
0.0
  0
ARC
  5
13D
330
1F
100
AcDbEntity
  8
0
  6
Continuous
 62
     7
370
    15
100
AcDbCircle
 10
104.9620624898
 20
122.886958068
 30
0.0
 40
4.00000000000001
100
AcDbArc
 50
187.5863848045
 51
263.2920534174
  0
LINE
  5
13E
330
1F
100
AcDbEntity
  8
0
  6
Continuous
 62
     7
370
    15
100
AcDbLine
 10
154.1208160879
 20
117.0778240798
 30
0.0
 11
154.0693893925
 21
117.5150753015
 31
0.0
  0
ARC
  5
13F
330
1F
100
AcDbEntity
  8
0
  6
Continuous
 62
     7
370
    15
100
AcDbCircle
 10
129.1998226743
 20
328.9665081967
 30
0.0
 40
213.3491747570471
100
AcDbArc
 50
263.2920534174
 51
276.7079465826
  0
LINE
  5
140
330
1F
100
AcDbEntity
  8
0
  6
Continuous
 62
     7
370
    15
100
AcDbLine
 10
104.3302559561
 20
117.5150753015
 30
0.0
 11
104.2788292607
 21
117.0778240798
 31
0.0
  0
ARC
  5
141
330
1F
100
AcDbEntity
  8
0
  6
Continuous
 62
     7
370
    15
100
AcDbCircle
 10
153.4375828588
 20
122.886958068
 30
0.0
 40
5.849174757047384
100
AcDbArc
 50
276.7079465826
 51
352.4136151955
  0
ARC
  5
142
330
1F
100
AcDbEntity
  8
0
  6
Continuous
 62
     7
370
    15
100
AcDbCircle
 10
153.4375828588
 20
176.0460583254
 30
0.0
 40
5.852269762475251
100
AcDbArc
 50
7.5863848045
 51
83.2920534174
  0
LINE
  5
143
330
1F
100
AcDbEntity
  8
0
  6
Continuous
 62
     7
370
    15
100
AcDbLine
 10
125.4843619577
 20
181.433870576
 30
0.0
 11
125.1603586984
 21
181.7963503413
 31
0.0
  0
SPLINE
  5
144
330
1F
100
AcDbEntity
  8
0
  6
Continuous
 62
     7
370
    15
100
AcDbSpline
210
0.0
220
0.0
230
1.0
 70
     8
 71
     3
 72
    12
 73
     8
 74
     0
 42
0.000000001
 43
0.00000001
 40
0.0
 40
0.0
 40
0.0
 40
0.0
 40
0.2499999999999987
 40
0.2499999999999987
 40
0.4999999999999991
 40
0.4999999999999991
 40
1.0
 40
1.0
 40
1.0
 40
1.0
 10
128.6128926849456
 20
180.0430543637314
 30
0.0
 10
128.4171322729585
 20
180.2662263412485
 30
0.0
 10
128.2010142562455
 20
180.46434066483
 30
0.0
 10
127.7295722138258
 20
180.8123116402876
 30
0.0
 10
127.4709449662638
 20
180.9631915838897
 30
0.0
 10
126.6669280688823
 20
181.3217734113271
 30
0.0
 10
126.0780984039278
 20
181.4443024668805
 30
0.0
 10
125.4843619577399
 20
181.4338705760346
 30
0.0
  0
ARC
  5
145
330
1F
100
AcDbEntity
  8
0
  6
Continuous
 62
     7
370
    15
100
AcDbCircle
 10
129.1998226743
 20
328.9665081967
 30
0.0
 40
211.4999999999998
100
AcDbArc
 50
263.2920534174
 51
276.7079465826
  0
ARC
  5
146
330
1F
100
AcDbEntity
  8
0
  6
Continuous
 62
     7
370
    15
100
AcDbCircle
 10
104.9620624898
 20
122.886958068
 30
0.0
 40
5.849174757047337
100
AcDbArc
 50
187.5863848045
 51
263.2920534174
  0
LINE
  5
147
330
1F
100
AcDbEntity
  8
0
  6
Continuous
 62
     7
370
    15
100
AcDbLine
 10
99.6004973164
 20
122.1728692467
 30
0.0
 11
99.1640859083
 21
122.11474508
 31
0.0
  0
LINE
  5
148
330
1F
100
AcDbEntity
  8
0
  6
Continuous
 62
     7
370
    15
100
AcDbLine
 10
99.6004973164
 20
176.7601471467
 30
0.0
 11
99.1640859083
 21
176.8182713135
 31
0.0
  0
ARC
  5
149
330
1F
100
AcDbEntity
  8
0
  6
Continuous
 62
     7
370
    15
100
AcDbCircle
 10
104.9620624898
 20
176.0460583254
 30
0.0
 40
5.849174757047358
100
AcDbArc
 50
96.7079465826
 51
172.4136151955
  0
ARC
  5
14A
330
1F
100
AcDbEntity
  8
0
  6
Continuous
 62
     7
370
    15
100
AcDbCircle
 10
304.5282593512
 20
149.4665081967
 30
0.0
 40
207.1776114339966
100
AcDbArc
 50
172.4136151955
 51
187.5863848045
  0
ARC
  5
14B
330
1F
100
AcDbEntity
  8
0
  6
Continuous
 62
     7
370
    15
100
AcDbCircle
 10
129.1998226743
 20
-30.0334918033
 30
0.0
 40
211.4999999999997
100
AcDbArc
 50
91.0065776307
 51
96.7079465826
  0
SPLINE
  5
14C
330
1F
100
AcDbEntity
  8
0
  6
Continuous
 62
     7
370
    15
100
AcDbSpline
210
0.0
220
0.0
230
1.0
 70
     8
 71
     3
 72
    14
 73
    10
 74
     0
 42
0.000000001
 43
0.00000001
 40
0.0
 40
0.0
 40
0.0
 40
0.0
 40
0.25
 40
0.25
 40
0.5
 40
0.5
 40
0.75
 40
0.75
 40
1.0
 40
1.0
 40
1.0
 40
1.0
 10
161.0478426060145
 20
152.9447399179583
 30
0.0
 10
161.0547504611204
 20
152.5332822985902
 30
0.0
 10
160.9349517146237
 20
152.1286987622945
 30
0.0
 10
160.4772160082376
 20
151.4533328149737
 30
0.0
 10
160.1395098793815
 20
151.1897350049993
 30
0.0
 10
159.3771794112931
 20
150.9082524791762
 30
0.0
 10
158.947456438329
 20
150.8893086484052
 30
0.0
 10
158.1622303099187
 20
151.0950803806024
 30
0.0
 10
157.800289634863
 20
151.3180487394028
 30
0.0
 10
157.5289780964961
 20
151.6273509723005
 30
0.0
  0
LINE
  5
14D
330
1F
100
AcDbEntity
  8
0
  6
Continuous
 62
     7
370
    15
100
AcDbLine
 10
157.5289780965
 20
151.6273509723
 30
0.0
 11
157.5128053986
 21
151.6457882699
 31
0.0
  0
LINE
  5
14E
330
1F
100
AcDbEntity
  8
0
  6
Continuous
 62
     7
370
    15
100
AcDbLine
 10
161.0223996291
 20
152.9740247081
 30
0.0
 11
161.047842606
 21
152.944739918
 31
0.0
  0
SPLINE
  5
14F
330
1F
100
AcDbEntity
  8
0
  6
Continuous
 62
     7
370
    15
100
AcDbSpline
210
0.0
220
0.0
230
1.0
 70
     8
 71
     3
 72
    10
 73
     6
 74
     0
 42
0.000000001
 43
0.00000001
 40
0.0
 40
0.0
 40
0.0
 40
0.0
 40
0.5
 40
0.5
 40
1.0
 40
1.0
 40
1.0
 40
1.0
 10
160.4900293691007
 20
145.2187496162021
 30
0.0
 10
160.6599720449142
 20
145.0250105315686
 30
0.0
 10
160.7894070442057
 20
144.8066076505481
 30
0.0
 10
160.9655293639733
 20
144.3226468775687
 30
0.0
 10
161.0069202896784
 20
144.0702923111451
 30
0.0
 10
160.9998867791493
 20
143.8126216827182
 30
0.0
  0
LINE
  5
150
330
1F
100
AcDbEntity
  8
0
  6
Continuous
 62
     7
370
    15
100
AcDbLine
 10
160.9998867791
 20
143.8126216827
 30
0.0
 11
160.9726883357
 21
143.8439303564
 31
0.0
  0
LINE
  5
151
330
1F
100
AcDbEntity
  8
0
  6
Continuous
 62
     7
370
    15
100
AcDbLine
 10
160.4692595628
 20
145.2424277373
 30
0.0
 11
160.4900293691
 21
145.2187496162
 31
0.0
  0
SPLINE
  5
152
330
1F
100
AcDbEntity
  8
0
  6
Continuous
 62
     7
370
    15
100
AcDbSpline
210
0.0
220
0.0
230
1.0
 70
     8
 71
     3
 72
    16
 73
    12
 74
     0
 42
0.000000001
 43
0.00000001
 40
0.0
 40
0.0
 40
0.0
 40
0.0
 40
0.125
 40
0.125
 40
0.2500000000000001
 40
0.2500000000000001
 40
0.5000000000000001
 40
0.5000000000000001
 40
0.7500000000000002
 40
0.7500000000000002
 40
1.0
 40
1.0
 40
1.0
 40
1.0
 10
132.6842569623508
 20
179.9509813227256
 30
0.0
 10
132.5556090272469
 20
180.0976433254727
 30
0.0
 10
132.4504621911524
 20
180.2587727961816
 30
0.0
 10
132.2862417734217
 20
180.6093948083011
 30
0.0
 10
132.2292340095329
 20
180.7963885949053
 30
0.0
 10
132.1406198439555
 20
181.3674956370381
 30
0.0
 10
132.1940607356076
 20
181.7698199275256
 30
0.0
 10
132.5107813749268
 20
182.4717186818604
 30
0.0
 10
132.7744779073952
 20
182.7760657686802
 30
0.0
 10
133.4326739164297
 20
183.1888378544256
 30
0.0
 10
133.8173930167556
 20
183.294111735037
 30
0.0
 10
134.2075658369833
 20
183.2849522585493
 30
0.0
  0
LINE
  5
153
330
1F
100
AcDbEntity
  8
0
  6
Continuous
 62
     7
370
    15
100
AcDbLine
 10
134.207565837
 20
183.2849522585
 30
0.0
 11
134.2301313847
 21
183.2594674432
 31
0.0
  0
LINE
  5
154
330
1F
100
AcDbEntity
  8
0
  6
Continuous
 62
     7
370
    15
100
AcDbLine
 10
132.6984646691
 20
179.9347841663
 30
0.0
 11
132.6842569624
 21
179.9509813227
 31
0.0
  0
SPLINE
  5
155
330
1F
100
AcDbEntity
  8
0
  6
Continuous
 62
     7
370
    15
100
AcDbSpline
210
0.0
220
0.0
230
1.0
 70
     8
 71
     3
 72
    10
 73
     6
 74
     0
 42
0.000000001
 43
0.00000001
 40
0.0
 40
0.0
 40
0.0
 40
0.0
 40
0.5
 40
0.5
 40
1.0
 40
1.0
 40
1.0
 40
1.0
 10
126.1193701406755
 20
183.3214867670164
 30
0.0
 10
126.4151937108186
 20
183.3257579139671
 30
0.0
 10
126.707111014152
 20
183.2644060835537
 30
0.0
 10
127.2410152331416
 20
183.025728752934
 30
0.0
 10
127.4824338163016
 20
182.8482697925807
 30
0.0
 10
127.6774885990495
 20
182.6259022508078
 30
0.0
  0
LINE
  5
156
330
1F
100
AcDbEntity
  8
0
  6
Continuous
 62
     7
370
    15
100
AcDbLine
 10
127.677488599
 20
182.6259022508
 30
0.0
 11
127.6960327477
 21
182.6047614375
 31
0.0
  0
LINE
  5
157
330
1F
100
AcDbEntity
  8
0
  6
Continuous
 62
     7
370
    15
100
AcDbLine
 10
126.1438871049
 20
183.2937957792
 30
0.0
 11
126.1193701407
 21
183.321486767
 31
0.0
  0
ARC
  5
158
330
1F
100
AcDbEntity
  8
0
  6
Continuous
 62
     7
370
    15
100
AcDbCircle
 10
129.1998226743
 20
-30.0334918033
 30
0.0
 40
213.3772154390969
100
AcDbArc
 50
88.6552036815
 51
90.827187946
  0
LINE
  5
159
330
1F
100
AcDbEntity
  8
0
  6
Continuous
 62
     7
370
    15
100
AcDbLine
 10
104.2788292607
 20
181.8551923136
 30
0.0
 11
104.2612115929
 21
182.0049850761
 31
0.0
  0
LINE
  5
15A
330
1F
100
AcDbEntity
  8
0
  6
Continuous
 62
     7
370
    15
100
AcDbLine
 10
154.1211776108
 20
181.8582661321
 30
0.0
 11
154.1384337557
 21
182.0049850761
 31
0.0
  0
LINE
  5
15B
330
1F
100
AcDbEntity
  8
0
  6
Continuous
 62
     7
370
    15
100
AcDbLine
 10
159.2355594403
 20
122.11474508
 30
0.0
 11
159.3850645009
 21
122.0948330041
 31
0.0
  0
ARC
  5
15C
330
1F
100
AcDbEntity
  8
0
  6
Continuous
 62
     7
370
    15
100
AcDbCircle
 10
-46.1286140027
 20
149.4665081967
 30
0.0
 40
207.2056521160464
100
AcDbArc
 50
358.4364130818
 51
0.9618335999
  0
LINE
  5
15D
330
1F
100
AcDbEntity
  8
0
  6
Continuous
 62
     7
370
    15
100
AcDbLine
 10
159.2386273549
 20
176.8186799187
 30
0.0
 11
159.3850645009
 21
176.8381833893
 31
0.0
  0
LINE
  5
15E
330
1F
100
AcDbEntity
  8
0
  6
Continuous
 62
     7
370
    15
100
AcDbLine
 10
99.1640859083
 20
176.8182713135
 30
0.0
 11
99.0145808477
 21
176.8381833893
 31
0.0
  0
LINE
  5
15F
330
1F
100
AcDbEntity
  8
0
  6
Continuous
 62
     7
370
    15
100
AcDbLine
 10
99.1640859083
 20
122.11474508
 30
0.0
 11
99.0145808477
 21
122.0948330041
 31
0.0
  0
LINE
  5
160
330
1F
100
AcDbEntity
  8
0
  6
Continuous
 62
     7
370
    15
100
AcDbLine
 10
154.1208160879
 20
117.0778240798
 30
0.0
 11
154.1384337557
 21
116.9280313173
 31
0.0
  0
LINE
  5
161
330
1F
100
AcDbEntity
  8
0
  6
Continuous
 62
     7
370
    15
100
AcDbLine
 10
104.2788292607
 20
117.0778240798
 30
0.0
 11
104.2612115929
 21
116.9280313173
 31
0.0
  0
ARC
  5
162
330
1F
100
AcDbEntity
  8
0
  6
Continuous
 62
     7
370
    15
100
AcDbCircle
 10
304.5282593512
 20
149.4665081967
 30
0.0
 40
207.3284366769493
100
AcDbArc
 50
172.4136151955
 51
187.5863848045
  0
ARC
  5
163
330
1F
100
AcDbEntity
  8
0
  6
Continuous
 62
     7
370
    15
100
AcDbCircle
 10
104.9620624898
 20
122.886958068
 30
0.0
 40
6.000000000000003
100
AcDbArc
 50
187.5863848045
 51
263.2920534174
  0
ARC
  5
164
330
1F
100
AcDbEntity
  8
0
  6
Continuous
 62
     7
370
    15
100
AcDbCircle
 10
129.1998226743
 20
328.9665081967
 30
0.0
 40
213.4999999999998
100
AcDbArc
 50
263.2920534174
 51
276.7079465826
  0
ARC
  5
165
330
1F
100
AcDbEntity
  8
0
  6
Continuous
 62
     7
370
    15
100
AcDbCircle
 10
153.4375828588
 20
122.886958068
 30
0.0
 40
6.000000000000034
100
AcDbArc
 50
276.7079465826
 51
352.4136151955
  0
ARC
  5
166
330
1F
100
AcDbEntity
  8
0
  6
Continuous
 62
     7
370
    15
100
AcDbCircle
 10
-46.1286140027
 20
149.4665081967
 30
0.0
 40
207.3284366769493
100
AcDbArc
 50
352.4136151955
 51
7.5863848045
  0
ARC
  5
167
330
1F
100
AcDbEntity
  8
0
  6
Continuous
 62
     7
370
    15
100
AcDbCircle
 10
153.4375828588
 20
176.0460583254
 30
0.0
 40
6.000000000000052
100
AcDbArc
 50
7.5863848045
 51
83.2920534174
  0
ARC
  5
168
330
1F
100
AcDbEntity
  8
0
  6
Continuous
 62
     7
370
    15
100
AcDbCircle
 10
129.1998226743
 20
-30.0334918033
 30
0.0
 40
213.4999999999998
100
AcDbArc
 50
83.2920534174
 51
96.7079465826
  0
ARC
  5
169
330
1F
100
AcDbEntity
  8
0
  6
Continuous
 62
     7
370
    15
100
AcDbCircle
 10
104.9620624898
 20
176.0460583254
 30
0.0
 40
5.999999999999997
100
AcDbArc
 50
96.7079465826
 51
172.4136151955
  0
CIRCLE
  5
16A
330
1F
100
AcDbEntity
  8
0
  6
Continuous
 62
     7
370
    15
100
AcDbCircle
 10
105.386382379
 20
142.3726638104
 30
0.0
 40
1.683266234803483
  0
CIRCLE
  5
16B
330
1F
100
AcDbEntity
  8
0
  6
Continuous
 62
     7
370
    15
100
AcDbCircle
 10
151.9499572305
 20
144.8132341769
 30
0.0
 40
1.683266234803483
  0
DIMENSION
  5
16C
330
1F
100
AcDbEntity
  8
0
  6
Continuous
 62
     7
370
     0
100
AcDbDimension
  2
_D
 10
104.9620624898
 20
122.886958068
 30
0.0
 11
74.162803755
 21
114.6343288831
 31
0.0
 70
   164
  1
<>
 71
     1
 42
-1.0
  3
SLDDIMSTYLE0
100
AcDbRadialDimension
 15
101.0983591846
 25
121.8516818876
 35
0.0
 40
0.0
  0
DIMENSION
  5
175
330
1F
100
AcDbEntity
  8
0
  6
Continuous
 62
     7
370
     0
100
AcDbDimension
  2
_D_1
 10
129.1998226743
 20
328.9665081967
 30
0.0
 11
129.1998326743
 21
97.4912940143
 31
0.0
 70
   164
  1
<>
 71
     1
 42
-1.0
  3
SLDDIMSTYLE1
100
AcDbRadialDimension
 15
129.1998226743
 25
117.4665081967
 35
0.0
 40
0.0
  0
DIMENSION
  5
17E
330
1F
100
AcDbEntity
  8
0
  6
Continuous
 62
     7
370
     0
100
AcDbDimension
  2
_D_2
 10
304.5282593512
 20
149.4665081967
 30
0.0
 11
76.9196518244
 21
131.1104343224
 31
0.0
 70
   164
  1
<>
 71
     1
 42
-1.0
  3
SLDDIMSTYLE1
100
AcDbRadialDimension
 15
99.8643143737
 25
132.9608566055
 35
0.0
 40
0.0
  0
DIMENSION
  5
186
330
1F
100
AcDbEntity
  8
0
  6
Continuous
 62
     7
370
     0
100
AcDbDimension
  2
_D_3
 10
157.4025706202
 20
84.8613500337
 30
0.0
 11
146.3935047258
 21
84.8613500337
 31
0.0
 70
   160
  1
<>
 71
     2
 42
-1.0
  3
SLDDIMSTYLE2
100
AcDbAlignedDimension
 13
100.9970747284
 23
122.3588746921
 33
0.0
 14
157.4025706202
 24
122.3588746921
 34
0.0
 50
0.0
100
AcDbRotatedDimension
  0
INSERT
  5
19C
330
1F
100
AcDbEntity
  8
0
  6
Continuous
 62
     7
370
     0
100
AcDbBlockReference
  2
SW_CENTERMARKSYMBOL_0
 10
151.9499572305
 20
144.8132341769
 30
0.0
  0
INSERT
  5
1A8
330
1F
100
AcDbEntity
  8
0
  6
Continuous
 62
     7
370
     0
100
AcDbBlockReference
  2
SW_CENTERMARKSYMBOL_1
 10
105.386382379
 20
142.3726638104
 30
0.0
  0
ENDSEC
  0
SECTION
  2
OBJECTS
  0
DICTIONARY
  5
C
330
0
100
AcDbDictionary
281
     1
  3
ACAD_GROUP
350
D
  3
ACAD_LAYOUT
350
1A
  3
ACAD_MLINESTYLE
350
17
  3
ACAD_PLOTSETTINGS
350
19
  3
ACAD_PLOTSTYLENAME
350
E
  3
ACAD_SCALELIST
350
47
  0
DICTIONARY
  5
D
102
{ACAD_REACTORS
330
C
102
}
330
C
100
AcDbDictionary
281
     1
  0
DICTIONARY
  5
1A
102
{ACAD_REACTORS
330
C
102
}
330
C
100
AcDbDictionary
281
     1
  3
Layout1
350
1E
  3
Layout2
350
26
  3
Model
350
22
  0
DICTIONARY
  5
17
102
{ACAD_REACTORS
330
C
102
}
330
C
100
AcDbDictionary
281
     1
  3
Standard
350
18
  0
DICTIONARY
  5
19
102
{ACAD_REACTORS
330
C
102
}
330
C
100
AcDbDictionary
281
     1
  0
ACDBDICTIONARYWDFLT
  5
E
102
{ACAD_REACTORS
330
C
102
}
330
C
100
AcDbDictionary
281
     1
  3
Normal
350
F
100
AcDbDictionaryWithDefault
340
F
  0
DICTIONARY
  5
47
102
{ACAD_REACTORS
330
C
102
}
330
C
100
AcDbDictionary
281
     1
  3
A0
350
48
  3
A1
350
49
  3
A2
350
4A
  3
A3
350
4B
  3
A4
350
4C
  3
A5
350
4D
  3
A6
350
4E
  3
A7
350
4F
  3
A8
350
50
  3
A9
350
51
  3
B0
350
52
  3
B1
350
53
  3
B2
350
54
  3
B3
350
55
  3
B4
350
56
  3
B5
350
57
  3
B6
350
58
  3
B7
350
59
  3
B8
350
5A
  3
B9
350
5B
  3
C0
350
5C
  3
C1
350
5D
  3
C2
350
5E
  3
C3
350
5F
  3
C4
350
60
  3
C5
350
61
  3
C6
350
62
  3
C7
350
63
  3
C8
350
64
  3
C9
350
65
  3
D0
350
66
  3
D1
350
67
  3
D2
350
68
  0
LAYOUT
  5
1E
102
{ACAD_REACTORS
330
1A
102
}
330
1A
100
AcDbPlotSettings
  1

  2
none_device
  4

  6

 40
0.0
 41
0.0
 42
0.0
 43
0.0
 44
0.0
 45
0.0
 46
0.0
 47
0.0
 48
0.0
 49
0.0
140
0.0
141
0.0
142
1.0
143
1.0
 70
   688
 72
     1
 73
     0
 74
     5
  7

 75
    16
147
1.0
148
0.0
149
0.0
100
AcDbLayout
  1
Layout1
 70
     1
 71
     1
 10
0.0
 20
0.0
 11
420.0
 21
297.0
 12
0.0
 22
0.0
 32
0.0
 14
1.0000000000E+20
 24
1.0000000000E+20
 34
1.0000000000E+20
 15
-1.0000000000E+20
 25
-1.0000000000E+20
 35
-1.0000000000E+20
146
0.0
 13
0.0
 23
0.0
 33
0.0
 16
1.0
 26
0.0
 36
0.0
 17
0.0
 27
1.0
 37
0.0
 76
     0
330
1B
  0
LAYOUT
  5
26
102
{ACAD_REACTORS
330
1A
102
}
330
1A
100
AcDbPlotSettings
  1

  2
none_device
  4

  6

 40
0.0
 41
0.0
 42
0.0
 43
0.0
 44
0.0
 45
0.0
 46
0.0
 47
0.0
 48
0.0
 49
0.0
140
0.0
141
0.0
142
1.0
143
1.0
 70
   688
 72
     1
 73
     0
 74
     5
  7

 75
    16
147
1.0
148
0.0
149
0.0
100
AcDbLayout
  1
Layout2
 70
     1
 71
     2
 10
0.0
 20
0.0
 11
0.0
 21
0.0
 12
0.0
 22
0.0
 32
0.0
 14
0.0
 24
0.0
 34
0.0
 15
0.0
 25
0.0
 35
0.0
146
0.0
 13
0.0
 23
0.0
 33
0.0
 16
1.0
 26
0.0
 36
0.0
 17
0.0
 27
1.0
 37
0.0
 76
     0
330
23
  0
LAYOUT
  5
22
102
{ACAD_REACTORS
330
1A
102
}
330
1A
100
AcDbPlotSettings
  1

  2
none_device
  4
Letter_(8.50_x_11.00_Inches)
  6

 40
6.35
 41
6.35
 42
6.35000508
 43
6.35000508
 44
215.9
 45
279.4
 46
0.0
 47
0.0
 48
0.0
 49
0.0
140
0.0
141
0.0
142
1.0
143
1.0
 70
  1712
 72
     1
 73
     0
 74
     0
  7

 75
     0
147
1.0
148
0.0
149
0.0
100
AcDbLayout
  1
Model
 70
     1
 71
     0
 10
0.0
 20
0.0
 11
279.4
 21
215.9
 12
0.0
 22
0.0
 32
0.0
 14
0.0
 24
0.0
 34
0.0
 15
279.4
 25
215.9
 35
0.0
146
0.0
 13
0.0
 23
0.0
 33
0.0
 16
1.0
 26
0.0
 36
0.0
 17
0.0
 27
1.0
 37
0.0
 76
     0
330
1F
331
29
  0
MLINESTYLE
  5
18
102
{ACAD_REACTORS
330
17
102
}
330
17
100
AcDbMlineStyle
  2
Standard
 70
     0
  3

 62
   256
 51
90.0
 52
90.0
 71
     2
 49
0.5
 62
   256
  6
BYLAYER
 49
-0.5
 62
   256
  6
BYLAYER
  0
ACDBPLACEHOLDER
  5
F
102
{ACAD_REACTORS
330
E
102
}
330
E
  0
SCALE
  5
48
102
{ACAD_REACTORS
330
47
102
}
330
47
100
AcDbScale
 70
     0
300
1:1
140
1.0
141
1.0
290
     1
  0
SCALE
  5
49
102
{ACAD_REACTORS
330
47
102
}
330
47
100
AcDbScale
 70
     0
300
1:2
140
1.0
141
2.0
290
     0
  0
SCALE
  5
4A
102
{ACAD_REACTORS
330
47
102
}
330
47
100
AcDbScale
 70
     0
300
1:4
140
1.0
141
4.0
290
     0
  0
SCALE
  5
4B
102
{ACAD_REACTORS
330
47
102
}
330
47
100
AcDbScale
 70
     0
300
1:5
140
1.0
141
5.0
290
     0
  0
SCALE
  5
4C
102
{ACAD_REACTORS
330
47
102
}
330
47
100
AcDbScale
 70
     0
300
1:8
140
1.0
141
8.0
290
     0
  0
SCALE
  5
4D
102
{ACAD_REACTORS
330
47
102
}
330
47
100
AcDbScale
 70
     0
300
1:10
140
1.0
141
10.0
290
     0
  0
SCALE
  5
4E
102
{ACAD_REACTORS
330
47
102
}
330
47
100
AcDbScale
 70
     0
300
1:16
140
1.0
141
16.0
290
     0
  0
SCALE
  5
4F
102
{ACAD_REACTORS
330
47
102
}
330
47
100
AcDbScale
 70
     0
300
1:20
140
1.0
141
20.0
290
     0
  0
SCALE
  5
50
102
{ACAD_REACTORS
330
47
102
}
330
47
100
AcDbScale
 70
     0
300
1:30
140
1.0
141
30.0
290
     0
  0
SCALE
  5
51
102
{ACAD_REACTORS
330
47
102
}
330
47
100
AcDbScale
 70
     0
300
1:40
140
1.0
141
40.0
290
     0
  0
SCALE
  5
52
102
{ACAD_REACTORS
330
47
102
}
330
47
100
AcDbScale
 70
     0
300
1:50
140
1.0
141
50.0
290
     0
  0
SCALE
  5
53
102
{ACAD_REACTORS
330
47
102
}
330
47
100
AcDbScale
 70
     0
300
1:100
140
1.0
141
100.0
290
     0
  0
SCALE
  5
54
102
{ACAD_REACTORS
330
47
102
}
330
47
100
AcDbScale
 70
     0
300
2:1
140
2.0
141
1.0
290
     0
  0
SCALE
  5
55
102
{ACAD_REACTORS
330
47
102
}
330
47
100
AcDbScale
 70
     0
300
4:1
140
4.0
141
1.0
290
     0
  0
SCALE
  5
56
102
{ACAD_REACTORS
330
47
102
}
330
47
100
AcDbScale
 70
     0
300
8:1
140
8.0
141
1.0
290
     0
  0
SCALE
  5
57
102
{ACAD_REACTORS
330
47
102
}
330
47
100
AcDbScale
 70
     0
300
10:1
140
10.0
141
1.0
290
     0
  0
SCALE
  5
58
102
{ACAD_REACTORS
330
47
102
}
330
47
100
AcDbScale
 70
     0
300
100:1
140
100.0
141
1.0
290
     0
  0
SCALE
  5
59
102
{ACAD_REACTORS
330
47
102
}
330
47
100
AcDbScale
 70
     0
300
1/128" = 1'-0"
140
0.0078125
141
12.0
290
     0
  0
SCALE
  5
5A
102
{ACAD_REACTORS
330
47
102
}
330
47
100
AcDbScale
 70
     0
300
1/64" = 1'-0"
140
0.015625
141
12.0
290
     0
  0
SCALE
  5
5B
102
{ACAD_REACTORS
330
47
102
}
330
47
100
AcDbScale
 70
     0
300
1/32" = 1'-0"
140
0.03125
141
12.0
290
     0
  0
SCALE
  5
5C
102
{ACAD_REACTORS
330
47
102
}
330
47
100
AcDbScale
 70
     0
300
1/16" = 1'-0"
140
0.0625
141
12.0
290
     0
  0
SCALE
  5
5D
102
{ACAD_REACTORS
330
47
102
}
330
47
100
AcDbScale
 70
     0
300
3/32" = 1'-0"
140
0.09375
141
12.0
290
     0
  0
SCALE
  5
5E
102
{ACAD_REACTORS
330
47
102
}
330
47
100
AcDbScale
 70
     0
300
1/8" = 1'-0"
140
0.125
141
12.0
290
     0
  0
SCALE
  5
5F
102
{ACAD_REACTORS
330
47
102
}
330
47
100
AcDbScale
 70
     0
300
3/16" = 1'-0"
140
0.1875
141
12.0
290
     0
  0
SCALE
  5
60
102
{ACAD_REACTORS
330
47
102
}
330
47
100
AcDbScale
 70
     0
300
1/4" = 1'-0"
140
0.25
141
12.0
290
     0
  0
SCALE
  5
61
102
{ACAD_REACTORS
330
47
102
}
330
47
100
AcDbScale
 70
     0
300
3/8" = 1'-0"
140
0.375
141
12.0
290
     0
  0
SCALE
  5
62
102
{ACAD_REACTORS
330
47
102
}
330
47
100
AcDbScale
 70
     0
300
1/2" = 1'-0"
140
0.5
141
12.0
290
     0
  0
SCALE
  5
63
102
{ACAD_REACTORS
330
47
102
}
330
47
100
AcDbScale
 70
     0
300
3/4" = 1'-0"
140
0.75
141
12.0
290
     0
  0
SCALE
  5
64
102
{ACAD_REACTORS
330
47
102
}
330
47
100
AcDbScale
 70
     0
300
1" = 1'-0"
140
1.0
141
12.0
290
     0
  0
SCALE
  5
65
102
{ACAD_REACTORS
330
47
102
}
330
47
100
AcDbScale
 70
     0
300
1-1/2" = 1'-0"
140
1.5
141
12.0
290
     0
  0
SCALE
  5
66
102
{ACAD_REACTORS
330
47
102
}
330
47
100
AcDbScale
 70
     0
300
3" = 1'-0"
140
3.0
141
12.0
290
     0
  0
SCALE
  5
67
102
{ACAD_REACTORS
330
47
102
}
330
47
100
AcDbScale
 70
     0
300
6" = 1'-0"
140
6.0
141
12.0
290
     0
  0
SCALE
  5
68
102
{ACAD_REACTORS
330
47
102
}
330
47
100
AcDbScale
 70
     0
300
1'-0" = 1'-0"
140
12.0
141
12.0
290
     0
  0
ENDSEC
  0
EOF
