  0
SECTION
  2
HEADER
  9
$ACADVER
  1
AC1015
  9
$ACADMAINTVER
 70
     6
  9
$DWGCODEPAGE
  3
ANSI_1254
  9
$INSBASE
 10
0.0
 20
0.0
 30
0.0
  9
$EXTMIN
 10
0.0
 20
0.0
 30
0.0
  9
$EXTMAX
 10
279.4
 20
215.9
 30
0.0
  9
$LIMMIN
 10
0.0
 20
0.0
  9
$LIMMAX
 10
279.4
 20
215.9
  9
$ORTHOMODE
 70
     0
  9
$REGENMODE
 70
     1
  9
$FILLMODE
 70
     1
  9
$QTEXTMODE
 70
     0
  9
$MIRRTEXT
 70
     1
  9
$LTSCALE
 40
1.0
  9
$ATTMODE
 70
     1
  9
$TEXTSIZE
 40
3.5
  9
$TRACEWID
 40
1.0
  9
$TEXTSTYLE
  7
Standard
  9
$CLAYER
  8
0
  9
$CELTYPE
  6
ByLayer
  9
$CECOLOR
 62
   256
  9
$CELTSCALE
 40
1.0
  9
$DISPSILH
 70
     0
  9
$DIMSCALE
 40
1.0
  9
$DIMASZ
 40
3.302
  9
$DIMEXO
 40
1.0
  9
$DIMDLI
 40
3.75
  9
$DIMRND
 40
0.0
  9
$DIMDLE
 40
0.0
  9
$DIMEXE
 40
1.0
  9
$DIMTP
 40
0.0
  9
$DIMTM
 40
0.0
  9
$DIMTXT
 40
3.5
  9
$DIMCEN
 40
2.5
  9
$DIMTSZ
 40
0.0
  9
$DIMTOL
 70
     0
  9
$DIMLIM
 70
     0
  9
$DIMTIH
 70
     1
  9
$DIMTOH
 70
     1
  9
$DIMSE1
 70
     0
  9
$DIMSE2
 70
     0
  9
$DIMTAD
 70
     1
  9
$DIMZIN
 70
     0
  9
$DIMBLK
  1

  9
$DIMASO
 70
     1
  9
$DIMSHO
 70
     1
  9
$DIMPOST
  1

  9
$DIMAPOST
  1

  9
$DIMALT
 70
     0
  9
$DIMALTD
 70
     3
  9
$DIMALTF
 40
0.0393700787
  9
$DIMLFAC
 40
1.0
  9
$DIMTOFL
 70
     1
  9
$DIMTVP
 40
0.0
  9
$DIMTIX
 70
     0
  9
$DIMSOXD
 70
     0
  9
$DIMSAH
 70
     0
  9
$DIMBLK1
  1

  9
$DIMBLK2
  1

  9
$DIMSTYLE
  2
ISO-25
  9
$DIMCLRD
 70
     0
  9
$DIMCLRE
 70
     0
  9
$DIMCLRT
 70
     0
  9
$DIMTFAC
 40
1.0
  9
$DIMGAP
 40
1.524
  9
$DIMJUST
 70
     0
  9
$DIMSD1
 70
     0
  9
$DIMSD2
 70
     0
  9
$DIMTOLJ
 70
     0
  9
$DIMTZIN
 70
     0
  9
$DIMALTZ
 70
     0
  9
$DIMALTTZ
 70
     0
  9
$DIMUPT
 70
     0
  9
$DIMDEC
 70
     2
  9
$DIMTDEC
 70
     2
  9
$DIMALTU
 70
     2
  9
$DIMALTTD
 70
     3
  9
$DIMTXSTY
  7
Standard
  9
$DIMAUNIT
 70
     0
  9
$DIMADEC
 70
     2
  9
$DIMALTRND
 40
0.0
  9
$DIMAZIN
 70
     0
  9
$DIMDSEP
 70
    44
  9
$DIMATFIT
 70
     3
  9
$DIMFRAC
 70
     0
  9
$DIMLDRBLK
  1

  9
$DIMLUNIT
 70
     2
  9
$DIMLWD
 70
    -2
  9
$DIMLWE
 70
    -2
  9
$DIMTMOVE
 70
     0
  9
$LUNITS
 70
     2
  9
$LUPREC
 70
     2
  9
$SKETCHINC
 40
1.0
  9
$FILLETRAD
 40
10.0
  9
$AUNITS
 70
     0
  9
$AUPREC
 70
     2
  9
$MENU
  1
.
  9
$ELEVATION
 40
0.0
  9
$PELEVATION
 40
0.0
  9
$THICKNESS
 40
0.0
  9
$LIMCHECK
 70
     0
  9
$CHAMFERA
 40
0.0
  9
$CHAMFERB
 40
0.0
  9
$CHAMFERC
 40
0.0
  9
$CHAMFERD
 40
0.0
  9
$SKPOLY
 70
     0
  9
$TDCREATE
 40
2458162.45677794
  9
$TDUCREATE
 40
2458162.33177794
  9
$TDUPDATE
 40
2458162.456785474
  9
$TDUUPDATE
 40
2458162.331785474
  9
$TDINDWG
 40
0.0000000116
  9
$TDUSRTIMER
 40
0.0000000116
  9
$USRTIMER
 70
     1
  9
$ANGBASE
 50
0.0
  9
$ANGDIR
 70
     0
  9
$PDMODE
 70
     0
  9
$PDSIZE
 40
-1.0
  9
$PLINEWID
 40
0.0
  9
$SPLFRAME
 70
     0
  9
$SPLINETYPE
 70
     6
  9
$SPLINESEGS
 70
     8
  9
$HANDSEED
  5
27E
  9
$SURFTAB1
 70
     6
  9
$SURFTAB2
 70
     6
  9
$SURFTYPE
 70
     6
  9
$SURFU
 70
     6
  9
$SURFV
 70
     6
  9
$UCSBASE
  2

  9
$UCSNAME
  2

  9
$UCSORG
 10
0.0
 20
0.0
 30
0.0
  9
$UCSXDIR
 10
1.0
 20
0.0
 30
0.0
  9
$UCSYDIR
 10
0.0
 20
1.0
 30
0.0
  9
$UCSORTHOREF
  2

  9
$UCSORTHOVIEW
 70
     0
  9
$UCSORGTOP
 10
0.0
 20
0.0
 30
0.0
  9
$UCSORGBOTTOM
 10
0.0
 20
0.0
 30
0.0
  9
$UCSORGLEFT
 10
0.0
 20
0.0
 30
0.0
  9
$UCSORGRIGHT
 10
0.0
 20
0.0
 30
0.0
  9
$UCSORGFRONT
 10
0.0
 20
0.0
 30
0.0
  9
$UCSORGBACK
 10
0.0
 20
0.0
 30
0.0
  9
$PUCSBASE
  2

  9
$PUCSNAME
  2

  9
$PUCSORG
 10
0.0
 20
0.0
 30
0.0
  9
$PUCSXDIR
 10
1.0
 20
0.0
 30
0.0
  9
$PUCSYDIR
 10
0.0
 20
1.0
 30
0.0
  9
$PUCSORTHOREF
  2

  9
$PUCSORTHOVIEW
 70
     0
  9
$PUCSORGTOP
 10
0.0
 20
0.0
 30
0.0
  9
$PUCSORGBOTTOM
 10
0.0
 20
0.0
 30
0.0
  9
$PUCSORGLEFT
 10
0.0
 20
0.0
 30
0.0
  9
$PUCSORGRIGHT
 10
0.0
 20
0.0
 30
0.0
  9
$PUCSORGFRONT
 10
0.0
 20
0.0
 30
0.0
  9
$PUCSORGBACK
 10
0.0
 20
0.0
 30
0.0
  9
$USERI1
 70
     0
  9
$USERI2
 70
     0
  9
$USERI3
 70
     0
  9
$USERI4
 70
     0
  9
$USERI5
 70
     0
  9
$USERR1
 40
0.0
  9
$USERR2
 40
0.0
  9
$USERR3
 40
0.0
  9
$USERR4
 40
0.0
  9
$USERR5
 40
0.0
  9
$WORLDVIEW
 70
     1
  9
$SHADEDGE
 70
     3
  9
$SHADEDIF
 70
    70
  9
$TILEMODE
 70
     1
  9
$MAXACTVP
 70
    64
  9
$PINSBASE
 10
0.0
 20
0.0
 30
0.0
  9
$PLIMCHECK
 70
     0
  9
$PEXTMIN
 10
1.0000000000E+20
 20
1.0000000000E+20
 30
1.0000000000E+20
  9
$PEXTMAX
 10
-1.0000000000E+20
 20
-1.0000000000E+20
 30
-1.0000000000E+20
  9
$PLIMMIN
 10
0.0
 20
0.0
  9
$PLIMMAX
 10
420.0
 20
297.0
  9
$UNITMODE
 70
     0
  9
$VISRETAIN
 70
     1
  9
$PLINEGEN
 70
     0
  9
$PSLTSCALE
 70
     1
  9
$TREEDEPTH
 70
  3020
  9
$CMLSTYLE
  2
Standard
  9
$CMLJUST
 70
     0
  9
$CMLSCALE
 40
20.0
  9
$PROXYGRAPHICS
 70
     1
  9
$MEASUREMENT
 70
     1
  9
$CELWEIGHT
370
    -1
  9
$ENDCAPS
280
     0
  9
$JOINSTYLE
280
     0
  9
$LWDISPLAY
290
     1
  9
$INSUNITS
 70
     4
  9
$HYPERLINKBASE
  1

  9
$STYLESHEET
  1

  9
$XEDIT
290
     1
  9
$CEPSNTYPE
380
     0
  9
$PSTYLEMODE
290
     1
  9
$FINGERPRINTGUID
  2
{C497E98C-E356-492C-8D2D-7AD5D10BE815}
  9
$VERSIONGUID
  2
{FAEB1C32-E019-11D5-929B-00C0DF256EC4}
  9
$EXTNAMES
290
     1
  9
$PSVPSCALE
 40
0.0
  9
$OLESTARTUP
290
     0
  0
ENDSEC
  0
SECTION
  2
CLASSES
  0
CLASS
  1
ACDBDICTIONARYWDFLT
  2
AcDbDictionaryWithDefault
  3
ObjectDBX Classes
 90
        0
280
     0
281
     0
  0
CLASS
  1
VISUALSTYLE
  2
AcDbVisualStyle
  3
ObjectDBX Classes
 90
     4095
280
     0
281
     0
  0
CLASS
  1
MATERIAL
  2
AcDbMaterial
  3
ObjectDBX Classes
 90
     1153
280
     0
281
     0
  0
CLASS
  1
SCALE
  2
AcDbScale
  3
ObjectDBX Classes
 90
     1153
280
     0
281
     0
  0
CLASS
  1
TABLESTYLE
  2
AcDbTableStyle
  3
ObjectDBX Classes
 90
     4095
280
     0
281
     0
  0
CLASS
  1
MLEADERSTYLE
  2
AcDbMLeaderStyle
  3
ACDB_MLEADERSTYLE_CLASS
 90
     4095
280
     0
281
     0
  0
CLASS
  1
SUN
  2
AcDbSun
  3
SCENEOE
 90
     1153
280
     0
281
     0
  0
CLASS
  1
ACDBPLACEHOLDER
  2
AcDbPlaceHolder
  3
ObjectDBX Classes
 90
        0
280
     0
281
     0
  0
CLASS
  1
LAYOUT
  2
AcDbLayout
  3
ObjectDBX Classes
 90
        0
280
     0
281
     0
  0
ENDSEC
  0
SECTION
  2
TABLES
  0
TABLE
  2
VPORT
  5
8
330
0
100
AcDbSymbolTable
 70
     1
  0
VPORT
  5
29
330
8
100
AcDbSymbolTableRecord
100
AcDbViewportTableRecord
  2
*Active
 70
     0
 10
0.0
 20
0.0
 11
1.0
 21
1.0
 12
139.7
 22
107.95
 13
0.0
 23
0.0
 14
10.0
 24
10.0
 15
10.0
 25
10.0
 16
0.0
 26
0.0
 36
1.0
 17
0.0
 27
0.0
 37
0.0
 40
215.9
 41
1.2941176471
 42
50.0
 43
0.0
 44
0.0
 50
0.0
 51
0.0
 71
     0
 72
  2000
 73
     1
 74
     3
 75
     0
 76
     0
 77
     0
 78
     0
281
     0
 65
     1
110
0.0
120
0.0
130
0.0
111
1.0
121
0.0
131
0.0
112
0.0
122
1.0
132
0.0
 79
     0
146
0.0
  0
ENDTAB
  0
TABLE
  2
LTYPE
  5
5
330
0
100
AcDbSymbolTable
 70
     6
  0
LTYPE
  5
14
330
5
100
AcDbSymbolTableRecord
100
AcDbLinetypeTableRecord
  2
ByBlock
 70
     0
  3

 72
    65
 73
     0
 40
0.0
  0
LTYPE
  5
15
330
5
100
AcDbSymbolTableRecord
100
AcDbLinetypeTableRecord
  2
ByLayer
 70
     0
  3

 72
    65
 73
     0
 40
0.0
  0
LTYPE
  5
16
330
5
100
AcDbSymbolTableRecord
100
AcDbLinetypeTableRecord
  2
Continuous
 70
     0
  3
Solid line
 72
    65
 73
     0
 40
0.0
  0
LTYPE
  5
6E
330
5
100
AcDbSymbolTableRecord
100
AcDbLinetypeTableRecord
  2
HIDDEN
 70
     0
  3
Hidden __ __ __ __ __ __ __ __ __ __ __ __ __ __
 72
    65
 73
     2
 40
1.905
 49
1.27
 74
     0
 49
-0.635
 74
     0
  0
LTYPE
  5
6F
330
5
100
AcDbSymbolTableRecord
100
AcDbLinetypeTableRecord
  2
PHANTOM
 70
     0
  3
Phantom ______  __  __  ______  __  __  ______
 72
    65
 73
     6
 40
12.7
 49
6.35
 74
     0
 49
-1.27
 74
     0
 49
1.27
 74
     0
 49
-1.27
 74
     0
 49
1.27
 74
     0
 49
-1.27
 74
     0
  0
LTYPE
  5
70
330
5
100
AcDbSymbolTableRecord
100
AcDbLinetypeTableRecord
  2
CENTER
 70
     0
  3
Center ____ _ ____ _ ____ _ ____ _ ____ _ ____
 72
    65
 73
     4
 40
10.16
 49
6.35
 74
     0
 49
-1.27
 74
     0
 49
1.27
 74
     0
 49
-1.27
 74
     0
  0
LTYPE
  5
71
330
5
100
AcDbSymbolTableRecord
100
AcDbLinetypeTableRecord
  2
CENTERX2
 70
     0
  3
Center (2x) ________  __  ________  __  _____
 72
    65
 73
     4
 40
20.32
 49
12.7
 74
     0
 49
-2.54
 74
     0
 49
2.54
 74
     0
 49
-2.54
 74
     0
  0
LTYPE
  5
72
330
5
100
AcDbSymbolTableRecord
100
AcDbLinetypeTableRecord
  2
DOT2
 70
     0
  3
Dot (.5x) ........................................
 72
    65
 73
     2
 40
0.635
 49
0.0
 74
     0
 49
-0.635
 74
     0
  0
ENDTAB
  0
TABLE
  2
LAYER
  5
2
330
0
100
AcDbSymbolTable
 70
     2
  0
LAYER
  5
10
330
2
100
AcDbSymbolTableRecord
100
AcDbLayerTableRecord
  2
0
 70
     0
 62
     7
  6
Continuous
370
    -3
390
F
  0
LAYER
  5
73
330
2
100
AcDbSymbolTableRecord
100
AcDbLayerTableRecord
  2
FORMAT
 70
     0
 62
     7
  6
Continuous
370
    -3
390
F
  0
ENDTAB
  0
TABLE
  2
STYLE
  5
3
330
0
100
AcDbSymbolTable
 70
     4
  0
STYLE
  5
11
330
3
100
AcDbSymbolTableRecord
100
AcDbTextStyleTableRecord
  2
Standard
 70
     0
 40
0.0
 41
1.0
 50
0.0
 71
     0
 42
3.5
  3
txt
  4

  0
STYLE
  5
A0
330
3
100
AcDbSymbolTableRecord
100
AcDbTextStyleTableRecord
  2
SLDTEXTSTYLE0
 70
     0
 40
0.0
 41
0.75
 50
0.0
 71
     0
 42
3.5
  3
TXT
  4

  0
STYLE
  5
AF
330
3
100
AcDbSymbolTableRecord
100
AcDbTextStyleTableRecord
  2
SLDTEXTSTYLE1
 70
     0
 40
0.0
 41
0.6944444444
 50
0.0
 71
     0
 42
3.5
  3
TXT
  4

  0
STYLE
  5
DA
330
3
100
AcDbSymbolTableRecord
100
AcDbTextStyleTableRecord
  2
SLDTEXTSTYLE2
 70
     0
 40
0.0
 41
0.6875
 50
0.0
 71
     0
 42
3.5
  3
TXT
  4

  0
ENDTAB
  0
TABLE
  2
VIEW
  5
6
330
0
100
AcDbSymbolTable
 70
     0
  0
ENDTAB
  0
TABLE
  2
UCS
  5
7
330
0
100
AcDbSymbolTable
 70
     0
  0
ENDTAB
  0
TABLE
  2
APPID
  5
9
330
0
100
AcDbSymbolTable
 70
     1
  0
APPID
  5
12
330
9
100
AcDbSymbolTableRecord
100
AcDbRegAppTableRecord
  2
ACAD
 70
     0
  0
ENDTAB
  0
TABLE
  2
DIMSTYLE
  5
A
330
0
100
AcDbSymbolTable
 70
     2
100
AcDbDimStyleTable
  0
DIMSTYLE
105
27
330
A
100
AcDbSymbolTableRecord
100
AcDbDimStyleTableRecord
  2
ISO-25
 70
     0
 41
2.5
 42
0.625
 43
3.75
 44
1.25
 73
     0
 74
     0
 77
     1
 78
     8
140
2.5
141
2.5
143
0.0393700787
147
0.625
171
     3
172
     1
178
     0
271
     2
272
     2
274
     3
278
    44
283
     0
284
     8
340
11
  0
DIMSTYLE
105
1DE
102
{ACAD_REACTORS
330
1DD
102
}
330
A
100
AcDbSymbolTableRecord
100
AcDbDimStyleTableRecord
  2
SLDDIMSTYLE0
 70
     0
 41
0.3386666667
 44
0.0
 45
0.000000001
 78
     8
 79
     2
140
3.5
147
0.875
173
     1
178
     0
271
     0
272
     0
276
     2
284
    12
340
A0
341
1DF
343
1DF
344
1DF
  0
ENDTAB
  0
TABLE
  2
BLOCK_RECORD
  5
1
330
0
100
AcDbSymbolTable
 70
     6
  0
BLOCK_RECORD
  5
1F
330
1
100
AcDbSymbolTableRecord
100
AcDbBlockTableRecord
  2
*Model_Space
340
22
  0
BLOCK_RECORD
  5
1B
330
1
100
AcDbSymbolTableRecord
100
AcDbBlockTableRecord
  2
*Paper_Space
340
1E
  0
BLOCK_RECORD
  5
23
330
1
100
AcDbSymbolTableRecord
100
AcDbBlockTableRecord
  2
*Paper_Space0
340
26
  0
BLOCK_RECORD
  5
A7
330
1
100
AcDbSymbolTableRecord
100
AcDbBlockTableRecord
  2
SW_NOTE_0
340
0
102
{BLKREFS
331
AC
102
}
  0
BLOCK_RECORD
  5
B4
330
1
100
AcDbSymbolTableRecord
100
AcDbBlockTableRecord
  2
SW_NOTE_1
340
0
102
{BLKREFS
331
C3
102
}
  0
BLOCK_RECORD
  5
CC
330
1
100
AcDbSymbolTableRecord
100
AcDbBlockTableRecord
  2
SW_NOTE_2
340
0
102
{BLKREFS
331
D6
102
}
  0
BLOCK_RECORD
  5
1DF
330
1
100
AcDbSymbolTableRecord
100
AcDbBlockTableRecord
  2
_ORIGIN
340
0
102
{BLKREFS
331
1E7
102
}
  0
BLOCK_RECORD
  5
1E4
330
1
100
AcDbSymbolTableRecord
100
AcDbBlockTableRecord
  2
_D
340
0
  0
ENDTAB
  0
ENDSEC
  0
SECTION
  2
BLOCKS
  0
BLOCK
  5
20
330
1F
100
AcDbEntity
  8
0
100
AcDbBlockBegin
  2
*Model_Space
 70
     0
 10
0.0
 20
0.0
 30
0.0
  3
*Model_Space
  1

  0
ENDBLK
  5
21
330
1F
100
AcDbEntity
  8
0
100
AcDbBlockEnd
  0
BLOCK
  5
1C
330
1B
100
AcDbEntity
 67
     1
  8
0
100
AcDbBlockBegin
  2
*Paper_Space
 70
     0
 10
0.0
 20
0.0
 30
0.0
  3
*Paper_Space
  1

  0
ENDBLK
  5
1D
330
1B
100
AcDbEntity
 67
     1
  8
0
100
AcDbBlockEnd
  0
BLOCK
  5
24
330
23
100
AcDbEntity
  8
0
100
AcDbBlockBegin
  2
*Paper_Space0
 70
     0
 10
0.0
 20
0.0
 30
0.0
  3
*Paper_Space0
  1

  0
ENDBLK
  5
25
330
23
100
AcDbEntity
  8
0
100
AcDbBlockEnd
  0
BLOCK
  5
A8
330
A7
100
AcDbEntity
  8
0
100
AcDbBlockBegin
  2
SW_NOTE_0
 70
     0
 10
0.0
 20
0.0
 30
0.0
  3
SW_NOTE_0
  1

  0
MTEXT
  5
AA
330
A7
100
AcDbEntity
  8
0
  6
Continuous
 62
     0
370
     0
100
AcDbMText
 10
0.0
 20
1.9645392354
 30
0.0
 40
1.524
 41
0.0
 71
     1
 72
     1
  1
INTERPRET GEOMETRIC
  7
SLDTEXTSTYLE0
 73
     1
 44
1.0
  0
MTEXT
  5
AB
330
A7
100
AcDbEntity
  8
0
  6
Continuous
 62
     0
370
     0
100
AcDbMText
 10
0.0
 20
-0.5594606586
 30
0.0
 40
1.524
 41
0.0
 71
     1
 72
     1
  1
TOLERANCING PER:
  7
SLDTEXTSTYLE0
 73
     1
 44
1.0
  0
ENDBLK
  5
A9
330
A7
100
AcDbEntity
  8
0
100
AcDbBlockEnd
  0
BLOCK
  5
B5
330
B4
100
AcDbEntity
  8
0
100
AcDbBlockBegin
  2
SW_NOTE_1
 70
     0
 10
0.0
 20
0.0
 30
0.0
  3
SW_NOTE_1
  1

  0
MTEXT
  5
B7
330
B4
100
AcDbEntity
  8
0
  6
Continuous
 62
     0
370
     0
100
AcDbMText
 10
0.0
 20
2.1282508384
 30
0.0
 40
1.651
 41
0.0
 71
     1
 72
     1
  1
DIMENSIONS ARE IN INCHES
  7
SLDTEXTSTYLE0
 73
     1
 44
1.0
  0
MTEXT
  5
B8
330
B4
100
AcDbEntity
  8
0
  6
Continuous
 62
     0
370
     0
100
AcDbMText
 10
0.0
 20
-0.5227490914
 30
0.0
 40
1.651
 41
0.0
 71
     1
 72
     1
  1
TOLERANCES:
  7
SLDTEXTSTYLE0
 73
     1
 44
1.0
  0
MTEXT
  5
B9
330
B4
100
AcDbEntity
  8
0
  6
Continuous
 62
     0
370
     0
100
AcDbMText
 10
0.0
 20
-3.1737490211
 30
0.0
 40
1.651
 41
0.0
 71
     1
 72
     1
  1
FRACTIONAL
  7
SLDTEXTSTYLE0
 73
     1
 44
1.0
  0
MTEXT
  5
BA
330
B4
100
AcDbEntity
  8
0
  6
Continuous
 62
     0
370
     0
100
AcDbMText
 10
13.1466602907
 20
-3.1737490211
 30
0.0
 40
1.651
 41
0.0
 71
     1
 72
     1
  1
%%p
  7
SLDTEXTSTYLE0
 73
     1
 44
1.0
  0
MTEXT
  5
BB
330
B4
100
AcDbEntity
  8
0
  6
Continuous
 62
     0
370
     0
100
AcDbMText
 10
0.0
 20
-5.8247489509
 30
0.0
 40
1.651
 41
0.0
 71
     1
 72
     1
  1
ANGULAR: MACH
  7
SLDTEXTSTYLE0
 73
     1
 44
1.0
  0
MTEXT
  5
BC
330
B4
100
AcDbEntity
  8
0
  6
Continuous
 62
     0
370
     0
100
AcDbMText
 10
18.3736812323
 20
-5.8247489509
 30
0.0
 40
1.651
 41
0.0
 71
     1
 72
     1
  1
%%p
  7
SLDTEXTSTYLE0
 73
     1
 44
1.0
  0
MTEXT
  5
BD
330
B4
100
AcDbEntity
  8
0
  6
Continuous
 62
     0
370
     0
100
AcDbMText
 10
23.0418835151
 20
-5.8247489509
 30
0.0
 40
1.651
 41
0.0
 71
     1
 72
     1
  1
BEND
  7
SLDTEXTSTYLE0
 73
     1
 44
1.0
  0
MTEXT
  5
BE
330
B4
100
AcDbEntity
  8
0
  6
Continuous
 62
     0
370
     0
100
AcDbMText
 10
29.1551686823
 20
-5.8247489509
 30
0.0
 40
1.651
 41
0.0
 71
     1
 72
     1
  1
%%p
  7
SLDTEXTSTYLE0
 73
     1
 44
1.0
  0
MTEXT
  5
BF
330
B4
100
AcDbEntity
  8
0
  6
Continuous
 62
     0
370
     0
100
AcDbMText
 10
0.0
 20
-8.4757488807
 30
0.0
 40
1.651
 41
0.0
 71
     1
 72
     1
  1
TWO PLACE DECIMAL
  7
SLDTEXTSTYLE0
 73
     1
 44
1.0
  0
MTEXT
  5
C0
330
B4
100
AcDbEntity
  8
0
  6
Continuous
 62
     0
370
     0
100
AcDbMText
 10
24.877646938
 20
-8.4757488807
 30
0.0
 40
1.651
 41
0.0
 71
     1
 72
     1
  1
%%p
  7
SLDTEXTSTYLE0
 73
     1
 44
1.0
  0
MTEXT
  5
C1
330
B4
100
AcDbEntity
  8
0
  6
Continuous
 62
     0
370
     0
100
AcDbMText
 10
0.0
 20
-11.1267488104
 30
0.0
 40
1.651
 41
0.0
 71
     1
 72
     1
  1
THREE PLACE DECIMAL
  7
SLDTEXTSTYLE0
 73
     1
 44
1.0
  0
MTEXT
  5
C2
330
B4
100
AcDbEntity
  8
0
  6
Continuous
 62
     0
370
     0
100
AcDbMText
 10
24.7346162796
 20
-11.1267488104
 30
0.0
 40
1.651
 41
0.0
 71
     1
 72
     1
  1
%%p
  7
SLDTEXTSTYLE0
 73
     1
 44
1.0
  0
ENDBLK
  5
B6
330
B4
100
AcDbEntity
  8
0
100
AcDbBlockEnd
  0
BLOCK
  5
CD
330
CC
100
AcDbEntity
  8
0
100
AcDbBlockBegin
  2
SW_NOTE_2
 70
     0
 10
0.0
 20
0.0
 30
0.0
  3
SW_NOTE_2
  1

  0
MTEXT
  5
CF
330
CC
100
AcDbEntity
  8
0
  6
Continuous
 62
     0
370
     0
100
AcDbMText
 10
0.0
 20
1.9645392354
 30
0.0
 40
1.524
 41
0.0
 71
     1
 72
     1
  1
THE INFORMATION CONTAINED IN THIS
  7
SLDTEXTSTYLE0
 73
     1
 44
1.0
  0
MTEXT
  5
D0
330
CC
100
AcDbEntity
  8
0
  6
Continuous
 62
     0
370
     0
100
AcDbMText
 10
0.0
 20
-0.5594606586
 30
0.0
 40
1.524
 41
0.0
 71
     1
 72
     1
  1
DRAWING IS THE SOLE PROPERTY OF
  7
SLDTEXTSTYLE0
 73
     1
 44
1.0
  0
MTEXT
  5
D1
330
CC
100
AcDbEntity
  8
0
  6
Continuous
 62
     0
370
     0
100
AcDbMText
 10
0.0
 20
-3.0834605527
 30
0.0
 40
1.524
 41
0.0
 71
     1
 72
     1
  1
<INSERT COMPANY NAME HERE>.  ANY
  7
SLDTEXTSTYLE0
 73
     1
 44
1.0
  0
MTEXT
  5
D2
330
CC
100
AcDbEntity
  8
0
  6
Continuous
 62
     0
370
     0
100
AcDbMText
 10
0.0
 20
-5.6074604467
 30
0.0
 40
1.524
 41
0.0
 71
     1
 72
     1
  1
REPRODUCTION IN PART OR AS A WHOLE
  7
SLDTEXTSTYLE0
 73
     1
 44
1.0
  0
MTEXT
  5
D3
330
CC
100
AcDbEntity
  8
0
  6
Continuous
 62
     0
370
     0
100
AcDbMText
 10
0.0
 20
-8.1314603407
 30
0.0
 40
1.524
 41
0.0
 71
     1
 72
     1
  1
WITHOUT THE WRITTEN PERMISSION OF
  7
SLDTEXTSTYLE0
 73
     1
 44
1.0
  0
MTEXT
  5
D4
330
CC
100
AcDbEntity
  8
0
  6
Continuous
 62
     0
370
     0
100
AcDbMText
 10
0.0
 20
-10.6554602348
 30
0.0
 40
1.524
 41
0.0
 71
     1
 72
     1
  1
<INSERT COMPANY NAME HERE> IS
  7
SLDTEXTSTYLE0
 73
     1
 44
1.0
  0
MTEXT
  5
D5
330
CC
100
AcDbEntity
  8
0
  6
Continuous
 62
     0
370
     0
100
AcDbMText
 10
0.0
 20
-13.1794601288
 30
0.0
 40
1.524
 41
0.0
 71
     1
 72
     1
  1
PROHIBITED.
  7
SLDTEXTSTYLE0
 73
     1
 44
1.0
  0
ENDBLK
  5
CE
330
CC
100
AcDbEntity
  8
0
100
AcDbBlockEnd
  0
BLOCK
  5
1E0
330
1DF
100
AcDbEntity
  8
0
100
AcDbBlockBegin
  2
_ORIGIN
 70
     0
 10
0.0
 20
0.0
 30
0.0
  3
_ORIGIN
  1

  0
CIRCLE
  5
1E2
330
1DF
100
AcDbEntity
  8
0
  6
ByBlock
 62
     0
370
    -2
100
AcDbCircle
 10
0.0
 20
0.0
 30
0.0
 40
0.5
  0
LINE
  5
1E3
330
1DF
100
AcDbEntity
  8
0
  6
ByBlock
 62
     0
370
    -2
100
AcDbLine
 10
0.0
 20
0.0
 30
0.0
 11
-1.0
 21
0.0
 31
0.0
  0
ENDBLK
  5
1E1
330
1DF
100
AcDbEntity
  8
0
100
AcDbBlockEnd
  0
BLOCK
  5
1E5
330
1E4
100
AcDbEntity
  8
0
100
AcDbBlockBegin
  2
_D
 70
     0
 10
0.0
 20
0.0
 30
0.0
  3
_D
  1

  0
INSERT
  5
1E7
330
1E4
100
AcDbEntity
  8
0
  6
Continuous
 62
     7
370
     0
100
AcDbBlockReference
  2
_ORIGIN
 10
97.7819452376
 20
45.9573796584
 30
0.0
 41
1.016
 42
1.016
 50
0.0
  0
LINE
  5
1E8
330
1E4
100
AcDbEntity
  8
0
  6
Continuous
 62
     7
370
     0
100
AcDbLine
 10
119.3409094704
 20
45.9573796584
 30
0.0
 11
96.7659452376
 21
45.9573796584
 31
0.0
  0
MTEXT
  5
1E9
330
1E4
100
AcDbEntity
  8
0
  6
Continuous
 62
     7
370
     0
100
AcDbMText
 10
94.1798340441
 20
47.6909915775
 30
0.0
 40
3.5
 41
0.0
 71
     1
 72
     1
  1
0
  7
SLDTEXTSTYLE0
 73
     1
 44
1.0
  0
ENDBLK
  5
1E6
330
1E4
100
AcDbEntity
  8
0
100
AcDbBlockEnd
  0
ENDSEC
  0
SECTION
  2
ENTITIES
  0
LINE
  5
74
330
1F
100
AcDbEntity
  8
0
  6
Continuous
 62
     7
100
AcDbLine
 10
12.7
 20
203.2
 30
0.0
 11
12.7
 21
12.7
 31
0.0
  0
LINE
  5
75
330
1F
100
AcDbEntity
  8
0
  6
Continuous
 62
     7
100
AcDbLine
 10
139.7
 20
203.2
 30
0.0
 11
139.7
 21
212.725
 31
0.0
  0
LINE
  5
76
330
1F
100
AcDbEntity
  8
0
  6
Continuous
 62
     7
100
AcDbLine
 10
12.7
 20
107.95
 30
0.0
 11
3.175
 21
107.95
 31
0.0
  0
LINE
  5
77
330
1F
100
AcDbEntity
  8
0
  6
Continuous
 62
     7
100
AcDbLine
 10
139.7
 20
12.7
 30
0.0
 11
139.7
 21
3.175
 31
0.0
  0
LINE
  5
78
330
1F
100
AcDbEntity
  8
0
  6
Continuous
 62
     7
100
AcDbLine
 10
12.7
 20
203.2
 30
0.0
 11
266.7
 21
203.2
 31
0.0
  0
LINE
  5
79
330
1F
100
AcDbEntity
  8
0
  6
Continuous
 62
     7
100
AcDbLine
 10
266.7
 20
203.2
 30
0.0
 11
266.7
 21
12.7
 31
0.0
  0
LINE
  5
7A
330
1F
100
AcDbEntity
  8
0
  6
Continuous
 62
     7
100
AcDbLine
 10
266.7
 20
12.7
 30
0.0
 11
12.7
 21
12.7
 31
0.0
  0
LINE
  5
7B
330
1F
100
AcDbEntity
  8
0
  6
Continuous
 62
     7
100
AcDbLine
 10
266.7
 20
107.95
 30
0.0
 11
276.225
 21
107.95
 31
0.0
  0
LINE
  5
7C
330
1F
100
AcDbEntity
  8
0
  6
Continuous
 62
     7
370
     0
100
AcDbLine
 10
153.6625895844
 20
53.0694383331
 30
0.0
 11
196.628512112
 21
53.0694383331
 31
0.0
  0
LINE
  5
7D
330
1F
100
AcDbEntity
  8
0
  6
Continuous
 62
     7
370
     0
100
AcDbLine
 10
196.628512112
 20
30.9845221033
 30
0.0
 11
266.7
 21
30.9845221033
 31
0.0
  0
LINE
  5
7E
330
1F
100
AcDbEntity
  8
0
  6
Continuous
 62
     7
370
     0
100
AcDbLine
 10
266.7
 20
12.7
 30
0.0
 11
26.7690166746
 21
12.7
 31
0.0
  0
LINE
  5
7F
330
1F
100
AcDbEntity
  8
0
  6
Continuous
 62
     7
370
     0
100
AcDbLine
 10
206.6753486998
 20
30.9845221033
 30
0.0
 11
206.6753486998
 21
18.1073003199
 31
0.0
  0
LINE
  5
80
330
1F
100
AcDbEntity
  8
0
  6
Continuous
 62
     7
370
     0
100
AcDbLine
 10
93.7028272634
 20
62.5944383331
 30
0.0
 11
93.7028272634
 21
17.68538066
 31
0.0
  0
LINE
  5
81
330
1F
100
AcDbEntity
  8
0
  6
Continuous
 62
     7
370
     0
100
AcDbLine
 10
68.3541319701
 20
17.68538066
 30
0.0
 11
153.6625895844
 21
17.68538066
 31
0.0
  0
LINE
  5
82
330
1F
100
AcDbEntity
  8
0
  6
Continuous
 62
     7
370
     0
100
AcDbLine
 10
68.3541319701
 20
12.7
 30
0.0
 11
68.3541319701
 21
62.5944383331
 31
0.0
  0
LINE
  5
83
330
1F
100
AcDbEntity
  8
0
  6
Continuous
 62
     7
370
     0
100
AcDbLine
 10
68.3541319701
 20
56.2444383331
 30
0.0
 11
118.5737310706
 21
56.2444383331
 31
0.0
  0
LINE
  5
84
330
1F
100
AcDbEntity
  8
0
  6
Continuous
 62
     7
370
     0
100
AcDbLine
 10
196.628512112
 20
62.5944383331
 30
0.0
 11
196.628512112
 21
12.7
 31
0.0
  0
LINE
  5
85
330
1F
100
AcDbEntity
  8
0
  6
Continuous
 62
     7
370
     0
100
AcDbLine
 10
68.3541319701
 20
62.5944383331
 30
0.0
 11
266.7
 21
62.5944383331
 31
0.0
  0
LINE
  5
86
330
1F
100
AcDbEntity
  8
0
  6
Continuous
 62
     7
370
     0
100
AcDbLine
 10
196.628512112
 20
38.7819383331
 30
0.0
 11
153.6625895844
 21
38.7819383331
 31
0.0
  0
LINE
  5
87
330
1F
100
AcDbEntity
  8
0
  6
Continuous
 62
     7
370
     0
100
AcDbLine
 10
68.3541319701
 20
49.8944383331
 30
0.0
 11
118.5737310706
 21
49.8944383331
 31
0.0
  0
LINE
  5
88
330
1F
100
AcDbEntity
  8
0
  6
Continuous
 62
     7
370
     0
100
AcDbLine
 10
252.1728434947
 20
30.9845221033
 30
0.0
 11
252.1728434947
 21
18.1073003199
 31
0.0
  0
LINE
  5
89
330
1F
100
AcDbEntity
  8
0
  6
Continuous
 62
     7
370
     0
100
AcDbLine
 10
196.628512112
 20
53.268808883
 30
0.0
 11
266.7
 21
53.268808883
 31
0.0
  0
LINE
  5
8A
330
1F
100
AcDbEntity
  8
0
  6
Continuous
 62
     7
370
     0
100
AcDbLine
 10
266.7
 20
62.5944383331
 30
0.0
 11
266.7
 21
12.7
 31
0.0
  0
LINE
  5
8B
330
1F
100
AcDbEntity
  8
0
  6
Continuous
 62
     7
370
     0
100
AcDbLine
 10
242.2227480427
 20
18.1073003199
 30
0.0
 11
242.2227480427
 21
12.7
 31
0.0
  0
LINE
  5
8C
330
1F
100
AcDbEntity
  8
0
  6
Continuous
 62
     7
370
     0
100
AcDbLine
 10
68.3541319701
 20
24.4944383331
 30
0.0
 11
118.5737310706
 21
24.4944383331
 31
0.0
  0
LINE
  5
8D
330
1F
100
AcDbEntity
  8
0
  6
Continuous
 62
     7
370
     0
100
AcDbLine
 10
68.3541319701
 20
37.1944383331
 30
0.0
 11
118.5737310706
 21
37.1944383331
 31
0.0
  0
LINE
  5
8E
330
1F
100
AcDbEntity
  8
0
  6
Continuous
 62
     7
370
     0
100
AcDbLine
 10
172.5600773885
 20
62.5944383331
 30
0.0
 11
172.5600773885
 21
34.0194383331
 31
0.0
  0
LINE
  5
8F
330
1F
100
AcDbEntity
  8
0
  6
Continuous
 62
     7
370
     0
100
AcDbLine
 10
68.3541319701
 20
43.5444383331
 30
0.0
 11
118.5737310706
 21
43.5444383331
 31
0.0
  0
LINE
  5
90
330
1F
100
AcDbEntity
  8
0
  6
Continuous
 62
     7
370
     0
100
AcDbLine
 10
153.6625895844
 20
62.5944383331
 30
0.0
 11
153.6625895844
 21
12.7
 31
0.0
  0
LINE
  5
91
330
1F
100
AcDbEntity
  8
0
  6
Continuous
 62
     7
370
     0
100
AcDbLine
 10
153.6625895844
 20
48.3069383331
 30
0.0
 11
196.628512112
 21
48.3069383331
 31
0.0
  0
LINE
  5
92
330
1F
100
AcDbEntity
  8
0
  6
Continuous
 62
     7
370
     0
100
AcDbLine
 10
217.5361795467
 20
18.1073003199
 30
0.0
 11
217.5361795467
 21
12.7
 31
0.0
  0
LINE
  5
93
330
1F
100
AcDbEntity
  8
0
  6
Continuous
 62
     7
370
     0
100
AcDbLine
 10
196.628512112
 20
34.0194383331
 30
0.0
 11
153.6625895844
 21
34.0194383331
 31
0.0
  0
LINE
  5
94
330
1F
100
AcDbEntity
  8
0
  6
Continuous
 62
     7
370
     0
100
AcDbLine
 10
118.5737310706
 20
38.1945733387
 30
0.0
 11
153.6625895844
 21
38.1945733387
 31
0.0
  0
LINE
  5
95
330
1F
100
AcDbEntity
  8
0
  6
Continuous
 62
     7
370
     0
100
AcDbLine
 10
118.5737310706
 20
12.7
 30
0.0
 11
118.5737310706
 21
62.5944383331
 31
0.0
  0
LINE
  5
96
330
1F
100
AcDbEntity
  8
0
  6
Continuous
 62
     7
370
     0
100
AcDbLine
 10
184.4606683857
 20
62.5944383331
 30
0.0
 11
184.4606683857
 21
34.0194383331
 31
0.0
  0
LINE
  5
97
330
1F
100
AcDbEntity
  8
0
  6
Continuous
 62
     7
370
     0
100
AcDbLine
 10
68.3541319701
 20
35.9244383331
 30
0.0
 11
26.7690166746
 21
35.9244383331
 31
0.0
  0
LINE
  5
98
330
1F
100
AcDbEntity
  8
0
  6
Continuous
 62
     7
370
     0
100
AcDbLine
 10
26.7690166746
 20
12.7
 30
0.0
 11
26.7690166746
 21
35.9244383331
 31
0.0
  0
LINE
  5
99
330
1F
100
AcDbEntity
  8
0
  6
Continuous
 62
     7
370
     0
100
AcDbLine
 10
196.628512112
 20
18.1073003199
 30
0.0
 11
266.7
 21
18.1073003199
 31
0.0
  0
LINE
  5
9A
330
1F
100
AcDbEntity
  8
0
  6
Continuous
 62
     7
370
     0
100
AcDbLine
 10
153.6625895844
 20
58.6742077444
 30
0.0
 11
118.5737310706
 21
58.6742077444
 31
0.0
  0
LINE
  5
9B
330
1F
100
AcDbEntity
  8
0
  6
Continuous
 62
     7
370
     0
100
AcDbLine
 10
118.5737310706
 20
24.4785733387
 30
0.0
 11
153.6625895844
 21
24.4785733387
 31
0.0
  0
LINE
  5
9C
330
1F
100
AcDbEntity
  8
0
  6
Continuous
 62
     7
370
     0
100
AcDbLine
 10
68.3541319701
 20
30.8444383331
 30
0.0
 11
118.5737310706
 21
30.8444383331
 31
0.0
  0
LINE
  5
9D
330
1F
100
AcDbEntity
  8
0
  6
Continuous
 62
     7
370
     0
100
AcDbLine
 10
153.6625895844
 20
57.8319383331
 30
0.0
 11
196.628512112
 21
57.8319383331
 31
0.0
  0
LINE
  5
9E
330
1F
100
AcDbEntity
  8
0
  6
Continuous
 62
     7
370
     0
100
AcDbLine
 10
196.628512112
 20
43.5444383331
 30
0.0
 11
153.6625895844
 21
43.5444383331
 31
0.0
  0
LINE
  5
9F
330
1F
100
AcDbEntity
  8
0
  6
Continuous
 62
     7
370
     0
100
AcDbLine
 10
118.5737310706
 20
31.3365733387
 30
0.0
 11
153.6625895844
 21
31.3365733387
 31
0.0
  0
MTEXT
  5
A1
330
1F
100
AcDbEntity
  8
0
  6
Continuous
 62
     7
370
     0
100
AcDbMText
 10
119.7579719589
 20
61.4990449608
 30
0.0
 40
1.778
 41
0.0
 71
     1
 72
     1
  1
UNLESS OTHERWISE SPECIFIED:
  7
SLDTEXTSTYLE0
 73
     1
 44
1.0
  0
MTEXT
  5
A2
330
1F
100
AcDbEntity
  8
0
  6
Continuous
 62
     7
370
     0
100
AcDbMText
 10
154.8506782356
 20
51.2367971468
 30
0.0
 40
1.651
 41
0.0
 71
     1
 72
     1
  1
CHECKED
  7
SLDTEXTSTYLE0
 73
     1
 44
1.0
  0
MTEXT
  5
A3
330
1F
100
AcDbEntity
  8
0
  6
Continuous
 62
     7
370
     0
100
AcDbMText
 10
198.679592027
 20
30.3580337109
 30
0.0
 40
2.54
 41
0.0
 71
     1
 72
     1
  1
SIZE
  7
SLDTEXTSTYLE0
 73
     1
 44
1.0
  0
MTEXT
  5
A4
330
1F
100
AcDbEntity
  8
0
  6
Continuous
 62
     7
370
     0
100
AcDbMText
 10
86.949610419
 20
15.9495751364
 30
0.0
 40
1.5875
 41
0.0
 71
     1
 72
     1
  1
APPLICATION
  7
SLDTEXTSTYLE0
 73
     1
 44
1.0
  0
MTEXT
  5
A5
330
1F
100
AcDbEntity
  8
0
  6
Continuous
 62
     7
370
     0
100
AcDbMText
 10
197.7934428097
 20
52.3929595276
 30
0.0
 40
2.54
 41
0.0
 71
     1
 72
     1
  1
TITLE:
  7
SLDTEXTSTYLE0
 73
     1
 44
1.0
  0
MTEXT
  5
A6
330
1F
100
AcDbEntity
  8
0
  6
Continuous
 62
     7
370
     0
100
AcDbMText
 10
31.5295775012
 20
34.482890082
 30
0.0
 40
1.524
 41
0.0
 71
     1
 72
     1
  1
PROPRIETARY AND CONFIDENTIAL
  7
SLDTEXTSTYLE0
 73
     1
 44
1.0
  0
INSERT
  5
AC
330
1F
100
AcDbEntity
  8
0
  6
Continuous
 62
     7
370
     0
100
AcDbBlockReference
  2
SW_NOTE_0
 10
119.2089478467
 20
34.8635605478
 30
0.0
  0
MTEXT
  5
AD
330
1F
100
AcDbEntity
  8
0
  6
Continuous
 62
     7
370
     0
100
AcDbMText
 10
154.8616193103
 20
37.1230397293
 30
0.0
 40
1.651
 41
0.0
 71
     1
 72
     1
  1
Q.A.
  7
SLDTEXTSTYLE0
 73
     1
 44
1.0
  0
MTEXT
  5
AE
330
1F
100
AcDbEntity
  8
0
  6
Continuous
 62
     7
370
     0
100
AcDbMText
 10
119.1497006873
 20
23.9382316328
 30
0.0
 40
1.524
 41
0.0
 71
     1
 72
     1
  1
FINISH
  7
SLDTEXTSTYLE0
 73
     1
 44
1.0
  0
MTEXT
  5
B0
330
1F
100
AcDbEntity
  8
0
  6
Continuous
 62
     7
370
     0
100
AcDbMText
 10
207.4806642798
 20
30.3225037079
 30
0.0
 40
2.54
 41
0.0
 71
     1
 72
     1
  1
DWG.  NO.
  7
SLDTEXTSTYLE1
 73
     1
 44
1.0
  0
MTEXT
  5
B1
330
1F
100
AcDbEntity
  8
0
  6
Continuous
 62
     7
370
     0
100
AcDbMText
 10
187.9148912103
 20
60.8788912243
 30
0.0
 40
1.651
 41
0.0
 71
     1
 72
     1
  1
DATE
  7
SLDTEXTSTYLE0
 73
     1
 44
1.0
  0
MTEXT
  5
B2
330
1F
100
AcDbEntity
  8
0
  6
Continuous
 62
     7
370
     0
100
AcDbMText
 10
100.8540979063
 20
21.7975753227
 30
0.0
 40
1.5875
 41
0.0
 71
     1
 72
     1
  1
USED ON
  7
SLDTEXTSTYLE0
 73
     1
 44
1.0
  0
MTEXT
  5
B3
330
1F
100
AcDbEntity
  8
0
  6
Continuous
 62
     7
370
     0
100
AcDbMText
 10
198.8800000853
 20
26.7243791314
 30
0.0
 40
6.35
 41
0.0
 71
     1
 72
     1
  1
A
  7
SLDTEXTSTYLE0
 73
     1
 44
1.0
  0
INSERT
  5
C3
330
1F
100
AcDbEntity
  8
0
  6
Continuous
 62
     7
370
     0
100
AcDbBlockReference
  2
SW_NOTE_1
 10
119.5173361573
 20
53.6662300215
 30
0.0
  0
MTEXT
  5
C4
330
1F
100
AcDbEntity
  8
0
  6
Continuous
 62
     7
370
     0
100
AcDbMText
 10
75.5415038203
 20
21.7712622135
 30
0.0
 40
1.5875
 41
0.0
 71
     1
 72
     1
  1
NEXT ASSY
  7
SLDTEXTSTYLE0
 73
     1
 44
1.0
  0
MTEXT
  5
C5
330
1F
100
AcDbEntity
  8
0
  6
Continuous
 62
     7
370
     0
100
AcDbMText
 10
119.0802054458
 20
30.7530141342
 30
0.0
 40
1.524
 41
0.0
 71
     1
 72
     1
  1
MATERIAL
  7
SLDTEXTSTYLE0
 73
     1
 44
1.0
  0
MTEXT
  5
C6
330
1F
100
AcDbEntity
  8
0
  6
Continuous
 62
     7
370
     0
100
AcDbMText
 10
175.4238425205
 20
60.9229910986
 30
0.0
 40
1.651
 41
0.0
 71
     1
 72
     1
  1
NAME
  7
SLDTEXTSTYLE0
 73
     1
 44
1.0
  0
MTEXT
  5
C7
330
1F
100
AcDbEntity
  8
0
  6
Continuous
 62
     7
370
     0
100
AcDbMText
 10
256.4849098979
 20
30.2232854568
 30
0.0
 40
2.54
 41
0.0
 71
     1
 72
     1
  1
REV
  7
SLDTEXTSTYLE0
 73
     1
 44
1.0
  0
MTEXT
  5
C8
330
1F
100
AcDbEntity
  8
0
  6
Continuous
 62
     7
370
     0
100
AcDbMText
 10
136.053747668
 20
15.8946104384
 30
0.0
 40
1.5875
 41
0.0
 71
     2
 72
     1
  1
DO NOT SCALE DRAWING
  7
SLDTEXTSTYLE0
 73
     1
 44
1.0
  0
MTEXT
  5
C9
330
1F
100
AcDbEntity
  8
0
  6
Continuous
 62
     7
370
     0
100
AcDbMText
 10
198.8486489046
 20
16.7646506765
 30
0.0
 40
2.54
 41
0.0
 71
     1
 72
     1
  1
SCALE: 1:1
  7
SLDTEXTSTYLE0
 73
     1
 44
1.0
  0
MTEXT
  5
CA
330
1F
100
AcDbEntity
  8
0
  6
Continuous
 62
     7
370
     0
100
AcDbMText
 10
229.7256638879
 20
26.8729198671
 30
0.0
 40
6.35
 41
0.0
 71
     2
 72
     1
  1
UST
  7
SLDTEXTSTYLE0
 73
     1
 44
1.0
  0
MTEXT
  5
CB
330
1F
100
AcDbEntity
  8
0
  6
Continuous
 62
     7
370
     0
100
AcDbMText
 10
154.777189414
 20
46.6007959981
 30
0.0
 40
1.651
 41
0.0
 71
     1
 72
     1
  1
ENG APPR.
  7
SLDTEXTSTYLE0
 73
     1
 44
1.0
  0
INSERT
  5
D6
330
1F
100
AcDbEntity
  8
0
  6
Continuous
 62
     7
370
     0
100
AcDbBlockReference
  2
SW_NOTE_2
 10
27.7544252483
 20
28.9376134837
 30
0.0
  0
MTEXT
  5
D7
330
1F
100
AcDbEntity
  8
0
  6
Continuous
 62
     7
370
     0
100
AcDbMText
 10
154.8838076531
 20
32.9087008505
 30
0.0
 40
1.651
 41
0.0
 71
     1
 72
     1
  1
COMMENTS:
  7
SLDTEXTSTYLE0
 73
     1
 44
1.0
  0
MTEXT
  5
D8
330
1F
100
AcDbEntity
  8
0
  6
Continuous
 62
     7
370
     0
100
AcDbMText
 10
154.796551863
 20
56.122746594
 30
0.0
 40
1.651
 41
0.0
 71
     1
 72
     1
  1
DRAWN
  7
SLDTEXTSTYLE0
 73
     1
 44
1.0
  0
MTEXT
  5
D9
330
1F
100
AcDbEntity
  8
0
  6
Continuous
 62
     7
370
     0
100
AcDbMText
 10
154.9028766528
 20
41.8454756596
 30
0.0
 40
1.651
 41
0.0
 71
     1
 72
     1
  1
MFG APPR.
  7
SLDTEXTSTYLE0
 73
     1
 44
1.0
  0
MTEXT
  5
DB
330
1F
100
AcDbEntity
  8
0
  6
Continuous
 62
     7
370
     0
100
AcDbMText
 10
244.5309015475
 20
16.7729098749
 30
0.0
 40
2.54
 41
0.0
 71
     1
 72
     1
  1
SHEET 1 OF 1
  7
SLDTEXTSTYLE2
 73
     1
 44
1.0
  0
MTEXT
  5
DC
330
1F
100
AcDbEntity
  8
0
  6
Continuous
 62
     7
370
     0
100
AcDbMText
 10
69.7886166697
 20
10.3256904019
 30
0.0
 40
6.096
 41
0.0
 71
     2
 72
     1
  1
2
  7
SLDTEXTSTYLE0
 73
     1
 44
1.0
  0
MTEXT
  5
DD
330
1F
100
AcDbEntity
  8
0
  6
Continuous
 62
     7
370
     0
100
AcDbMText
 10
209.4886166697
 20
10.3256904019
 30
0.0
 40
6.096
 41
0.0
 71
     2
 72
     1
  1
1
  7
SLDTEXTSTYLE0
 73
     1
 44
1.0
  0
MTEXT
  5
DE
330
1F
100
AcDbEntity
  8
0
  6
Continuous
 62
     7
370
     0
100
AcDbMText
 10
6.1065833417
 20
57.9506904019
 30
0.0
 40
6.096
 41
0.0
 71
     2
 72
     1
  1
A
  7
SLDTEXTSTYLE0
 73
     1
 44
1.0
  0
MTEXT
  5
DF
330
1F
100
AcDbEntity
  8
0
  6
Continuous
 62
     7
370
     0
100
AcDbMText
 10
6.3034332283
 20
165.8054523067
 30
0.0
 40
6.096
 41
0.0
 71
     2
 72
     1
  1
B
  7
SLDTEXTSTYLE0
 73
     1
 44
1.0
  0
MTEXT
  5
E0
330
1F
100
AcDbEntity
  8
0
  6
Continuous
 62
     7
370
     0
100
AcDbMText
 10
272.8065833417
 20
57.9506904019
 30
0.0
 40
6.096
 41
0.0
 71
     2
 72
     1
  1
A
  7
SLDTEXTSTYLE0
 73
     1
 44
1.0
  0
MTEXT
  5
E1
330
1F
100
AcDbEntity
  8
0
  6
Continuous
 62
     7
370
     0
100
AcDbMText
 10
273.0034332283
 20
165.8054523067
 30
0.0
 40
6.096
 41
0.0
 71
     2
 72
     1
  1
B
  7
SLDTEXTSTYLE0
 73
     1
 44
1.0
  0
MTEXT
  5
E2
330
1F
100
AcDbEntity
  8
0
  6
Continuous
 62
     7
370
     0
100
AcDbMText
 10
209.4886166697
 20
213.4304523067
 30
0.0
 40
6.096
 41
0.0
 71
     2
 72
     1
  1
1
  7
SLDTEXTSTYLE0
 73
     1
 44
1.0
  0
MTEXT
  5
E3
330
1F
100
AcDbEntity
  8
0
  6
Continuous
 62
     7
370
     0
100
AcDbMText
 10
69.7886166697
 20
213.4304523067
 30
0.0
 40
6.096
 41
0.0
 71
     2
 72
     1
  1
2
  7
SLDTEXTSTYLE0
 73
     1
 44
1.0
  0
MTEXT
  5
E4
330
1F
100
AcDbEntity
  8
0
  6
Continuous
 62
     7
370
     0
100
AcDbMText
 10
207.4806642798
 20
59.9734250312
 30
0.0
 40
2.9104166667
 41
0.0
 71
     1
 72
     1
  1
<COMPANY NAME>
  7
SLDTEXTSTYLE0
 73
     1
 44
1.0
  0
SPLINE
  5
E5
330
1F
100
AcDbEntity
  8
0
  6
Continuous
 62
     7
370
    15
100
AcDbSpline
210
0.0
220
0.0
230
1.0
 70
     8
 71
     3
 72
    12
 73
     8
 74
     0
 42
0.000000001
 43
0.00000001
 40
0.0
 40
0.0
 40
0.0
 40
0.0
 40
0.1722479377100725
 40
0.3457091271956551
 40
0.5312539783202754
 40
0.7213046204341035
 40
1.0
 40
1.0
 40
1.0
 40
1.0
 10
115.8130685181044
 20
146.6362667969551
 30
0.0
 10
115.8166480511201
 20
146.7036003816981
 30
0.0
 10
115.8238323300792
 20
146.8387418244459
 30
0.0
 10
115.9078901496317
 20
147.0327419668337
 30
0.0
 10
116.0519084111911
 20
147.194690170188
 30
0.0
 10
116.2787061017917
 20
147.3239663918576
 30
0.0
 10
116.4628606344739
 20
147.3387859590394
 30
0.0
 10
116.5723506674789
 20
147.3475970096078
 30
0.0
  0
SPLINE
  5
E6
330
1F
100
AcDbEntity
  8
0
  6
Continuous
 62
     7
370
    15
100
AcDbSpline
210
0.0
220
0.0
230
1.0
 70
     8
 71
     3
 72
    12
 73
     8
 74
     0
 42
0.000000001
 43
0.00000001
 40
0.0
 40
0.0
 40
0.0
 40
0.0
 40
0.2955932378212466
 40
0.4849472658241488
 40
0.6744216116470687
 40
0.8743397655989672
 40
1.0
 40
1.0
 40
1.0
 40
1.0
 10
116.996783235731
 20
141.879461309978
 30
0.0
 10
117.0627893139147
 20
141.864447715918
 30
0.0
 10
117.1710782158493
 20
141.8398165658847
 30
0.0
 10
117.2984126033842
 20
141.7482825948579
 30
0.0
 10
117.3709986801556
 20
141.6364790267988
 30
0.0
 10
117.4068438518669
 20
141.5233819022938
 30
0.0
 10
117.4104353706049
 20
141.4494994503993
 30
0.0
 10
117.4118215531729
 20
141.4209837793496
 30
0.0
  0
SPLINE
  5
E7
330
1F
100
AcDbEntity
  8
0
  6
Continuous
 62
     7
370
    15
100
AcDbSpline
210
0.0
220
0.0
230
1.0
 70
     8
 71
     3
 72
    12
 73
     8
 74
     0
 42
0.000000001
 43
0.00000001
 40
0.0
 40
0.0
 40
0.0
 40
0.0
 40
0.1757845808465257
 40
0.380907795944973
 40
0.597163138005531
 40
0.8693219607265232
 40
1.0
 40
1.0
 40
1.0
 40
1.0
 10
117.1550326362871
 20
141.415674775013
 30
0.0
 10
117.1533987899001
 20
141.432553996241
 30
0.0
 10
117.1498584064195
 20
141.4691295987442
 30
0.0
 10
117.1173924774182
 20
141.518618842562
 30
0.0
 10
117.0637609532921
 20
141.5589999630693
 30
0.0
 10
117.0060675019668
 20
141.5763540606186
 30
0.0
 10
116.9679699586712
 20
141.5811027643976
 30
0.0
 10
116.9556113273524
 20
141.5826432175126
 30
0.0
  0
SPLINE
  5
E8
330
1F
100
AcDbEntity
  8
0
  6
Continuous
 62
     7
370
    15
100
AcDbSpline
210
0.0
220
0.0
230
1.0
 70
     8
 71
     3
 72
    12
 73
     8
 74
     0
 42
0.000000001
 43
0.00000001
 40
0.0
 40
0.0
 40
0.0
 40
0.0
 40
0.3452725174774775
 40
0.5321073684250337
 40
0.7189798029752396
 40
0.9000604473421215
 40
1.0
 40
1.0
 40
1.0
 40
1.0
 10
116.9924432725333
 20
141.2669304526534
 30
0.0
 10
117.0213646230695
 20
141.2697645841232
 30
0.0
 10
117.0659359774233
 20
141.2741323289099
 30
0.0
 10
117.1157350932175
 20
141.3089536749457
 30
0.0
 10
117.1434483419188
 20
141.3463265063154
 30
0.0
 10
117.1541067374678
 20
141.3842884358863
 30
0.0
 10
117.1547897394617
 20
141.407441000462
 30
0.0
 10
117.1550326362871
 20
141.415674775013
 30
0.0
  0
SPLINE
  5
E9
330
1F
100
AcDbEntity
  8
0
  6
Continuous
 62
     7
370
    15
100
AcDbSpline
210
0.0
220
0.0
230
1.0
 70
     8
 71
     3
 72
    12
 73
     8
 74
     0
 42
0.000000001
 43
0.00000001
 40
0.0
 40
0.0
 40
0.0
 40
0.0
 40
0.314812221477563
 40
0.482790572239446
 40
0.6508330574706069
 40
0.8221065503016753
 40
1.0
 40
1.0
 40
1.0
 40
1.0
 10
116.7987514600776
 20
141.4740947774735
 30
0.0
 10
116.8005866659256
 20
141.4397381537309
 30
0.0
 10
116.8034011058396
 20
141.3870494304054
 30
0.0
 10
116.8401488888449
 20
141.3254421260867
 30
0.0
 10
116.8831319472102
 20
141.2907172096908
 30
0.0
 10
116.9356087931522
 20
141.269489631351
 30
0.0
 10
116.9732604962367
 20
141.2677942267742
 30
0.0
 10
116.9924432725333
 20
141.2669304526534
 30
0.0
  0
SPLINE
  5
EA
330
1F
100
AcDbEntity
  8
0
  6
Continuous
 62
     7
370
    15
100
AcDbSpline
210
0.0
220
0.0
230
1.0
 70
     8
 71
     3
 72
    10
 73
     6
 74
     0
 42
0.000000001
 43
0.00000001
 40
0.0
 40
0.0
 40
0.0
 40
0.0
 40
0.4176350600337738
 40
0.708181328263358
 40
1.0
 40
1.0
 40
1.0
 40
1.0
 10
116.5824387536071
 20
141.3818682312157
 30
0.0
 10
116.58118653961
 20
141.3985605210062
 30
0.0
 10
116.5790631676601
 20
141.4268655391592
 30
0.0
 10
116.5696843570578
 20
141.4658656197179
 30
0.0
 10
116.5627150244065
 20
141.4880925137574
 30
0.0
 10
116.5592227444671
 20
141.4992302424398
 30
0.0
  0
SPLINE
  5
EB
330
1F
100
AcDbEntity
  8
0
  6
Continuous
 62
     7
370
    15
100
AcDbSpline
210
0.0
220
0.0
230
1.0
 70
     8
 71
     3
 72
    12
 73
     8
 74
     0
 42
0.000000001
 43
0.00000001
 40
0.0
 40
0.0
 40
0.0
 40
0.0
 40
0.3101977403975626
 40
0.5209144153325829
 40
0.732481673820941
 40
0.8836873317280238
 40
1.0
 40
1.0
 40
1.0
 40
1.0
 10
116.3544528499864
 20
141.2006035215345
 30
0.0
 10
116.3882841001859
 20
141.2030604290857
 30
0.0
 10
116.4450968477418
 20
141.2071863087872
 30
0.0
 10
116.5165079809679
 20
141.2452107313806
 30
0.0
 10
116.5598956686808
 20
141.2912861235711
 30
0.0
 10
116.5801070007367
 20
141.3402822829382
 30
0.0
 10
116.5817321603355
 20
141.369266402086
 30
0.0
 10
116.5824387536071
 20
141.3818682312157
 30
0.0
  0
SPLINE
  5
EC
330
1F
100
AcDbEntity
  8
0
  6
Continuous
 62
     7
370
    15
100
AcDbSpline
210
0.0
220
0.0
230
1.0
 70
     8
 71
     3
 72
    12
 73
     8
 74
     0
 42
0.000000001
 43
0.00000001
 40
0.0
 40
0.0
 40
0.0
 40
0.0
 40
0.211222430657455
 40
0.4007762243797381
 40
0.5857963881358027
 40
0.7981370979415142
 40
1.0
 40
1.0
 40
1.0
 40
1.0
 10
116.1080090642594
 20
141.4044062375214
 30
0.0
 10
116.1108402936316
 20
141.3790670566422
 30
0.0
 10
116.1162123055654
 20
141.3309881608071
 30
0.0
 10
116.1571006166124
 20
141.2717658252398
 30
0.0
 10
116.2122989451993
 20
141.2278911126626
 30
0.0
 10
116.2809793130747
 20
141.2032926208496
 30
0.0
 10
116.3303782069888
 20
141.2014846429384
 30
0.0
 10
116.3544528499864
 20
141.2006035215345
 30
0.0
  0
SPLINE
  5
ED
330
1F
100
AcDbEntity
  8
0
  6
Continuous
 62
     7
370
    15
100
AcDbSpline
210
0.0
220
0.0
230
1.0
 70
     8
 71
     3
 72
    12
 73
     8
 74
     0
 42
0.000000001
 43
0.00000001
 40
0.0
 40
0.0
 40
0.0
 40
0.0
 40
0.3521392030639313
 40
0.5586180726349804
 40
0.7658144872296654
 40
0.957457847397685
 40
1.0
 40
1.0
 40
1.0
 40
1.0
 10
116.3427666143202
 20
141.6153819999781
 30
0.0
 10
116.3021842069371
 20
141.607903099964
 30
0.0
 10
116.2378060689792
 20
141.5960389034335
 30
0.0
 10
116.163282114851
 20
141.5450552731824
 30
0.0
 10
116.1202454127408
 20
141.4875720991073
 30
0.0
 10
116.1090729762063
 20
141.4363680844802
 30
0.0
 10
116.1081726225518
 20
141.4093198256476
 30
0.0
 10
116.1080090642594
 20
141.4044062375214
 30
0.0
  0
SPLINE
  5
EE
330
1F
100
AcDbEntity
  8
0
  6
Continuous
 62
     7
370
    15
100
AcDbSpline
210
0.0
220
0.0
230
1.0
 70
     8
 71
     3
 72
    12
 73
     8
 74
     0
 42
0.000000001
 43
0.00000001
 40
0.0
 40
0.0
 40
0.0
 40
0.0
 40
0.2721945279803472
 40
0.4789540568410178
 40
0.6849938414820224
 40
0.9071513131860308
 40
1.0
 40
1.0
 40
1.0
 40
1.0
 10
115.8511251524709
 20
141.4077399066773
 30
0.0
 10
115.8564552659785
 20
141.476105781656
 30
0.0
 10
115.8658341447783
 20
141.5964025172793
 30
0.0
 10
115.9581507198851
 20
141.745037638325
 30
0.0
 10
116.0799323651948
 20
141.8481208175114
 30
0.0
 10
116.2028729671157
 20
141.8967659657553
 30
0.0
 10
116.2802570766305
 20
141.9079956001992
 30
0.0
 10
116.3030661956094
 20
141.9113055571106
 30
0.0
  0
SPLINE
  5
EF
330
1F
100
AcDbEntity
  8
0
  6
Continuous
 62
     7
370
    15
100
AcDbSpline
210
0.0
220
0.0
230
1.0
 70
     8
 71
     3
 72
    12
 73
     8
 74
     0
 42
0.000000001
 43
0.00000001
 40
0.0
 40
0.0
 40
0.0
 40
0.0
 40
0.2405406912270968
 40
0.4826376132602214
 40
0.6874816735125376
 40
0.9036670689644716
 40
1.0
 40
1.0
 40
1.0
 40
1.0
 10
116.338283227446
 20
140.9040620318737
 30
0.0
 10
116.2752298438046
 20
140.9099381381484
 30
0.0
 10
116.1487151388147
 20
140.9217283674573
 30
0.0
 10
115.9984349329797
 20
141.0306178158202
 30
0.0
 10
115.8951435759484
 20
141.1700648013092
 30
0.0
 10
115.8558480760415
 20
141.3018770657872
 30
0.0
 10
115.8522379607655
 20
141.3827966600489
 30
0.0
 10
115.8511251524709
 20
141.4077399066773
 30
0.0
  0
SPLINE
  5
F0
330
1F
100
AcDbEntity
  8
0
  6
Continuous
 62
     7
370
    15
100
AcDbSpline
210
0.0
220
0.0
230
1.0
 70
     8
 71
     3
 72
    12
 73
     8
 74
     0
 42
0.000000001
 43
0.00000001
 40
0.0
 40
0.0
 40
0.0
 40
0.0
 40
0.2763479765175806
 40
0.5029609488748259
 40
0.7291531968333692
 40
0.9638469771649233
 40
1.0
 40
1.0
 40
1.0
 40
1.0
 10
116.6953988686823
 20
141.1889377749648
 30
0.0
 10
116.6818018296591
 20
141.1448151277911
 30
0.0
 10
116.6570548431418
 20
141.0645106914459
 30
0.0
 10
116.5715802723981
 20
140.975288279862
 30
0.0
 10
116.4710603519303
 20
140.9197082728663
 30
0.0
 10
116.3888343302809
 20
140.9055544603593
 30
0.0
 10
116.3442362444197
 20
140.9042377837685
 30
0.0
 10
116.338283227446
 20
140.9040620318737
 30
0.0
  0
SPLINE
  5
F1
330
1F
100
AcDbEntity
  8
0
  6
Continuous
 62
     7
370
    15
100
AcDbSpline
210
0.0
220
0.0
230
1.0
 70
     8
 71
     3
 72
    10
 73
     6
 74
     0
 42
0.000000001
 43
0.00000001
 40
0.0
 40
0.0
 40
0.0
 40
0.0
 40
0.3015019696750679
 40
0.5965369518527387
 40
1.0
 40
1.0
 40
1.0
 40
1.0
 10
117.0216476858281
 20
140.9708909458604
 30
0.0
 10
116.979936013312
 20
140.974775282993
 30
0.0
 10
116.89740735187
 20
140.9824606411868
 30
0.0
 10
116.7780786596046
 20
141.0609808642067
 30
0.0
 10
116.7256705734796
 20
141.1420886745251
 30
0.0
 10
116.6953988686823
 20
141.1889377749648
 30
0.0
  0
SPLINE
  5
F2
330
1F
100
AcDbEntity
  8
0
  6
Continuous
 62
     7
370
    15
100
AcDbSpline
210
0.0
220
0.0
230
1.0
 70
     8
 71
     3
 72
    10
 73
     6
 74
     0
 42
0.000000001
 43
0.00000001
 40
0.0
 40
0.0
 40
0.0
 40
0.0
 40
0.2685585885821328
 40
0.7254516865268358
 40
0.9999999999999999
 40
0.9999999999999999
 40
0.9999999999999999
 40
0.9999999999999999
 10
117.2769883961104
 20
141.0792936339166
 30
0.0
 10
117.2578118571683
 20
141.0626634280601
 30
0.0
 10
117.2060106744515
 20
141.0177406015379
 30
0.0
 10
117.1167313678837
 20
140.9775837272699
 30
0.0
 10
117.0475973192103
 20
140.972717497169
 30
0.0
 10
117.0216476858281
 20
140.9708909458604
 30
0.0
  0
SPLINE
  5
F3
330
1F
100
AcDbEntity
  8
0
  6
Continuous
 62
     7
370
    15
100
AcDbSpline
210
0.0
220
0.0
230
1.0
 70
     8
 71
     3
 72
    10
 73
     6
 74
     0
 42
0.000000001
 43
0.00000001
 40
0.0
 40
0.0
 40
0.0
 40
0.0
 40
0.2655769533433179
 40
0.6713715473541408
 40
1.0
 40
1.0
 40
1.0
 40
1.0
 10
117.4118215531729
 20
141.4209837793496
 30
0.0
 10
117.4106293851873
 20
141.3876095892789
 30
0.0
 10
117.4076156159007
 20
141.3032405152786
 30
0.0
 10
117.366790854102
 20
141.1795133743364
 30
0.0
 10
117.3047496502293
 20
141.1102752545063
 30
0.0
 10
117.2769883961104
 20
141.0792936339166
 30
0.0
  0
SPLINE
  5
F4
330
1F
100
AcDbEntity
  8
0
  6
Continuous
 62
     7
370
    15
100
AcDbSpline
210
0.0
220
0.0
230
1.0
 70
     8
 71
     3
 72
    12
 73
     8
 74
     0
 42
0.000000001
 43
0.00000001
 40
0.0
 40
0.0
 40
0.0
 40
0.0
 40
0.2040441160126707
 40
0.3615477662098245
 40
0.519121186854166
 40
0.738405263710543
 40
0.9999999999999999
 40
0.9999999999999999
 40
0.9999999999999999
 40
0.9999999999999999
 10
117.1683980465554
 20
140.206910274097
 30
0.0
 10
117.1664286513825
 20
140.2304912555376
 30
0.0
 10
117.1629390608007
 20
140.2722746273471
 30
0.0
 10
117.1319859693308
 20
140.3249835214638
 30
0.0
 10
117.0845605493328
 20
140.3652293080733
 30
0.0
 10
117.0140439916405
 20
140.389875000711
 30
0.0
 10
116.9590977662422
 20
140.3944255457357
 30
0.0
 10
116.9292074010395
 20
140.3969010106411
 30
0.0
  0
SPLINE
  5
F5
330
1F
100
AcDbEntity
  8
0
  6
Continuous
 62
     7
370
    15
100
AcDbSpline
210
0.0
220
0.0
230
1.0
 70
     8
 71
     3
 72
    12
 73
     8
 74
     0
 42
0.000000001
 43
0.00000001
 40
0.0
 40
0.0
 40
0.0
 40
0.0
 40
0.3272299578335426
 40
0.5030330259358469
 40
0.6792709021331645
 40
0.850578859442616
 40
1.0
 40
1.0
 40
1.0
 40
1.0
 10
116.9682372674965
 20
140.0219402975526
 30
0.0
 10
117.002364036147
 20
140.0245878285638
 30
0.0
 10
117.0548252833181
 20
140.0286577356855
 30
0.0
 10
117.1157490910624
 20
140.0661971248319
 30
0.0
 10
117.1498317866185
 20
140.1091233677875
 30
0.0
 10
117.1665592679221
 20
140.1584941980651
 30
0.0
 10
117.1678136537844
 20
140.1915228836189
 30
0.0
 10
117.1683980465554
 20
140.206910274097
 30
0.0
  0
SPLINE
  5
F6
330
1F
100
AcDbEntity
  8
0
  6
Continuous
 62
     7
370
    15
100
AcDbSpline
210
0.0
220
0.0
230
1.0
 70
     8
 71
     3
 72
    10
 73
     6
 74
     0
 42
0.000000001
 43
0.00000001
 40
0.0
 40
0.0
 40
0.0
 40
0.0
 40
0.26365148508127
 40
0.5279795742354488
 40
1.0
 40
1.0
 40
1.0
 40
1.0
 10
116.7894848004602
 20
140.0786187267986
 30
0.0
 10
116.8038609813565
 20
140.0701800766028
 30
0.0
 10
116.832650236484
 20
140.053281120255
 30
0.0
 10
116.8915567383777
 20
140.0288347948809
 30
0.0
 10
116.9382838527869
 20
140.0246334680362
 30
0.0
 10
116.9682372674965
 20
140.0219402975526
 30
0.0
  0
SPLINE
  5
F7
330
1F
100
AcDbEntity
  8
0
  6
Continuous
 62
     7
370
    15
100
AcDbSpline
210
0.0
220
0.0
230
1.0
 70
     8
 71
     3
 72
    10
 73
     6
 74
     0
 42
0.000000001
 43
0.00000001
 40
0.0
 40
0.0
 40
0.0
 40
0.0
 40
0.2914805656416353
 40
0.5829943742285539
 40
1.0
 40
1.0
 40
1.0
 40
1.0
 10
116.5380863786362
 20
140.3116943082896
 30
0.0
 10
116.5614929367029
 20
140.2879676222917
 30
0.0
 10
116.6083087223209
 20
140.2405115443013
 30
0.0
 10
116.689634792263
 20
140.1599929121894
 30
0.0
 10
116.752490497422
 20
140.1087677606162
 30
0.0
 10
116.7894848004602
 20
140.0786187267986
 30
0.0
  0
SPLINE
  5
F8
330
1F
100
AcDbEntity
  8
0
  6
Continuous
 62
     7
370
    15
100
AcDbSpline
210
0.0
220
0.0
230
1.0
 70
     8
 71
     3
 72
    10
 73
     6
 74
     0
 42
0.000000001
 43
0.00000001
 40
0.0
 40
0.0
 40
0.0
 40
0.0
 40
0.2539122803815836
 40
0.5850890187118208
 40
1.0
 40
1.0
 40
1.0
 40
1.0
 10
115.8784743711971
 20
140.7211605227676
 30
0.0
 10
115.9451170762852
 20
140.7092568362834
 30
0.0
 10
116.0986815863031
 20
140.681827220695
 30
0.0
 10
116.3224169353825
 20
140.5289250581351
 30
0.0
 10
116.4610116840096
 20
140.3893269736095
 30
0.0
 10
116.5380863786362
 20
140.3116943082896
 30
0.0
  0
SPLINE
  5
F9
330
1F
100
AcDbEntity
  8
0
  6
Continuous
 62
     7
370
    15
100
AcDbSpline
210
0.0
220
0.0
230
1.0
 70
     8
 71
     3
 72
    10
 73
     6
 74
     0
 42
0.000000001
 43
0.00000001
 40
0.0
 40
0.0
 40
0.0
 40
0.0
 40
0.3290431771193399
 40
0.6634785100634812
 40
1.0
 40
1.0
 40
1.0
 40
1.0
 10
116.6232223004721
 20
139.8711787304964
 30
0.0
 10
116.5731669369273
 20
139.9157412897581
 30
0.0
 10
116.4722359335369
 20
140.005596671907
 30
0.0
 10
116.3415972366558
 20
140.162902718554
 30
0.0
 10
116.233716982811
 20
140.2472243532594
 30
0.0
 10
116.1796091437958
 20
140.289516258159
 30
0.0
  0
SPLINE
  5
FA
330
1F
100
AcDbEntity
  8
0
  6
Continuous
 62
     7
370
    15
100
AcDbSpline
210
0.0
220
0.0
230
1.0
 70
     8
 71
     3
 72
    10
 73
     6
 74
     0
 42
0.000000001
 43
0.00000001
 40
0.0
 40
0.0
 40
0.0
 40
0.0
 40
0.4813867710852443
 40
0.737979114069792
 40
1.0
 40
1.0
 40
1.0
 40
1.0
 10
117.0113332883142
 20
139.7260539933231
 30
0.0
 10
116.943187461744
 20
139.7325368643185
 30
0.0
 10
116.8387180418503
 20
139.742475283239
 30
0.0
 10
116.712546804268
 20
139.8077942563596
 30
0.0
 10
116.6532041897783
 20
139.8499036468795
 30
0.0
 10
116.6232223004721
 20
139.8711787304964
 30
0.0
  0
SPLINE
  5
FB
330
1F
100
AcDbEntity
  8
0
  6
Continuous
 62
     7
370
    15
100
AcDbSpline
210
0.0
220
0.0
230
1.0
 70
     8
 71
     3
 72
    12
 73
     8
 74
     0
 42
0.000000001
 43
0.00000001
 40
0.0
 40
0.0
 40
0.0
 40
0.0
 40
0.2853194508338751
 40
0.4827874416183257
 40
0.6802401117697877
 40
0.8820648983197834
 40
0.9999999999999999
 40
0.9999999999999999
 40
0.9999999999999999
 40
0.9999999999999999
 10
117.4252828896664
 20
140.2035766049412
 30
0.0
 10
117.4214941439438
 20
140.1355214328671
 30
0.0
 10
117.4150832285679
 20
140.0203656581084
 30
0.0
 10
117.336503736232
 20
139.8758317356639
 30
0.0
 10
117.2310774824888
 20
139.7792241432984
 30
0.0
 10
117.1145735609116
 20
139.7323767461812
 30
0.0
 10
117.0391509520456
 20
139.7277576328858
 30
0.0
 10
117.0113332883142
 20
139.7260539933231
 30
0.0
  0
SPLINE
  5
FC
330
1F
100
AcDbEntity
  8
0
  6
Continuous
 62
     7
370
    15
100
AcDbSpline
210
0.0
220
0.0
230
1.0
 70
     8
 71
     3
 72
    12
 73
     8
 74
     0
 42
0.000000001
 43
0.00000001
 40
0.0
 40
0.0
 40
0.0
 40
0.0
 40
0.2653375144950075
 40
0.4406271822637012
 40
0.6167421031232895
 40
0.7955525887460225
 40
0.9999999999999999
 40
0.9999999999999999
 40
0.9999999999999999
 40
0.9999999999999999
 10
116.9549463630341
 20
140.6935482054141
 30
0.0
 10
117.0218335623963
 20
140.6840007748906
 30
0.0
 10
117.1329083881351
 20
140.6681460344954
 30
0.0
 10
117.2724043700849
 20
140.5906188908346
 30
0.0
 10
117.3586060648856
 20
140.4849345697425
 30
0.0
 10
117.4148902802457
 20
140.3526766072052
 30
0.0
 10
117.4216675707934
 20
140.2554446229072
 30
0.0
 10
117.4252828896664
 20
140.2035766049412
 30
0.0
  0
SPLINE
  5
FD
330
1F
100
AcDbEntity
  8
0
  6
Continuous
 62
     7
370
    15
100
AcDbSpline
210
0.0
220
0.0
230
1.0
 70
     8
 71
     3
 72
    10
 73
     6
 74
     0
 42
0.000000001
 43
0.00000001
 40
0.0
 40
0.0
 40
0.0
 40
0.0
 40
0.4054520770423068
 40
0.8148379580429681
 40
1.0
 40
1.0
 40
1.0
 40
1.0
 10
117.4839301348351
 20
136.6864628625226
 30
0.0
 10
117.4803930704915
 20
136.6192578864876
 30
0.0
 10
117.4732846242648
 20
136.4841958938543
 30
0.0
 10
117.4045615847842
 20
136.3279401507729
 30
0.0
 10
117.3403999135933
 20
136.2534354968129
 30
0.0
 10
117.3204178304099
 20
136.2302322640207
 30
0.0
  0
SPLINE
  5
FE
330
1F
100
AcDbEntity
  8
0
  6
Continuous
 62
     7
370
    15
100
AcDbSpline
210
0.0
220
0.0
230
1.0
 70
     8
 71
     3
 72
    13
 73
     9
 74
     0
 42
0.000000001
 43
0.00000001
 40
0.0
 40
0.0
 40
0.0
 40
0.0
 40
0.1667083342046053
 40
0.4022928802138844
 40
0.5848396085261232
 40
0.7675067804709665
 40
0.9434904283756448
 40
1.0
 40
1.0
 40
1.0
 40
1.0
 10
116.6824432403468
 20
137.3910317896989
 30
0.0
 10
116.7492679541228
 20
137.3890618627755
 30
0.0
 10
116.9105262781453
 20
137.3843081257799
 30
0.0
 10
117.1401213061461
 20
137.3117431645842
 30
0.0
 10
117.3301929336944
 20
137.1568110080179
 30
0.0
 10
117.4450251331576
 20
136.96765280898
 30
0.0
 10
117.4797244545024
 20
136.802139179838
 30
0.0
 10
117.4831077857047
 20
136.709081395418
 30
0.0
 10
117.4839301348351
 20
136.6864628625226
 30
0.0
  0
SPLINE
  5
FF
330
1F
100
AcDbEntity
  8
0
  6
Continuous
 62
     7
370
    15
100
AcDbSpline
210
0.0
220
0.0
230
1.0
 70
     8
 71
     3
 72
    12
 73
     8
 74
     0
 42
0.000000001
 43
0.00000001
 40
0.0
 40
0.0
 40
0.0
 40
0.0
 40
0.1722482400653955
 40
0.3457095166828835
 40
0.531254213613392
 40
0.721305348633542
 40
1.0
 40
1.0
 40
1.0
 40
1.0
 10
115.9231620222949
 20
136.6797012278002
 30
0.0
 10
115.9267411550124
 20
136.7470349790059
 30
0.0
 10
115.9339246260391
 20
136.8821766708859
 30
0.0
 10
116.0179827234517
 20
137.0761768718898
 30
0.0
 10
116.162001056794
 20
137.2381253438082
 30
0.0
 10
116.3887993963612
 20
137.3674000572453
 30
0.0
 10
116.572953621386
 20
137.3822203351606
 30
0.0
 10
116.6824432403468
 20
137.3910317896989
 30
0.0
  0
SPLINE
  5
100
330
1F
100
AcDbEntity
  8
0
  6
Continuous
 62
     7
370
    15
100
AcDbSpline
210
0.0
220
0.0
230
1.0
 70
     8
 71
     3
 72
    11
 73
     7
 74
     0
 42
0.000000001
 43
0.00000001
 40
0.0
 40
0.0
 40
0.0
 40
0.0
 40
0.2328798025031224
 40
0.4681363166685052
 40
0.6895306267436766
 40
1.0
 40
1.0
 40
1.0
 40
1.0
 10
116.4043661520504
 20
136.0444466817316
 30
0.0
 10
116.3405461832955
 20
136.0659995084494
 30
0.0
 10
116.2122549155183
 20
136.1093251245183
 30
0.0
 10
116.0547851147616
 20
136.2382567593873
 30
0.0
 10
115.9434594274629
 20
136.435356126276
 30
0.0
 10
115.9306432942359
 20
136.5896398560718
 30
0.0
 10
115.9231620222949
 20
136.6797012278002
 30
0.0
  0
SPLINE
  5
101
330
1F
100
AcDbEntity
  8
0
  6
Continuous
 62
     7
370
    15
100
AcDbSpline
210
0.0
220
0.0
230
1.0
 70
     8
 71
     3
 72
    11
 73
     7
 74
     0
 42
0.000000001
 43
0.00000001
 40
0.0
 40
0.0
 40
0.0
 40
0.0
 40
0.2695762562802438
 40
0.4747384619295185
 40
0.6799382102332664
 40
0.9999999999999999
 40
0.9999999999999999
 40
0.9999999999999999
 40
0.9999999999999999
 10
116.1798447684072
 20
136.6945791059297
 30
0.0
 10
116.1848206467685
 20
136.6477119972164
 30
0.0
 10
116.1935834394291
 20
136.5651764675203
 30
0.0
 10
116.2586607028731
 20
136.4638140953757
 30
0.0
 10
116.3585527246897
 20
136.3834991055481
 30
0.0
 10
116.4463603696448
 20
136.3576288540637
 30
0.0
 10
116.499864900174
 20
136.3418651280117
 30
0.0
  0
SPLINE
  5
102
330
1F
100
AcDbEntity
  8
0
  6
Continuous
 62
     7
370
    15
100
AcDbSpline
210
0.0
220
0.0
230
1.0
 70
     8
 71
     3
 72
    13
 73
     9
 74
     0
 42
0.000000001
 43
0.00000001
 40
0.0
 40
0.0
 40
0.0
 40
0.0
 40
0.2667641558800771
 40
0.473705461405603
 40
0.628209179676834
 40
0.7823696440227764
 40
0.941187805375312
 40
1.0
 40
1.0
 40
1.0
 40
1.0
 10
116.7082529828571
 20
137.0949545643416
 30
0.0
 10
116.6414154163151
 20
137.0918086621119
 30
0.0
 10
116.5227288551708
 20
137.0862223378835
 30
0.0
 10
116.3693657589369
 20
137.0389032029541
 30
0.0
 10
116.2661392608395
 20
136.9571426259957
 30
0.0
 10
116.2025008440063
 20
136.8563367662378
 30
0.0
 10
116.1807831500996
 20
136.7638218974251
 30
0.0
 10
116.1800444058603
 20
136.7093102698584
 30
0.0
 10
116.1798447684072
 20
136.6945791059297
 30
0.0
  0
SPLINE
  5
103
330
1F
100
AcDbEntity
  8
0
  6
Continuous
 62
     7
370
    15
100
AcDbSpline
210
0.0
220
0.0
230
1.0
 70
     8
 71
     3
 72
    12
 73
     8
 74
     0
 42
0.000000001
 43
0.00000001
 40
0.0
 40
0.0
 40
0.0
 40
0.0
 40
0.1928082208832608
 40
0.3553484679470864
 40
0.5177501464650801
 40
0.6796682834670816
 40
0.9999999999999999
 40
0.9999999999999999
 40
0.9999999999999999
 40
0.9999999999999999
 10
117.2268851042412
 20
136.7043043254998
 30
0.0
 10
117.2226021839074
 20
136.7519281106372
 30
0.0
 10
117.2147086969389
 20
136.839699467112
 30
0.0
 10
117.1481291766032
 20
136.9518296449517
 30
0.0
 10
117.0563699295414
 20
137.0312259906208
 30
0.0
 10
116.9062864672988
 20
137.0886150685443
 30
0.0
 10
116.7872934297949
 20
137.0924243024387
 30
0.0
 10
116.7082529828571
 20
137.0949545643416
 30
0.0
  0
SPLINE
  5
104
330
1F
100
AcDbEntity
  8
0
  6
Continuous
 62
     7
370
    15
100
AcDbSpline
210
0.0
220
0.0
230
1.0
 70
     8
 71
     3
 72
    12
 73
     8
 74
     0
 42
0.000000001
 43
0.00000001
 40
0.0
 40
0.0
 40
0.0
 40
0.0
 40
0.2742851795122419
 40
0.4997710563958194
 40
0.7245943276999977
 40
0.9602331790458638
 40
0.9999999999999999
 40
0.9999999999999999
 40
0.9999999999999999
 40
0.9999999999999999
 10
116.9737683922671
 20
136.3668627572369
 30
0.0
 10
117.0137134122727
 20
136.380618055591
 30
0.0
 10
117.0864966551785
 20
136.4056813856685
 30
0.0
 10
117.1668817569247
 20
136.4856297829843
 30
0.0
 10
117.2148319183947
 20
136.5798646145162
 30
0.0
 10
117.2270040736487
 20
136.6563734818989
 30
0.0
 10
117.2269001151804
 20
136.6982566617079
 30
0.0
 10
117.2268851042412
 20
136.7043043254998
 30
0.0
  0
SPLINE
  5
105
330
1F
100
AcDbEntity
  8
0
  6
Continuous
 62
     7
370
    15
100
AcDbSpline
210
0.0
220
0.0
230
1.0
 70
     8
 71
     3
 72
    10
 73
     6
 74
     0
 42
0.000000001
 43
0.00000001
 40
0.0
 40
0.0
 40
0.0
 40
0.0
 40
0.2651173026948908
 40
0.5302858537473583
 40
1.0
 40
1.0
 40
1.0
 40
1.0
 10
117.3204178304099
 20
136.2302322640207
 30
0.0
 10
117.2992097725308
 20
136.2102375960006
 30
0.0
 10
117.2567895571604
 20
136.1702443949018
 30
0.0
 10
117.1618208137803
 20
136.1135671282113
 30
0.0
 10
117.0852512867971
 20
136.0877153542162
 30
0.0
 10
117.0363104284428
 20
136.0711917049375
 30
0.0
  0
SPLINE
  5
106
330
1F
100
AcDbEntity
  8
0
  6
Continuous
 62
     7
370
    15
100
AcDbSpline
210
0.0
220
0.0
230
1.0
 70
     8
 71
     3
 72
    10
 73
     6
 74
     0
 42
0.000000001
 43
0.00000001
 40
0.0
 40
0.0
 40
0.0
 40
0.0
 40
0.4054518895378734
 40
0.8148375813642558
 40
1.0
 40
1.0
 40
1.0
 40
1.0
 10
117.3738366306447
 20
146.6430281988468
 30
0.0
 10
117.3702999719149
 20
146.5758232043885
 30
0.0
 10
117.3631923408498
 20
146.440761174705
 30
0.0
 10
117.2944688547455
 20
146.2845055878817
 30
0.0
 10
117.2303073295924
 20
146.210000798715
 30
0.0
 10
117.210325257542
 20
146.1867974839297
 30
0.0
  0
SPLINE
  5
107
330
1F
100
AcDbEntity
  8
0
  6
Continuous
 62
     7
370
    15
100
AcDbSpline
210
0.0
220
0.0
230
1.0
 70
     8
 71
     3
 72
    13
 73
     9
 74
     0
 42
0.000000001
 43
0.00000001
 40
0.0
 40
0.0
 40
0.0
 40
0.0
 40
0.166707611414659
 40
0.4022921482472138
 40
0.5848392715823204
 40
0.7675064841347808
 40
0.9434904547700665
 40
1.0
 40
1.0
 40
1.0
 40
1.0
 10
116.5723506674789
 20
147.3475970096078
 30
0.0
 10
116.6391750812004
 20
147.3456269706915
 30
0.0
 10
116.8004330868984
 20
147.3408729514774
 30
0.0
 10
117.0300276494711
 20
147.2683080326143
 30
0.0
 10
117.2201005690644
 20
147.1133770516807
 30
0.0
 10
117.3349322497335
 20
146.9242183207883
 30
0.0
 10
117.3696327378818
 20
146.7587046911256
 30
0.0
 10
117.3730146321948
 20
146.665646734262
 30
0.0
 10
117.3738366306447
 20
146.6430281988468
 30
0.0
  0
SPLINE
  5
108
330
1F
100
AcDbEntity
  8
0
  6
Continuous
 62
     7
370
    15
100
AcDbSpline
210
0.0
220
0.0
230
1.0
 70
     8
 71
     3
 72
    11
 73
     7
 74
     0
 42
0.000000001
 43
0.00000001
 40
0.0
 40
0.0
 40
0.0
 40
0.0
 40
0.2328796895667652
 40
0.4681362869984841
 40
0.6895306488360955
 40
1.0
 40
1.0
 40
1.0
 40
1.0
 10
116.2942735791825
 20
146.0010116688099
 30
0.0
 10
116.230453702703
 20
146.0225647770959
 30
0.0
 10
116.1021625663337
 20
146.0658909774401
 30
0.0
 10
115.9446913229921
 20
146.1948212840453
 30
0.0
 10
115.8333660423505
 20
146.3919214977798
 30
0.0
 10
115.8205498333359
 20
146.5462053595947
 30
0.0
 10
115.8130685181044
 20
146.6362667969551
 30
0.0
  0
SPLINE
  5
109
330
1F
100
AcDbEntity
  8
0
  6
Continuous
 62
     7
370
    15
100
AcDbSpline
210
0.0
220
0.0
230
1.0
 70
     8
 71
     3
 72
    11
 73
     7
 74
     0
 42
0.000000001
 43
0.00000001
 40
0.0
 40
0.0
 40
0.0
 40
0.0
 40
0.2695758700847831
 40
0.4747378994234934
 40
0.6799391047480995
 40
1.0
 40
1.0
 40
1.0
 40
1.0
 10
116.0697521955394
 20
146.6511446750846
 30
0.0
 10
116.0747276822074
 20
146.6042774809563
 30
0.0
 10
116.0834897872454
 20
146.5217417803934
 30
0.0
 10
116.148567337324
 20
146.420379022424
 30
0.0
 10
116.2484598990337
 20
146.3400642086676
 30
0.0
 10
116.336267829586
 20
146.3141940642252
 30
0.0
 10
116.3897723273061
 20
146.298430464336
 30
0.0
  0
SPLINE
  5
10A
330
1F
100
AcDbEntity
  8
0
  6
Continuous
 62
     7
370
    15
100
AcDbSpline
210
0.0
220
0.0
230
1.0
 70
     8
 71
     3
 72
    13
 73
     9
 74
     0
 42
0.000000001
 43
0.00000001
 40
0.0
 40
0.0
 40
0.0
 40
0.0
 40
0.2667641926194561
 40
0.4737066523210715
 40
0.6282103578814808
 40
0.7823702771497508
 40
0.9411882747439583
 40
1.0
 40
1.0
 40
1.0
 40
1.0
 10
116.5981604099892
 20
147.0515202499118
 30
0.0
 10
116.5313228532459
 20
147.0483740970508
 30
0.0
 10
116.4126360274643
 20
147.0427873144888
 30
0.0
 10
116.2592725744549
 20
146.9954686092275
 30
0.0
 10
116.1560455926168
 20
146.9137080895941
 30
0.0
 10
116.092408531714
 20
146.8129016036111
 30
0.0
 10
116.0706905771181
 20
146.7203872091232
 30
0.0
 10
116.0699518321712
 20
146.6658757254239
 30
0.0
 10
116.0697521955394
 20
146.6511446750846
 30
0.0
  0
SPLINE
  5
10B
330
1F
100
AcDbEntity
  8
0
  6
Continuous
 62
     7
370
    15
100
AcDbSpline
210
0.0
220
0.0
230
1.0
 70
     8
 71
     3
 72
    12
 73
     8
 74
     0
 42
0.000000001
 43
0.00000001
 40
0.0
 40
0.0
 40
0.0
 40
0.0
 40
0.1928083476421857
 40
0.3553496142815969
 40
0.5177501005474336
 40
0.6796683321917371
 40
1.0
 40
1.0
 40
1.0
 40
1.0
 10
117.1167925313734
 20
146.6608695454088
 30
0.0
 10
117.1125096926036
 20
146.7084934206258
 30
0.0
 10
117.1046163356848
 20
146.7962651685605
 30
0.0
 10
117.0380357315797
 20
146.9083947028785
 30
0.0
 10
116.9462772064146
 20
146.9877916716061
 30
0.0
 10
116.7961938873642
 20
147.04518079923
 30
0.0
 10
116.6772008423604
 20
147.0489900063917
 30
0.0
 10
116.5981604099892
 20
147.0515202499118
 30
0.0
  0
SPLINE
  5
10C
330
1F
100
AcDbEntity
  8
0
  6
Continuous
 62
     7
370
    15
100
AcDbSpline
210
0.0
220
0.0
230
1.0
 70
     8
 71
     3
 72
    12
 73
     8
 74
     0
 42
0.000000001
 43
0.00000001
 40
0.0
 40
0.0
 40
0.0
 40
0.0
 40
0.2742834851533259
 40
0.4997706167732271
 40
0.724595166201818
 40
0.9602336639696157
 40
0.9999999999999999
 40
0.9999999999999999
 40
0.9999999999999999
 40
0.9999999999999999
 10
116.8636758193992
 20
146.3234280935612
 30
0.0
 10
116.9036203992207
 20
146.3371835534146
 30
0.0
 10
116.9764032256566
 20
146.3622473105383
 30
0.0
 10
117.0567894945253
 20
146.4421946197652
 30
0.0
 10
117.1047391037181
 20
146.5364301735097
 30
0.0
 10
117.1169115007622
 20
146.6129389292496
 30
0.0
 10
117.1168075421902
 20
146.654821958666
 30
0.0
 10
117.1167925313734
 20
146.6608695454088
 30
0.0
  0
SPLINE
  5
10D
330
1F
100
AcDbEntity
  8
0
  6
Continuous
 62
     7
370
    15
100
AcDbSpline
210
0.0
220
0.0
230
1.0
 70
     8
 71
     3
 72
    10
 73
     6
 74
     0
 42
0.000000001
 43
0.00000001
 40
0.0
 40
0.0
 40
0.0
 40
0.0
 40
0.265119482489461
 40
0.5302853497469165
 40
1.0
 40
1.0
 40
1.0
 40
1.0
 10
117.210325257542
 20
146.1867974839297
 30
0.0
 10
117.1891168498538
 20
146.1668029028082
 30
0.0
 10
117.1466963238973
 20
146.1268102423538
 30
0.0
 10
117.0517280702806
 20
146.0701325090198
 30
0.0
 10
116.9751587679921
 20
146.0442809616659
 30
0.0
 10
116.926217855575
 20
146.0277573905077
 30
0.0
  0
SPLINE
  5
10E
330
1F
100
AcDbEntity
  8
0
  6
Continuous
 62
     7
370
    15
100
AcDbSpline
210
0.0
220
0.0
230
1.0
 70
     8
 71
     3
 72
    10
 73
     6
 74
     0
 42
0.000000001
 43
0.00000001
 40
0.0
 40
0.0
 40
0.0
 40
0.0
 40
0.3988873337977055
 40
0.6978575575492603
 40
1.0
 40
1.0
 40
1.0
 40
1.0
 10
116.5226729900264
 20
144.8884732789483
 30
0.0
 10
116.4829832602732
 20
144.8334556004041
 30
0.0
 10
116.4135456634421
 20
144.7372015970359
 30
0.0
 10
116.2713570673682
 20
144.6436478866637
 30
0.0
 10
116.1845834236115
 20
144.5919543437284
 30
0.0
 10
116.1409676388525
 20
144.5659711725202
 30
0.0
  0
SPLINE
  5
10F
330
1F
100
AcDbEntity
  8
0
  6
Continuous
 62
     7
370
    15
100
AcDbSpline
210
0.0
220
0.0
230
1.0
 70
     8
 71
     3
 72
    12
 73
     8
 74
     0
 42
0.000000001
 43
0.00000001
 40
0.0
 40
0.0
 40
0.0
 40
0.0
 40
0.2548566626319657
 40
0.4568966212001506
 40
0.6594295384046497
 40
0.9119555598710568
 40
1.0
 40
1.0
 40
1.0
 40
1.0
 10
116.9507544801258
 20
144.5067008725491
 30
0.0
 10
116.8965860744118
 20
144.5103388873119
 30
0.0
 10
116.7994751678697
 20
144.5168609716705
 30
0.0
 10
116.6738915058342
 20
144.5848078700845
 30
0.0
 10
116.5802400741442
 20
144.6901728626687
 30
0.0
 10
116.5391978134899
 20
144.7997650710486
 30
0.0
 10
116.5260674563042
 20
144.8702511768516
 30
0.0
 10
116.5226729900264
 20
144.8884732789483
 30
0.0
  0
SPLINE
  5
110
330
1F
100
AcDbEntity
  8
0
  6
Continuous
 62
     7
370
    15
100
AcDbSpline
210
0.0
220
0.0
230
1.0
 70
     8
 71
     3
 72
    13
 73
     9
 74
     0
 42
0.000000001
 43
0.00000001
 40
0.0
 40
0.0
 40
0.0
 40
0.0
 40
0.2378034568478754
 40
0.4780663901939569
 40
0.6199291633661669
 40
0.7611708660662247
 40
0.9276781433895078
 40
1.0
 40
1.0
 40
1.0
 40
1.0
 10
117.371038006308
 20
145.1093205950346
 30
0.0
 10
117.3705568547711
 20
145.0428832037938
 30
0.0
 10
117.3695895753993
 20
144.909321294201
 30
0.0
 10
117.340113777803
 20
144.7323374247039
 30
0.0
 10
117.2486178310952
 20
144.612710160656
 30
0.0
 10
117.142232215754
 20
144.5421610397325
 30
0.0
 10
117.0380559294845
 20
144.5102967149446
 30
0.0
 10
116.9710462455204
 20
144.507536666122
 30
0.0
 10
116.9507544801258
 20
144.5067008725491
 30
0.0
  0
SPLINE
  5
111
330
1F
100
AcDbEntity
  8
0
  6
Continuous
 62
     7
370
    15
100
AcDbSpline
210
0.0
220
0.0
230
1.0
 70
     8
 71
     3
 72
    12
 73
     8
 74
     0
 42
0.000000001
 43
0.00000001
 40
0.0
 40
0.0
 40
0.0
 40
0.0
 40
0.3545400820059377
 40
0.5506908449178842
 40
0.6894654792371105
 40
0.8742042512462639
 40
1.0
 40
1.0
 40
1.0
 40
1.0
 10
116.1815369815253
 20
144.9452085188713
 30
0.0
 10
116.2350398449395
 20
144.9848089206882
 30
0.0
 10
116.3181433882467
 20
145.0463184081692
 30
0.0
 10
116.4185270113928
 20
145.1298890643963
 30
0.0
 10
116.4700566604274
 20
145.2157137648411
 30
0.0
 10
116.4786000362886
 20
145.3016451786516
 30
0.0
 10
116.4788273656527
 20
145.3598797898804
 30
0.0
 10
116.4789194554709
 20
145.3834702960339
 30
0.0
  0
SPLINE
  5
112
330
1F
100
AcDbEntity
  8
0
  6
Continuous
 62
     7
370
    15
100
AcDbSpline
210
0.0
220
0.0
230
1.0
 70
     8
 71
     3
 72
    12
 73
     8
 74
     0
 42
0.000000001
 43
0.00000001
 40
0.0
 40
0.0
 40
0.0
 40
0.0
 40
0.2040429093934016
 40
0.3615478338614052
 40
0.5191213547784428
 40
0.7384076108521076
 40
1.0
 40
1.0
 40
1.0
 40
1.0
 10
117.1290794701003
 20
143.762826523849
 30
0.0
 10
117.1271100116452
 20
143.7864073271542
 30
0.0
 10
117.1236202876435
 20
143.8281906382286
 30
0.0
 10
117.0926675396918
 20
143.8808996733494
 30
0.0
 10
117.0452418311207
 20
143.9211458760975
 30
0.0
 10
116.9747248625285
 20
143.945790230867
 30
0.0
 10
116.9197788281325
 20
143.9503414500823
 30
0.0
 10
116.8898888245844
 20
143.9528172603932
 30
0.0
  0
SPLINE
  5
113
330
1F
100
AcDbEntity
  8
0
  6
Continuous
 62
     7
370
    15
100
AcDbSpline
210
0.0
220
0.0
230
1.0
 70
     8
 71
     3
 72
    12
 73
     8
 74
     0
 42
0.000000001
 43
0.00000001
 40
0.0
 40
0.0
 40
0.0
 40
0.0
 40
0.3272296861721522
 40
0.5030309838187498
 40
0.6792695542541223
 40
0.8505803657046548
 40
1.0
 40
1.0
 40
1.0
 40
1.0
 10
116.9289186910413
 20
143.5778565473047
 30
0.0
 10
116.9630456616343
 20
143.580503612257
 30
0.0
 10
117.01550704982
 20
143.5845727897904
 30
0.0
 10
117.076429305258
 20
143.622114040364
 30
0.0
 10
117.1105137638029
 20
143.6650390104487
 30
0.0
 10
117.1272404587872
 20
143.7144105624074
 30
0.0
 10
117.1284950090749
 20
143.7474393197204
 30
0.0
 10
117.1290794701003
 20
143.762826523849
 30
0.0
  0
SPLINE
  5
114
330
1F
100
AcDbEntity
  8
0
  6
Continuous
 62
     7
370
    15
100
AcDbSpline
210
0.0
220
0.0
230
1.0
 70
     8
 71
     3
 72
    10
 73
     6
 74
     0
 42
0.000000001
 43
0.00000001
 40
0.0
 40
0.0
 40
0.0
 40
0.0
 40
0.26365148508127
 40
0.5279795742354488
 40
1.0
 40
1.0
 40
1.0
 40
1.0
 10
116.7501662240051
 20
143.6345349765506
 30
0.0
 10
116.7645424049014
 20
143.6260963263549
 30
0.0
 10
116.7933316600289
 20
143.609197370007
 30
0.0
 10
116.8522381619226
 20
143.5847510446329
 30
0.0
 10
116.8989652763318
 20
143.5805497177882
 30
0.0
 10
116.9289186910413
 20
143.5778565473047
 30
0.0
  0
SPLINE
  5
115
330
1F
100
AcDbEntity
  8
0
  6
Continuous
 62
     7
370
    15
100
AcDbSpline
210
0.0
220
0.0
230
1.0
 70
     8
 71
     3
 72
    10
 73
     6
 74
     0
 42
0.000000001
 43
0.00000001
 40
0.0
 40
0.0
 40
0.0
 40
0.0
 40
0.2914805656416353
 40
0.5829943742285539
 40
1.0
 40
1.0
 40
1.0
 40
1.0
 10
116.4987678021811
 20
143.8676105580416
 30
0.0
 10
116.5221743602477
 20
143.8438838720438
 30
0.0
 10
116.5689901458658
 20
143.7964277940533
 30
0.0
 10
116.6503162158079
 20
143.7159091619414
 30
0.0
 10
116.7131719209669
 20
143.6646840103683
 30
0.0
 10
116.7501662240051
 20
143.6345349765506
 30
0.0
  0
SPLINE
  5
116
330
1F
100
AcDbEntity
  8
0
  6
Continuous
 62
     7
370
    15
100
AcDbSpline
210
0.0
220
0.0
230
1.0
 70
     8
 71
     3
 72
    10
 73
     6
 74
     0
 42
0.000000001
 43
0.00000001
 40
0.0
 40
0.0
 40
0.0
 40
0.0
 40
0.253912951124781
 40
0.5850895622157225
 40
1.0
 40
1.0
 40
1.0
 40
1.0
 10
115.8391548634194
 20
144.2770767725196
 30
0.0
 10
115.9057979139073
 20
144.2651733377041
 30
0.0
 10
116.0593629568165
 20
144.2377443490124
 30
0.0
 10
116.2830981897387
 20
144.0848411372684
 30
0.0
 10
116.4216930674435
 20
143.9452431418867
 30
0.0
 10
116.4987678021811
 20
143.8676105580416
 30
0.0
  0
SPLINE
  5
117
330
1F
100
AcDbEntity
  8
0
  6
Continuous
 62
     7
370
    15
100
AcDbSpline
210
0.0
220
0.0
230
1.0
 70
     8
 71
     3
 72
    10
 73
     6
 74
     0
 42
0.000000001
 43
0.00000001
 40
0.0
 40
0.0
 40
0.0
 40
0.0
 40
0.3290430155845751
 40
0.6634781843468199
 40
1.0
 40
1.0
 40
1.0
 40
1.0
 10
116.583903724017
 20
143.4270949802485
 30
0.0
 10
116.533848365721
 20
143.4716575457076
 30
0.0
 10
116.4329173729142
 20
143.5615129403529
 30
0.0
 10
116.3022785313565
 20
143.7188189691254
 30
0.0
 10
116.194398389521
 20
143.8031408929243
 30
0.0
 10
116.1402905673407
 20
143.8454329735723
 30
0.0
  0
SPLINE
  5
118
330
1F
100
AcDbEntity
  8
0
  6
Continuous
 62
     7
370
    15
100
AcDbSpline
210
0.0
220
0.0
230
1.0
 70
     8
 71
     3
 72
    10
 73
     6
 74
     0
 42
0.000000001
 43
0.00000001
 40
0.0
 40
0.0
 40
0.0
 40
0.0
 40
0.4813877544356447
 40
0.7379805177439744
 40
1.0
 40
1.0
 40
1.0
 40
1.0
 10
116.9720137805365
 20
143.2819697774139
 30
0.0
 10
116.9038679784442
 20
143.2884528758039
 30
0.0
 10
116.7993986107737
 20
143.2983916419283
 30
0.0
 10
116.6732274457536
 20
143.3637102571592
 30
0.0
 10
116.6138852818868
 20
143.4058198619886
 30
0.0
 10
116.583903724017
 20
143.4270949802485
 30
0.0
  0
SPLINE
  5
119
330
1F
100
AcDbEntity
  8
0
  6
Continuous
 62
     7
370
    15
100
AcDbSpline
210
0.0
220
0.0
230
1.0
 70
     8
 71
     3
 72
    12
 73
     8
 74
     0
 42
0.000000001
 43
0.00000001
 40
0.0
 40
0.0
 40
0.0
 40
0.0
 40
0.2853190718230942
 40
0.4827857701220281
 40
0.6802391926717355
 40
0.8820636013955723
 40
1.0
 40
1.0
 40
1.0
 40
1.0
 10
117.3859633818887
 20
143.7594923890319
 30
0.0
 10
117.3821751545129
 20
143.6914371227897
 30
0.0
 10
117.3757651299066
 20
143.5762814344101
 30
0.0
 10
117.2971845073815
 20
143.4317483926102
 30
0.0
 10
117.1917594188312
 20
143.3351396312877
 30
0.0
 10
117.0752545383843
 20
143.2882931807717
 30
0.0
 10
116.9998317400864
 20
143.2836736023614
 30
0.0
 10
116.9720137805365
 20
143.2819697774139
 30
0.0
  0
SPLINE
  5
11A
330
1F
100
AcDbEntity
  8
0
  6
Continuous
 62
     7
370
    15
100
AcDbSpline
210
0.0
220
0.0
230
1.0
 70
     8
 71
     3
 72
    12
 73
     8
 74
     0
 42
0.000000001
 43
0.00000001
 40
0.0
 40
0.0
 40
0.0
 40
0.0
 40
0.2653383550606576
 40
0.4406273923223853
 40
0.6167429264092346
 40
0.7955525153454406
 40
1.0
 40
1.0
 40
1.0
 40
1.0
 10
116.9156268552564
 20
144.2494649208274
 30
0.0
 10
116.982514303536
 20
144.2399172551072
 30
0.0
 10
117.0935892437112
 20
144.2240621668064
 30
0.0
 10
117.2330863039509
 20
144.1465356935884
 30
0.0
 10
117.3192869946943
 20
144.0408504697621
 30
0.0
 10
117.3755721166875
 20
143.9085927225765
 30
0.0
 10
117.3823485247246
 20
143.811360607045
 30
0.0
 10
117.3859633818887
 20
143.7594923890319
 30
0.0
  0
SPLINE
  5
11B
330
1F
100
AcDbEntity
  8
0
  6
Continuous
 62
     7
370
    15
100
AcDbSpline
210
0.0
220
0.0
230
1.0
 70
     8
 71
     3
 72
    11
 73
     7
 74
     0
 42
0.000000001
 43
0.00000001
 40
0.0
 40
0.0
 40
0.0
 40
0.0
 40
0.3078043658471981
 40
0.6080090898361364
 40
0.9098677063509519
 40
1.0
 40
1.0
 40
1.0
 40
1.0
 10
116.615301401975
 20
143.100208207139
 30
0.0
 10
116.6821156128779
 20
143.0993828995997
 30
0.0
 10
116.8140944022215
 20
143.0977526612357
 30
0.0
 10
117.0092604056061
 20
143.067233973044
 30
0.0
 10
117.1534579650833
 20
143.0158134636069
 30
0.0
 10
117.2224770189999
 20
142.9660389462879
 30
0.0
 10
117.238346891167
 20
142.9545940599528
 30
0.0
  0
SPLINE
  5
11C
330
1F
100
AcDbEntity
  8
0
  6
Continuous
 62
     7
370
    15
100
AcDbSpline
210
0.0
220
0.0
230
1.0
 70
     8
 71
     3
 72
    12
 73
     8
 74
     0
 42
0.000000001
 43
0.00000001
 40
0.0
 40
0.0
 40
0.0
 40
0.0
 40
0.1929884960507638
 40
0.3378032670162677
 40
0.4822468861463873
 40
0.7102801694437634
 40
1.0
 40
1.0
 40
1.0
 40
1.0
 10
115.838076391878
 20
142.5877977862146
 30
0.0
 10
115.8443197447758
 20
142.6564201591695
 30
0.0
 10
115.8552479868687
 20
142.77653541085
 30
0.0
 10
115.9553656347183
 20
142.919539100505
 30
0.0
 10
116.1027877006434
 20
143.0295880898329
 30
0.0
 10
116.3327844379083
 20
143.0885388673342
 30
0.0
 10
116.5139348267538
 20
143.0960212691439
 30
0.0
 10
116.615301401975
 20
143.100208207139
 30
0.0
  0
SPLINE
  5
11D
330
1F
100
AcDbEntity
  8
0
  6
Continuous
 62
     7
370
    15
100
AcDbSpline
210
0.0
220
0.0
230
1.0
 70
     8
 71
     3
 72
    10
 73
     6
 74
     0
 42
0.000000001
 43
0.00000001
 40
0.0
 40
0.0
 40
0.0
 40
0.0
 40
0.4053863803298543
 40
0.8125989184579908
 40
1.0
 40
1.0
 40
1.0
 40
1.0
 10
115.9984575898074
 20
142.2382584541228
 30
0.0
 10
115.9596232913256
 20
142.2762616576783
 30
0.0
 10
115.8817797561785
 20
142.3524392591114
 30
0.0
 10
115.8429398811915
 20
142.4847115904828
 30
0.0
 10
115.8392418727264
 20
142.563094331737
 30
0.0
 10
115.838076391878
 20
142.5877977862146
 30
0.0
  0
SPLINE
  5
11E
330
1F
100
AcDbEntity
  8
0
  6
Continuous
 62
     7
370
    15
100
AcDbSpline
210
0.0
220
0.0
230
1.0
 70
     8
 71
     3
 72
    10
 73
     6
 74
     0
 42
0.000000001
 43
0.00000001
 40
0.0
 40
0.0
 40
0.0
 40
0.0
 40
0.3073568896531027
 40
0.6430150834942635
 40
1.0
 40
1.0
 40
1.0
 40
1.0
 10
116.6233554796003
 20
142.0926647960332
 30
0.0
 10
116.5567777858639
 20
142.0938197095255
 30
0.0
 10
116.4174919499579
 20
142.0962358805002
 30
0.0
 10
116.1987785303873
 20
142.1253456294132
 30
0.0
 10
116.0665879678249
 20
142.1998561113212
 30
0.0
 10
115.9984575898074
 20
142.2382584541228
 30
0.0
  0
SPLINE
  5
11F
330
1F
100
AcDbEntity
  8
0
  6
Continuous
 62
     7
370
    15
100
AcDbSpline
210
0.0
220
0.0
230
1.0
 70
     8
 71
     3
 72
    10
 73
     6
 74
     0
 42
0.000000001
 43
0.00000001
 40
0.0
 40
0.0
 40
0.0
 40
0.0
 40
0.276195630007998
 40
0.7582587841826355
 40
0.9999999999999999
 40
0.9999999999999999
 40
0.9999999999999999
 40
0.9999999999999999
 10
117.2442766219996
 20
142.25079871259
 30
0.0
 10
117.1932362839135
 20
142.2187161659363
 30
0.0
 10
117.0531117471844
 20
142.1306377527534
 30
0.0
 10
116.8318998305149
 20
142.0996980577174
 30
0.0
 10
116.6755682033524
 20
142.0944256960422
 30
0.0
 10
116.6233554796003
 20
142.0926647960332
 30
0.0
  0
SPLINE
  5
120
330
1F
100
AcDbEntity
  8
0
  6
Continuous
 62
     7
370
    15
100
AcDbSpline
210
0.0
220
0.0
230
1.0
 70
     8
 71
     3
 72
    10
 73
     6
 74
     0
 42
0.000000001
 43
0.00000001
 40
0.0
 40
0.0
 40
0.0
 40
0.0
 40
0.2510984320357293
 40
0.6239770825137649
 40
1.0
 40
1.0
 40
1.0
 40
1.0
 10
117.398729020419
 20
142.605054727861
 30
0.0
 10
117.3975225177932
 20
142.5716907773554
 30
0.0
 10
117.3945243708818
 20
142.4887816953321
 30
0.0
 10
117.3513352897287
 20
142.357695981573
 30
0.0
 10
117.2800625908378
 20
142.2865307314714
 30
0.0
 10
117.2442766219996
 20
142.25079871259
 30
0.0
  0
SPLINE
  5
121
330
1F
100
AcDbEntity
  8
0
  6
Continuous
 62
     7
370
    15
100
AcDbSpline
210
0.0
220
0.0
230
1.0
 70
     8
 71
     3
 72
    10
 73
     6
 74
     0
 42
0.000000001
 43
0.00000001
 40
0.0
 40
0.0
 40
0.0
 40
0.0
 40
0.40419060774962
 40
0.8105447458722228
 40
0.9999999999999999
 40
0.9999999999999999
 40
0.9999999999999999
 40
0.9999999999999999
 10
117.238346891167
 20
142.9545940599528
 30
0.0
 10
117.27710058302
 20
142.9167326330531
 30
0.0
 10
117.3548154054634
 20
142.8408071165856
 30
0.0
 10
117.3938037417676
 20
142.7085763308199
 30
0.0
 10
117.3975407332309
 20
142.630030653731
 30
0.0
 10
117.398729020419
 20
142.605054727861
 30
0.0
  0
SPLINE
  5
122
330
1F
100
AcDbEntity
  8
0
  6
Continuous
 62
     7
370
    15
100
AcDbSpline
210
0.0
220
0.0
230
1.0
 70
     8
 71
     3
 72
    15
 73
    11
 74
     0
 42
0.000000001
 43
0.00000001
 40
0.0
 40
0.0
 40
0.0
 40
0.0
 40
0.1627772556395398
 40
0.3255544965891933
 40
0.475810420172942
 40
0.6265454572324665
 40
0.7768013158626956
 40
0.95010141280878
 40
0.9933411750385435
 40
1.0
 40
1.0
 40
1.0
 40
1.0
 10
124.8742718563102
 20
135.75864200258
 30
0.0
 10
125.0734356128222
 20
136.1079317203382
 30
0.0
 10
125.4717631078724
 20
136.8065111243329
 30
0.0
 10
125.8925552347468
 20
137.9072113389948
 30
0.0
 10
126.1812547602559
 20
139.0162563828713
 30
0.0
 10
126.3383528328644
 20
140.1209858658692
 30
0.0
 10
126.3740888947516
 20
141.2928515206323
 30
0.0
 10
126.2902786694648
 20
142.1969259951303
 30
0.0
 10
126.1958648942386
 20
142.7394868377516
 30
0.0
 10
126.1723409441806
 20
142.8603282848557
 30
0.0
 10
126.169201739753
 20
142.8764542332974
 30
0.0
  0
LINE
  5
123
330
1F
100
AcDbEntity
  8
0
  6
Continuous
 62
     7
370
    15
100
AcDbLine
 10
107.9523837507
 20
140.014918591
 30
0.0
 11
107.9720774979
 21
139.8532801076
 31
0.0
  0
LWPOLYLINE
  5
124
330
1F
100
AcDbEntity
  8
0
  6
Continuous
 62
     7
370
    15
100
AcDbPolyline
 90
        3
 70
   128
 43
0.0
 10
108.3290608913
 20
138.2908556379
 10
108.3850631804
 20
138.1266245852
 10
108.4358351619
 20
137.9864463351
  0
LINE
  5
125
330
1F
100
AcDbEntity
  8
0
  6
Continuous
 62
     7
370
    15
100
AcDbLine
 10
109.0842014492
 20
136.625191616
 30
0.0
 11
109.1166114748
 21
136.5706929472
 31
0.0
  0
LWPOLYLINE
  5
126
330
1F
100
AcDbEntity
  8
0
  6
Continuous
 62
     7
370
    15
100
AcDbPolyline
 90
        3
 70
   128
 43
0.0
 10
109.6198218257
 20
135.8238310321
 10
109.6766008378
 20
135.749308637
 10
109.7307795972
 20
135.6797455927
  0
ARC
  5
127
330
1F
100
AcDbEntity
  8
0
  6
Continuous
 62
     7
370
    15
100
AcDbCircle
 10
116.4490831932
 20
140.9681182564
 30
0.0
 40
8.550000000000011
100
AcDbArc
 50
231.9417069789
 51
322.3061701644
  0
SPLINE
  5
128
330
1F
100
AcDbEntity
  8
0
  6
Continuous
 62
     7
370
    15
100
AcDbSpline
210
0.0
220
0.0
230
1.0
 70
     8
 71
     3
 72
    13
 73
     9
 74
     0
 42
0.000000001
 43
0.00000001
 40
0.0
 40
0.0
 40
0.0
 40
0.0
 40
0.1404264737879196
 40
0.2445034000086296
 40
0.3485422399490751
 40
0.4534586133475769
 40
0.8549862029345177
 40
1.0
 40
1.0
 40
1.0
 40
1.0
 10
116.9338956788801
 20
144.802876352438
 30
0.0
 10
116.90932509539
 20
144.8045684307239
 30
0.0
 10
116.8665440510365
 20
144.8075145909658
 30
0.0
 10
116.812559874704
 20
144.8380140544076
 30
0.0
 10
116.7763013405294
 20
144.8796087206537
 30
0.0
 10
116.7357559464687
 20
144.9787877436971
 30
0.0
 10
116.7406898229178
 20
145.0946578554437
 30
0.0
 10
116.7382794733098
 20
145.1890310633719
 30
0.0
 10
116.7376399353765
 20
145.2140711016145
 30
0.0
  0
SPLINE
  5
129
330
1F
100
AcDbEntity
  8
0
  6
Continuous
 62
     7
370
    15
100
AcDbSpline
210
0.0
220
0.0
230
1.0
 70
     8
 71
     3
 72
    10
 73
     6
 74
     0
 42
0.000000001
 43
0.00000001
 40
0.0
 40
0.0
 40
0.0
 40
0.0
 40
0.4243978276159464
 40
0.7120563688161188
 40
1.0
 40
1.0
 40
1.0
 40
1.0
 10
117.1131333649777
 20
145.2049478656736
 30
0.0
 10
117.1134026129465
 20
145.1716171867575
 30
0.0
 10
117.1138543582631
 20
145.1156948406595
 30
0.0
 10
117.1141489144047
 20
145.0371313091537
 30
0.0
 10
117.1119156996866
 20
144.9919681649087
 30
0.0
 10
117.1107985392832
 20
144.96937540836
 30
0.0
  0
SPLINE
  5
12A
330
1F
100
AcDbEntity
  8
0
  6
Continuous
 62
     7
370
    15
100
AcDbSpline
210
0.0
220
0.0
230
1.0
 70
     8
 71
     3
 72
    12
 73
     8
 74
     0
 42
0.000000001
 43
0.00000001
 40
0.0
 40
0.0
 40
0.0
 40
0.0
 40
0.3111027042154305
 40
0.5138375466637359
 40
0.7172773187955954
 40
0.9064917948116354
 40
1.0
 40
1.0
 40
1.0
 40
1.0
 10
117.1107985392832
 20
144.96937540836
 30
0.0
 10
117.1047846064749
 20
144.9419529151108
 30
0.0
 10
117.0948516022352
 20
144.8966601340978
 30
0.0
 10
117.0555083475909
 20
144.8443655003509
 30
0.0
 10
117.0102467566352
 20
144.8145918872717
 30
0.0
 10
116.9673641943802
 20
144.8046119219156
 30
0.0
 10
116.9422139242127
 20
144.8033077098642
 30
0.0
 10
116.9338956788801
 20
144.802876352438
 30
0.0
  0
SPLINE
  5
12B
330
1F
100
AcDbEntity
  8
0
  6
Continuous
 62
     7
370
    15
100
AcDbSpline
210
0.0
220
0.0
230
1.0
 70
     8
 71
     3
 72
    11
 73
     7
 74
     0
 42
0.000000001
 43
0.00000001
 40
0.0
 40
0.0
 40
0.0
 40
0.0
 40
0.4035213924001693
 40
0.6149237690325835
 40
0.8254892232481071
 40
1.0
 40
1.0
 40
1.0
 40
1.0
 10
116.9887338147186
 20
142.774942866632
 30
0.0
 10
117.0213490784288
 20
142.7641773391466
 30
0.0
 10
117.0710512782784
 20
142.747771817998
 30
0.0
 10
117.1183548072519
 20
142.6955064209365
 30
0.0
 10
117.1382633766724
 20
142.6488614203765
 30
0.0
 10
117.140774266305
 20
142.6167620698967
 30
0.0
 10
117.1419121638559
 20
142.602215125331
 30
0.0
  0
SPLINE
  5
12C
330
1F
100
AcDbEntity
  8
0
  6
Continuous
 62
     7
370
    15
100
AcDbSpline
210
0.0
220
0.0
230
1.0
 70
     8
 71
     3
 72
    13
 73
     9
 74
     0
 42
0.000000001
 43
0.00000001
 40
0.0
 40
0.0
 40
0.0
 40
0.0
 40
0.1146489578440181
 40
0.1926821908871665
 40
0.2708816544613844
 40
0.4432750950932328
 40
0.7192740678141395
 40
1.0
 40
1.0
 40
1.0
 40
1.0
 10
117.1419121638559
 20
142.602215125331
 30
0.0
 10
117.1395154398984
 20
142.5781910219771
 30
0.0
 10
117.1354874397162
 20
142.5378154533252
 30
0.0
 10
117.1054185277857
 20
142.4881264408315
 30
0.0
 10
117.0501871355905
 20
142.4463777056572
 30
0.0
 10
116.9459609669554
 20
142.407521106463
 30
0.0
 10
116.7940949738785
 20
142.3932706781139
 30
0.0
 10
116.6784117911714
 20
142.3904257113684
 30
0.0
 10
116.6200790867828
 20
142.3889911501792
 30
0.0
  0
SPLINE
  5
12D
330
1F
100
AcDbEntity
  8
0
  6
Continuous
 62
     7
370
    15
100
AcDbSpline
210
0.0
220
0.0
230
1.0
 70
     8
 71
     3
 72
    10
 73
     6
 74
     0
 42
0.000000001
 43
0.00000001
 40
0.0
 40
0.0
 40
0.0
 40
0.0
 40
0.2674934480486743
 40
0.5350267020688914
 40
1.0
 40
1.0
 40
1.0
 40
1.0
 10
116.6200790867828
 20
142.3889911501792
 30
0.0
 10
116.5867536495917
 20
142.3889866107257
 30
0.0
 10
116.5200978160174
 20
142.3889775311433
 30
0.0
 10
116.3953099784972
 20
142.3918305200151
 30
0.0
 10
116.3052426918266
 20
142.4077832992726
 30
0.0
 10
116.2480706662558
 20
142.4179096474436
 30
0.0
  0
SPLINE
  5
12E
330
1F
100
AcDbEntity
  8
0
  6
Continuous
 62
     7
370
    15
100
AcDbSpline
210
0.0
220
0.0
230
1.0
 70
     8
 71
     3
 72
    11
 73
     7
 74
     0
 42
0.000000001
 43
0.00000001
 40
0.0
 40
0.0
 40
0.0
 40
0.0
 40
0.4035709122750964
 40
0.6142778924577559
 40
0.8238128216663801
 40
1.0
 40
1.0
 40
1.0
 40
1.0
 10
116.2480706662558
 20
142.4179096474436
 30
0.0
 10
116.2154346389761
 20
142.4286603770999
 30
0.0
 10
116.1657591310399
 20
142.4450241321546
 30
0.0
 10
116.1186945710512
 20
142.4972681302036
 30
0.0
 10
116.0985662673961
 20
142.5437892773645
 30
0.0
 10
116.0960442876394
 20
142.5759484395744
 30
0.0
 10
116.0948923171185
 20
142.5906378544059
 30
0.0
  0
SPLINE
  5
12F
330
1F
100
AcDbEntity
  8
0
  6
Continuous
 62
     7
370
    15
100
AcDbSpline
210
0.0
220
0.0
230
1.0
 70
     8
 71
     3
 72
    13
 73
     9
 74
     0
 42
0.000000001
 43
0.00000001
 40
0.0
 40
0.0
 40
0.0
 40
0.0
 40
0.1241423638717662
 40
0.203081165006292
 40
0.2821004807115929
 40
0.4673351818399855
 40
0.7319152282214955
 40
1.0
 40
1.0
 40
1.0
 40
1.0
 10
116.0948923171185
 20
142.5906378544059
 30
0.0
 10
116.0976037585992
 20
142.6166928887073
 30
0.0
 10
116.1020393330282
 20
142.6593156208285
 30
0.0
 10
116.135325406975
 20
142.7098500237873
 30
0.0
 10
116.1944589501417
 20
142.7511814730542
 30
0.0
 10
116.299983643531
 20
142.7873279983415
 30
0.0
 10
116.449231385973
 20
142.8001045925035
 30
0.0
 10
116.5598288272622
 20
142.802594642796
 30
0.0
 10
116.6154913917803
 20
142.8038478597191
 30
0.0
  0
SPLINE
  5
130
330
1F
100
AcDbEntity
  8
0
  6
Continuous
 62
     7
370
    15
100
AcDbSpline
210
0.0
220
0.0
230
1.0
 70
     8
 71
     3
 72
    10
 73
     6
 74
     0
 42
0.000000001
 43
0.00000001
 40
0.0
 40
0.0
 40
0.0
 40
0.0
 40
0.2666205316383751
 40
0.533278002103465
 40
1.0
 40
1.0
 40
1.0
 40
1.0
 10
116.6154913917803
 20
142.8038478597191
 30
0.0
 10
116.6488169875552
 20
142.8038556671525
 30
0.0
 10
116.7154727961855
 20
142.8038712831011
 30
0.0
 10
116.8406662141969
 20
142.8010210374173
 30
0.0
 10
116.9311500117801
 20
142.7850847223938
 30
0.0
 10
116.9887338147186
 20
142.774942866632
 30
0.0
  0
SPLINE
  5
131
330
1F
100
AcDbEntity
  8
0
  6
Continuous
 62
     7
370
    15
100
AcDbSpline
210
0.0
220
0.0
230
1.0
 70
     8
 71
     3
 72
     9
 73
     5
 74
     0
 42
0.000000001
 43
0.00000001
 40
0.0
 40
0.0
 40
0.0
 40
0.0
 40
0.5838514512394315
 40
1.0
 40
1.0
 40
1.0
 40
1.0
 10
126.169201739753
 20
142.8764542332974
 30
0.0
 10
126.1584034875785
 20
142.876334729157
 30
0.0
 10
126.1399086253123
 20
142.8761300467157
 30
0.0
 10
126.1206097900656
 20
142.8759170307939
 30
0.0
 10
126.112578607785
 20
142.8758283845272
 30
0.0
  0
SPLINE
  5
132
330
1F
100
AcDbEntity
  8
0
  6
Continuous
 62
     7
370
    15
100
AcDbSpline
210
0.0
220
0.0
230
1.0
 70
     8
 71
     3
 72
     9
 73
     5
 74
     0
 42
0.000000001
 43
0.00000001
 40
0.0
 40
0.0
 40
0.0
 40
0.0
 40
0.0650980903808812
 40
1.0
 40
1.0
 40
1.0
 40
1.0
 10
124.8082850907617
 20
135.7579123695504
 30
0.0
 10
124.8097348298505
 20
135.7579284028117
 30
0.0
 10
124.8320049007593
 20
135.7581746966925
 30
0.0
 10
124.8538493959974
 20
135.7584162106861
 30
0.0
 10
124.8742718563102
 20
135.75864200258
 30
0.0
  0
ARC
  5
133
330
1F
100
AcDbEntity
  8
0
  6
Continuous
 62
     7
370
    15
100
AcDbCircle
 10
116.4490831932
 20
140.9681182563
 30
0.0
 40
8.549999999999985
100
AcDbArc
 50
231.9417069789
 51
322.3061701654
  0
LWPOLYLINE
  5
134
330
1F
100
AcDbEntity
  8
0
  6
Continuous
 62
     7
370
    15
100
AcDbPolyline
 90
        3
 70
   128
 43
0.0
 10
109.7307795972
 20
135.6797455927
 10
109.6766008378
 20
135.749308637
 10
109.6198218257
 20
135.8238310321
  0
LINE
  5
135
330
1F
100
AcDbEntity
  8
0
  6
Continuous
 62
     7
370
    15
100
AcDbLine
 10
109.1166114748
 20
136.5706929472
 30
0.0
 11
109.0842014492
 21
136.625191616
 31
0.0
  0
LWPOLYLINE
  5
136
330
1F
100
AcDbEntity
  8
0
  6
Continuous
 62
     7
370
    15
100
AcDbPolyline
 90
        3
 70
   128
 43
0.0
 10
108.4358351619
 20
137.9864463351
 10
108.3850631804
 20
138.1266245852
 10
108.3285002351
 20
138.2925578627
  0
LINE
  5
137
330
1F
100
AcDbEntity
  8
0
  6
Continuous
 62
     7
370
    15
100
AcDbLine
 10
107.9721575916
 20
139.8526593811
 30
0.0
 11
107.9528736264
 21
140.0105586044
 31
0.0
  0
LINE
  5
138
330
1F
100
AcDbEntity
  8
0
  6
Continuous
 62
     7
370
    15
100
AcDbLine
 10
107.9191876889
 20
141.5541168071
 30
0.0
 11
107.9472242237
 21
141.87415184
 31
0.0
  0
LWPOLYLINE
  5
139
330
1F
100
AcDbEntity
  8
0
  6
Continuous
 62
     7
370
    15
100
AcDbPolyline
 90
        3
 70
   128
 43
0.0
 10
108.2613854051
 20
143.4306591517
 10
108.2727941067
 20
143.4682789958
 10
108.365218559
 20
143.7526546187
  0
LINE
  5
13A
330
1F
100
AcDbEntity
  8
0
  6
Continuous
 62
     7
370
    15
100
AcDbLine
 10
110.3467097819
 20
146.9567367575
 30
0.0
 11
110.448415795
 21
147.0586420736
 31
0.0
  0
ARC
  5
13B
330
1F
100
AcDbEntity
  8
0
  6
Continuous
 62
     7
370
    15
100
AcDbCircle
 10
116.4490831932
 20
140.9681182563
 30
0.0
 40
8.549999999999995
100
AcDbArc
 50
12.7918324478
 51
128.0455073747
  0
LWPOLYLINE
  5
13C
330
1F
100
AcDbEntity
  8
0
  6
Continuous
 62
     7
370
    15
100
AcDbPolyline
 90
        2
 70
   128
 43
0.0
 10
123.2146075309
 20
135.7402905823
 10
123.2146075309
 20
135.7402905823
  0
LINE
  5
13D
330
1F
100
AcDbEntity
  8
0
  6
Continuous
 62
     7
370
    15
100
AcDbLine
 10
124.7868800384
 20
142.8611693672
 30
0.0
 11
126.1125786078
 21
142.8758283845
 31
0.0
  0
LINE
  5
13E
330
1F
100
AcDbEntity
  8
0
  6
Continuous
 62
     7
370
    15
100
AcDbLine
 10
124.8082850908
 20
135.7579123696
 30
0.0
 11
123.2146075309
 21
135.7402905823
 31
0.0
  0
LINE
  5
13F
330
1F
100
AcDbEntity
  8
0
  6
Continuous
 62
     7
370
    15
100
AcDbLine
 10
127.2107012883
 20
124.9788930408
 30
0.0
 11
127.2104801574
 21
124.9988913304
 31
0.0
  0
CIRCLE
  5
140
330
1F
100
AcDbEntity
  8
0
  6
Continuous
 62
     7
370
    15
100
AcDbCircle
 10
121.9551046302
 20
127.1088515021
 30
0.0
 40
0.1500000000000113
  0
CIRCLE
  5
141
330
1F
100
AcDbEntity
  8
0
  6
Continuous
 62
     7
370
    15
100
AcDbCircle
 10
132.0947701299
 20
127.1089345923
 30
0.0
 40
0.1500000000000113
  0
CIRCLE
  5
142
330
1F
100
AcDbEntity
  8
0
  6
Continuous
 62
     7
370
    15
100
AcDbCircle
 10
121.9551093489
 20
129.6488515021
 30
0.0
 40
0.1499999999999971
  0
CIRCLE
  5
143
330
1F
100
AcDbEntity
  8
0
  6
Continuous
 62
     7
370
    15
100
AcDbCircle
 10
121.9551093489
 20
129.6488515021
 30
0.0
 40
0.7499999999999852
  0
CIRCLE
  5
144
330
1F
100
AcDbEntity
  8
0
  6
Continuous
 62
     7
370
    15
100
AcDbCircle
 10
129.5550613287
 20
129.6218347678
 30
0.0
 40
0.1499999999999828
  0
CIRCLE
  5
145
330
1F
100
AcDbEntity
  8
0
  6
Continuous
 62
     7
370
    15
100
AcDbCircle
 10
129.5550613287
 20
129.6218347678
 30
0.0
 40
0.7499999999999994
  0
CIRCLE
  5
146
330
1F
100
AcDbEntity
  8
0
  6
Continuous
 62
     7
370
    15
100
AcDbCircle
 10
129.5547801536
 20
127.1017987191
 30
0.0
 40
0.1500000000000113
  0
CIRCLE
  5
147
330
1F
100
AcDbEntity
  8
0
  6
Continuous
 62
     7
370
    15
100
AcDbCircle
 10
129.5547801536
 20
127.1017987191
 30
0.0
 40
0.7499999999999994
  0
CIRCLE
  5
148
330
1F
100
AcDbEntity
  8
0
  6
Continuous
 62
     7
370
    15
100
AcDbCircle
 10
132.0947701299
 20
127.1089345923
 30
0.0
 40
0.749999999999971
  0
CIRCLE
  5
149
330
1F
100
AcDbEntity
  8
0
  6
Continuous
 62
     7
370
    15
100
AcDbCircle
 10
121.9551046302
 20
127.1088515021
 30
0.0
 40
0.7499999999999994
  0
SPLINE
  5
14A
330
1F
100
AcDbEntity
  8
0
  6
Continuous
 62
     7
370
    15
100
AcDbSpline
210
0.0
220
0.0
230
1.0
 70
     8
 71
     3
 72
    12
 73
     8
 74
     0
 42
0.000000001
 43
0.00000001
 40
0.0
 40
0.0
 40
0.0
 40
0.0
 40
0.2501601066178707
 40
0.375361196824742
 40
0.4992238594141143
 40
0.7493396107127439
 40
1.0
 40
1.0
 40
1.0
 40
1.0
 10
107.5457068473719
 20
128.0802647351411
 30
0.0
 10
107.549641598764
 20
128.0364662268769
 30
0.0
 10
107.5555456296334
 20
127.97074727311
 30
0.0
 10
107.5917127881077
 20
127.8882319105729
 30
0.0
 10
107.6659728311749
 20
127.835364642685
 30
0.0
 10
107.7779318993706
 20
127.8241415690714
 30
0.0
 10
107.8651926634831
 20
127.8219150596383
 30
0.0
 10
107.9088704974078
 20
127.8208005941596
 30
0.0
  0
SPLINE
  5
14B
330
1F
100
AcDbEntity
  8
0
  6
Continuous
 62
     7
370
    15
100
AcDbSpline
210
0.0
220
0.0
230
1.0
 70
     8
 71
     3
 72
    12
 73
     8
 74
     0
 42
0.000000001
 43
0.00000001
 40
0.0
 40
0.0
 40
0.0
 40
0.0
 40
0.2507490654817376
 40
0.5010924837595323
 40
0.6240303657287318
 40
0.7494833506042952
 40
1.0
 40
1.0
 40
1.0
 40
1.0
 10
108.323949793043
 20
127.8207540280309
 30
0.0
 10
108.3684886575072
 20
127.8220099987197
 30
0.0
 10
108.45749433406
 20
127.8245199082612
 30
0.0
 10
108.5705426250295
 20
127.8306966950448
 30
0.0
 10
108.6504029289226
 20
127.8809545110654
 30
0.0
 10
108.6782268656249
 20
127.969551622352
 30
0.0
 10
108.6835945689593
 20
128.0359166796472
 30
0.0
 10
108.6871711850785
 20
128.0801371439483
 30
0.0
  0
LINE
  5
14C
330
1F
100
AcDbEntity
  8
0
  6
Continuous
 62
     7
370
    15
100
AcDbLine
 10
108.6871711851
 20
128.0801371439
 30
0.0
 11
107.5457068474
 21
128.0802647351
 31
0.0
  0
LINE
  5
14D
330
1F
100
AcDbEntity
  8
0
  6
Continuous
 62
     7
370
    15
100
AcDbLine
 10
109.4676511676
 20
128.0800500653
 30
0.0
 11
109.4678709597
 21
128.0573504745
 31
0.0
  0
SPLINE
  5
14E
330
1F
100
AcDbEntity
  8
0
  6
Continuous
 62
     7
370
    15
100
AcDbSpline
210
0.0
220
0.0
230
1.0
 70
     8
 71
     3
 72
    11
 73
     7
 74
     0
 42
0.000000001
 43
0.00000001
 40
0.0
 40
0.0
 40
0.0
 40
0.0
 40
0.2490285253326003
 40
0.3715148523090457
 40
0.4971666365149219
 40
1.0
 40
1.0
 40
1.0
 40
1.0
 10
109.4678709597014
 20
128.0573504745152
 30
0.0
 10
109.4673160984667
 20
127.9979678451966
 30
0.0
 10
109.4664883250644
 20
127.9093774769584
 30
0.0
 10
109.5634891609634
 20
127.8406878790084
 30
0.0
 10
109.7294413467356
 20
127.8251994258165
 30
0.0
 10
109.8673993349339
 20
127.8226274177644
 30
0.0
 10
109.9777756572388
 20
127.8205696261611
 30
0.0
  0
SPLINE
  5
14F
330
1F
100
AcDbEntity
  8
0
  6
Continuous
 62
     7
370
    15
100
AcDbSpline
210
0.0
220
0.0
230
1.0
 70
     8
 71
     3
 72
    12
 73
     8
 74
     0
 42
0.000000001
 43
0.00000001
 40
0.0
 40
0.0
 40
0.0
 40
0.0
 40
0.2507240547817506
 40
0.5004632733759764
 40
0.6253837270190832
 40
0.749555976596532
 40
1.0
 40
1.0
 40
1.0
 40
1.0
 10
109.9777756572388
 20
127.8205696261611
 30
0.0
 10
110.0219484732242
 20
127.8215486776769
 30
0.0
 10
110.1101205957655
 20
127.823502935025
 30
0.0
 10
110.2221625774503
 20
127.8393931577912
 30
0.0
 10
110.2980647741938
 20
127.8887967259537
 30
0.0
 10
110.3451861766015
 20
127.9671327483576
 30
0.0
 10
110.3465625956322
 20
128.034748674958
 30
0.0
 10
110.3474827796839
 20
128.0799522764173
 30
0.0
  0
LINE
  5
150
330
1F
100
AcDbEntity
  8
0
  6
Continuous
 62
     7
370
    15
100
AcDbLine
 10
110.3474827797
 20
128.0799522764
 30
0.0
 11
109.4676511676
 21
128.0800500653
 31
0.0
  0
LINE
  5
151
330
1F
100
AcDbEntity
  8
0
  6
Continuous
 62
     7
370
    15
100
AcDbLine
 10
111.1778127343
 20
129.6364018462
 30
0.0
 11
111.1776525468
 21
128.2079499914
 31
0.0
  0
SPLINE
  5
152
330
1F
100
AcDbEntity
  8
0
  6
Continuous
 62
     7
370
    15
100
AcDbSpline
210
0.0
220
0.0
230
1.0
 70
     8
 71
     3
 72
    14
 73
    10
 74
     0
 42
0.000000001
 43
0.00000001
 40
0.0
 40
0.0
 40
0.0
 40
0.0
 40
0.1670604210476633
 40
0.3340639347916498
 40
0.5004795957047399
 40
0.6252567829653044
 40
0.7497817297309134
 40
0.8747802903371982
 40
1.0
 40
1.0
 40
1.0
 40
1.0
 10
111.1776525468253
 20
128.2079499914434
 30
0.0
 10
111.1755236150962
 20
128.0622057237707
 30
0.0
 10
111.1712664768354
 20
127.7707668346146
 30
0.0
 10
111.133409704401
 20
127.3360690131907
 30
0.0
 10
111.0313877093448
 20
126.9429141487507
 30
0.0
 10
110.8159460265179
 20
126.6422679032604
 30
0.0
 10
110.539456553566
 20
126.4547811122239
 30
0.0
 10
110.2165888628358
 20
126.378414224991
 30
0.0
 10
109.9984245578974
 20
126.3713448194345
 30
0.0
 10
109.889245995941
 20
126.367806992599
 30
0.0
  0
SPLINE
  5
153
330
1F
100
AcDbEntity
  8
0
  6
Continuous
 62
     7
370
    15
100
AcDbSpline
210
0.0
220
0.0
230
1.0
 70
     8
 71
     3
 72
    12
 73
     8
 74
     0
 42
0.000000001
 43
0.00000001
 40
0.0
 40
0.0
 40
0.0
 40
0.0
 40
0.1871919904551656
 40
0.3739143254542318
 40
0.5595679322229771
 40
0.7793896839163275
 40
1.0
 40
1.0
 40
1.0
 40
1.0
 10
109.889245995941
 20
126.367806992599
 30
0.0
 10
109.8144042709527
 20
126.3706510249052
 30
0.0
 10
109.6649085951667
 20
126.3763319539811
 30
0.0
 10
109.444645577066
 20
126.4364044777598
 30
0.0
 10
109.2570357542617
 20
126.5958122711949
 30
0.0
 10
109.1627882828835
 20
126.8356382301314
 30
0.0
 10
109.1396643240279
 20
127.0101223303443
 30
0.0
 10
109.1280816436432
 20
127.097520581552
 30
0.0
  0
SPLINE
  5
154
330
1F
100
AcDbEntity
  8
0
  6
Continuous
 62
     7
370
    15
100
AcDbSpline
210
0.0
220
0.0
230
1.0
 70
     8
 71
     3
 72
    12
 73
     8
 74
     0
 42
0.000000001
 43
0.00000001
 40
0.0
 40
0.0
 40
0.0
 40
0.0
 40
0.1871914616735653
 40
0.373973310435491
 40
0.5599184808654726
 40
0.7795352210502482
 40
1.0
 40
1.0
 40
1.0
 40
1.0
 10
109.1280816436433
 20
127.097520581552
 30
0.0
 10
109.1155304551525
 20
127.010481622449
 30
0.0
 10
109.090455542719
 20
126.8365941631513
 30
0.0
 10
108.9916395206913
 20
126.588391481735
 30
0.0
 10
108.7940624013691
 20
126.3808482440771
 30
0.0
 10
108.5089498636088
 20
126.2781142339348
 30
0.0
 10
108.3024007534981
 20
126.2688615061074
 30
0.0
 10
108.1989271879815
 20
126.2642262271729
 30
0.0
  0
LINE
  5
155
330
1F
100
AcDbEntity
  8
0
  6
Continuous
 62
     7
370
    15
100
AcDbLine
 10
108.198927188
 20
126.2642262272
 30
0.0
 11
107.7935783506
 21
126.2642709307
 31
0.0
  0
SPLINE
  5
156
330
1F
100
AcDbEntity
  8
0
  6
Continuous
 62
     7
370
    15
100
AcDbSpline
210
0.0
220
0.0
230
1.0
 70
     8
 71
     3
 72
    14
 73
    10
 74
     0
 42
0.000000001
 43
0.00000001
 40
0.0
 40
0.0
 40
0.0
 40
0.0
 40
0.125247392915137
 40
0.2502262166208481
 40
0.3744656994702877
 40
0.4990360584626011
 40
0.6658176141616122
 40
0.8328991101404978
 40
0.9999999999999999
 40
0.9999999999999999
 40
0.9999999999999999
 40
0.9999999999999999
 10
107.7935783506058
 20
126.2642709306565
 30
0.0
 10
107.6933756037741
 20
126.2672271968066
 30
0.0
 10
107.4931849758407
 20
126.2731333899563
 30
0.0
 10
107.1971451499106
 20
126.3386043214884
 30
0.0
 10
106.9400370849166
 20
126.5128128997821
 30
0.0
 10
106.784811090717
 20
126.8188103239088
 30
0.0
 10
106.7396195809008
 20
127.1854072773032
 30
0.0
 10
106.7183013396517
 20
127.585168732856
 30
0.0
 10
106.7164610191648
 20
127.8525951866543
 30
0.0
 10
106.7155408055209
 20
127.9863161734429
 30
0.0
  0
LINE
  5
157
330
1F
100
AcDbEntity
  8
0
  6
Continuous
 62
     7
370
    15
100
AcDbLine
 10
106.7155408055
 20
127.9863161734
 30
0.0
 11
106.7157252074
 21
129.6368996381
 31
0.0
  0
LINE
  5
158
330
1F
100
AcDbEntity
  8
0
  6
Continuous
 62
     7
370
    15
100
AcDbLine
 10
106.7157252074
 20
129.6368996381
 30
0.0
 11
111.1778127343
 21
129.6364018462
 31
0.0
  0
LINE
  5
159
330
1F
100
AcDbEntity
  8
0
  6
Continuous
 62
     7
370
    15
100
AcDbLine
 10
107.9088704974
 20
127.8208005942
 30
0.0
 11
108.323949793
 21
127.820754028
 31
0.0
  0
SPLINE
  5
15A
330
1F
100
AcDbEntity
  8
0
  6
Continuous
 62
     7
370
    15
100
AcDbSpline
210
0.0
220
0.0
230
1.0
 70
     8
 71
     3
 72
    11
 73
     7
 74
     0
 42
0.000000001
 43
0.00000001
 40
0.0
 40
0.0
 40
0.0
 40
0.0
 40
0.1848400423333116
 40
0.3719365753379288
 40
0.5590284074480423
 40
0.9999999999999999
 40
0.9999999999999999
 40
0.9999999999999999
 40
0.9999999999999999
 10
110.4525769442939
 20
139.9511253229466
 30
0.0
 10
110.429622232795
 20
139.9665148674517
 30
0.0
 10
110.3834325832204
 20
139.997481828977
 30
0.0
 10
110.2992061214104
 20
140.0003121925458
 30
0.0
 10
110.1807507528781
 20
140.0072957185914
 30
0.0
 10
110.0884963897365
 20
140.0076636797732
 30
0.0
 10
110.0237233877801
 20
140.0079220301595
 30
0.0
  0
LINE
  5
15B
330
1F
100
AcDbEntity
  8
0
  6
Continuous
 62
     7
370
    15
100
AcDbLine
 10
110.0237233878
 20
140.0079220302
 30
0.0
 11
107.9572508425
 21
140.0081525325
 31
0.0
  0
SPLINE
  5
15C
330
1F
100
AcDbEntity
  8
0
  6
Continuous
 62
     7
370
    15
100
AcDbSpline
210
0.0
220
0.0
230
1.0
 70
     8
 71
     3
 72
    11
 73
     7
 74
     0
 42
0.000000001
 43
0.00000001
 40
0.0
 40
0.0
 40
0.0
 40
0.0
 40
0.5013267337735124
 40
0.7519798161173898
 40
0.8772933000885168
 40
1.0
 40
1.0
 40
1.0
 40
1.0
 10
107.9572508425139
 20
140.0081525324967
 30
0.0
 10
107.8698433193242
 20
140.0080933647435
 30
0.0
 10
107.7387338276744
 20
140.0080046143275
 30
0.0
 10
107.5872065561028
 20
140.0004770232862
 30
0.0
 10
107.4991553785089
 20
139.9926985937914
 30
0.0
 10
107.4617629412509
 20
139.9699913412398
 30
0.0
 10
107.4432632268094
 20
139.9587570457843
 30
0.0
  0
SPLINE
  5
15D
330
1F
100
AcDbEntity
  8
0
  6
Continuous
 62
     7
370
    15
100
AcDbSpline
210
0.0
220
0.0
230
1.0
 70
     8
 71
     3
 72
    12
 73
     8
 74
     0
 42
0.000000001
 43
0.00000001
 40
0.0
 40
0.0
 40
0.0
 40
0.0
 40
0.0622093447286101
 40
0.1246700402553971
 40
0.2492340141628175
 40
0.49943488389679
 40
1.0
 40
1.0
 40
1.0
 40
1.0
 10
107.4432632268094
 20
139.9587570457843
 30
0.0
 10
107.4446663416475
 20
139.9461940614769
 30
0.0
 10
107.4474782404725
 20
139.9210173333476
 30
0.0
 10
107.4854792349384
 20
139.8851932425212
 30
0.0
 10
107.5700657180073
 20
139.8613546915051
 30
0.0
 10
107.7429367601631
 20
139.8556645624524
 30
0.0
 10
107.8909658998978
 20
139.8537626299608
 30
0.0
 10
107.9896627307557
 20
139.8524945370045
 30
0.0
  0
LINE
  5
15E
330
1F
100
AcDbEntity
  8
0
  6
Continuous
 62
     7
370
    15
100
AcDbLine
 10
107.9896627308
 20
139.852494537
 30
0.0
 11
110.023706624
 21
139.85226776
 31
0.0
  0
SPLINE
  5
15F
330
1F
100
AcDbEntity
  8
0
  6
Continuous
 62
     7
370
    15
100
AcDbSpline
210
0.0
220
0.0
230
1.0
 70
     8
 71
     3
 72
    12
 73
     8
 74
     0
 42
0.000000001
 43
0.00000001
 40
0.0
 40
0.0
 40
0.0
 40
0.0
 40
0.5006260770195446
 40
0.7506841439837638
 40
0.8750335640685706
 40
0.9375748502513188
 40
0.9999999999999999
 40
0.9999999999999999
 40
0.9999999999999999
 40
0.9999999999999999
 10
110.0237066239737
 20
139.8522677599576
 30
0.0
 10
110.1024267800228
 20
139.8535631668122
 30
0.0
 10
110.2204669214989
 20
139.8555056173365
 30
0.0
 10
110.3587158932591
 20
139.8616928982163
 30
0.0
 10
110.4246533830962
 20
139.8886639340862
 30
0.0
 10
110.4497590553137
 20
139.9212351216487
 30
0.0
 10
110.4516382300985
 20
139.9411680973579
 30
0.0
 10
110.4525769442939
 20
139.9511253229466
 30
0.0
  0
SPLINE
  5
160
330
1F
100
AcDbEntity
  8
0
  6
Continuous
 62
     7
370
    15
100
AcDbSpline
210
0.0
220
0.0
230
1.0
 70
     8
 71
     3
 72
    14
 73
    10
 74
     0
 42
0.000000001
 43
0.00000001
 40
0.0
 40
0.0
 40
0.0
 40
0.0
 40
0.1403551791071452
 40
0.2806901530783465
 40
0.4200793664076872
 40
0.5597639514028862
 40
0.7062697361011132
 40
0.8530779131154345
 40
1.0
 40
1.0
 40
1.0
 40
1.0
 10
108.5731922031068
 20
138.295887340897
 30
0.0
 10
108.4315864892135
 20
138.2971661922706
 30
0.0
 10
108.1483954465863
 20
138.299723710918
 30
0.0
 10
107.725197224567
 20
138.3079148526383
 30
0.0
 10
107.3036993855441
 20
138.4074614460353
 30
0.0
 10
106.9638362553755
 20
138.6925631067999
 30
0.0
 10
106.745985470259
 20
139.0778891191545
 30
0.0
 10
106.6297760940992
 20
139.5112803544463
 30
0.0
 10
106.6186644665349
 20
139.8080001373937
 30
0.0
 10
106.6131064981841
 20
139.9564175634768
 30
0.0
  0
SPLINE
  5
161
330
1F
100
AcDbEntity
  8
0
  6
Continuous
 62
     7
370
    15
100
AcDbSpline
210
0.0
220
0.0
230
1.0
 70
     8
 71
     3
 72
    15
 73
    11
 74
     0
 42
0.000000001
 43
0.00000001
 40
0.0
 40
0.0
 40
0.0
 40
0.0
 40
0.1401668046000473
 40
0.280249037066656
 40
0.4200187437471638
 40
0.559627572471931
 40
0.6693897293132401
 40
0.7795710702567424
 40
0.8897837946597893
 40
1.0
 40
1.0
 40
1.0
 40
1.0
 10
106.6131064981841
 20
139.9564175634768
 30
0.0
 10
106.6185537786409
 20
140.0961831763308
 30
0.0
 10
106.629445052841
 20
140.3756300719714
 30
0.0
 10
106.7346947115015
 20
140.7846871686551
 30
0.0
 10
106.9400848475043
 20
141.1555110827785
 30
0.0
 10
107.2414863990987
 20
141.4154219046376
 30
0.0
 10
107.5852140063154
 20
141.537599787505
 30
0.0
 10
107.9154442082576
 20
141.551773021895
 30
0.0
 10
108.2441119489235
 20
141.5638922863719
 30
0.0
 10
108.4637410145765
 20
141.5643813268724
 30
0.0
 10
108.573557281556
 20
141.5646258509841
 30
0.0
  0
LINE
  5
162
330
1F
100
AcDbEntity
  8
0
  6
Continuous
 62
     7
370
    15
100
AcDbLine
 10
108.5735572816
 20
141.564625851
 30
0.0
 11
109.3226423801
 21
141.5645424976
 31
0.0
  0
SPLINE
  5
163
330
1F
100
AcDbEntity
  8
0
  6
Continuous
 62
     7
370
    15
100
AcDbSpline
210
0.0
220
0.0
230
1.0
 70
     8
 71
     3
 72
    14
 73
    10
 74
     0
 42
0.000000001
 43
0.00000001
 40
0.0
 40
0.0
 40
0.0
 40
0.0
 40
0.1403582117492716
 40
0.2807017337667502
 40
0.4201948096353788
 40
0.559864359711377
 40
0.7063151318521457
 40
0.853082114378713
 40
1.0
 40
1.0
 40
1.0
 40
1.0
 10
109.322642380061
 20
141.5645424976137
 30
0.0
 10
109.4624413627024
 20
141.5635203116448
 30
0.0
 10
109.7420246967817
 20
141.561476046688
 30
0.0
 10
110.1592737594536
 20
141.5516031313358
 30
0.0
 10
110.5778547109704
 20
141.4680645968351
 30
0.0
 10
110.9220106700725
 20
141.197011266835
 30
0.0
 10
111.1487298940331
 20
140.822924763922
 30
0.0
 10
111.2646519406484
 20
140.3949693999652
 30
0.0
 10
111.2767043645436
 20
140.102304252031
 30
0.0
 10
111.2827336729192
 20
139.9558964884963
 30
0.0
  0
SPLINE
  5
164
330
1F
100
AcDbEntity
  8
0
  6
Continuous
 62
     7
370
    15
100
AcDbSpline
210
0.0
220
0.0
230
1.0
 70
     8
 71
     3
 72
    15
 73
    11
 74
     0
 42
0.000000001
 43
0.00000001
 40
0.0
 40
0.0
 40
0.0
 40
0.0
 40
0.1401711219598086
 40
0.2802595876353253
 40
0.4201086548349918
 40
0.5597173257570793
 40
0.6694235377599239
 40
0.7795856799453098
 40
0.8897906718184048
 40
0.9999999999999999
 40
0.9999999999999999
 40
0.9999999999999999
 40
0.9999999999999999
 10
111.2827336729192
 20
139.9558964884963
 30
0.0
 10
111.2771738338226
 20
139.8142912760646
 30
0.0
 10
111.2660574341626
 20
139.5311643531418
 30
0.0
 10
111.1614583108729
 20
139.1168356738251
 30
0.0
 10
110.9640561606155
 20
138.7357130371357
 30
0.0
 10
110.6668022742188
 20
138.4644450676493
 30
0.0
 10
110.3239352691614
 20
138.3251641078229
 30
0.0
 10
109.9887000064195
 20
138.3096414163192
 30
0.0
 10
109.6560360523985
 20
138.2965619493924
 30
0.0
 10
109.433531677683
 20
138.2960564895761
 30
0.0
 10
109.3222773016118
 20
138.2958037546959
 30
0.0
  0
LINE
  5
165
330
1F
100
AcDbEntity
  8
0
  6
Continuous
 62
     7
370
    15
100
AcDbLine
 10
109.3222773016
 20
138.2958037547
 30
0.0
 11
108.5731922031
 21
138.2958873409
 31
0.0
  0
LINE
  5
166
330
1F
100
AcDbEntity
  8
0
  6
Continuous
 62
     7
370
    15
100
AcDbLine
 10
106.7151123971
 20
124.1408219329
 30
0.0
 11
111.1771999241
 21
124.1403236753
 31
0.0
  0
LINE
  5
167
330
1F
100
AcDbEntity
  8
0
  6
Continuous
 62
     7
370
    15
100
AcDbLine
 10
111.1771999241
 20
124.1403236753
 30
0.0
 11
111.1770248354
 21
122.5837819046
 31
0.0
  0
LINE
  5
168
330
1F
100
AcDbEntity
  8
0
  6
Continuous
 62
     7
370
    15
100
AcDbLine
 10
106.7148516268
 20
121.8060083456
 30
0.0
 11
106.7151123971
 21
124.1408219329
 31
0.0
  0
LINE
  5
169
330
1F
100
AcDbEntity
  8
0
  6
Continuous
 62
     7
370
    15
100
AcDbLine
 10
111.1770248354
 20
122.5837819046
 30
0.0
 11
107.7007478417
 21
122.5841693348
 31
0.0
  0
LINE
  5
16A
330
1F
100
AcDbEntity
  8
0
  6
Continuous
 62
     7
370
    15
100
AcDbLine
 10
107.7007478417
 20
122.5841693348
 30
0.0
 11
107.7006602973
 21
121.8058984495
 31
0.0
  0
LINE
  5
16B
330
1F
100
AcDbEntity
  8
0
  6
Continuous
 62
     7
370
    15
100
AcDbLine
 10
107.7006602973
 20
121.8058984495
 30
0.0
 11
106.7148516268
 21
121.8060083456
 31
0.0
  0
LINE
  5
16C
330
1F
100
AcDbEntity
  8
0
  6
Continuous
 62
     7
370
    15
100
AcDbLine
 10
106.7153191507
 20
126.0068198434
 30
0.0
 11
111.1774066777
 21
126.0063225172
 31
0.0
  0
LINE
  5
16D
330
1F
100
AcDbEntity
  8
0
  6
Continuous
 62
     7
370
    15
100
AcDbLine
 10
111.1772334517
 20
124.4497798151
 30
0.0
 11
106.7151459247
 21
124.4502780727
 31
0.0
  0
LINE
  5
16E
330
1F
100
AcDbEntity
  8
0
  6
Continuous
 62
     7
370
    15
100
AcDbLine
 10
106.7151459247
 20
124.4502780727
 30
0.0
 11
106.7153191507
 21
126.0068198434
 31
0.0
  0
LINE
  5
16F
330
1F
100
AcDbEntity
  8
0
  6
Continuous
 62
     7
370
    15
100
AcDbLine
 10
111.1774066777
 20
126.0063225172
 30
0.0
 11
111.1772334517
 21
124.4497798151
 31
0.0
  0
LINE
  5
170
330
1F
100
AcDbEntity
  8
0
  6
Continuous
 62
     7
370
    15
100
AcDbLine
 10
106.7163510562
 20
135.2448539955
 30
0.0
 11
106.7164702655
 21
136.3198409789
 31
0.0
  0
LINE
  5
171
330
1F
100
AcDbEntity
  8
0
  6
Continuous
 62
     7
370
    15
100
AcDbLine
 10
111.1782523186
 20
133.5759374314
 30
0.0
 11
106.7161647916
 21
133.5764353397
 31
0.0
  0
LINE
  5
172
330
1F
100
AcDbEntity
  8
0
  6
Continuous
 62
     7
370
    15
100
AcDbLine
 10
106.7161647916
 20
133.5764353397
 30
0.0
 11
106.7163138033
 21
134.9246278595
 31
0.0
  0
LINE
  5
173
330
1F
100
AcDbEntity
  8
0
  6
Continuous
 62
     7
370
    15
100
AcDbLine
 10
106.7163138033
 20
134.9246278595
 30
0.0
 11
109.65834319
 21
134.9421349777
 31
0.0
  0
LINE
  5
174
330
1F
100
AcDbEntity
  8
0
  6
Continuous
 62
     7
370
    15
100
AcDbLine
 10
109.65834319
 20
134.9421349777
 30
0.0
 11
106.7163510562
 21
135.2448539955
 31
0.0
  0
LINE
  5
175
330
1F
100
AcDbEntity
  8
0
  6
Continuous
 62
     7
370
    15
100
AcDbLine
 10
106.7164702655
 20
136.3198409789
 30
0.0
 11
109.6066454739
 21
136.6219091696
 31
0.0
  0
LINE
  5
176
330
1F
100
AcDbEntity
  8
0
  6
Continuous
 62
     7
370
    15
100
AcDbLine
 10
109.6066454739
 20
136.6219091696
 30
0.0
 11
106.7165056557
 21
136.6400670494
 31
0.0
  0
LINE
  5
177
330
1F
100
AcDbEntity
  8
0
  6
Continuous
 62
     7
370
    15
100
AcDbLine
 10
106.7165056557
 20
136.6400670494
 30
0.0
 11
106.71665653
 21
137.9866381875
 31
0.0
  0
LINE
  5
178
330
1F
100
AcDbEntity
  8
0
  6
Continuous
 62
     7
370
    15
100
AcDbLine
 10
106.71665653
 20
137.9866381875
 30
0.0
 11
111.1787440569
 21
137.9861403956
 31
0.0
  0
LINE
  5
179
330
1F
100
AcDbEntity
  8
0
  6
Continuous
 62
     7
370
    15
100
AcDbLine
 10
111.1787440569
 20
137.9861403956
 30
0.0
 11
111.1785317153
 21
136.0907259631
 31
0.0
  0
SPLINE
  5
17A
330
1F
100
AcDbEntity
  8
0
  6
Continuous
 62
     7
370
    15
100
AcDbSpline
210
0.0
220
0.0
230
1.0
 70
     8
 71
     3
 72
     9
 73
     5
 74
     0
 42
0.000000001
 43
0.00000001
 40
0.0
 40
0.0
 40
0.0
 40
0.0
 40
0.5600002513882277
 40
1.0
 40
1.0
 40
1.0
 40
1.0
 10
111.1785317153357
 20
136.0907259631094
 30
0.0
 10
110.9950633744073
 20
136.0549935449255
 30
0.0
 10
110.6674414841071
 20
135.9911856839553
 30
0.0
 10
110.340012311787
 20
135.9263964623928
 30
0.0
 10
110.195943558278
 20
135.8978892211926
 30
0.0
  0
LINE
  5
17B
330
1F
100
AcDbEntity
  8
0
  6
Continuous
 62
     7
370
    15
100
AcDbLine
 10
110.1959435583
 20
135.8978892212
 30
0.0
 11
109.1436403186
 21
135.7626198559
 31
0.0
  0
LINE
  5
17C
330
1F
100
AcDbEntity
  8
0
  6
Continuous
 62
     7
370
    15
100
AcDbLine
 10
109.1436403186
 20
135.7626198559
 30
0.0
 11
111.1784646601
 21
135.4754053581
 31
0.0
  0
LINE
  5
17D
330
1F
100
AcDbEntity
  8
0
  6
Continuous
 62
     7
370
    15
100
AcDbLine
 10
111.1784646601
 20
135.4754053581
 30
0.0
 11
111.1782523186
 21
133.5759374314
 31
0.0
  0
SPLINE
  5
17E
330
1F
100
AcDbEntity
  8
0
  6
Continuous
 62
     7
370
    15
100
AcDbSpline
210
0.0
220
0.0
230
1.0
 70
     8
 71
     3
 72
    11
 73
     7
 74
     0
 42
0.000000001
 43
0.00000001
 40
0.0
 40
0.0
 40
0.0
 40
0.0
 40
0.1848402425665078
 40
0.3719367888496288
 40
0.5590327723007047
 40
1.0
 40
1.0
 40
1.0
 40
1.0
 10
110.4516456217192
 20
131.6013863078442
 30
0.0
 10
110.4286909163077
 20
131.6167759164403
 30
0.0
 10
110.3825013025028
 20
131.6477429911608
 30
0.0
 10
110.2982741891113
 20
131.6505738366838
 30
0.0
 10
110.1798187866957
 20
131.6575565586958
 30
0.0
 10
110.0875644379405
 20
131.6579247431852
 30
0.0
 10
110.0227920652055
 20
131.6581832478878
 30
0.0
  0
LINE
  5
17F
330
1F
100
AcDbEntity
  8
0
  6
Continuous
 62
     7
370
    15
100
AcDbLine
 10
110.0227920652
 20
131.6581832479
 30
0.0
 11
107.9563195199
 21
131.6584137502
 31
0.0
  0
SPLINE
  5
180
330
1F
100
AcDbEntity
  8
0
  6
Continuous
 62
     7
370
    15
100
AcDbSpline
210
0.0
220
0.0
230
1.0
 70
     8
 71
     3
 72
    11
 73
     7
 74
     0
 42
0.000000001
 43
0.00000001
 40
0.0
 40
0.0
 40
0.0
 40
0.0
 40
0.5013267254317529
 40
0.7519833432887748
 40
0.8772933021302787
 40
1.0
 40
1.0
 40
1.0
 40
1.0
 10
107.9563195199393
 20
131.658413750225
 30
0.0
 10
107.8689120144962
 20
131.6583543989036
 30
0.0
 10
107.7378019323138
 20
131.6582653727202
 30
0.0
 10
107.5862745559103
 20
131.6507388708953
 30
0.0
 10
107.4982235190403
 20
131.6429596906022
 30
0.0
 10
107.4608316167742
 20
131.620252781472
 30
0.0
 10
107.4423319042348
 20
131.6090184963432
 30
0.0
  0
SPLINE
  5
181
330
1F
100
AcDbEntity
  8
0
  6
Continuous
 62
     7
370
    15
100
AcDbSpline
210
0.0
220
0.0
230
1.0
 70
     8
 71
     3
 72
    12
 73
     8
 74
     0
 42
0.000000001
 43
0.00000001
 40
0.0
 40
0.0
 40
0.0
 40
0.0
 40
0.0622099086352908
 40
0.1246707853647736
 40
0.2492349830181095
 40
0.4994365786017012
 40
1.0
 40
1.0
 40
1.0
 40
1.0
 10
107.4423319042348
 20
131.6090184963432
 30
0.0
 10
107.4437350031524
 20
131.5964554299015
 30
0.0
 10
107.4465468613892
 20
131.5712786149176
 30
0.0
 10
107.4845478788132
 20
131.535454444673
 30
0.0
 10
107.5691344841655
 20
131.5116163059666
 30
0.0
 10
107.7420047738262
 20
131.5059259215382
 30
0.0
 10
107.8900333183243
 20
131.5040240423341
 30
0.0
 10
107.9887295455359
 20
131.5027559875634
 30
0.0
  0
LINE
  5
182
330
1F
100
AcDbEntity
  8
0
  6
Continuous
 62
     7
370
    15
100
AcDbLine
 10
107.9887295455
 20
131.5027559876
 30
0.0
 11
110.0227753014
 21
131.5025289777
 31
0.0
  0
SPLINE
  5
183
330
1F
100
AcDbEntity
  8
0
  6
Continuous
 62
     7
370
    15
100
AcDbSpline
210
0.0
220
0.0
230
1.0
 70
     8
 71
     3
 72
    12
 73
     8
 74
     0
 42
0.000000001
 43
0.00000001
 40
0.0
 40
0.0
 40
0.0
 40
0.0
 40
0.5006227593682354
 40
0.7506811970195526
 40
0.8750342924437873
 40
0.9375752566659367
 40
1.0
 40
1.0
 40
1.0
 40
1.0
 10
110.0227753013991
 20
131.5025289776858
 30
0.0
 10
110.101494926689
 20
131.5038241345765
 30
0.0
 10
110.2195345911584
 20
131.5057662155283
 30
0.0
 10
110.3577829596209
 20
131.5119550816817
 30
0.0
 10
110.423721606242
 20
131.5389248734031
 30
0.0
 10
110.4488277276113
 20
131.5714963228882
 30
0.0
 10
110.4507069062426
 20
131.5914291588525
 30
0.0
 10
110.4516456217192
 20
131.6013863078442
 30
0.0
  0
SPLINE
  5
184
330
1F
100
AcDbEntity
  8
0
  6
Continuous
 62
     7
370
    15
100
AcDbSpline
210
0.0
220
0.0
230
1.0
 70
     8
 71
     3
 72
    14
 73
    10
 74
     0
 42
0.000000001
 43
0.00000001
 40
0.0
 40
0.0
 40
0.0
 40
0.0
 40
0.1403551354039282
 40
0.2806900607173001
 40
0.4200792506595553
 40
0.5597642219884009
 40
0.706269712950402
 40
0.8530780058183076
 40
1.0
 40
1.0
 40
1.0
 40
1.0
 10
108.5722608805321
 20
129.9461485586253
 30
0.0
 10
108.4306551819968
 20
129.9474275530571
 30
0.0
 10
108.1474641750884
 20
129.9499853577552
 30
0.0
 10
107.7242657080821
 20
129.9581757526407
 30
0.0
 10
107.3027682009715
 20
130.0577236227228
 30
0.0
 10
106.9629024587201
 20
130.342823011755
 30
0.0
 10
106.7450553732489
 20
130.7281515630635
 30
0.0
 10
106.6288416981779
 20
131.1615412931193
 30
0.0
 10
106.6177321166174
 20
131.4582614875003
 30
0.0
 10
106.6121751756095
 20
131.6066790140357
 30
0.0
  0
LINE
  5
185
330
1F
100
AcDbEntity
  8
0
  6
Continuous
 62
     7
370
    15
100
AcDbLine
 10
108.5726240963
 20
133.2148871851
 30
0.0
 11
109.3217110575
 21
133.2148035989
 31
0.0
  0
SPLINE
  5
186
330
1F
100
AcDbEntity
  8
0
  6
Continuous
 62
     7
370
    15
100
AcDbSpline
210
0.0
220
0.0
230
1.0
 70
     8
 71
     3
 72
    14
 73
    10
 74
     0
 42
0.000000001
 43
0.00000001
 40
0.0
 40
0.0
 40
0.0
 40
0.0
 40
0.140358219070107
 40
0.2807017507622566
 40
0.4201948057701032
 40
0.5598644105682355
 40
0.7063151907555145
 40
0.8530821063065377
 40
1.0
 40
1.0
 40
1.0
 40
1.0
 10
109.3217110574864
 20
133.2148035989266
 30
0.0
 10
109.4615100442153
 20
133.2137814862593
 30
0.0
 10
109.7410933888143
 20
133.2117373678808
 30
0.0
 10
110.1583423646939
 20
133.2018640529161
 30
0.0
 10
110.5769235269891
 20
133.1183262041351
 30
0.0
 10
110.9210792705648
 20
132.8472724264205
 30
0.0
 10
111.147798531823
 20
132.4731860697448
 30
0.0
 10
111.26372064307
 20
132.0452307756741
 30
0.0
 10
111.275773049277
 20
131.7525657025662
 30
0.0
 10
111.2818023503445
 20
131.6061579390552
 30
0.0
  0
SPLINE
  5
187
330
1F
100
AcDbEntity
  8
0
  6
Continuous
 62
     7
370
    15
100
AcDbSpline
210
0.0
220
0.0
230
1.0
 70
     8
 71
     3
 72
    15
 73
    11
 74
     0
 42
0.000000001
 43
0.00000001
 40
0.0
 40
0.0
 40
0.0
 40
0.0
 40
0.1401711188208091
 40
0.2802595813591773
 40
0.4201086454270564
 40
0.5597173646391982
 40
0.6694235455028641
 40
0.7795856852212731
 40
0.8897912896141119
 40
1.0
 40
1.0
 40
1.0
 40
1.0
 10
111.2818023503445
 20
131.6061579390552
 30
0.0
 10
111.276242509909
 20
131.4645527284544
 30
0.0
 10
111.2651261075717
 20
131.1814258091924
 30
0.0
 10
111.160527004341
 20
130.7670971024481
 30
0.0
 10
110.9631247538458
 20
130.3859745230315
 30
0.0
 10
110.6658710924449
 20
130.1147061927265
 30
0.0
 10
110.3230038819086
 20
129.9754256382639
 30
0.0
 10
109.9877680705567
 20
129.9599027980532
 30
0.0
 10
109.6551041045178
 20
129.9468234561418
 30
0.0
 10
109.4325997326792
 20
129.9463179579249
 30
0.0
 10
109.3213459790372
 20
129.9460652052548
 30
0.0
  0
LINE
  5
188
330
1F
100
AcDbEntity
  8
0
  6
Continuous
 62
     7
370
    15
100
AcDbLine
 10
109.321345979
 20
129.9460652053
 30
0.0
 11
108.5722608805
 21
129.9461485586
 31
0.0
  0
SPLINE
  5
189
330
1F
100
AcDbEntity
  8
0
  6
Continuous
 62
     7
370
    15
100
AcDbSpline
210
0.0
220
0.0
230
1.0
 70
     8
 71
     3
 72
    15
 73
    11
 74
     0
 42
0.000000001
 43
0.00000001
 40
0.0
 40
0.0
 40
0.0
 40
0.0
 40
0.1401668920944349
 40
0.2802491366838861
 40
0.4200189981209146
 40
0.5596279391304514
 40
0.6693901512442629
 40
0.7795715538100122
 40
0.8897843495101295
 40
1.0
 40
1.0
 40
1.0
 40
1.0
 10
106.6121751756095
 20
131.6066790140357
 30
0.0
 10
106.6176224450332
 20
131.7464446301805
 30
0.0
 10
106.6285136942469
 20
132.0258914572978
 30
0.0
 10
106.733763492297
 20
132.4349484997107
 30
0.0
 10
106.939153478085
 20
132.8057724974615
 30
0.0
 10
107.2405550191989
 20
133.0656834801315
 30
0.0
 10
107.5842826964086
 20
133.1878613058985
 30
0.0
 10
107.9145129019146
 20
133.2020340742423
 30
0.0
 10
108.2431799997974
 20
133.2141538443913
 30
0.0
 10
108.462808449347
 20
133.214642736105
 30
0.0
 10
108.5726240963362
 20
133.2148871851277
 30
0.0
  0
LINE
  5
18A
330
1F
100
AcDbEntity
  8
0
  6
Continuous
 62
     7
370
    15
100
AcDbLine
 10
111.1797554732
 20
147.0585610486
 30
0.0
 11
110.1939468027
 21
147.0586709446
 31
0.0
  0
LINE
  5
18B
330
1F
100
AcDbEntity
  8
0
  6
Continuous
 62
     7
370
    15
100
AcDbLine
 10
110.1939468027
 20
147.0586709446
 30
0.0
 11
110.1940324844
 21
147.83694183
 31
0.0
  0
LINE
  5
18C
330
1F
100
AcDbEntity
  8
0
  6
Continuous
 62
     7
370
    15
100
AcDbLine
 10
106.7179287166
 20
149.3938719622
 30
0.0
 11
110.194207573
 21
149.393484532
 31
0.0
  0
LINE
  5
18D
330
1F
100
AcDbEntity
  8
0
  6
Continuous
 62
     7
370
    15
100
AcDbLine
 10
110.194207573
 20
149.393484532
 30
0.0
 11
110.1942932547
 21
150.1717554174
 31
0.0
  0
LINE
  5
18E
330
1F
100
AcDbEntity
  8
0
  6
Continuous
 62
     7
370
    15
100
AcDbLine
 10
110.1942932547
 20
150.1717554174
 30
0.0
 11
111.1801037878
 21
150.1716455213
 31
0.0
  0
LINE
  5
18F
330
1F
100
AcDbEntity
  8
0
  6
Continuous
 62
     7
370
    15
100
AcDbLine
 10
111.1801037878
 20
150.1716455213
 30
0.0
 11
111.1797554732
 21
147.0585610486
 31
0.0
  0
LINE
  5
190
330
1F
100
AcDbEntity
  8
0
  6
Continuous
 62
     7
370
    15
100
AcDbLine
 10
110.1940324844
 20
147.83694183
 30
0.0
 11
106.7177554906
 21
147.8373301915
 31
0.0
  0
LINE
  5
191
330
1F
100
AcDbEntity
  8
0
  6
Continuous
 62
     7
370
    15
100
AcDbLine
 10
106.7177554906
 20
147.8373301915
 30
0.0
 11
106.7179287166
 21
149.3938719622
 31
0.0
  0
SPLINE
  5
192
330
1F
100
AcDbEntity
  8
0
  6
Continuous
 62
     7
370
    15
100
AcDbSpline
210
0.0
220
0.0
230
1.0
 70
     8
 71
     3
 72
    11
 73
     7
 74
     0
 42
0.000000001
 43
0.00000001
 40
0.0
 40
0.0
 40
0.0
 40
0.0
 40
0.2502800586796123
 40
0.3748283244694554
 40
0.4997860390562144
 40
1.0
 40
1.0
 40
1.0
 40
1.0
 10
109.4673754960917
 20
145.4002927756992
 30
0.0
 10
109.4708336647544
 20
145.3605928824764
 30
0.0
 10
109.4760127412354
 20
145.3011369092887
 30
0.0
 10
109.5224033629869
 20
145.232244175816
 30
0.0
 10
109.6381407836949
 20
145.1938822994948
 30
0.0
 10
109.7364673526736
 20
145.1932338126277
 30
0.0
 10
109.8151406586789
 20
145.192714943656
 30
0.0
  0
SPLINE
  5
193
330
1F
100
AcDbEntity
  8
0
  6
Continuous
 62
     7
370
    15
100
AcDbSpline
210
0.0
220
0.0
230
1.0
 70
     8
 71
     3
 72
    12
 73
     8
 74
     0
 42
0.000000001
 43
0.00000001
 40
0.0
 40
0.0
 40
0.0
 40
0.0
 40
0.2506552160204516
 40
0.5007411263283741
 40
0.6258447592658439
 40
0.7511820043545183
 40
1.0
 40
1.0
 40
1.0
 40
1.0
 10
110.0591620743893
 20
145.1926879353013
 30
0.0
 10
110.0931742582279
 20
145.1937432390885
 30
0.0
 10
110.1611213750469
 20
145.195851449783
 30
0.0
 10
110.247535781433
 20
145.2125974796836
 30
0.0
 10
110.3026691788867
 20
145.2553482681028
 30
0.0
 10
110.3389123366234
 20
145.3147121586131
 30
0.0
 10
110.34522091828
 20
145.3660522449005
 30
0.0
 10
110.3494162053488
 20
145.4001940555063
 30
0.0
  0
LINE
  5
194
330
1F
100
AcDbEntity
  8
0
  6
Continuous
 62
     7
370
    15
100
AcDbLine
 10
110.3494162053
 20
145.4001940555
 30
0.0
 11
109.4673754961
 21
145.4002927757
 31
0.0
  0
LINE
  5
195
330
1F
100
AcDbEntity
  8
0
  6
Continuous
 62
     7
370
    15
100
AcDbLine
 10
111.1797442973
 20
146.9566436253
 30
0.0
 11
111.179630676
 21
145.9343522555
 31
0.0
  0
SPLINE
  5
196
330
1F
100
AcDbEntity
  8
0
  6
Continuous
 62
     7
370
    15
100
AcDbSpline
210
0.0
220
0.0
230
1.0
 70
     8
 71
     3
 72
    14
 73
    10
 74
     0
 42
0.000000001
 43
0.00000001
 40
0.0
 40
0.0
 40
0.0
 40
0.0
 40
0.1670703065013805
 40
0.3341362730013688
 40
0.5009714428102322
 40
0.6255931086515601
 40
0.7500665476610039
 40
0.8748440370120251
 40
1.0
 40
1.0
 40
1.0
 40
1.0
 10
111.1796306759738
 20
145.9343522555318
 30
0.0
 10
111.179019665181
 20
145.7704241980522
 30
0.0
 10
111.1777976594677
 20
145.4425723414678
 30
0.0
 10
111.1567200645485
 20
144.9530407051066
 30
0.0
 10
111.1224627906954
 20
144.4998358944648
 30
0.0
 10
110.9455346986716
 20
144.1224322814739
 30
0.0
 10
110.6676001791452
 20
143.8659097736574
 30
0.0
 10
110.3086024885118
 20
143.7533441009668
 30
0.0
 10
110.0634167497348
 20
143.7444046098104
 30
0.0
 10
109.9406382382535
 20
143.739928095707
 30
0.0
  0
SPLINE
  5
197
330
1F
100
AcDbEntity
  8
0
  6
Continuous
 62
     7
370
    15
100
AcDbSpline
210
0.0
220
0.0
230
1.0
 70
     8
 71
     3
 72
    12
 73
     8
 74
     0
 42
0.000000001
 43
0.00000001
 40
0.0
 40
0.0
 40
0.0
 40
0.0
 40
0.1874809170902558
 40
0.3747525818277692
 40
0.5606192568614756
 40
0.7794545923182903
 40
0.9999999999999999
 40
0.9999999999999999
 40
0.9999999999999999
 40
0.9999999999999999
 10
109.9406382382535
 20
143.739928095707
 30
0.0
 10
109.8545927148952
 20
143.742011106046
 30
0.0
 10
109.6825977058366
 20
143.746174801822
 30
0.0
 10
109.4289054440466
 20
143.7917165399311
 30
0.0
 10
109.1772704509762
 20
143.9213403359584
 30
0.0
 10
109.0462327483137
 20
144.1962678031466
 30
0.0
 10
109.0323905043607
 20
144.3971846010745
 30
0.0
 10
109.02544244534
 20
144.4980339846697
 30
0.0
  0
SPLINE
  5
198
330
1F
100
AcDbEntity
  8
0
  6
Continuous
 62
     7
370
    15
100
AcDbSpline
210
0.0
220
0.0
230
1.0
 70
     8
 71
     3
 72
    14
 73
    10
 74
     0
 42
0.000000001
 43
0.00000001
 40
0.0
 40
0.0
 40
0.0
 40
0.0
 40
0.1569980059895302
 40
0.3133586789736692
 40
0.436497503235544
 40
0.559571575877694
 40
0.7060027130878299
 40
0.8529915708017389
 40
1.0
 40
1.0
 40
1.0
 40
1.0
 10
109.02544244534
 20
144.4980339846697
 30
0.0
 10
109.0182149564966
 20
144.416863628852
 30
0.0
 10
109.0037893187823
 20
144.2548524280693
 30
0.0
 10
108.9239581576857
 20
144.0336264543889
 30
0.0
 10
108.7693906547508
 20
143.8892701863608
 30
0.0
 10
108.6008711693392
 20
143.7653321704056
 30
0.0
 10
108.3777391797359
 20
143.7501923092187
 30
0.0
 10
108.1508736029891
 20
143.7410253669475
 30
0.0
 10
107.9977521368661
 20
143.7404441190604
 30
0.0
 10
107.9211863071345
 20
143.74015347577
 30
0.0
  0
LINE
  5
199
330
1F
100
AcDbEntity
  8
0
  6
Continuous
 62
     7
370
    15
100
AcDbLine
 10
107.9211863071
 20
143.7401534758
 30
0.0
 11
106.7172991425
 21
143.7402875862
 31
0.0
  0
LINE
  5
19A
330
1F
100
AcDbEntity
  8
0
  6
Continuous
 62
     7
370
    15
100
AcDbLine
 10
106.7174611927
 20
145.1930604643
 30
0.0
 11
108.2221171201
 21
145.1928928263
 31
0.0
  0
LINE
  5
19B
330
1F
100
AcDbEntity
  8
0
  6
Continuous
 62
     7
370
    15
100
AcDbLine
 10
106.7176567704
 20
146.9571418828
 30
0.0
 11
111.1797442973
 21
146.9566436253
 31
0.0
  0
LINE
  5
19C
330
1F
100
AcDbEntity
  8
0
  6
Continuous
 62
     7
370
    15
100
AcDbLine
 10
106.7172991425
 20
143.7402875862
 30
0.0
 11
106.7174611927
 21
145.1930604643
 31
0.0
  0
LINE
  5
19D
330
1F
100
AcDbEntity
  8
0
  6
Continuous
 62
     7
370
    15
100
AcDbLine
 10
109.8151406587
 20
145.1927149437
 30
0.0
 11
110.0591620744
 21
145.1926879353
 31
0.0
  0
SPLINE
  5
19E
330
1F
100
AcDbEntity
  8
0
  6
Continuous
 62
     7
370
    15
100
AcDbSpline
210
0.0
220
0.0
230
1.0
 70
     8
 71
     3
 72
    12
 73
     8
 74
     0
 42
0.000000001
 43
0.00000001
 40
0.0
 40
0.0
 40
0.0
 40
0.0
 40
0.5009833362096783
 40
0.6261902436982354
 40
0.7501102310112477
 40
0.8749477970130987
 40
1.0
 40
1.0
 40
1.0
 40
1.0
 10
108.2221171200894
 20
145.1928928262678
 30
0.0
 10
108.3202749103697
 20
145.1937017206104
 30
0.0
 10
108.4429645213287
 20
145.1947127756874
 30
0.0
 10
108.5876708047066
 20
145.2188809524964
 30
0.0
 10
108.6548497350968
 20
145.2564168883706
 30
0.0
 10
108.6851401187304
 20
145.3272639215102
 30
0.0
 10
108.6877811155015
 20
145.3759936145582
 30
0.0
 10
108.6891027480983
 20
145.4003793886986
 30
0.0
  0
LINE
  5
19F
330
1F
100
AcDbEntity
  8
0
  6
Continuous
 62
     7
370
    15
100
AcDbLine
 10
108.6891027481
 20
145.4003793887
 30
0.0
 11
106.7174835444
 21
145.4005991808
 31
0.0
  0
LINE
  5
1A0
330
1F
100
AcDbEntity
  8
0
  6
Continuous
 62
     7
370
    15
100
AcDbLine
 10
106.7174835444
 20
145.4005991808
 30
0.0
 11
106.7176567704
 21
146.9571418828
 31
0.0
  0
LINE
  5
1A1
330
1F
100
AcDbEntity
  8
0
  6
Continuous
 62
     7
370
    15
100
AcDbLine
 10
111.1793512792
 20
143.4303331888
 30
0.0
 11
111.1791780532
 21
141.8737914181
 31
0.0
  0
LINE
  5
1A2
330
1F
100
AcDbEntity
  8
0
  6
Continuous
 62
     7
370
    15
100
AcDbLine
 10
106.7170905263
 20
141.8742892101
 30
0.0
 11
106.7172637523
 21
143.4308314464
 31
0.0
  0
LINE
  5
1A3
330
1F
100
AcDbEntity
  8
0
  6
Continuous
 62
     7
370
    15
100
AcDbLine
 10
111.1791780532
 20
141.8737914181
 30
0.0
 11
106.7170905263
 21
141.8742892101
 31
0.0
  0
LINE
  5
1A4
330
1F
100
AcDbEntity
  8
0
  6
Continuous
 62
     7
370
    15
100
AcDbLine
 10
106.7172637523
 20
143.4308314464
 30
0.0
 11
111.1793512792
 21
143.4303331888
 31
0.0
  0
LINE
  5
1A5
330
1F
100
AcDbEntity
  8
0
  6
Continuous
 62
     7
370
    15
100
AcDbLine
 10
125.7234766927
 20
120.3492596514
 30
0.0
 11
124.3301166069
 21
124.163873098
 31
0.0
  0
CIRCLE
  5
1A6
330
1F
100
AcDbEntity
  8
0
  6
Continuous
 62
     7
370
    15
100
AcDbCircle
 10
125.7423868693
 20
124.6869915639
 30
0.0
 40
0.7631606305768988
  0
ARC
  5
1A7
330
1F
100
AcDbEntity
  8
0
  6
Continuous
 62
     7
370
    15
100
AcDbCircle
 10
125.7423868693
 20
124.6869915639
 30
0.0
 40
1.506041197391844
100
AcDbArc
 50
339.4345457865
 51
200.3251125812
  0
LINE
  5
1A8
330
1F
100
AcDbEntity
  8
0
  6
Continuous
 62
     7
370
    15
100
AcDbLine
 10
125.7234766927
 20
120.3492596514
 30
0.0
 11
127.1524503209
 21
124.1579536117
 31
0.0
  0
CIRCLE
  5
1A9
330
1F
100
AcDbEntity
  8
0
  6
Continuous
 62
     7
370
    15
100
AcDbCircle
 10
125.7237885394
 20
123.1439964246
 30
0.0
 40
4.000000000000012
  0
ARC
  5
1AA
330
1F
100
AcDbEntity
  8
0
  6
Continuous
 62
     7
370
    15
100
AcDbCircle
 10
108.2190638941
 20
122.4203091074
 30
0.0
 40
4.0
100
AcDbArc
 50
187.5799919813
 51
263.2856605942
  0
LWPOLYLINE
  5
1AB
330
1F
100
AcDbEntity
  8
0
  6
Continuous
 62
     7
370
    15
100
AcDbPolyline
 90
        9
 70
   128
 43
0.0
 10
107.7513875753
 20
118.4477429605
 10
107.7285776228
 20
118.2539906121
 10
107.7066431136
 20
118.067685119
 10
107.6864296884
 20
117.8959827638
 10
107.6687122077
 20
117.7454866237
 10
107.6541723997
 20
117.6219764865
 10
107.6433671952
 20
117.5302002347
 10
107.6367138267
 20
117.4736857182
 10
107.6344674767
 20
117.4546029187
  0
ARC
  5
1AC
330
1F
100
AcDbEntity
  8
0
  6
Continuous
 62
     7
370
    15
100
AcDbCircle
 10
108.2190638941
 20
122.4203091074
 30
0.0
 40
5.000000000000034
100
AcDbArc
 50
187.5799919813
 51
263.2856605942
  0
LWPOLYLINE
  5
1AD
330
1F
100
AcDbEntity
  8
0
  6
Continuous
 62
     7
370
    15
100
AcDbPolyline
 90
        9
 70
   128
 43
0.0
 10
104.2540179879
 20
121.8926679111
 10
104.0606325806
 20
121.8669336057
 10
103.8746772648
 20
121.8421883649
 10
103.7033008725
 20
121.819383069
 10
103.5530897171
 20
121.7993931613
 10
103.4298124105
 20
121.7829888455
 10
103.3382112474
 20
121.7707987643
 10
103.2818029017
 20
121.7632923043
 10
103.2627554924
 20
121.7607581756
  0
ARC
  5
1AE
330
1F
100
AcDbEntity
  8
0
  6
Continuous
 62
     7
370
    15
100
AcDbCircle
 10
130.7181914911
 20
144.4996079961
 30
0.0
 40
2.000000000000027
100
AcDbArc
 50
179.9936071768
 51
269.9936071768
  0
LINE
  5
1AF
330
1F
100
AcDbEntity
  8
0
  6
Continuous
 62
     7
370
    15
100
AcDbLine
 10
132.8554911853
 20
142.4993696391
 30
0.0
 11
130.7179682736
 21
142.4996080577
 31
0.0
  0
ARC
  5
1B0
330
1F
100
AcDbEntity
  8
0
  6
Continuous
 62
     7
370
    15
100
AcDbCircle
 10
132.8557372224
 20
144.4993694975
 30
0.0
 40
2.000000000000012
100
AcDbArc
 50
269.9929568632
 51
3.3824550195
  0
ARC
  5
1B1
330
1F
100
AcDbEntity
  8
0
  6
Continuous
 62
     7
370
    15
100
AcDbCircle
 10
60.6137101708
 20
140.2439291639
 30
0.0
 40
74.36725253497126
100
AcDbArc
 50
3.3714357586
 51
7.0665209111
  0
ARC
  5
1B2
330
1F
100
AcDbEntity
  8
0
  6
Continuous
 62
     7
370
    15
100
AcDbCircle
 10
132.5518578443
 20
149.0875892835
 30
0.0
 40
1.889015331269521
100
AcDbArc
 50
9.2953087902
 51
83.0919966967
  0
ARC
  5
1B3
330
1F
100
AcDbEntity
  8
0
  6
Continuous
 62
     7
370
    15
100
AcDbCircle
 10
123.3897756567
 20
74.9515856232
 30
0.0
 40
76.58901533126945
100
AcDbArc
 50
82.958218769
 51
84.3611555528
  0
LINE
  5
1B4
330
1F
100
AcDbEntity
  8
0
  6
Continuous
 62
     7
370
    15
100
AcDbLine
 10
128.7181914632
 20
144.4998314372
 30
0.0
 11
128.7187137023
 21
149.1798884935
 31
0.0
  0
ARC
  5
1B5
330
1F
100
AcDbEntity
  8
0
  6
Continuous
 62
     7
370
    15
100
AcDbCircle
 10
208.0036445212
 20
135.6989507086
 30
0.0
 40
104.6642183384745
100
AcDbArc
 50
172.4072223723
 51
187.5799919813
  0
ARC
  5
1B6
330
1F
100
AcDbEntity
  8
0
  6
Continuous
 62
     7
370
    15
100
AcDbCircle
 10
108.222029529
 20
148.9998590706
 30
0.0
 40
4.000000000000004
100
AcDbArc
 50
96.7015537594
 51
172.4072223723
  0
ARC
  5
1B7
330
1F
100
AcDbEntity
  8
0
  6
Continuous
 62
     7
370
    15
100
AcDbCircle
 10
120.3294127992
 20
45.9587324737
 30
0.0
 40
107.7499999999999
100
AcDbArc
 50
83.2856605942
 51
96.7015537594
  0
ARC
  5
1B8
330
1F
100
AcDbEntity
  8
0
  6
Continuous
 62
     7
370
    15
100
AcDbCircle
 10
132.4597895627
 20
148.9971547228
 30
0.0
 40
4.000000000000028
100
AcDbArc
 50
7.5799919813
 51
83.2856605942
  0
ARC
  5
1B9
330
1F
100
AcDbEntity
  8
0
  6
Continuous
 62
     7
370
    15
100
AcDbCircle
 10
32.6752089356
 20
135.7185131215
 30
0.0
 40
104.6642183384745
100
AcDbArc
 50
352.4072223723
 51
7.5799919813
  0
ARC
  5
1BA
330
1F
100
AcDbEntity
  8
0
  6
Continuous
 62
     7
370
    15
100
AcDbCircle
 10
132.4568239277
 20
122.4176047596
 30
0.0
 40
3.999999999999997
100
AcDbArc
 50
276.7015537594
 51
352.4072223723
  0
ARC
  5
1BB
330
1F
100
AcDbEntity
  8
0
  6
Continuous
 62
     7
370
    15
100
AcDbCircle
 10
120.3494406576
 20
225.4587313564
 30
0.0
 40
107.7499999999999
100
AcDbArc
 50
263.2856605942
 51
276.7015537594
  0
ARC
  5
1BC
330
1F
100
AcDbEntity
  8
0
  6
Continuous
 62
     7
370
    15
100
AcDbCircle
 10
130.7187136724
 20
149.1796657254
 30
0.0
 40
1.999999999999999
100
AcDbArc
 50
84.3611555528
 51
179.9936071768
  0
LWPOLYLINE
  5
1BD
330
1F
100
AcDbEntity
  8
0
  6
Continuous
 62
     7
370
    15
100
AcDbPolyline
 90
        9
 70
   128
 43
0.0
 10
137.4129852594
 20
121.7569472036
 10
137.3939387814
 20
121.759485989
 10
137.3375322983
 20
121.7670054875
 10
137.2459320665
 20
121.7792160577
 10
137.1226594166
 20
121.7956483132
 10
136.9724519864
 20
121.8156708173
 10
136.8010811821
 20
121.8385142974
 10
136.6151323856
 20
121.8633014477
 10
136.4217525662
 20
121.8890785939
  0
ARC
  5
1BE
330
1F
100
AcDbEntity
  8
0
  6
Continuous
 62
     7
370
    15
100
AcDbCircle
 10
132.4568239277
 20
122.4176047596
 30
0.0
 40
5.000000000000015
100
AcDbArc
 50
276.7015537594
 51
352.4072223723
  0
LWPOLYLINE
  5
1BF
330
1F
100
AcDbEntity
  8
0
  6
Continuous
 62
     7
370
    15
100
AcDbPolyline
 90
        9
 70
   128
 43
0.0
 10
132.9236146376
 20
118.4449340916
 10
132.9463812836
 20
118.2511780179
 10
132.9682729521
 20
118.0648669369
 10
132.988448193
 20
117.8931608564
 10
133.006132146
 20
117.7426591284
 10
133.0206449457
 20
117.6191471285
 10
133.0314291955
 20
117.5273671514
 10
133.0380699911
 20
117.4708507723
 10
133.0403121502
 20
117.4517679728
  0
ARC
  5
1C0
330
1F
100
AcDbEntity
  8
0
  6
Continuous
 62
     7
370
    15
100
AcDbCircle
 10
120.3294127992
 20
45.9587324737
 30
0.0
 40
108.7499999999999
100
AcDbArc
 50
83.2856605942
 51
96.7015537594
  0
LWPOLYLINE
  5
1C1
330
1F
100
AcDbEntity
  8
0
  6
Continuous
 62
     7
370
    15
100
AcDbPolyline
 90
        9
 70
   128
 43
0.0
 10
133.0443862208
 20
153.9628613508
 10
133.0421394051
 20
153.9437785513
 10
133.0354860366
 20
153.8872640348
 10
133.0246817634
 20
153.795487783
 10
133.0101410241
 20
153.6719776458
 10
132.9924235434
 20
153.5214796431
 10
132.9722096526
 20
153.3497791506
 10
132.9502765403
 20
153.1634717948
 10
132.9274665878
 20
152.969721309
  0
LWPOLYLINE
  5
1C2
330
1F
100
AcDbEntity
  8
0
  6
Continuous
 62
     7
370
    15
100
AcDbPolyline
 90
        9
 70
   128
 43
0.0
 10
107.6385410816
 20
153.9656962968
 10
107.6407837064
 20
153.9466134972
 10
107.6474240363
 20
153.8900952554
 10
107.6582087517
 20
153.798317141
 10
107.6727206201
 20
153.6748051412
 10
107.6904045731
 20
153.5243034131
 10
107.7105807454
 20
153.3525973327
 10
107.7324724138
 20
153.1662862516
 10
107.7552395255
 20
152.9725283153
  0
ARC
  5
1C3
330
1F
100
AcDbEntity
  8
0
  6
Continuous
 62
     7
370
    15
100
AcDbCircle
 10
120.3494406576
 20
225.4587313564
 30
0.0
 40
108.7499999999999
100
AcDbArc
 50
263.2856605942
 51
276.7015537594
  0
ARC
  5
1C4
330
1F
100
AcDbEntity
  8
0
  6
Continuous
 62
     7
370
    15
100
AcDbCircle
 10
132.4597895627
 20
148.9971547228
 30
0.0
 40
5.000000000000044
100
AcDbArc
 50
7.5799919813
 51
83.2856605942
  0
LWPOLYLINE
  5
1C5
330
1F
100
AcDbEntity
  8
0
  6
Continuous
 62
     7
370
    15
100
AcDbPolyline
 90
        9
 70
   128
 43
0.0
 10
137.4160977394
 20
149.6567060939
 10
137.3970512614
 20
149.6541710339
 10
137.3406429157
 20
149.6466645739
 10
137.2490398899
 20
149.6344754241
 10
137.125764446
 20
149.6180701769
 10
136.975551428
 20
149.5980812005
 10
136.804175967
 20
149.5752759046
 10
136.6182215825
 20
149.5505297325
 10
136.4248361752
 20
149.5247954271
  0
LWPOLYLINE
  5
1C6
330
1F
100
AcDbEntity
  8
0
  6
Continuous
 62
     7
370
    15
100
AcDbPolyline
 90
        9
 70
   128
 43
0.0
 10
104.2571006656
 20
149.5283847443
 10
104.0637208462
 20
149.5541628218
 10
103.877772981
 20
149.5789490408
 10
103.7064021767
 20
149.6017934523
 10
103.5561928839
 20
149.6218159563
 10
103.4329211653
 20
149.6382482118
 10
103.3413218648
 20
149.6504587821
 10
103.2849153817
 20
149.6579773492
 10
103.2658679724
 20
149.6605161346
  0
ARC
  5
1C7
330
1F
100
AcDbEntity
  8
0
  6
Continuous
 62
     7
370
    15
100
AcDbCircle
 10
108.222029529
 20
148.9998590706
 30
0.0
 40
5.000000000000012
100
AcDbArc
 50
96.7015537594
 51
172.4072223723
  0
ARC
  5
1C8
330
1F
100
AcDbEntity
  8
0
  6
Continuous
 62
     7
370
    15
100
AcDbCircle
 10
208.0036445212
 20
135.6989507086
 30
0.0
 40
105.6642183384745
100
AcDbArc
 50
172.4072223723
 51
187.5799919813
  0
ARC
  5
1C9
330
1F
100
AcDbEntity
  8
0
  6
Continuous
 62
     7
370
    15
100
AcDbCircle
 10
32.6752089356
 20
135.7185131215
 30
0.0
 40
105.6642183384745
100
AcDbArc
 50
352.4072223723
 51
7.5799919813
  0
ARC
  5
1CA
330
1F
100
AcDbEntity
  8
0
  6
Continuous
 62
     7
370
    15
100
AcDbCircle
 10
32.676691132
 20
135.7073796584
 30
0.0
 40
105.6642183384747
100
AcDbArc
 50
352.4136151955
 51
7.5863848045
  0
ARC
  5
1CB
330
1F
100
AcDbEntity
  8
0
  6
Continuous
 62
     7
370
    15
100
AcDbCircle
 10
132.4597895627
 20
122.4176045941
 30
0.0
 40
5.000000000000037
100
AcDbArc
 50
276.7079465826
 51
352.4136151955
  0
ARC
  5
1CC
330
1F
100
AcDbEntity
  8
0
  6
Continuous
 62
     7
370
    15
100
AcDbCircle
 10
120.3409094704
 20
225.4573796584
 30
0.0
 40
108.7499999999999
100
AcDbArc
 50
263.2920534174
 51
276.7079465826
  0
ARC
  5
1CD
330
1F
100
AcDbEntity
  8
0
  6
Continuous
 62
     7
370
    15
100
AcDbCircle
 10
108.2220293782
 20
122.4176045941
 30
0.0
 40
5.000000000000013
100
AcDbArc
 50
227.6144353566
 51
263.2920534174
  0
LINE
  5
1CE
330
1F
100
AcDbEntity
  8
0
  6
Continuous
 62
     7
370
    15
100
AcDbLine
 10
130.5833814514
 20
151.1750813342
 30
0.0
 11
130.9121115447
 21
151.1698156363
 31
0.0
  0
LINE
  5
1CF
330
1F
100
AcDbEntity
  8
0
  6
Continuous
 62
     7
370
    15
100
AcDbLine
 10
132.8533412271
 20
142.4994138769
 30
0.0
 11
132.4594271683
 21
142.4994138769
 31
0.0
  0
ARC
  5
1D0
330
1F
100
AcDbEntity
  8
0
  6
Continuous
 62
     7
370
    15
100
AcDbCircle
 10
132.853341391
 20
144.4994137038
 30
0.0
 40
2.000000000000029
100
AcDbArc
 50
270.0
 51
3.3778285818
  0
ARC
  5
1D1
330
1F
100
AcDbEntity
  8
0
  6
Continuous
 62
     7
370
    15
100
AcDbCircle
 10
60.6118122935
 20
140.2355289594
 30
0.0
 40
74.36725253499343
100
AcDbArc
 50
3.3778285818
 51
7.0729137343
  0
ARC
  5
1D2
330
1F
100
AcDbEntity
  8
0
  6
Continuous
 62
     7
370
    15
100
AcDbCircle
 10
132.4542912358
 20
148.9889651462
 30
0.0
 40
2.000000000000011
100
AcDbArc
 50
11.6415913316
 51
80.7445009308
  0
ARC
  5
1D3
330
1F
100
AcDbEntity
  8
0
  6
Continuous
 62
     7
370
    15
100
AcDbCircle
 10
123.395162435
 20
74.95057409
 30
0.0
 40
76.58901533126941
100
AcDbArc
 50
82.9646115922
 51
84.367548376
  0
ARC
  5
1D4
330
1F
100
AcDbEntity
  8
0
  6
Continuous
 62
     8
370
    15
100
AcDbCircle
 10
116.4490831932
 20
140.9681182563
 30
0.0
 40
9.849999999999996
100
AcDbArc
 50
228.630341794
 51
328.0651304913
  0
LINE
  5
1D5
330
1F
100
AcDbEntity
  8
0
  6
Continuous
 62
     8
370
    15
100
AcDbLine
 10
108.6620087118
 20
134.9362060909
 30
0.0
 11
108.5722571552
 21
135.0538888191
 31
0.0
  0
LINE
  5
1D6
330
1F
100
AcDbEntity
  8
0
  6
Continuous
 62
     8
370
    15
100
AcDbLine
 10
107.7100536168
 20
136.4236858907
 30
0.0
 11
107.603622073
 21
136.6344936659
 31
0.0
  0
ARC
  5
1D7
330
1F
100
AcDbEntity
  8
0
  6
Continuous
 62
     8
370
    15
100
AcDbCircle
 10
116.4490831932
 20
140.9681182563
 30
0.0
 40
9.850000000000012
100
AcDbArc
 50
191.6407246555
 51
197.6193767278
  0
ARC
  5
1D8
330
1F
100
AcDbEntity
  8
0
  6
Continuous
 62
     8
370
    15
100
AcDbCircle
 10
116.4490831932
 20
140.9681182563
 30
0.0
 40
9.850000000000014
100
AcDbArc
 50
171.1195674543
 51
183.8608231438
  0
LINE
  5
1D9
330
1F
100
AcDbEntity
  8
0
  6
Continuous
 62
     8
370
    15
100
AcDbLine
 10
106.911912033
 20
143.430810026
 30
0.0
 11
106.9972174556
 21
143.7402568526
 31
0.0
  0
LINE
  5
1DA
330
1F
100
AcDbEntity
  8
0
  6
Continuous
 62
     8
370
    15
100
AcDbLine
 10
107.5511532218
 20
145.1929673321
 30
0.0
 11
107.6526897342
 21
145.4004948727
 31
0.0
  0
ARC
  5
1DB
330
1F
100
AcDbEntity
  8
0
  6
Continuous
 62
     8
370
    15
100
AcDbCircle
 10
116.4490831932
 20
140.9681182563
 30
0.0
 40
9.850000000000014
100
AcDbArc
 50
135.7850908677
 51
142.5548963977
  0
ARC
  5
1DC
330
1F
100
AcDbEntity
  8
0
  6
Continuous
 62
     8
370
    15
100
AcDbCircle
 10
116.4490831932
 20
140.9681182563
 30
0.0
 40
9.850000000000005
100
AcDbArc
 50
11.1673964875
 51
122.3392844205
  0
DIMENSION
  5
1DD
330
1F
100
AcDbEntity
  8
0
  6
Continuous
 62
     7
370
     0
100
AcDbDimension
  2
_D
 10
120.3409094704
 20
45.9573796584
 30
0.0
 11
95.4728896408
 21
45.9573796584
 31
0.0
 70
    38
  1
<>
 71
     5
 42
-1.0
  3
SLDDIMSTYLE0
100
AcDbOrdinateDimension
 13
120.3409094704
 23
45.9573796584
 33
0.0
 14
96.7659452376
 24
45.9573796584
 34
0.0
  0
LWPOLYLINE
  5
1EA
330
1F
100
AcDbEntity
  8
0
  6
Continuous
 62
     7
370
    15
100
AcDbPolyline
 90
        3
 70
   128
 43
0.0
 10
149.0251310882
 20
150.8733737982
 10
149.0183585104
 20
150.8493326373
 10
149.0152851459
 20
150.8181184298
  0
LWPOLYLINE
  5
1EB
330
1F
100
AcDbEntity
  8
0
  6
Continuous
 62
     7
370
    15
100
AcDbPolyline
 90
        3
 70
   128
 43
0.0
 10
149.0152851459
 20
131.1181183673
 10
149.0183622357
 20
131.0869036942
 10
149.0251310882
 20
131.0628625333
  0
LINE
  5
1EC
330
1F
100
AcDbEntity
  8
0
  6
Continuous
 62
     7
370
    15
100
AcDbLine
 10
150.6251283702
 20
154.7087333865
 30
0.0
 11
150.0251293894
 21
154.7087333865
 31
0.0
  0
ARC
  5
1ED
330
1F
100
AcDbEntity
  8
0
  6
Continuous
 62
     7
370
    15
100
AcDbCircle
 10
150.0251301881
 20
153.7087324737
 30
0.0
 40
1.0
100
AcDbArc
 50
90.0
 51
180.0
  0
ARC
  5
1EE
330
1F
100
AcDbEntity
  8
0
  6
Continuous
 62
     7
370
    15
100
AcDbCircle
 10
150.0251301881
 20
117.7087313564
 30
0.0
 40
1.0
100
AcDbArc
 50
180.0
 51
270.0
  0
LINE
  5
1EF
330
1F
100
AcDbEntity
  8
0
  6
Continuous
 62
     7
370
    15
100
AcDbLine
 10
150.0251293894
 20
116.7087308831
 30
0.0
 11
150.6251283702
 21
116.7087308831
 31
0.0
  0
LINE
  5
1F0
330
1F
100
AcDbEntity
  8
0
  6
Continuous
 62
     7
370
    15
100
AcDbLine
 10
149.0251310882
 20
127.8589345283
 30
0.0
 11
148.9901319858
 21
127.8589345283
 31
0.0
  0
LINE
  5
1F1
330
1F
100
AcDbEntity
  8
0
  6
Continuous
 62
     7
370
    15
100
AcDbLine
 10
148.9901319858
 20
126.3589342824
 30
0.0
 11
149.0251310882
 21
126.3589342824
 31
0.0
  0
ARC
  5
1F2
330
1F
100
AcDbEntity
  8
0
  6
Continuous
 62
     7
370
    15
100
AcDbCircle
 10
148.9901301881
 20
126.9589345923
 30
0.0
 40
0.5999999999999943
100
AcDbArc
 50
180.0
 51
270.0
  0
ARC
  5
1F3
330
1F
100
AcDbEntity
  8
0
  6
Continuous
 62
     7
370
    15
100
AcDbCircle
 10
148.9901301881
 20
127.2589345923
 30
0.0
 40
0.6000000000000085
100
AcDbArc
 50
90.0
 51
180.0
  0
LINE
  5
1F4
330
1F
100
AcDbEntity
  8
0
  6
Continuous
 62
     7
370
    15
100
AcDbLine
 10
149.0251310882
 20
130.3718346871
 30
0.0
 11
148.9901319858
 21
130.3718346871
 31
0.0
  0
LINE
  5
1F5
330
1F
100
AcDbEntity
  8
0
  6
Continuous
 62
     7
370
    15
100
AcDbLine
 10
148.9901319858
 20
128.8718349069
 30
0.0
 11
149.0251310882
 21
128.8718349069
 31
0.0
  0
ARC
  5
1F6
330
1F
100
AcDbEntity
  8
0
  6
Continuous
 62
     7
370
    15
100
AcDbCircle
 10
148.9901301881
 20
129.4718347678
 30
0.0
 40
0.6000000000000227
100
AcDbArc
 50
180.0
 51
270.0
  0
ARC
  5
1F7
330
1F
100
AcDbEntity
  8
0
  6
Continuous
 62
     7
370
    15
100
AcDbCircle
 10
148.9901301881
 20
129.7718347678
 30
0.0
 40
0.5999999999999943
100
AcDbArc
 50
90.0
 51
180.0
  0
LINE
  5
1F8
330
1F
100
AcDbEntity
  8
0
  6
Continuous
 62
     7
370
    15
100
AcDbLine
 10
148.9901319858
 20
126.3517984889
 30
0.0
 11
149.0251310882
 21
126.3517984889
 31
0.0
  0
ARC
  5
1F9
330
1F
100
AcDbEntity
  8
0
  6
Continuous
 62
     7
370
    15
100
AcDbCircle
 10
148.9901301881
 20
126.9517987191
 30
0.0
 40
0.5999999999999943
100
AcDbArc
 50
180.0
 51
270.0
  0
LINE
  5
1FA
330
1F
100
AcDbEntity
  8
0
  6
Continuous
 62
     7
370
    15
100
AcDbLine
 10
148.9251293954
 20
119.143995992
 30
0.0
 11
149.0251310882
 21
119.143995992
 31
0.0
  0
LINE
  5
1FB
330
1F
100
AcDbEntity
  8
0
  6
Continuous
 62
     7
370
    15
100
AcDbLine
 10
148.9251293954
 20
126.1930331356
 30
0.0
 11
148.8251314279
 21
126.1930331356
 31
0.0
  0
LINE
  5
1FC
330
1F
100
AcDbEntity
  8
0
  6
Continuous
 62
     7
370
    15
100
AcDbLine
 10
149.0251310882
 20
130.3988514236
 30
0.0
 11
148.9901319858
 21
130.3988514236
 31
0.0
  0
ARC
  5
1FD
330
1F
100
AcDbEntity
  8
0
  6
Continuous
 62
     7
370
    15
100
AcDbCircle
 10
148.9901301881
 20
129.7988515021
 30
0.0
 40
0.5999999999999943
100
AcDbArc
 50
90.0
 51
180.0
  0
LINE
  5
1FE
330
1F
100
AcDbEntity
  8
0
  6
Continuous
 62
     7
370
    15
100
AcDbLine
 10
148.3938880977
 20
127.3258915871
 30
0.0
 11
148.3901292798
 21
127.2588517285
 31
0.0
  0
ARC
  5
1FF
330
1F
100
AcDbEntity
  8
0
  6
Continuous
 62
     7
370
    15
100
AcDbCircle
 10
152.6251301881
 20
117.7073796584
 30
0.0
 40
1.0
100
AcDbArc
 50
270.0
 51
0.0
  0
LINE
  5
200
330
1F
100
AcDbEntity
  8
0
  6
Continuous
 62
     7
370
    15
100
AcDbLine
 10
150.6251283702
 20
116.7073804653
 30
0.0
 11
152.625128698
 21
116.7073804653
 31
0.0
  0
ARC
  5
201
330
1F
100
AcDbEntity
  8
0
  6
Continuous
 62
     7
370
    15
100
AcDbCircle
 10
152.6251301881
 20
153.7073796584
 30
0.0
 40
1.0
100
AcDbArc
 50
0.0
 51
90.0
  0
LINE
  5
202
330
1F
100
AcDbEntity
  8
0
  6
Continuous
 62
     7
370
    15
100
AcDbLine
 10
152.625128698
 20
154.7073792434
 30
0.0
 11
150.6251283702
 21
154.7073792434
 31
0.0
  0
LINE
  5
203
330
1F
100
AcDbEntity
  8
0
  6
Continuous
 62
     7
370
    15
100
AcDbLine
 10
149.0152851459
 20
135.7579123696
 30
0.0
 11
149.0152851459
 21
131.1181183673
 31
0.0
  0
LINE
  5
204
330
1F
100
AcDbEntity
  8
0
  6
Continuous
 62
     7
370
    15
100
AcDbLine
 10
149.0152851459
 20
150.8181184298
 30
0.0
 11
149.0152851459
 21
142.8758283845
 31
0.0
  0
LINE
  5
205
330
1F
100
AcDbEntity
  8
0
  6
Continuous
 62
     7
370
    15
100
AcDbLine
 10
149.0152851459
 20
132.4181182544
 30
0.0
 11
149.0152851459
 21
134.2359852978
 31
0.0
  0
LINE
  5
206
330
1F
100
AcDbEntity
  8
0
  6
Continuous
 62
     7
370
    15
100
AcDbLine
 10
149.0152851459
 20
135.6797455927
 30
0.0
 11
149.0152851459
 21
135.8238310321
 31
0.0
  0
LINE
  5
207
330
1F
100
AcDbEntity
  8
0
  6
Continuous
 62
     7
370
    15
100
AcDbLine
 10
149.0152851459
 20
137.9866381875
 30
0.0
 11
149.0152851459
 21
141.8737914181
 31
0.0
  0
LINE
  5
208
330
1F
100
AcDbEntity
  8
0
  6
Continuous
 62
     7
370
    15
100
AcDbLine
 10
149.0152851459
 20
143.4308314464
 30
0.0
 11
149.0152851459
 21
145.1595784865
 31
0.0
  0
LINE
  5
209
330
1F
100
AcDbEntity
  8
0
  6
Continuous
 62
     7
370
    15
100
AcDbLine
 10
149.0152851459
 20
146.9571418828
 30
0.0
 11
149.0152851459
 21
147.0585610486
 31
0.0
  0
LINE
  5
20A
330
1F
100
AcDbEntity
  8
0
  6
Continuous
 62
     7
370
    15
100
AcDbLine
 10
149.0152851459
 20
147.7014269448
 30
0.0
 11
149.0152851459
 21
149.5181178442
 31
0.0
  0
LINE
  5
20B
330
1F
100
AcDbEntity
  8
0
  6
Continuous
 62
     7
370
    15
100
AcDbLine
 10
150.0251293894
 20
121.7569472036
 30
0.0
 11
150.6251283702
 21
121.7569472036
 31
0.0
  0
LINE
  5
20C
330
1F
100
AcDbEntity
  8
0
  6
Continuous
 62
     7
370
    15
100
AcDbLine
 10
150.0251293894
 20
149.6567060939
 30
0.0
 11
150.0251293894
 21
121.7569472036
 31
0.0
  0
LINE
  5
20D
330
1F
100
AcDbEntity
  8
0
  6
Continuous
 62
     7
370
    15
100
AcDbLine
 10
150.6251283702
 20
149.6567060939
 30
0.0
 11
150.0251293894
 21
149.6567060939
 31
0.0
  0
ARC
  5
20E
330
1F
100
AcDbEntity
  8
0
  6
Continuous
 62
     7
370
    15
100
AcDbCircle
 10
149.7794960639
 20
123.7481072502
 30
0.0
 40
2.006253738045494
100
AcDbArc
 50
247.9134493302
 51
277.0325866229
  0
LINE
  5
20F
330
1F
100
AcDbEntity
  8
0
  6
Continuous
 62
     7
370
    15
100
AcDbLine
 10
149.0251310882
 20
121.8890785939
 30
0.0
 11
149.0251310882
 21
149.5247954271
 31
0.0
  0
ARC
  5
210
330
1F
100
AcDbEntity
  8
0
  6
Continuous
 62
     7
370
    15
100
AcDbCircle
 10
149.7794801267
 20
147.662556006
 30
0.0
 40
2.009223266229271
100
AcDbArc
 50
82.9774016644
 51
112.0517025919
  0
LINE
  5
211
330
1F
100
AcDbEntity
  8
0
  6
Continuous
 62
     7
370
    15
100
AcDbLine
 10
150.0251293894
 20
153.9628613508
 30
0.0
 11
150.0251293894
 21
149.6567060939
 31
0.0
  0
LINE
  5
212
330
1F
100
AcDbEntity
  8
0
  6
Continuous
 62
     7
370
    15
100
AcDbLine
 10
150.0251293894
 20
153.9628613508
 30
0.0
 11
150.6251283702
 21
153.9628613508
 31
0.0
  0
LINE
  5
213
330
1F
100
AcDbEntity
  8
0
  6
Continuous
 62
     7
370
    15
100
AcDbLine
 10
150.6251283702
 20
153.9628613508
 30
0.0
 11
150.6251283702
 21
149.6567060939
 31
0.0
  0
LINE
  5
214
330
1F
100
AcDbEntity
  8
0
  6
Continuous
 62
     7
370
    15
100
AcDbLine
 10
149.0251310882
 20
149.5247954271
 30
0.0
 11
149.0251310882
 21
152.969721309
 31
0.0
  0
ARC
  5
215
330
1F
100
AcDbEntity
  8
0
  6
Continuous
 62
     7
370
    15
100
AcDbCircle
 10
150.0217094394
 20
152.9662829362
 30
0.0
 40
0.9965842827498463
100
AcDbArc
 50
89.8033793136
 51
179.802320139
  0
LINE
  5
216
330
1F
100
AcDbEntity
  8
0
  6
Continuous
 62
     7
370
    15
100
AcDbLine
 10
149.0251310882
 20
118.4449340916
 30
0.0
 11
149.0251310882
 21
121.8890785939
 31
0.0
  0
LINE
  5
217
330
1F
100
AcDbEntity
  8
0
  6
Continuous
 62
     7
370
    15
100
AcDbLine
 10
150.0251293894
 20
121.7569472036
 30
0.0
 11
150.0251293894
 21
117.4517679728
 31
0.0
  0
ARC
  5
218
330
1F
100
AcDbEntity
  8
0
  6
Continuous
 62
     7
370
    15
100
AcDbCircle
 10
150.0217224359
 20
118.4483593834
 30
0.0
 40
0.9965972341442174
100
AcDbArc
 50
180.1969252398
 51
270.1958709387
  0
LINE
  5
219
330
1F
100
AcDbEntity
  8
0
  6
Continuous
 62
     7
370
    15
100
AcDbLine
 10
150.6251283702
 20
117.4517679728
 30
0.0
 11
150.0251293894
 21
117.4517679728
 31
0.0
  0
LINE
  5
21A
330
1F
100
AcDbEntity
  8
0
  6
Continuous
 62
     7
370
    15
100
AcDbLine
 10
150.6251283702
 20
154.7087333865
 30
0.0
 11
150.6251283702
 21
153.9628613508
 31
0.0
  0
LINE
  5
21B
330
1F
100
AcDbEntity
  8
0
  6
Continuous
 62
     7
370
    15
100
AcDbLine
 10
149.0251310882
 20
152.969721309
 30
0.0
 11
149.0251310882
 21
153.7087332226
 31
0.0
  0
LINE
  5
21C
330
1F
100
AcDbEntity
  8
0
  6
Continuous
 62
     7
370
    15
100
AcDbLine
 10
149.0251310882
 20
117.708731047
 30
0.0
 11
149.0251310882
 21
118.4449340916
 31
0.0
  0
LINE
  5
21D
330
1F
100
AcDbEntity
  8
0
  6
Continuous
 62
     7
370
    15
100
AcDbLine
 10
148.3901292798
 20
126.9589341945
 30
0.0
 11
148.3901292798
 21
127.2589346162
 31
0.0
  0
LINE
  5
21E
330
1F
100
AcDbEntity
  8
0
  6
Continuous
 62
     7
370
    15
100
AcDbLine
 10
148.3901292798
 20
129.4718348189
 30
0.0
 11
148.3901292798
 21
129.771834775
 31
0.0
  0
LINE
  5
21F
330
1F
100
AcDbEntity
  8
0
  6
Continuous
 62
     7
370
    15
100
AcDbLine
 10
148.3901292798
 20
126.9517984009
 30
0.0
 11
148.3901292798
 21
126.9588513068
 31
0.0
  0
LINE
  5
220
330
1F
100
AcDbEntity
  8
0
  6
Continuous
 62
     7
370
    15
100
AcDbLine
 10
148.9251293954
 20
119.143995992
 30
0.0
 11
148.9251293954
 21
126.3678069926
 31
0.0
  0
LINE
  5
221
330
1F
100
AcDbEntity
  8
0
  6
Continuous
 62
     7
370
    15
100
AcDbLine
 10
148.8251314279
 20
124.1579536117
 30
0.0
 11
148.9251293954
 21
124.1579536117
 31
0.0
  0
LINE
  5
222
330
1F
100
AcDbEntity
  8
0
  6
Continuous
 62
     7
370
    15
100
AcDbLine
 10
148.8251314279
 20
124.1579536117
 30
0.0
 11
148.8251314279
 21
126.1930331356
 31
0.0
  0
LINE
  5
223
330
1F
100
AcDbEntity
  8
0
  6
Continuous
 62
     7
370
    15
100
AcDbLine
 10
148.8251314279
 20
120.3492596514
 30
0.0
 11
148.9251293954
 21
120.3492596514
 31
0.0
  0
LINE
  5
224
330
1F
100
AcDbEntity
  8
0
  6
Continuous
 62
     7
370
    15
100
AcDbLine
 10
148.8251314279
 20
120.3492596514
 30
0.0
 11
148.8251314279
 21
124.1579536117
 31
0.0
  0
LINE
  5
225
330
1F
100
AcDbEntity
  8
0
  6
Continuous
 62
     7
370
    15
100
AcDbLine
 10
148.3901292798
 20
129.771834775
 30
0.0
 11
148.3901292798
 21
129.7988515115
 31
0.0
  0
LINE
  5
226
330
1F
100
AcDbEntity
  8
0
  6
Continuous
 62
     7
370
    15
100
AcDbLine
 10
148.6251317677
 20
139.9558964885
 30
0.0
 11
149.0251310882
 21
139.9558964885
 31
0.0
  0
SPLINE
  5
227
330
1F
100
AcDbEntity
  8
0
  6
Continuous
 62
     7
370
    15
100
AcDbSpline
210
0.0
220
0.0
230
1.0
 70
    24
 71
     3
 72
    14
 73
    10
 74
     0
 42
0.000000001
 43
0.00000001
 40
0.0
 40
0.0
 40
0.0
 40
0.0
 40
0.1403582117492716
 40
0.2807017337667502
 40
0.4201948096353788
 40
0.559864359711377
 40
0.7063151318521457
 40
0.853082114378713
 40
1.0
 40
1.0
 40
1.0
 40
1.0
 10
148.6251317676542
 20
141.5645424976137
 30
0.0
 10
148.6251317676542
 20
141.5635203116448
 30
0.0
 10
148.6251317676542
 20
141.561476046688
 30
0.0
 10
148.6251317676542
 20
141.5516031313358
 30
0.0
 10
148.6251317676542
 20
141.4680645968351
 30
0.0
 10
148.6251317676542
 20
141.197011266835
 30
0.0
 10
148.6251317676542
 20
140.822924763922
 30
0.0
 10
148.6251317676542
 20
140.3949693999652
 30
0.0
 10
148.6251317676542
 20
140.102304252031
 30
0.0
 10
148.6251317676542
 20
139.9558964884963
 30
0.0
  0
LINE
  5
228
330
1F
100
AcDbEntity
  8
0
  6
Continuous
 62
     7
370
    15
100
AcDbLine
 10
148.6251317677
 20
141.5645424976
 30
0.0
 11
149.0251310882
 21
141.5645424976
 31
0.0
  0
LINE
  5
229
330
1F
100
AcDbEntity
  8
0
  6
Continuous
 62
     7
370
    15
100
AcDbLine
 10
148.6251317677
 20
138.2958037547
 30
0.0
 11
149.0251310882
 21
138.2958037547
 31
0.0
  0
SPLINE
  5
22A
330
1F
100
AcDbEntity
  8
0
  6
Continuous
 62
     7
370
    15
100
AcDbSpline
210
0.0
220
0.0
230
1.0
 70
    24
 71
     3
 72
    15
 73
    11
 74
     0
 42
0.000000001
 43
0.00000001
 40
0.0
 40
0.0
 40
0.0
 40
0.0
 40
0.1401711219598086
 40
0.2802595876353253
 40
0.4201086548349918
 40
0.5597173257570793
 40
0.6694235377599239
 40
0.7795856799453098
 40
0.8897906718184048
 40
0.9999999999999999
 40
0.9999999999999999
 40
0.9999999999999999
 40
0.9999999999999999
 10
148.6251317676542
 20
139.9558964884963
 30
0.0
 10
148.6251317676542
 20
139.8142912760646
 30
0.0
 10
148.6251317676542
 20
139.5311643531418
 30
0.0
 10
148.6251317676542
 20
139.1168356738251
 30
0.0
 10
148.6251317676542
 20
138.7357130371357
 30
0.0
 10
148.6251317676542
 20
138.4644450676493
 30
0.0
 10
148.6251317676542
 20
138.3251641078229
 30
0.0
 10
148.6251317676542
 20
138.3096414163192
 30
0.0
 10
148.6251317676542
 20
138.2965619493924
 30
0.0
 10
148.6251317676542
 20
138.2960564895761
 30
0.0
 10
148.6251317676542
 20
138.2958037546959
 30
0.0
  0
LINE
  5
22B
330
1F
100
AcDbEntity
  8
0
  6
Continuous
 62
     7
370
    15
100
AcDbLine
 10
148.6251317677
 20
131.6061579391
 30
0.0
 11
149.0152851459
 21
131.6061579391
 31
0.0
  0
SPLINE
  5
22C
330
1F
100
AcDbEntity
  8
0
  6
Continuous
 62
     7
370
    15
100
AcDbSpline
210
0.0
220
0.0
230
1.0
 70
    24
 71
     3
 72
    14
 73
    10
 74
     0
 42
0.000000001
 43
0.00000001
 40
0.0
 40
0.0
 40
0.0
 40
0.0
 40
0.140358219070107
 40
0.2807017507622566
 40
0.4201948057701032
 40
0.5598644105682355
 40
0.7063151907555145
 40
0.8530821063065377
 40
1.0
 40
1.0
 40
1.0
 40
1.0
 10
148.6251317676542
 20
133.2148035989266
 30
0.0
 10
148.6251317676542
 20
133.2137814862593
 30
0.0
 10
148.6251317676542
 20
133.2117373678808
 30
0.0
 10
148.6251317676542
 20
133.2018640529161
 30
0.0
 10
148.6251317676542
 20
133.1183262041351
 30
0.0
 10
148.6251317676542
 20
132.8472724264205
 30
0.0
 10
148.6251317676542
 20
132.4731860697448
 30
0.0
 10
148.6251317676542
 20
132.0452307756741
 30
0.0
 10
148.6251317676542
 20
131.7525657025662
 30
0.0
 10
148.6251317676542
 20
131.6061579390552
 30
0.0
  0
SPLINE
  5
22D
330
1F
100
AcDbEntity
  8
0
  6
Continuous
 62
     7
370
    15
100
AcDbSpline
210
0.0
220
0.0
230
1.0
 70
    24
 71
     3
 72
    11
 73
     7
 74
     0
 42
0.000000001
 43
0.00000001
 40
0.0
 40
0.0
 40
0.0
 40
0.0
 40
0.2864135558711781
 40
0.5726582190348702
 40
0.8584137160437958
 40
0.9999999999999999
 40
0.9999999999999999
 40
0.9999999999999999
 40
0.9999999999999999
 10
148.6251317676542
 20
131.6061579390552
 30
0.0
 10
148.6251317676542
 20
131.4642325275517
 30
0.0
 10
148.6251317676542
 20
131.1804653953007
 30
0.0
 10
148.6251317676542
 20
130.7709333818615
 30
0.0
 10
148.6251317676542
 20
130.4385502346191
 30
0.0
 10
148.6251317676542
 20
130.3046927448513
 30
0.0
 10
148.6251317676542
 20
130.2603432676878
 30
0.0
  0
LINE
  5
22E
330
1F
100
AcDbEntity
  8
0
  6
Continuous
 62
     7
370
    15
100
AcDbLine
 10
148.6251317677
 20
150.1716455213
 30
0.0
 11
149.0152851459
 21
150.1716455213
 31
0.0
  0
LINE
  5
22F
330
1F
100
AcDbEntity
  8
0
  6
Continuous
 62
     7
370
    15
100
AcDbLine
 10
148.6251317677
 20
150.1717554174
 30
0.0
 11
148.6251317677
 21
150.1716455213
 31
0.0
  0
LINE
  5
230
330
1F
100
AcDbEntity
  8
0
  6
Continuous
 62
     7
370
    15
100
AcDbLine
 10
148.6251317677
 20
150.1717554174
 30
0.0
 11
149.0152851459
 21
150.1717554174
 31
0.0
  0
LINE
  5
231
330
1F
100
AcDbEntity
  8
0
  6
Continuous
 62
     7
370
    15
100
AcDbLine
 10
148.6251317677
 20
147.0585610486
 30
0.0
 11
149.0152851459
 21
147.0585610486
 31
0.0
  0
LINE
  5
232
330
1F
100
AcDbEntity
  8
0
  6
Continuous
 62
     7
370
    15
100
AcDbLine
 10
148.6251317677
 20
150.1716455213
 30
0.0
 11
148.6251317677
 21
147.0585610486
 31
0.0
  0
LINE
  5
233
330
1F
100
AcDbEntity
  8
0
  6
Continuous
 62
     7
370
    15
100
AcDbLine
 10
148.6251317677
 20
146.9566436253
 30
0.0
 11
149.0152851459
 21
146.9566436253
 31
0.0
  0
LINE
  5
234
330
1F
100
AcDbEntity
  8
0
  6
Continuous
 62
     7
370
    15
100
AcDbLine
 10
148.6251317677
 20
146.9571418828
 30
0.0
 11
148.6251317677
 21
146.9566436253
 31
0.0
  0
LINE
  5
235
330
1F
100
AcDbEntity
  8
0
  6
Continuous
 62
     7
370
    15
100
AcDbLine
 10
148.6251317677
 20
146.9571418828
 30
0.0
 11
149.0152851459
 21
146.9571418828
 31
0.0
  0
LINE
  5
236
330
1F
100
AcDbEntity
  8
0
  6
Continuous
 62
     7
370
    15
100
AcDbLine
 10
148.6251317677
 20
146.9566436253
 30
0.0
 11
148.6251317677
 21
145.9343522555
 31
0.0
  0
LINE
  5
237
330
1F
100
AcDbEntity
  8
0
  6
Continuous
 62
     7
370
    15
100
AcDbLine
 10
148.6251317677
 20
143.7399280957
 30
0.0
 11
149.0152851459
 21
143.7399280957
 31
0.0
  0
SPLINE
  5
238
330
1F
100
AcDbEntity
  8
0
  6
Continuous
 62
     7
370
    15
100
AcDbSpline
210
0.0
220
0.0
230
1.0
 70
    24
 71
     3
 72
    14
 73
    10
 74
     0
 42
0.000000001
 43
0.00000001
 40
0.0
 40
0.0
 40
0.0
 40
0.0
 40
0.1670703065013805
 40
0.3341362730013688
 40
0.5009714428102322
 40
0.6255931086515601
 40
0.7500665476610039
 40
0.8748440370120251
 40
1.0
 40
1.0
 40
1.0
 40
1.0
 10
148.6251317676542
 20
145.9343522555318
 30
0.0
 10
148.6251317676542
 20
145.7704241980522
 30
0.0
 10
148.6251317676542
 20
145.4425723414678
 30
0.0
 10
148.6251317676542
 20
144.9530407051066
 30
0.0
 10
148.6251317676542
 20
144.4998358944648
 30
0.0
 10
148.6251317676542
 20
144.1224322814739
 30
0.0
 10
148.6251317676542
 20
143.8659097736574
 30
0.0
 10
148.6251317676542
 20
143.7533441009668
 30
0.0
 10
148.6251317676542
 20
143.7444046098104
 30
0.0
 10
148.6251317676542
 20
143.739928095707
 30
0.0
  0
LINE
  5
239
330
1F
100
AcDbEntity
  8
0
  6
Continuous
 62
     7
370
    15
100
AcDbLine
 10
148.6251317677
 20
143.4303331888
 30
0.0
 11
149.0152851459
 21
143.4303331888
 31
0.0
  0
LINE
  5
23A
330
1F
100
AcDbEntity
  8
0
  6
Continuous
 62
     7
370
    15
100
AcDbLine
 10
148.6251317677
 20
143.4308314464
 30
0.0
 11
148.6251317677
 21
143.4303331888
 31
0.0
  0
LINE
  5
23B
330
1F
100
AcDbEntity
  8
0
  6
Continuous
 62
     7
370
    15
100
AcDbLine
 10
148.6251317677
 20
143.4308314464
 30
0.0
 11
149.0152851459
 21
143.4308314464
 31
0.0
  0
LINE
  5
23C
330
1F
100
AcDbEntity
  8
0
  6
Continuous
 62
     7
370
    15
100
AcDbLine
 10
148.6251317677
 20
141.8737914181
 30
0.0
 11
149.0251310882
 21
141.8737914181
 31
0.0
  0
LINE
  5
23D
330
1F
100
AcDbEntity
  8
0
  6
Continuous
 62
     7
370
    15
100
AcDbLine
 10
148.6251317677
 20
143.4303331888
 30
0.0
 11
148.6251317677
 21
141.8737914181
 31
0.0
  0
LINE
  5
23E
330
1F
100
AcDbEntity
  8
0
  6
Continuous
 62
     7
370
    15
100
AcDbLine
 10
148.6251317677
 20
136.0907259631
 30
0.0
 11
149.0251310882
 21
136.0907259631
 31
0.0
  0
LINE
  5
23F
330
1F
100
AcDbEntity
  8
0
  6
Continuous
 62
     7
370
    15
100
AcDbLine
 10
148.6251317677
 20
137.9861403956
 30
0.0
 11
148.6251317677
 21
136.0907259631
 31
0.0
  0
LINE
  5
240
330
1F
100
AcDbEntity
  8
0
  6
Continuous
 62
     7
370
    15
100
AcDbLine
 10
148.6251317677
 20
137.9861403956
 30
0.0
 11
149.0251310882
 21
137.9861403956
 31
0.0
  0
LINE
  5
241
330
1F
100
AcDbEntity
  8
0
  6
Continuous
 62
     7
370
    15
100
AcDbLine
 10
148.6251317677
 20
137.9866381875
 30
0.0
 11
148.6251317677
 21
137.9861403956
 31
0.0
  0
LINE
  5
242
330
1F
100
AcDbEntity
  8
0
  6
Continuous
 62
     7
370
    15
100
AcDbLine
 10
148.6251317677
 20
137.9866381875
 30
0.0
 11
149.0152851459
 21
137.9866381875
 31
0.0
  0
LINE
  5
243
330
1F
100
AcDbEntity
  8
0
  6
Continuous
 62
     7
370
    15
100
AcDbLine
 10
148.6251317677
 20
135.8978892212
 30
0.0
 11
149.0251310882
 21
135.8978892212
 31
0.0
  0
SPLINE
  5
244
330
1F
100
AcDbEntity
  8
0
  6
Continuous
 62
     7
370
    15
100
AcDbSpline
210
0.0
220
0.0
230
1.0
 70
    24
 71
     3
 72
     9
 73
     5
 74
     0
 42
0.000000001
 43
0.00000001
 40
0.0
 40
0.0
 40
0.0
 40
0.0
 40
0.5600002513882277
 40
1.0
 40
1.0
 40
1.0
 40
1.0
 10
148.6251317676542
 20
136.0907259631094
 30
0.0
 10
148.6251317676542
 20
136.0549935449255
 30
0.0
 10
148.6251317676542
 20
135.9911856839553
 30
0.0
 10
148.6251317676542
 20
135.9263964623928
 30
0.0
 10
148.6251317676542
 20
135.8978892211926
 30
0.0
  0
LINE
  5
245
330
1F
100
AcDbEntity
  8
0
  6
Continuous
 62
     7
370
    15
100
AcDbLine
 10
148.6251317677
 20
135.4754053581
 30
0.0
 11
149.0152851459
 21
135.4754053581
 31
0.0
  0
LINE
  5
246
330
1F
100
AcDbEntity
  8
0
  6
Continuous
 62
     7
370
    15
100
AcDbLine
 10
148.6251317677
 20
135.7626198559
 30
0.0
 11
149.0152851459
 21
135.7626198559
 31
0.0
  0
LINE
  5
247
330
1F
100
AcDbEntity
  8
0
  6
Continuous
 62
     7
370
    15
100
AcDbLine
 10
148.6251317677
 20
135.7626198559
 30
0.0
 11
148.6251317677
 21
135.4754053581
 31
0.0
  0
LINE
  5
248
330
1F
100
AcDbEntity
  8
0
  6
Continuous
 62
     7
370
    15
100
AcDbLine
 10
148.6251317677
 20
133.5759374314
 30
0.0
 11
149.0152851459
 21
133.5759374314
 31
0.0
  0
LINE
  5
249
330
1F
100
AcDbEntity
  8
0
  6
Continuous
 62
     7
370
    15
100
AcDbLine
 10
148.6251317677
 20
135.4754053581
 30
0.0
 11
148.6251317677
 21
133.5759374314
 31
0.0
  0
LINE
  5
24A
330
1F
100
AcDbEntity
  8
0
  6
Continuous
 62
     7
370
    15
100
AcDbLine
 10
148.6251317677
 20
128.2079499914
 30
0.0
 11
149.0251310882
 21
128.2079499914
 31
0.0
  0
LINE
  5
24B
330
1F
100
AcDbEntity
  8
0
  6
Continuous
 62
     7
370
    15
100
AcDbLine
 10
148.6251317677
 20
128.9956258378
 30
0.0
 11
148.6251317677
 21
128.2079499914
 31
0.0
  0
LINE
  5
24C
330
1F
100
AcDbEntity
  8
0
  6
Continuous
 62
     7
370
    15
100
AcDbLine
 10
148.6251317677
 20
126.3678069926
 30
0.0
 11
148.8524601575
 21
126.3678069926
 31
0.0
  0
SPLINE
  5
24D
330
1F
100
AcDbEntity
  8
0
  6
Continuous
 62
     7
370
    15
100
AcDbSpline
210
0.0
220
0.0
230
1.0
 70
    24
 71
     3
 72
     9
 73
     5
 74
     0
 42
0.000000001
 43
0.00000001
 40
0.0
 40
0.0
 40
0.0
 40
0.0
 40
0.8955701295945274
 40
1.0
 40
1.0
 40
1.0
 40
1.0
 10
148.6251317676542
 20
128.2079499914434
 30
0.0
 10
148.6251317676542
 20
128.0619896907224
 30
0.0
 10
148.6251317676542
 20
127.8990093769561
 30
0.0
 10
148.6251317676542
 20
127.7372373196304
 30
0.0
 10
148.6251317676542
 20
127.7203434846487
 30
0.0
  0
SPLINE
  5
24E
330
1F
100
AcDbEntity
  8
0
  6
Continuous
 62
     7
370
    15
100
AcDbSpline
210
0.0
220
0.0
230
1.0
 70
    24
 71
     3
 72
    10
 73
     6
 74
     0
 42
0.000000001
 43
0.00000001
 40
0.0
 40
0.0
 40
0.0
 40
0.0
 40
0.0537876363913715
 40
0.5264756753253597
 40
1.0
 40
1.0
 40
1.0
 40
1.0
 10
148.6251317676542
 20
126.494326233038
 30
0.0
 10
148.6251317676542
 20
126.4871960195223
 30
0.0
 10
148.6251317676542
 20
126.4174051860197
 30
0.0
 10
148.6251317676542
 20
126.3843308062814
 30
0.0
 10
148.6251317676542
 20
126.3733181749046
 30
0.0
 10
148.6251317676542
 20
126.367806992599
 30
0.0
  0
LINE
  5
24F
330
1F
100
AcDbEntity
  8
0
  6
Continuous
 62
     7
370
    15
100
AcDbLine
 10
148.6251317677
 20
126.0063225172
 30
0.0
 11
148.8251314279
 21
126.0063225172
 31
0.0
  0
LINE
  5
250
330
1F
100
AcDbEntity
  8
0
  6
Continuous
 62
     7
370
    15
100
AcDbLine
 10
148.6251317677
 20
126.0068198434
 30
0.0
 11
148.6251317677
 21
126.0063225172
 31
0.0
  0
LINE
  5
251
330
1F
100
AcDbEntity
  8
0
  6
Continuous
 62
     7
370
    15
100
AcDbLine
 10
148.6251317677
 20
126.0068198434
 30
0.0
 11
148.8251314279
 21
126.0068198434
 31
0.0
  0
LINE
  5
252
330
1F
100
AcDbEntity
  8
0
  6
Continuous
 62
     7
370
    15
100
AcDbLine
 10
148.6251317677
 20
124.4497798151
 30
0.0
 11
148.8251314279
 21
124.4497798151
 31
0.0
  0
LINE
  5
253
330
1F
100
AcDbEntity
  8
0
  6
Continuous
 62
     7
370
    15
100
AcDbLine
 10
148.6251317677
 20
126.0063225172
 30
0.0
 11
148.6251317677
 21
124.4497798151
 31
0.0
  0
LINE
  5
254
330
1F
100
AcDbEntity
  8
0
  6
Continuous
 62
     7
370
    15
100
AcDbLine
 10
148.6251317677
 20
124.1403236753
 30
0.0
 11
148.8251314279
 21
124.1403236753
 31
0.0
  0
LINE
  5
255
330
1F
100
AcDbEntity
  8
0
  6
Continuous
 62
     7
370
    15
100
AcDbLine
 10
148.6251317677
 20
124.1408219329
 30
0.0
 11
148.6251317677
 21
124.1403236753
 31
0.0
  0
LINE
  5
256
330
1F
100
AcDbEntity
  8
0
  6
Continuous
 62
     7
370
    15
100
AcDbLine
 10
148.6251317677
 20
124.1408219329
 30
0.0
 11
148.8251314279
 21
124.1408219329
 31
0.0
  0
LINE
  5
257
330
1F
100
AcDbEntity
  8
0
  6
Continuous
 62
     7
370
    15
100
AcDbLine
 10
148.6251317677
 20
122.5837819046
 30
0.0
 11
148.8251314279
 21
122.5837819046
 31
0.0
  0
LINE
  5
258
330
1F
100
AcDbEntity
  8
0
  6
Continuous
 62
     7
370
    15
100
AcDbLine
 10
148.6251317677
 20
124.1403236753
 30
0.0
 11
148.6251317677
 21
122.5837819046
 31
0.0
  0
LINE
  5
259
330
1F
100
AcDbEntity
  8
0
  6
Continuous
 62
     7
370
    15
100
AcDbLine
 10
148.6251317677
 20
135.8978892212
 30
0.0
 11
148.6251317677
 21
135.7626198559
 31
0.0
  0
LINE
  5
25A
330
1F
100
AcDbEntity
  8
0
  6
Continuous
 62
     7
370
    15
100
AcDbLine
 10
148.6251317677
 20
141.564625851
 30
0.0
 11
149.0251310882
 21
141.564625851
 31
0.0
  0
LINE
  5
25B
330
1F
100
AcDbEntity
  8
0
  6
Continuous
 62
     7
370
    15
100
AcDbLine
 10
148.6251317677
 20
133.2148871851
 30
0.0
 11
149.0152851459
 21
133.2148871851
 31
0.0
  0
LINE
  5
25C
330
1F
100
AcDbEntity
  8
0
  6
Continuous
 62
     7
370
    15
100
AcDbLine
 10
148.6251317677
 20
126.2642262272
 30
0.0
 11
148.9251293954
 21
126.2642262272
 31
0.0
  0
SPLINE
  5
25D
330
1F
100
AcDbEntity
  8
0
  6
Continuous
 62
     7
370
    15
100
AcDbSpline
210
0.0
220
0.0
230
1.0
 70
    24
 71
     3
 72
     9
 73
     5
 74
     0
 42
0.000000001
 43
0.00000001
 40
0.0
 40
0.0
 40
0.0
 40
0.0
 40
0.1559272979869927
 40
1.0
 40
1.0
 40
1.0
 40
1.0
 10
148.6251317676542
 20
126.3151844731655
 30
0.0
 10
148.6251317676542
 20
126.3076915251965
 30
0.0
 10
148.6251317676542
 20
126.2596374123776
 30
0.0
 10
148.6251317676542
 20
126.2621258255461
 30
0.0
 10
148.6251317676542
 20
126.2642262271729
 30
0.0
  0
LINE
  5
25E
330
1F
100
AcDbEntity
  8
0
  6
Continuous
 62
     7
370
    15
100
AcDbLine
 10
148.6251317677
 20
121.8058984495
 30
0.0
 11
148.8251314279
 21
121.8058984495
 31
0.0
  0
LINE
  5
25F
330
1F
100
AcDbEntity
  8
0
  6
Continuous
 62
     7
370
    15
100
AcDbLine
 10
148.6251317677
 20
122.5837819046
 30
0.0
 11
148.6251317677
 21
121.8058984495
 31
0.0
  0
LINE
  5
260
330
1F
100
AcDbEntity
  8
0
  6
Continuous
 62
     7
370
    15
100
AcDbLine
 10
152.625128698
 20
121.7575004093
 30
0.0
 11
152.625128698
 21
149.6572592995
 31
0.0
  0
ARC
  5
261
330
1F
100
AcDbEntity
  8
0
  6
Continuous
 62
     7
370
    15
100
AcDbCircle
 10
152.870769012
 20
147.664583381
 30
0.0
 40
2.007759069265652
100
AcDbArc
 50
67.9309803913
 51
97.0274882249
  0
LINE
  5
262
330
1F
100
AcDbEntity
  8
0
  6
Continuous
 62
     7
370
    15
100
AcDbLine
 10
153.6251307246
 20
149.5252378053
 30
0.0
 11
153.6251307246
 21
121.8895209721
 31
0.0
  0
ARC
  5
263
330
1F
100
AcDbEntity
  8
0
  6
Continuous
 62
     7
370
    15
100
AcDbCircle
 10
152.8707702289
 20
123.7501802357
 30
0.0
 40
2.007763096662866
100
AcDbArc
 50
262.9724909516
 51
292.0689355388
  0
LINE
  5
264
330
1F
100
AcDbEntity
  8
0
  6
Continuous
 62
     7
370
    15
100
AcDbLine
 10
150.6251283702
 20
149.6572592995
 30
0.0
 11
150.6251283702
 21
121.7575004093
 31
0.0
  0
LINE
  5
265
330
1F
100
AcDbEntity
  8
0
  6
Continuous
 62
     7
370
    15
100
AcDbLine
 10
152.625128698
 20
149.6572592995
 30
0.0
 11
150.6251283702
 21
149.6572592995
 31
0.0
  0
LINE
  5
266
330
1F
100
AcDbEntity
  8
0
  6
Continuous
 62
     7
370
    15
100
AcDbLine
 10
150.6251283702
 20
121.7575004093
 30
0.0
 11
152.625128698
 21
121.7575004093
 31
0.0
  0
LINE
  5
267
330
1F
100
AcDbEntity
  8
0
  6
Continuous
 62
     7
370
    15
100
AcDbLine
 10
153.6251307246
 20
152.9697734631
 30
0.0
 11
153.6251307246
 21
149.5252378053
 31
0.0
  0
LINE
  5
268
330
1F
100
AcDbEntity
  8
0
  6
Continuous
 62
     7
370
    15
100
AcDbLine
 10
152.625128698
 20
149.6572592995
 30
0.0
 11
152.625128698
 21
153.9629265434
 31
0.0
  0
ARC
  5
269
330
1F
100
AcDbEntity
  8
0
  6
Continuous
 62
     7
370
    15
100
AcDbCircle
 10
152.6285400411
 20
152.9663357694
 30
0.0
 40
0.9965966125639918
100
AcDbArc
 50
0.1976383709
 51
90.1961234255
  0
LINE
  5
26A
330
1F
100
AcDbEntity
  8
0
  6
Continuous
 62
     7
370
    15
100
AcDbLine
 10
152.625128698
 20
117.4518331654
 30
0.0
 11
152.625128698
 21
121.7575004093
 31
0.0
  0
LINE
  5
26B
330
1F
100
AcDbEntity
  8
0
  6
Continuous
 62
     7
370
    15
100
AcDbLine
 10
153.6251307246
 20
121.8895209721
 30
0.0
 11
153.6251307246
 21
118.4449862457
 31
0.0
  0
ARC
  5
26C
330
1F
100
AcDbEntity
  8
0
  6
Continuous
 62
     7
370
    15
100
AcDbCircle
 10
152.6285400411
 20
118.4484239394
 30
0.0
 40
0.9965966125639634
100
AcDbArc
 50
269.8038765745
 51
359.8023616291
  0
LINE
  5
26D
330
1F
100
AcDbEntity
  8
0
  6
Continuous
 62
     7
370
    15
100
AcDbLine
 10
152.625128698
 20
117.4518331654
 30
0.0
 11
150.6251283702
 21
117.4518331654
 31
0.0
  0
LINE
  5
26E
330
1F
100
AcDbEntity
  8
0
  6
Continuous
 62
     7
370
    15
100
AcDbLine
 10
150.6251283702
 20
117.4518331654
 30
0.0
 11
150.6251283702
 21
121.7575004093
 31
0.0
  0
LINE
  5
26F
330
1F
100
AcDbEntity
  8
0
  6
Continuous
 62
     7
370
    15
100
AcDbLine
 10
150.6251283702
 20
153.9629265434
 30
0.0
 11
152.625128698
 21
153.9629265434
 31
0.0
  0
LINE
  5
270
330
1F
100
AcDbEntity
  8
0
  6
Continuous
 62
     7
370
    15
100
AcDbLine
 10
150.6251283702
 20
149.6572592995
 30
0.0
 11
150.6251283702
 21
153.9629265434
 31
0.0
  0
LINE
  5
271
330
1F
100
AcDbEntity
  8
0
  6
Continuous
 62
     7
370
    15
100
AcDbLine
 10
153.6251307246
 20
118.4449862457
 30
0.0
 11
153.6251307246
 21
117.7073787666
 31
0.0
  0
LINE
  5
272
330
1F
100
AcDbEntity
  8
0
  6
Continuous
 62
     7
370
    15
100
AcDbLine
 10
150.6251283702
 20
116.7073804653
 30
0.0
 11
150.6251283702
 21
117.4518331654
 31
0.0
  0
LINE
  5
273
330
1F
100
AcDbEntity
  8
0
  6
Continuous
 62
     7
370
    15
100
AcDbLine
 10
153.6251307246
 20
153.7073790795
 30
0.0
 11
153.6251307246
 21
152.9697734631
 31
0.0
  0
LINE
  5
274
330
1F
100
AcDbEntity
  8
0
  6
Continuous
 62
     8
370
    15
100
AcDbLine
 10
150.0251293894
 20
154.7087333865
 30
0.0
 11
150.0251293894
 21
153.9628613508
 31
0.0
  0
LINE
  5
275
330
1F
100
AcDbEntity
  8
0
  6
Continuous
 62
     8
370
    15
100
AcDbLine
 10
150.0251293894
 20
117.4517679728
 30
0.0
 11
150.0251293894
 21
116.7087308831
 31
0.0
  0
LINE
  5
276
330
1F
100
AcDbEntity
  8
0
  6
Continuous
 62
     8
370
    15
100
AcDbLine
 10
148.9901319858
 20
127.8589345283
 30
0.0
 11
148.9901319858
 21
126.3589342824
 31
0.0
  0
LINE
  5
277
330
1F
100
AcDbEntity
  8
0
  6
Continuous
 62
     8
370
    15
100
AcDbLine
 10
148.9901319858
 20
130.3718346871
 30
0.0
 11
148.9901319858
 21
128.8718349069
 31
0.0
  0
LINE
  5
278
330
1F
100
AcDbEntity
  8
0
  6
Continuous
 62
     8
370
    15
100
AcDbLine
 10
148.9901319858
 20
126.3589342824
 30
0.0
 11
148.9901319858
 21
126.3517984889
 31
0.0
  0
LINE
  5
279
330
1F
100
AcDbEntity
  8
0
  6
Continuous
 62
     8
370
    15
100
AcDbLine
 10
148.9901319858
 20
130.3988514236
 30
0.0
 11
148.9901319858
 21
130.3718346871
 31
0.0
  0
LINE
  5
27A
330
1F
100
AcDbEntity
  8
0
  6
Continuous
 62
     8
370
    15
100
AcDbLine
 10
148.6251317677
 20
133.2148035989
 30
0.0
 11
149.0152851459
 21
133.2148035989
 31
0.0
  0
LINE
  5
27B
330
1F
100
AcDbEntity
  8
0
  6
Continuous
 62
     8
370
    15
100
AcDbLine
 10
148.6251317677
 20
145.9343522555
 30
0.0
 11
149.0152851459
 21
145.9343522555
 31
0.0
  0
LINE
  5
27C
330
1F
100
AcDbEntity
  8
0
  6
Continuous
 62
     8
370
    15
100
AcDbLine
 10
152.625128698
 20
116.7073804653
 30
0.0
 11
152.625128698
 21
117.4518331654
 31
0.0
  0
LINE
  5
27D
330
1F
100
AcDbEntity
  8
0
  6
Continuous
 62
     8
370
    15
100
AcDbLine
 10
152.625128698
 20
153.9629265434
 30
0.0
 11
152.625128698
 21
154.7073792434
 31
0.0
  0
ENDSEC
  0
SECTION
  2
OBJECTS
  0
DICTIONARY
  5
C
330
0
100
AcDbDictionary
281
     1
  3
ACAD_GROUP
350
D
  3
ACAD_LAYOUT
350
1A
  3
ACAD_MLINESTYLE
350
17
  3
ACAD_PLOTSETTINGS
350
19
  3
ACAD_PLOTSTYLENAME
350
E
  3
ACAD_SCALELIST
350
47
  0
DICTIONARY
  5
D
102
{ACAD_REACTORS
330
C
102
}
330
C
100
AcDbDictionary
281
     1
  0
DICTIONARY
  5
1A
102
{ACAD_REACTORS
330
C
102
}
330
C
100
AcDbDictionary
281
     1
  3
Layout1
350
1E
  3
Layout2
350
26
  3
Model
350
22
  0
DICTIONARY
  5
17
102
{ACAD_REACTORS
330
C
102
}
330
C
100
AcDbDictionary
281
     1
  3
Standard
350
18
  0
DICTIONARY
  5
19
102
{ACAD_REACTORS
330
C
102
}
330
C
100
AcDbDictionary
281
     1
  0
ACDBDICTIONARYWDFLT
  5
E
102
{ACAD_REACTORS
330
C
102
}
330
C
100
AcDbDictionary
281
     1
  3
Normal
350
F
100
AcDbDictionaryWithDefault
340
F
  0
DICTIONARY
  5
47
102
{ACAD_REACTORS
330
C
102
}
330
C
100
AcDbDictionary
281
     1
  3
A0
350
48
  3
A1
350
49
  3
A2
350
4A
  3
A3
350
4B
  3
A4
350
4C
  3
A5
350
4D
  3
A6
350
4E
  3
A7
350
4F
  3
A8
350
50
  3
A9
350
51
  3
B0
350
52
  3
B1
350
53
  3
B2
350
54
  3
B3
350
55
  3
B4
350
56
  3
B5
350
57
  3
B6
350
58
  3
B7
350
59
  3
B8
350
5A
  3
B9
350
5B
  3
C0
350
5C
  3
C1
350
5D
  3
C2
350
5E
  3
C3
350
5F
  3
C4
350
60
  3
C5
350
61
  3
C6
350
62
  3
C7
350
63
  3
C8
350
64
  3
C9
350
65
  3
D0
350
66
  3
D1
350
67
  3
D2
350
68
  0
LAYOUT
  5
1E
102
{ACAD_REACTORS
330
1A
102
}
330
1A
100
AcDbPlotSettings
  1

  2
none_device
  4

  6

 40
0.0
 41
0.0
 42
0.0
 43
0.0
 44
0.0
 45
0.0
 46
0.0
 47
0.0
 48
0.0
 49
0.0
140
0.0
141
0.0
142
1.0
143
1.0
 70
   688
 72
     1
 73
     0
 74
     5
  7

 75
    16
147
1.0
148
0.0
149
0.0
100
AcDbLayout
  1
Layout1
 70
     1
 71
     1
 10
0.0
 20
0.0
 11
420.0
 21
297.0
 12
0.0
 22
0.0
 32
0.0
 14
1.0000000000E+20
 24
1.0000000000E+20
 34
1.0000000000E+20
 15
-1.0000000000E+20
 25
-1.0000000000E+20
 35
-1.0000000000E+20
146
0.0
 13
0.0
 23
0.0
 33
0.0
 16
1.0
 26
0.0
 36
0.0
 17
0.0
 27
1.0
 37
0.0
 76
     0
330
1B
  0
LAYOUT
  5
26
102
{ACAD_REACTORS
330
1A
102
}
330
1A
100
AcDbPlotSettings
  1

  2
none_device
  4

  6

 40
0.0
 41
0.0
 42
0.0
 43
0.0
 44
0.0
 45
0.0
 46
0.0
 47
0.0
 48
0.0
 49
0.0
140
0.0
141
0.0
142
1.0
143
1.0
 70
   688
 72
     1
 73
     0
 74
     5
  7

 75
    16
147
1.0
148
0.0
149
0.0
100
AcDbLayout
  1
Layout2
 70
     1
 71
     2
 10
0.0
 20
0.0
 11
0.0
 21
0.0
 12
0.0
 22
0.0
 32
0.0
 14
0.0
 24
0.0
 34
0.0
 15
0.0
 25
0.0
 35
0.0
146
0.0
 13
0.0
 23
0.0
 33
0.0
 16
1.0
 26
0.0
 36
0.0
 17
0.0
 27
1.0
 37
0.0
 76
     0
330
23
  0
LAYOUT
  5
22
102
{ACAD_REACTORS
330
1A
102
}
330
1A
100
AcDbPlotSettings
  1

  2
none_device
  4
Letter_(8.50_x_11.00_Inches)
  6

 40
6.35
 41
6.35
 42
6.35000508
 43
6.35000508
 44
215.9
 45
279.4
 46
0.0
 47
0.0
 48
0.0
 49
0.0
140
0.0
141
0.0
142
1.0
143
1.0
 70
  1712
 72
     1
 73
     0
 74
     0
  7

 75
     0
147
1.0
148
0.0
149
0.0
100
AcDbLayout
  1
Model
 70
     1
 71
     0
 10
0.0
 20
0.0
 11
279.4
 21
215.9
 12
0.0
 22
0.0
 32
0.0
 14
0.0
 24
0.0
 34
0.0
 15
279.4
 25
215.9
 35
0.0
146
0.0
 13
0.0
 23
0.0
 33
0.0
 16
1.0
 26
0.0
 36
0.0
 17
0.0
 27
1.0
 37
0.0
 76
     0
330
1F
331
29
  0
MLINESTYLE
  5
18
102
{ACAD_REACTORS
330
17
102
}
330
17
100
AcDbMlineStyle
  2
Standard
 70
     0
  3

 62
   256
 51
90.0
 52
90.0
 71
     2
 49
0.5
 62
   256
  6
BYLAYER
 49
-0.5
 62
   256
  6
BYLAYER
  0
ACDBPLACEHOLDER
  5
F
102
{ACAD_REACTORS
330
E
102
}
330
E
  0
SCALE
  5
48
102
{ACAD_REACTORS
330
47
102
}
330
47
100
AcDbScale
 70
     0
300
1:1
140
1.0
141
1.0
290
     1
  0
SCALE
  5
49
102
{ACAD_REACTORS
330
47
102
}
330
47
100
AcDbScale
 70
     0
300
1:2
140
1.0
141
2.0
290
     0
  0
SCALE
  5
4A
102
{ACAD_REACTORS
330
47
102
}
330
47
100
AcDbScale
 70
     0
300
1:4
140
1.0
141
4.0
290
     0
  0
SCALE
  5
4B
102
{ACAD_REACTORS
330
47
102
}
330
47
100
AcDbScale
 70
     0
300
1:5
140
1.0
141
5.0
290
     0
  0
SCALE
  5
4C
102
{ACAD_REACTORS
330
47
102
}
330
47
100
AcDbScale
 70
     0
300
1:8
140
1.0
141
8.0
290
     0
  0
SCALE
  5
4D
102
{ACAD_REACTORS
330
47
102
}
330
47
100
AcDbScale
 70
     0
300
1:10
140
1.0
141
10.0
290
     0
  0
SCALE
  5
4E
102
{ACAD_REACTORS
330
47
102
}
330
47
100
AcDbScale
 70
     0
300
1:16
140
1.0
141
16.0
290
     0
  0
SCALE
  5
4F
102
{ACAD_REACTORS
330
47
102
}
330
47
100
AcDbScale
 70
     0
300
1:20
140
1.0
141
20.0
290
     0
  0
SCALE
  5
50
102
{ACAD_REACTORS
330
47
102
}
330
47
100
AcDbScale
 70
     0
300
1:30
140
1.0
141
30.0
290
     0
  0
SCALE
  5
51
102
{ACAD_REACTORS
330
47
102
}
330
47
100
AcDbScale
 70
     0
300
1:40
140
1.0
141
40.0
290
     0
  0
SCALE
  5
52
102
{ACAD_REACTORS
330
47
102
}
330
47
100
AcDbScale
 70
     0
300
1:50
140
1.0
141
50.0
290
     0
  0
SCALE
  5
53
102
{ACAD_REACTORS
330
47
102
}
330
47
100
AcDbScale
 70
     0
300
1:100
140
1.0
141
100.0
290
     0
  0
SCALE
  5
54
102
{ACAD_REACTORS
330
47
102
}
330
47
100
AcDbScale
 70
     0
300
2:1
140
2.0
141
1.0
290
     0
  0
SCALE
  5
55
102
{ACAD_REACTORS
330
47
102
}
330
47
100
AcDbScale
 70
     0
300
4:1
140
4.0
141
1.0
290
     0
  0
SCALE
  5
56
102
{ACAD_REACTORS
330
47
102
}
330
47
100
AcDbScale
 70
     0
300
8:1
140
8.0
141
1.0
290
     0
  0
SCALE
  5
57
102
{ACAD_REACTORS
330
47
102
}
330
47
100
AcDbScale
 70
     0
300
10:1
140
10.0
141
1.0
290
     0
  0
SCALE
  5
58
102
{ACAD_REACTORS
330
47
102
}
330
47
100
AcDbScale
 70
     0
300
100:1
140
100.0
141
1.0
290
     0
  0
SCALE
  5
59
102
{ACAD_REACTORS
330
47
102
}
330
47
100
AcDbScale
 70
     0
300
1/128" = 1'-0"
140
0.0078125
141
12.0
290
     0
  0
SCALE
  5
5A
102
{ACAD_REACTORS
330
47
102
}
330
47
100
AcDbScale
 70
     0
300
1/64" = 1'-0"
140
0.015625
141
12.0
290
     0
  0
SCALE
  5
5B
102
{ACAD_REACTORS
330
47
102
}
330
47
100
AcDbScale
 70
     0
300
1/32" = 1'-0"
140
0.03125
141
12.0
290
     0
  0
SCALE
  5
5C
102
{ACAD_REACTORS
330
47
102
}
330
47
100
AcDbScale
 70
     0
300
1/16" = 1'-0"
140
0.0625
141
12.0
290
     0
  0
SCALE
  5
5D
102
{ACAD_REACTORS
330
47
102
}
330
47
100
AcDbScale
 70
     0
300
3/32" = 1'-0"
140
0.09375
141
12.0
290
     0
  0
SCALE
  5
5E
102
{ACAD_REACTORS
330
47
102
}
330
47
100
AcDbScale
 70
     0
300
1/8" = 1'-0"
140
0.125
141
12.0
290
     0
  0
SCALE
  5
5F
102
{ACAD_REACTORS
330
47
102
}
330
47
100
AcDbScale
 70
     0
300
3/16" = 1'-0"
140
0.1875
141
12.0
290
     0
  0
SCALE
  5
60
102
{ACAD_REACTORS
330
47
102
}
330
47
100
AcDbScale
 70
     0
300
1/4" = 1'-0"
140
0.25
141
12.0
290
     0
  0
SCALE
  5
61
102
{ACAD_REACTORS
330
47
102
}
330
47
100
AcDbScale
 70
     0
300
3/8" = 1'-0"
140
0.375
141
12.0
290
     0
  0
SCALE
  5
62
102
{ACAD_REACTORS
330
47
102
}
330
47
100
AcDbScale
 70
     0
300
1/2" = 1'-0"
140
0.5
141
12.0
290
     0
  0
SCALE
  5
63
102
{ACAD_REACTORS
330
47
102
}
330
47
100
AcDbScale
 70
     0
300
3/4" = 1'-0"
140
0.75
141
12.0
290
     0
  0
SCALE
  5
64
102
{ACAD_REACTORS
330
47
102
}
330
47
100
AcDbScale
 70
     0
300
1" = 1'-0"
140
1.0
141
12.0
290
     0
  0
SCALE
  5
65
102
{ACAD_REACTORS
330
47
102
}
330
47
100
AcDbScale
 70
     0
300
1-1/2" = 1'-0"
140
1.5
141
12.0
290
     0
  0
SCALE
  5
66
102
{ACAD_REACTORS
330
47
102
}
330
47
100
AcDbScale
 70
     0
300
3" = 1'-0"
140
3.0
141
12.0
290
     0
  0
SCALE
  5
67
102
{ACAD_REACTORS
330
47
102
}
330
47
100
AcDbScale
 70
     0
300
6" = 1'-0"
140
6.0
141
12.0
290
     0
  0
SCALE
  5
68
102
{ACAD_REACTORS
330
47
102
}
330
47
100
AcDbScale
 70
     0
300
1'-0" = 1'-0"
140
12.0
141
12.0
290
     0
  0
ENDSEC
  0
EOF
